<svg xmlns="http://www.w3.org/2000/svg" xmlns:xlink="http://www.w3.org/1999/xlink" x="0" y="0" width="662" height="312" style="
        width:662px;
        height:312px;
        background: #FFF;
        fill: none;
">
        <svg xmlns="http://www.w3.org/2000/svg"/>
        
        <svg xmlns="http://www.w3.org/2000/svg" class="role-diagram-draw-area"><g class="shapes-region" style="stroke: black; fill: none;"><g class="composite-shape" data-amt="diagram/shapes/plot" transform="matrix(1,0,0,1,20,10)"><g><g><g class="test-xgi"><line x1="45.67993164062501" y1="0" x2="45.67993164062501" y2="270" fill="none" stroke="#c3c3c3" stroke-width="0.5"/><line x1="114.336181640625" y1="0" x2="114.336181640625" y2="270" fill="none" stroke="#c3c3c3" stroke-width="0.5"/><line x1="182.992431640625" y1="0" x2="182.992431640625" y2="270" fill="none" stroke="#c3c3c3" stroke-width="0.5"/><line x1="251.648681640625" y1="0" x2="251.648681640625" y2="270" fill="none" stroke="#c3c3c3" stroke-width="0.5"/><line x1="320.304931640625" y1="0" x2="320.304931640625" y2="270" fill="none" stroke="#c3c3c3" stroke-width="0.5"/><line x1="388.961181640625" y1="0" x2="388.961181640625" y2="270" fill="none" stroke="#c3c3c3" stroke-width="0.5"/><line x1="457.617431640625" y1="0" x2="457.617431640625" y2="270" fill="none" stroke="#c3c3c3" stroke-width="0.5"/><line x1="526.273681640625" y1="0" x2="526.273681640625" y2="270" fill="none" stroke="#c3c3c3" stroke-width="0.5"/><line x1="594.929931640625" y1="0" x2="594.929931640625" y2="270" fill="none" stroke="#c3c3c3" stroke-width="0.5"/></g><g class="test-ygi"><line x1="0" y1="255.77605233962822" x2="620" y2="255.77605233962822" fill="none" stroke="#c3c3c3" stroke-width="0.5"/><line x1="0" y1="197.09747854788657" x2="620" y2="197.09747854788657" fill="none" stroke="#c3c3c3" stroke-width="0.5"/><line x1="0" y1="138.41890475614488" x2="620" y2="138.41890475614488" fill="none" stroke="#c3c3c3" stroke-width="0.5"/><line x1="0" y1="79.74033096440323" x2="620" y2="79.74033096440323" fill="none" stroke="#c3c3c3" stroke-width="0.5"/><line x1="0" y1="21.061757172661572" x2="620" y2="21.061757172661572" fill="none" stroke="#c3c3c3" stroke-width="0.5"/></g></g><g><g class="test-xti" style="font-family: Asana-Math, Asana;"><line x1="0" y1="255.77605233962822" x2="616" y2="255.77605233962822" fill="none" stroke="rgb(50,50,50)" stroke-opacity="1" stroke-width="1"/><line x1="45.67993164062501" y1="251.77605233962822" x2="45.67993164062501" y2="259.7760523396282" fill="none" stroke="rgb(50,50,50)" stroke-opacity="1" stroke-width="1"/><line x1="114.336181640625" y1="251.77605233962822" x2="114.336181640625" y2="259.7760523396282" fill="none" stroke="rgb(50,50,50)" stroke-opacity="1" stroke-width="1"/><line x1="182.992431640625" y1="251.77605233962822" x2="182.992431640625" y2="259.7760523396282" fill="none" stroke="rgb(50,50,50)" stroke-opacity="1" stroke-width="1"/><line x1="251.648681640625" y1="251.77605233962822" x2="251.648681640625" y2="259.7760523396282" fill="none" stroke="rgb(50,50,50)" stroke-opacity="1" stroke-width="1"/><line x1="388.961181640625" y1="251.77605233962822" x2="388.961181640625" y2="259.7760523396282" fill="none" stroke="rgb(50,50,50)" stroke-opacity="1" stroke-width="1"/><line x1="457.617431640625" y1="251.77605233962822" x2="457.617431640625" y2="259.7760523396282" fill="none" stroke="rgb(50,50,50)" stroke-opacity="1" stroke-width="1"/><line x1="526.273681640625" y1="251.77605233962822" x2="526.273681640625" y2="259.7760523396282" fill="none" stroke="rgb(50,50,50)" stroke-opacity="1" stroke-width="1"/><line x1="594.929931640625" y1="251.77605233962822" x2="594.929931640625" y2="259.7760523396282" fill="none" stroke="rgb(50,50,50)" stroke-opacity="1" stroke-width="1"/><path d="M611,252.17605233962823 L619,255.77605233962822 L611,259.37605233962825 Z" stroke="none" stroke-width="1" fill="rgb(50,50,50)" fill-opacity="1"/></g><g class="test-yti" style="font-family: Asana-Math, Asana;"><line x1="320.304931640625" y1="4" x2="320.304931640625" y2="270" fill="none" stroke="rgb(50,50,50)" stroke-opacity="1" stroke-width="1"/><line x1="316.304931640625" y1="197.09747854788657" x2="324.304931640625" y2="197.09747854788657" fill="none" stroke="rgb(50,50,50)" stroke-opacity="1" stroke-width="1"/><line x1="316.304931640625" y1="138.41890475614488" x2="324.304931640625" y2="138.41890475614488" fill="none" stroke="rgb(50,50,50)" stroke-opacity="1" stroke-width="1"/><line x1="316.304931640625" y1="79.74033096440323" x2="324.304931640625" y2="79.74033096440323" fill="none" stroke="rgb(50,50,50)" stroke-opacity="1" stroke-width="1"/><line x1="316.304931640625" y1="21.061757172661572" x2="324.304931640625" y2="21.061757172661572" fill="none" stroke="rgb(50,50,50)" stroke-opacity="1" stroke-width="1"/><path d="M316.704931640625,9 L320.304931640625,1 L323.904931640625,9 Z" stroke="none" stroke-width="1" fill="rgb(50,50,50)" fill-opacity="1"/></g><g class="test-plot-expression"><defs><clipPath id="cpx3cw77a6o"><rect x="1" y="1" width="618" height="268"/></clipPath></defs><g clip-path="url(#cpx3cw77a6o)"><path d=" M0.00,255.76 L0.56,255.75 L1.13,255.75 L1.69,255.75 L2.26,255.75 L2.82,255.75 L3.38,255.75 L3.95,255.75 L4.51,255.75 L5.08,255.75 L5.64,255.75 L6.21,255.75 L6.77,255.75 L7.33,255.75 L7.90,255.75 L8.46,255.75 L9.03,255.75 L9.59,255.75 L10.15,255.75 L10.72,255.75 L11.28,255.75 L11.85,255.75 L12.41,255.75 L12.98,255.75 L13.54,255.75 L14.10,255.74 L14.67,255.74 L15.23,255.74 L15.80,255.74 L16.36,255.74 L16.92,255.74 L17.49,255.74 L18.05,255.74 L18.62,255.74 L19.18,255.74 L19.75,255.74 L20.31,255.74 L20.87,255.74 L21.44,255.74 L22.00,255.74 L22.57,255.74 L23.13,255.74 L23.69,255.73 L24.26,255.73 L24.82,255.73 L25.39,255.73 L25.95,255.73 L26.52,255.73 L27.08,255.73 L27.64,255.73 L28.21,255.73 L28.77,255.73 L29.34,255.73 L29.90,255.73 L30.46,255.73 L31.03,255.72 L31.59,255.72 L32.16,255.72 L32.72,255.72 L33.28,255.72 L33.85,255.72 L34.41,255.72 L34.98,255.72 L35.54,255.72 L36.11,255.72 L36.67,255.72 L37.23,255.71 L37.80,255.71 L38.36,255.71 L38.93,255.71 L39.49,255.71 L40.05,255.71 L40.62,255.71 L41.18,255.71 L41.75,255.71 L42.31,255.70 L42.88,255.70 L43.44,255.70 L44.00,255.70 L44.57,255.70 L45.13,255.70 L45.70,255.70 L46.26,255.70 L46.82,255.69 L47.39,255.69 L47.95,255.69 L48.52,255.69 L49.08,255.69 L49.65,255.69 L50.21,255.69 L50.77,255.68 L51.34,255.68 L51.90,255.68 L52.47,255.68 L53.03,255.68 L53.59,255.68 L54.16,255.68 L54.72,255.67 L55.29,255.67 L55.85,255.67 L56.41,255.67 L56.98,255.67 L57.54,255.66 L58.11,255.66 L58.67,255.66 L59.24,255.66 L59.80,255.66 L60.36,255.66 L60.93,255.65 L61.49,255.65 L62.06,255.65 L62.62,255.65 L63.18,255.65 L63.75,255.64 L64.31,255.64 L64.88,255.64 L65.44,255.64 L66.01,255.63 L66.57,255.63 L67.13,255.63 L67.70,255.63 L68.26,255.62 L68.83,255.62 L69.39,255.62 L69.95,255.62 L70.52,255.61 L71.08,255.61 L71.65,255.61 L72.21,255.61 L72.78,255.60 L73.34,255.60 L73.90,255.60 L74.47,255.59 L75.03,255.59 L75.60,255.59 L76.16,255.58 L76.72,255.58 L77.29,255.58 L77.85,255.58 L78.42,255.57 L78.98,255.57 L79.55,255.57 L80.11,255.56 L80.67,255.56 L81.24,255.55 L81.80,255.55 L82.37,255.55 L82.93,255.54 L83.49,255.54 L84.06,255.54 L84.62,255.53 L85.19,255.53 L85.75,255.52 L86.31,255.52 L86.88,255.51 L87.44,255.51 L88.01,255.51 L88.57,255.50 L89.14,255.50 L89.70,255.49 L90.26,255.49 L90.83,255.48 L91.39,255.48 L91.96,255.47 L92.52,255.47 L93.08,255.46 L93.65,255.46 L94.21,255.45 L94.78,255.45 L95.34,255.44 L95.91,255.44 L96.47,255.43 L97.03,255.43 L97.60,255.42 L98.16,255.41 L98.73,255.41 L99.29,255.40 L99.85,255.40 L100.42,255.39 L100.98,255.38 L101.55,255.38 L102.11,255.37 L102.68,255.36 L103.24,255.36 L103.80,255.35 L104.37,255.34 L104.93,255.33 L105.50,255.33 L106.06,255.32 L106.62,255.31 L107.19,255.30 L107.75,255.30 L108.32,255.29 L108.88,255.28 L109.44,255.27 L110.01,255.26 L110.57,255.26 L111.14,255.25 L111.70,255.24 L112.27,255.23 L112.83,255.22 L113.39,255.21 L113.96,255.20 L114.52,255.19 L115.09,255.18 L115.65,255.17 L116.21,255.16 L116.78,255.15 L117.34,255.14 L117.91,255.13 L118.47,255.12 L119.04,255.11 L119.60,255.10 L120.16,255.09 L120.73,255.08 L121.29,255.07 L121.86,255.05 L122.42,255.04 L122.98,255.03 L123.55,255.02 L124.11,255.01 L124.68,254.99 L125.24,254.98 L125.81,254.97 L126.37,254.95 L126.93,254.94 L127.50,254.93 L128.06,254.91 L128.63,254.90 L129.19,254.88 L129.75,254.87 L130.32,254.85 L130.88,254.84 L131.45,254.82 L132.01,254.81 L132.58,254.79 L133.14,254.77 L133.70,254.76 L134.27,254.74 L134.83,254.72 L135.40,254.71 L135.96,254.69 L136.52,254.67 L137.09,254.65 L137.65,254.63 L138.22,254.62 L138.78,254.60 L139.34,254.58 L139.91,254.56 L140.47,254.54 L141.04,254.52 L141.60,254.50 L142.17,254.47 L142.73,254.45 L143.29,254.43 L143.86,254.41 L144.42,254.39 L144.99,254.36 L145.55,254.34 L146.11,254.32 L146.68,254.29 L147.24,254.27 L147.81,254.24 L148.37,254.22 L148.94,254.19 L149.50,254.17 L150.06,254.14 L150.63,254.11 L151.19,254.09 L151.76,254.06 L152.32,254.03 L152.88,254.00 L153.45,253.97 L154.01,253.94 L154.58,253.91 L155.14,253.88 L155.71,253.85 L156.27,253.82 L156.83,253.79 L157.40,253.75 L157.96,253.72 L158.53,253.69 L159.09,253.65 L159.65,253.62 L160.22,253.58 L160.78,253.55 L161.35,253.51 L161.91,253.47 L162.47,253.43 L163.04,253.40 L163.60,253.36 L164.17,253.32 L164.73,253.28 L165.30,253.24 L165.86,253.19 L166.42,253.15 L166.99,253.11 L167.55,253.07 L168.12,253.02 L168.68,252.98 L169.24,252.93 L169.81,252.88 L170.37,252.84 L170.94,252.79 L171.50,252.74 L172.07,252.69 L172.63,252.64 L173.19,252.59 L173.76,252.54 L174.32,252.48 L174.89,252.43 L175.45,252.38 L176.01,252.32 L176.58,252.26 L177.14,252.21 L177.71,252.15 L178.27,252.09 L178.84,252.03 L179.40,251.97 L179.96,251.91 L180.53,251.84 L181.09,251.78 L181.66,251.71 L182.22,251.65 L182.78,251.58 L183.35,251.51 L183.91,251.44 L184.48,251.37 L185.04,251.30 L185.61,251.23 L186.17,251.15 L186.73,251.08 L187.30,251.00 L187.86,250.92 L188.43,250.85 L188.99,250.77 L189.55,250.68 L190.12,250.60 L190.68,250.52 L191.25,250.43 L191.81,250.35 L192.37,250.26 L192.94,250.17 L193.50,250.08 L194.07,249.99 L194.63,249.89 L195.20,249.80 L195.76,249.70 L196.32,249.60 L196.89,249.50 L197.45,249.40 L198.02,249.30 L198.58,249.20 L199.14,249.09 L199.71,248.98 L200.27,248.87 L200.84,248.76 L201.40,248.65 L201.97,248.54 L202.53,248.42 L203.09,248.30 L203.66,248.18 L204.22,248.06 L204.79,247.94 L205.35,247.81 L205.91,247.68 L206.48,247.55 L207.04,247.42 L207.61,247.29 L208.17,247.15 L208.74,247.02 L209.30,246.88 L209.86,246.73 L210.43,246.59 L210.99,246.44 L211.56,246.30 L212.12,246.15 L212.68,245.99 L213.25,245.84 L213.81,245.68 L214.38,245.52 L214.94,245.36 L215.51,245.19 L216.07,245.02 L216.63,244.85 L217.20,244.68 L217.76,244.51 L218.33,244.33 L218.89,244.15 L219.45,243.97 L220.02,243.78 L220.58,243.59 L221.15,243.40 L221.71,243.21 L222.27,243.01 L222.84,242.81 L223.40,242.61 L223.97,242.40 L224.53,242.19 L225.10,241.98 L225.66,241.77 L226.22,241.55 L226.79,241.33 L227.35,241.10 L227.92,240.87 L228.48,240.64 L229.04,240.41 L229.61,240.17 L230.17,239.93 L230.74,239.69 L231.30,239.44 L231.87,239.19 L232.43,238.93 L232.99,238.67 L233.56,238.41 L234.12,238.14 L234.69,237.87 L235.25,237.60 L235.81,237.32 L236.38,237.04 L236.94,236.76 L237.51,236.47 L238.07,236.17 L238.64,235.88 L239.20,235.58 L239.76,235.27 L240.33,234.96 L240.89,234.65 L241.46,234.33 L242.02,234.01 L242.58,233.68 L243.15,233.35 L243.71,233.01 L244.28,232.67 L244.84,232.33 L245.40,231.98 L245.97,231.62 L246.53,231.27 L247.10,230.90 L247.66,230.54 L248.23,230.16 L248.79,229.79 L249.35,229.40 L249.92,229.02 L250.48,228.62 L251.05,228.23 L251.61,227.82 L252.17,227.42 L252.74,227.01 L253.30,226.59 L253.87,226.17 L254.43,225.74 L255.00,225.30 L255.56,224.87 L256.12,224.42 L256.69,223.97 L257.25,223.52 L257.82,223.06 L258.38,222.59 L258.94,222.12 L259.51,221.65 L260.07,221.16 L260.64,220.68 L261.20,220.18 L261.77,219.68 L262.33,219.18 L262.89,218.67 L263.46,218.15 L264.02,217.63 L264.59,217.10 L265.15,216.57 L265.71,216.03 L266.28,215.48 L266.84,214.93 L267.41,214.37 L267.97,213.81 L268.54,213.24 L269.10,212.67 L269.66,212.08 L270.23,211.50 L270.79,210.90 L271.36,210.30 L271.92,209.70 L272.48,209.09 L273.05,208.47 L273.61,207.84 L274.18,207.22 L274.74,206.58 L275.30,205.94 L275.87,205.29 L276.43,204.63 L277.00,203.97 L277.56,203.31 L278.13,202.64 L278.69,201.96 L279.25,201.27 L279.82,200.58 L280.38,199.88 L280.95,199.18 L281.51,198.47 L282.07,197.76 L282.64,197.04 L283.20,196.31 L283.77,195.58 L284.33,194.84 L284.90,194.09 L285.46,193.34 L286.02,192.59 L286.59,191.83 L287.15,191.06 L287.72,190.29 L288.28,189.51 L288.84,188.72 L289.41,187.93 L289.97,187.14 L290.54,186.34 L291.10,185.53 L291.67,184.72 L292.23,183.90 L292.79,183.08 L293.36,182.25 L293.92,181.42 L294.49,180.58 L295.05,179.74 L295.61,178.89 L296.18,178.04 L296.74,177.19 L297.31,176.32 L297.87,175.46 L298.43,174.59 L299.00,173.71 L299.56,172.83 L300.13,171.95 L300.69,171.06 L301.26,170.17 L301.82,169.27 L302.38,168.37 L302.95,167.47 L303.51,166.56 L304.08,165.65 L304.64,164.74 L305.20,163.82 L305.77,162.90 L306.33,161.98 L306.90,161.05 L307.46,160.12 L308.03,159.19 L308.59,158.25 L309.15,157.31 L309.72,156.37 L310.28,155.43 L310.85,154.49 L311.41,153.54 L311.97,152.59 L312.54,151.64 L313.10,150.68 L313.67,149.73 L314.23,148.77 L314.80,147.82 L315.36,146.86 L315.92,145.90 L316.49,144.94 L317.05,143.98 L317.62,143.01 L318.18,142.05 L318.74,141.09 L319.31,140.12 L319.87,139.16 L320.44,138.19 L321.00,137.23 L321.57,136.27 L322.13,135.30 L322.69,134.34 L323.26,133.38 L323.82,132.41 L324.39,131.45 L324.95,130.49 L325.51,129.53 L326.08,128.57 L326.64,127.62 L327.21,126.66 L327.77,125.71 L328.33,124.76 L328.90,123.80 L329.46,122.86 L330.03,121.91 L330.59,120.97 L331.16,120.02 L331.72,119.08 L332.28,118.15 L332.85,117.21 L333.41,116.28 L333.98,115.35 L334.54,114.43 L335.10,113.51 L335.67,112.59 L336.23,111.67 L336.80,110.76 L337.36,109.85 L337.93,108.94 L338.49,108.04 L339.05,107.14 L339.62,106.25 L340.18,105.36 L340.75,104.47 L341.31,103.59 L341.87,102.72 L342.44,101.84 L343.00,100.97 L343.57,100.11 L344.13,99.25 L344.70,98.40 L345.26,97.55 L345.82,96.70 L346.39,95.86 L346.95,95.03 L347.52,94.20 L348.08,93.37 L348.64,92.55 L349.21,91.74 L349.77,90.93 L350.34,90.13 L350.90,89.33 L351.46,88.53 L352.03,87.75 L352.59,86.97 L353.16,86.19 L353.72,85.42 L354.29,84.65 L354.85,83.90 L355.41,83.14 L355.98,82.39 L356.54,81.65 L357.11,80.92 L357.67,80.19 L358.23,79.46 L358.80,78.75 L359.36,78.03 L359.93,77.33 L360.49,76.63 L361.06,75.93 L361.62,75.25 L362.18,74.56 L362.75,73.89 L363.31,73.22 L363.88,72.55 L364.44,71.90 L365.00,71.25 L365.57,70.60 L366.13,69.96 L366.70,69.33 L367.26,68.70 L367.83,68.08 L368.39,67.46 L368.95,66.86 L369.52,66.25 L370.08,65.66 L370.65,65.07 L371.21,64.48 L371.77,63.90 L372.34,63.33 L372.90,62.76 L373.47,62.20 L374.03,61.65 L374.60,61.10 L375.16,60.56 L375.72,60.02 L376.29,59.49 L376.85,58.96 L377.42,58.44 L377.98,57.93 L378.54,57.42 L379.11,56.92 L379.67,56.42 L380.24,55.93 L380.80,55.45 L381.36,54.97 L381.93,54.50 L382.49,54.03 L383.06,53.56 L383.62,53.11 L384.19,52.65 L384.75,52.21 L385.31,51.77 L385.88,51.33 L386.44,50.90 L387.01,50.47 L387.57,50.05 L388.13,49.64 L388.70,49.23 L389.26,48.82 L389.83,48.42 L390.39,48.03 L390.96,47.64 L391.52,47.26 L392.08,46.88 L392.65,46.50 L393.21,46.13 L393.78,45.76 L394.34,45.40 L394.90,45.05 L395.47,44.70 L396.03,44.35 L396.60,44.01 L397.16,43.67 L397.73,43.33 L398.29,43.01 L398.85,42.68 L399.42,42.36 L399.98,42.04 L400.55,41.73 L401.11,41.42 L401.67,41.12 L402.24,40.82 L402.80,40.53 L403.37,40.23 L403.93,39.95 L404.49,39.66 L405.06,39.38 L405.62,39.11 L406.19,38.84 L406.75,38.57 L407.32,38.30 L407.88,38.04 L408.44,37.79 L409.01,37.53 L409.57,37.28 L410.14,37.04 L410.70,36.79 L411.26,36.55 L411.83,36.32 L412.39,36.09 L412.96,35.86 L413.52,35.63 L414.09,35.41 L414.65,35.19 L415.21,34.97 L415.78,34.76 L416.34,34.55 L416.91,34.34 L417.47,34.13 L418.03,33.93 L418.60,33.74 L419.16,33.54 L419.73,33.35 L420.29,33.16 L420.86,32.97 L421.42,32.79 L421.98,32.60 L422.55,32.42 L423.11,32.25 L423.68,32.07 L424.24,31.90 L424.80,31.73 L425.37,31.57 L425.93,31.40 L426.50,31.24 L427.06,31.08 L427.63,30.93 L428.19,30.77 L428.75,30.62 L429.32,30.47 L429.88,30.33 L430.45,30.18 L431.01,30.04 L431.57,29.90 L432.14,29.76 L432.70,29.62 L433.27,29.49 L433.83,29.35 L434.39,29.22 L434.96,29.10 L435.52,28.97 L436.09,28.84 L436.65,28.72 L437.22,28.60 L437.78,28.48 L438.34,28.36 L438.91,28.25 L439.47,28.14 L440.04,28.02 L440.60,27.91 L441.16,27.80 L441.73,27.70 L442.29,27.59 L442.86,27.49 L443.42,27.39 L443.99,27.29 L444.55,27.19 L445.11,27.09 L445.68,27.00 L446.24,26.90 L446.81,26.81 L447.37,26.72 L447.93,26.63 L448.50,26.54 L449.06,26.45 L449.63,26.36 L450.19,26.28 L450.76,26.20 L451.32,26.12 L451.88,26.03 L452.45,25.96 L453.01,25.88 L453.58,25.80 L454.14,25.72 L454.70,25.65 L455.27,25.58 L455.83,25.50 L456.40,25.43 L456.96,25.36 L457.53,25.29 L458.09,25.23 L458.65,25.16 L459.22,25.09 L459.78,25.03 L460.35,24.97 L460.91,24.90 L461.47,24.84 L462.04,24.78 L462.60,24.72 L463.17,24.66 L463.73,24.61 L464.29,24.55 L464.86,24.49 L465.42,24.44 L465.99,24.38 L466.55,24.33 L467.12,24.28 L467.68,24.23 L468.24,24.17 L468.81,24.12 L469.37,24.08 L469.94,24.03 L470.50,23.98 L471.06,23.93 L471.63,23.89 L472.19,23.84 L472.76,23.80 L473.32,23.75 L473.89,23.71 L474.45,23.67 L475.01,23.62 L475.58,23.58 L476.14,23.54 L476.71,23.50 L477.27,23.46 L477.83,23.42 L478.40,23.39 L478.96,23.35 L479.53,23.31 L480.09,23.27 L480.66,23.24 L481.22,23.20 L481.78,23.17 L482.35,23.13 L482.91,23.10 L483.48,23.07 L484.04,23.04 L484.60,23.00 L485.17,22.97 L485.73,22.94 L486.30,22.91 L486.86,22.88 L487.42,22.85 L487.99,22.82 L488.55,22.79 L489.12,22.77 L489.68,22.74 L490.25,22.71 L490.81,22.69 L491.37,22.66 L491.94,22.63 L492.50,22.61 L493.07,22.58 L493.63,22.56 L494.19,22.53 L494.76,22.51 L495.32,22.49 L495.89,22.46 L496.45,22.44 L497.02,22.42 L497.58,22.40 L498.14,22.37 L498.71,22.35 L499.27,22.33 L499.84,22.31 L500.40,22.29 L500.96,22.27 L501.53,22.25 L502.09,22.23 L502.66,22.21 L503.22,22.19 L503.79,22.18 L504.35,22.16 L504.91,22.14 L505.48,22.12 L506.04,22.11 L506.61,22.09 L507.17,22.07 L507.73,22.06 L508.30,22.04 L508.86,22.02 L509.43,22.01 L509.99,21.99 L510.56,21.98 L511.12,21.96 L511.68,21.95 L512.25,21.93 L512.81,21.92 L513.38,21.91 L513.94,21.89 L514.50,21.88 L515.07,21.87 L515.63,21.85 L516.20,21.84 L516.76,21.83 L517.32,21.81 L517.89,21.80 L518.45,21.79 L519.02,21.78 L519.58,21.77 L520.15,21.76 L520.71,21.74 L521.27,21.73 L521.84,21.72 L522.40,21.71 L522.97,21.70 L523.53,21.69 L524.09,21.68 L524.66,21.67 L525.22,21.66 L525.79,21.65 L526.35,21.64 L526.92,21.63 L527.48,21.62 L528.04,21.61 L528.61,21.60 L529.17,21.60 L529.74,21.59 L530.30,21.58 L530.86,21.57 L531.43,21.56 L531.99,21.55 L532.56,21.55 L533.12,21.54 L533.69,21.53 L534.25,21.52 L534.81,21.51 L535.38,21.51 L535.94,21.50 L536.51,21.49 L537.07,21.49 L537.63,21.48 L538.20,21.47 L538.76,21.47 L539.33,21.46 L539.89,21.45 L540.45,21.45 L541.02,21.44 L541.58,21.43 L542.15,21.43 L542.71,21.42 L543.28,21.42 L543.84,21.41 L544.40,21.40 L544.97,21.40 L545.53,21.39 L546.10,21.39 L546.66,21.38 L547.22,21.38 L547.79,21.37 L548.35,21.37 L548.92,21.36 L549.48,21.36 L550.05,21.35 L550.61,21.35 L551.17,21.34 L551.74,21.34 L552.30,21.33 L552.87,21.33 L553.43,21.33 L553.99,21.32 L554.56,21.32 L555.12,21.31 L555.69,21.31 L556.25,21.30 L556.82,21.30 L557.38,21.30 L557.94,21.29 L558.51,21.29 L559.07,21.29 L559.64,21.28 L560.20,21.28 L560.76,21.27 L561.33,21.27 L561.89,21.27 L562.46,21.26 L563.02,21.26 L563.59,21.26 L564.15,21.25 L564.71,21.25 L565.28,21.25 L565.84,21.25 L566.41,21.24 L566.97,21.24 L567.53,21.24 L568.10,21.23 L568.66,21.23 L569.23,21.23 L569.79,21.23 L570.35,21.22 L570.92,21.22 L571.48,21.22 L572.05,21.22 L572.61,21.21 L573.18,21.21 L573.74,21.21 L574.30,21.21 L574.87,21.20 L575.43,21.20 L576.00,21.20 L576.56,21.20 L577.12,21.19 L577.69,21.19 L578.25,21.19 L578.82,21.19 L579.38,21.19 L579.95,21.18 L580.51,21.18 L581.07,21.18 L581.64,21.18 L582.20,21.18 L582.77,21.17 L583.33,21.17 L583.89,21.17 L584.46,21.17 L585.02,21.17 L585.59,21.17 L586.15,21.16 L586.72,21.16 L587.28,21.16 L587.84,21.16 L588.41,21.16 L588.97,21.16 L589.54,21.15 L590.10,21.15 L590.66,21.15 L591.23,21.15 L591.79,21.15 L592.36,21.15 L592.92,21.15 L593.48,21.14 L594.05,21.14 L594.61,21.14 L595.18,21.14 L595.74,21.14 L596.31,21.14 L596.87,21.14 L597.43,21.13 L598.00,21.13 L598.56,21.13 L599.13,21.13 L599.69,21.13 L600.25,21.13 L600.82,21.13 L601.38,21.13 L601.95,21.13 L602.51,21.12 L603.08,21.12 L603.64,21.12 L604.20,21.12 L604.77,21.12 L605.33,21.12 L605.90,21.12 L606.46,21.12 L607.02,21.12 L607.59,21.12 L608.15,21.12 L608.72,21.11 L609.28,21.11 L609.85,21.11 L610.41,21.11 L610.97,21.11 L611.54,21.11 L612.10,21.11 L612.67,21.11 L613.23,21.11 L613.79,21.11 L614.36,21.11 L614.92,21.11 L615.49,21.11 L616.05,21.10 L616.62,21.10 L617.18,21.10 L617.74,21.10 L618.31,21.10 L618.87,21.10 L619.44,21.10 L620.00,21.10" style="stroke-width: 2; stroke: rgb(74, 144, 226); stroke-opacity: 0.8;"/></g></g><g class="test-xtl" style="font-family: &quot;Open Sans&quot;, verdana, arial, sans-serif;"><text text-anchor="middle" font-size="11" dominant-baseline="hanging" stroke="none" fill="rgb(50,50,50)" fill-opacity="1" x="42.54493164062501" y="262.7760523396282">-8</text><text text-anchor="middle" font-size="11" dominant-baseline="hanging" stroke="none" fill="rgb(50,50,50)" fill-opacity="1" x="111.201181640625" y="262.7760523396282">-6</text><text text-anchor="middle" font-size="11" dominant-baseline="hanging" stroke="none" fill="rgb(50,50,50)" fill-opacity="1" x="179.857431640625" y="262.7760523396282">-4</text><text text-anchor="middle" font-size="11" dominant-baseline="hanging" stroke="none" fill="rgb(50,50,50)" fill-opacity="1" x="248.513681640625" y="262.7760523396282">-2</text><text text-anchor="middle" font-size="11" dominant-baseline="hanging" stroke="none" fill="rgb(50,50,50)" fill-opacity="1" x="388.961181640625" y="262.7760523396282">2</text><text text-anchor="middle" font-size="11" dominant-baseline="hanging" stroke="none" fill="rgb(50,50,50)" fill-opacity="1" x="457.617431640625" y="262.7760523396282">4</text><text text-anchor="middle" font-size="11" dominant-baseline="hanging" stroke="none" fill="rgb(50,50,50)" fill-opacity="1" x="526.273681640625" y="262.7760523396282">6</text><text text-anchor="middle" font-size="11" dominant-baseline="hanging" stroke="none" fill="rgb(50,50,50)" fill-opacity="1" x="594.929931640625" y="262.7760523396282">8</text><text text-anchor="middle" font-size="11" dominant-baseline="hanging" stroke="none" fill="rgb(50,50,50)" fill-opacity="1" x="312.304931640625" y="260.7760523396282">0</text></g><g class="test-ytl" style="font-family: &quot;Open Sans&quot;, verdana, arial, sans-serif;"><text text-anchor="end" dominant-baseline="middle" font-size="11" stroke="none" fill="rgb(50,50,50)" fill-opacity="1" x="312.304931640625" y="197.09747854788657">0.25</text><text text-anchor="end" dominant-baseline="middle" font-size="11" stroke="none" fill="rgb(50,50,50)" fill-opacity="1" x="312.304931640625" y="138.41890475614488">0.5</text><text text-anchor="end" dominant-baseline="middle" font-size="11" stroke="none" fill="rgb(50,50,50)" fill-opacity="1" x="312.304931640625" y="79.74033096440323">0.75</text><text text-anchor="end" dominant-baseline="middle" font-size="11" stroke="none" fill="rgb(50,50,50)" fill-opacity="1" x="312.304931640625" y="21.061757172661572">1</text></g><rect class="real" x="1" y="1" width="618" height="268" style="fill: transparent; stroke: none;"/></g></g></g><g/></g><g/><g/><g/></svg>
        <svg xmlns="http://www.w3.org/2000/svg" xmlns:xlink="http://www.w3.org/1999/xlink" width="660" height="310" style="width:660px;height:310px;font-family:Asana-Math, Asana;background:#FFF;"></svg>
</svg>
