<svg xmlns="http://www.w3.org/2000/svg" xmlns:xlink="http://www.w3.org/1999/xlink" x="0" y="0" width="661.6000366210938" height="296.20001220703125" style="
        width:661.6000366210938px;
        height:296.20001220703125px;
        background: #FFF;
        fill: none;
">
        <svg xmlns="http://www.w3.org/2000/svg"><g><defs><pattern id=".6661556771902695" width="10" height="10" patternUnits="userSpaceOnUse"><path d="M 10 0 L 0 0 0 10" fill="none" stroke="lightgray" stroke-width="0.5"/></pattern></defs><rect width="100%" height="100%" fill="url(#.6661556771902695)" stroke="lightgray" stroke-width="0.5"/></g></svg>
        
        <svg xmlns="http://www.w3.org/2000/svg" class="role-diagram-draw-area"><g class="shapes-region" style="stroke: black; fill: none;"><g class="composite-shape"><path class="real" d=" M45.52,133.91 C45.52,84.73 85.39,44.87 134.56,44.87 C183.74,44.87 223.61,84.73 223.61,133.91 C223.61,183.09 183.74,222.95 134.56,222.95 C85.39,222.95 45.52,183.09 45.52,133.91 Z" style="stroke-width: 1; stroke: rgb(0, 0, 0); fill: none; fill-opacity: 1;"/></g><g class="arrow-line"><path class="connection real" stroke-dasharray="" d="  M134.56,133.91 L134.56,49.87" style="stroke: rgb(255, 0, 0); stroke-opacity: 1; stroke-width: 3; fill: none; fill-opacity: 1;"/><g stroke="none" fill="rgb(255,0,0)" fill-opacity="1" transform="matrix(3.061616997868383e-16,1,-1,3.061616997868383e-16,134.5625,44.866920152091254)" style="stroke: none; fill: rgb(255, 0, 0); stroke-width: 3;"><path d=" M14.29,-6.86 L0,0 L14.29,6.86 Z"/></g></g><g class="arrow-line"><path class="connection real" stroke-dasharray="" d="  M134.56,133.91 L62.09,175.75" style="stroke: rgb(0, 0, 255); stroke-opacity: 1; stroke-width: 3; fill: none; fill-opacity: 1;"/><g stroke="none" fill="rgb(0,0,255)" fill-opacity="1" transform="matrix(0.8660254037844384,-0.5000000000000004,0.5000000000000004,0.8660254037844384,57.76473653216354,178.24890522880708)" style="stroke: none; fill: rgb(0, 0, 255); stroke-width: 3;"><path d=" M14.29,-6.86 L0,0 L14.29,6.86 Z"/></g></g><g class="arrow-line"><path class="connection real" stroke-dasharray="" d="  M134.56,133.91 L207.72,175.97" style="stroke: rgb(0, 255, 0); stroke-opacity: 1; stroke-width: 3; fill: none; fill-opacity: 1;"/><g stroke="none" fill="rgb(0,255,0)" fill-opacity="1" transform="matrix(-0.8669837382549639,-0.49833643013675827,0.49833643013675827,-0.8669837382549639,212.05868781685678,178.46058103612165)" style="stroke: none; fill: rgb(0, 255, 0); stroke-width: 3;"><path d=" M14.29,-6.86 L0,0 L14.29,6.86 Z"/></g></g><g class="arrow-line"><path class="connection real" stroke-dasharray="1.125 3.35" d="  M134.56,133.91 L134.56,219.95" style="stroke: rgb(255, 0, 0); stroke-opacity: 1; stroke-width: 1; fill: none; fill-opacity: 1;"/><g stroke="none" fill="rgb(255,0,0)" fill-opacity="1" transform="matrix(-1.8369701987210297e-16,-1,1,-1.8369701987210297e-16,134.5625,222.95247148288965)" style="stroke: none; fill: rgb(255, 0, 0); stroke-width: 1;"><path d=" M8.93,-4.29 L0,0 L8.93,4.29 Z"/></g></g><g class="arrow-line"><path class="connection real" stroke-dasharray="1.125 3.35" d="  M134.56,133.91 L60.89,90.03" style="stroke: rgb(0, 255, 0); stroke-opacity: 1; stroke-width: 1; fill: none; fill-opacity: 1;"/><g stroke="none" fill="rgb(0,255,0)" fill-opacity="1" transform="matrix(0.8591385812742728,0.5117430001143443,-0.5117430001143443,0.8591385812742728,58.31503485424588,88.49683143219266)" style="stroke: none; fill: rgb(0, 255, 0); stroke-width: 1;"><path d=" M8.93,-4.29 L0,0 L8.93,4.29 Z"/></g></g><g class="arrow-line"><path class="connection real" stroke-dasharray="1.125 3.35" d="  M134.56,133.91 L208.86,89.61" style="stroke: rgb(0, 0, 255); stroke-opacity: 1; stroke-width: 1; fill: none; fill-opacity: 1;"/><g stroke="none" fill="rgb(0,0,255)" fill-opacity="1" transform="matrix(-0.8589598969306641,0.5120428648705722,-0.5120428648705722,-0.8589598969306641,211.4392427122941,88.07731305449936)" style="stroke: none; fill: rgb(0, 0, 255); stroke-width: 1;"><path d=" M8.93,-4.29 L0,0 L8.93,4.29 Z"/></g></g><g class="composite-shape"><path class="real" d=" M157.31,32.98 C175.09,36.97 191.15,45.54 204.16,57.39 L134.56,133.91 Z" style="stroke-width: 2; stroke: none; fill: none; fill-opacity: 1;"/><path class="real" d=" M157.31,32.98 C173.76,36.67 188.73,44.28 201.18,54.78" style="stroke-width: 2; stroke: rgb(0, 0, 0); fill: none; fill-opacity: 1;"/><g stroke="none" fill="#000" transform="matrix(-0.7775851205504821,-0.6287776875005125,0.6287776875005125,-0.7775851205504821,204.16436214443158,57.391423346158405)" style="stroke: none; fill: rgb(0, 0, 0); stroke-width: 2;"><path d=" M13.4,-6.43 L0,0 L13.4,6.44 L8.9,0 Z"/></g></g><g class="composite-shape" data-amt="diagram/shapes/plot" transform="matrix(1,0,0,1,293,13.5)"><g><g><g class="test-xgi"><line x1="18.13946533203125" y1="0" x2="18.13946533203125" y2="246" fill="none" stroke="#c3c3c3" stroke-width="0.5"/><line x1="56.30049713986084" y1="0" x2="56.30049713986084" y2="246" fill="none" stroke="#c3c3c3" stroke-width="0.5"/><line x1="94.46152894769041" y1="0" x2="94.46152894769041" y2="246" fill="none" stroke="#c3c3c3" stroke-width="0.5"/><line x1="132.62256075552" y1="0" x2="132.62256075552" y2="246" fill="none" stroke="#c3c3c3" stroke-width="0.5"/><line x1="170.78359256334954" y1="0" x2="170.78359256334954" y2="246" fill="none" stroke="#c3c3c3" stroke-width="0.5"/><line x1="208.94462437117912" y1="0" x2="208.94462437117912" y2="246" fill="none" stroke="#c3c3c3" stroke-width="0.5"/><line x1="247.10565617900875" y1="0" x2="247.10565617900875" y2="246" fill="none" stroke="#c3c3c3" stroke-width="0.5"/><line x1="285.2666879868383" y1="0" x2="285.2666879868383" y2="246" fill="none" stroke="#c3c3c3" stroke-width="0.5"/><line x1="323.4277197946679" y1="0" x2="323.4277197946679" y2="246" fill="none" stroke="#c3c3c3" stroke-width="0.5"/></g><g class="test-ygi"><line x1="0" y1="244.74237060546875" x2="360" y2="244.74237060546875" fill="none" stroke="#c3c3c3" stroke-width="0.5"/><line x1="0" y1="184.0072021484375" x2="360" y2="184.0072021484375" fill="none" stroke="#c3c3c3" stroke-width="0.5"/><line x1="0" y1="123.27203369140624" x2="360" y2="123.27203369140624" fill="none" stroke="#c3c3c3" stroke-width="0.5"/><line x1="0" y1="62.53686523437497" x2="360" y2="62.53686523437497" fill="none" stroke="#c3c3c3" stroke-width="0.5"/><line x1="0" y1="1.8016967773437216" x2="360" y2="1.8016967773437216" fill="none" stroke="#c3c3c3" stroke-width="0.5"/></g></g><g><g class="test-xti" style="font-family: Asana-Math, Asana;"><line x1="0" y1="123.27203369140625" x2="354.5" y2="123.27203369140625" fill="none" stroke="rgb(50,50,50)" stroke-opacity="1" stroke-width="2"/><line x1="56.30049713986084" y1="118.27203369140625" x2="56.30049713986084" y2="128.27203369140625" fill="none" stroke="rgb(50,50,50)" stroke-opacity="1" stroke-width="2"/><line x1="94.46152894769041" y1="118.27203369140625" x2="94.46152894769041" y2="128.27203369140625" fill="none" stroke="rgb(50,50,50)" stroke-opacity="1" stroke-width="2"/><line x1="132.62256075552" y1="118.27203369140625" x2="132.62256075552" y2="128.27203369140625" fill="none" stroke="rgb(50,50,50)" stroke-opacity="1" stroke-width="2"/><line x1="170.78359256334954" y1="118.27203369140625" x2="170.78359256334954" y2="128.27203369140625" fill="none" stroke="rgb(50,50,50)" stroke-opacity="1" stroke-width="2"/><line x1="208.94462437117912" y1="118.27203369140625" x2="208.94462437117912" y2="128.27203369140625" fill="none" stroke="rgb(50,50,50)" stroke-opacity="1" stroke-width="2"/><line x1="247.10565617900875" y1="118.27203369140625" x2="247.10565617900875" y2="128.27203369140625" fill="none" stroke="rgb(50,50,50)" stroke-opacity="1" stroke-width="2"/><line x1="285.2666879868383" y1="118.27203369140625" x2="285.2666879868383" y2="128.27203369140625" fill="none" stroke="rgb(50,50,50)" stroke-opacity="1" stroke-width="2"/><line x1="323.4277197946679" y1="118.27203369140625" x2="323.4277197946679" y2="128.27203369140625" fill="none" stroke="rgb(50,50,50)" stroke-opacity="1" stroke-width="2"/><path d="M349,118.77203369140625 L359,123.27203369140625 L349,127.77203369140625 Z" stroke="none" stroke-width="2" fill="rgb(50,50,50)" fill-opacity="1"/></g><g class="test-yti" style="font-family: Asana-Math, Asana;"><line x1="18.13946533203125" y1="5.5" x2="18.13946533203125" y2="246" fill="none" stroke="rgb(50,50,50)" stroke-opacity="1" stroke-width="2"/><line x1="13.13946533203125" y1="244.74237060546875" x2="23.13946533203125" y2="244.74237060546875" fill="none" stroke="rgb(50,50,50)" stroke-opacity="1" stroke-width="2"/><line x1="13.13946533203125" y1="184.0072021484375" x2="23.13946533203125" y2="184.0072021484375" fill="none" stroke="rgb(50,50,50)" stroke-opacity="1" stroke-width="2"/><line x1="13.13946533203125" y1="62.53686523437497" x2="23.13946533203125" y2="62.53686523437497" fill="none" stroke="rgb(50,50,50)" stroke-opacity="1" stroke-width="2"/><line x1="13.13946533203125" y1="1.8016967773437216" x2="23.13946533203125" y2="1.8016967773437216" fill="none" stroke="rgb(50,50,50)" stroke-opacity="1" stroke-width="2"/><path d="M13.63946533203125,11 L18.13946533203125,1 L22.63946533203125,11 Z" stroke="none" stroke-width="2" fill="rgb(50,50,50)" fill-opacity="1"/></g><g class="test-plot-expression"><defs><clipPath id="cpsxxks923t"><rect x="1" y="1" width="358" height="244"/></clipPath></defs><g clip-path="url(#cpsxxks923t)"><path d=" M18.14,123.27 L18.61,122.08 L19.09,120.90 L19.57,119.71 L20.04,118.52 L20.52,117.34 L20.99,116.16 L21.47,114.98 L21.94,113.80 L22.42,112.63 L22.89,111.46 L23.37,110.30 L23.85,109.14 L24.32,107.99 L24.80,106.84 L25.27,105.70 L25.75,104.56 L26.22,103.44 L26.70,102.32 L27.17,101.20 L27.65,100.10 L28.12,99.01 L28.60,97.92 L29.08,96.85 L29.55,95.78 L30.03,94.73 L30.50,93.68 L30.98,92.65 L31.45,91.63 L31.93,90.62 L32.40,89.63 L32.88,88.64 L33.35,87.67 L33.83,86.72 L34.31,85.77 L34.78,84.85 L35.26,83.93 L35.73,83.04 L36.21,82.15 L36.68,81.29 L37.16,80.44 L37.63,79.60 L38.11,78.78 L38.58,77.98 L39.06,77.20 L39.54,76.43 L40.01,75.69 L40.49,74.96 L40.96,74.25 L41.44,73.55 L41.91,72.88 L42.39,72.23 L42.86,71.59 L43.34,70.98 L43.81,70.38 L44.29,69.81 L44.77,69.26 L45.24,68.72 L45.72,68.21 L46.19,67.72 L46.67,67.25 L47.14,66.80 L47.62,66.37 L48.09,65.97 L48.57,65.59 L49.04,65.23 L49.52,64.89 L50.00,64.57 L50.47,64.28 L50.95,64.01 L51.42,63.76 L51.90,63.53 L52.37,63.33 L52.85,63.15 L53.32,62.99 L53.80,62.86 L54.27,62.75 L54.75,62.66 L55.23,62.60 L55.70,62.56 L56.18,62.54 L56.65,62.54 L57.13,62.57 L57.60,62.62 L58.08,62.70 L58.55,62.80 L59.03,62.92 L59.51,63.06 L59.98,63.23 L60.46,63.42 L60.93,63.64 L61.41,63.87 L61.88,64.13 L62.36,64.41 L62.83,64.72 L63.31,65.05 L63.78,65.40 L64.26,65.77 L64.74,66.16 L65.21,66.58 L65.69,67.01 L66.16,67.47 L66.64,67.95 L67.11,68.45 L67.59,68.98 L68.06,69.52 L68.54,70.08 L69.01,70.67 L69.49,71.27 L69.97,71.89 L70.44,72.54 L70.92,73.20 L71.39,73.88 L71.87,74.58 L72.34,75.30 L72.82,76.04 L73.29,76.80 L73.77,77.57 L74.24,78.36 L74.72,79.17 L75.20,80.00 L75.67,80.84 L76.15,81.70 L76.62,82.57 L77.10,83.46 L77.57,84.37 L78.05,85.29 L78.52,86.22 L79.00,87.17 L79.47,88.14 L79.95,89.11 L80.43,90.10 L80.90,91.10 L81.38,92.12 L81.85,93.14 L82.33,94.18 L82.80,95.23 L83.28,96.29 L83.75,97.36 L84.23,98.44 L84.70,99.53 L85.18,100.63 L85.66,101.74 L86.13,102.85 L86.61,103.98 L87.08,105.11 L87.56,106.24 L88.03,107.39 L88.51,108.54 L88.98,109.69 L89.46,110.86 L89.93,112.02 L90.41,113.19 L90.89,114.37 L91.36,115.54 L91.84,116.72 L92.31,117.91 L92.79,119.09 L93.26,120.28 L93.74,121.47 L94.21,122.65 L94.69,123.84 L95.17,125.03 L95.64,126.22 L96.12,127.41 L96.59,128.59 L97.07,129.77 L97.54,130.95 L98.02,132.13 L98.49,133.31 L98.97,134.48 L99.44,135.64 L99.92,136.80 L100.40,137.96 L100.87,139.11 L101.35,140.25 L101.82,141.39 L102.30,142.52 L102.77,143.65 L103.25,144.76 L103.72,145.87 L104.20,146.97 L104.67,148.06 L105.15,149.14 L105.63,150.21 L106.10,151.27 L106.58,152.32 L107.05,153.36 L107.53,154.38 L108.00,155.40 L108.48,156.40 L108.95,157.39 L109.43,158.37 L109.90,159.33 L110.38,160.28 L110.86,161.22 L111.33,162.14 L111.81,163.04 L112.28,163.93 L112.76,164.81 L113.23,165.67 L113.71,166.51 L114.18,167.34 L114.66,168.15 L115.13,168.94 L115.61,169.71 L116.09,170.47 L116.56,171.21 L117.04,171.93 L117.51,172.63 L117.99,173.32 L118.46,173.98 L118.94,174.62 L119.41,175.25 L119.89,175.85 L120.36,176.44 L120.84,177.00 L121.32,177.55 L121.79,178.07 L122.27,178.57 L122.74,179.05 L123.22,179.51 L123.69,179.95 L124.17,180.37 L124.64,180.76 L125.12,181.13 L125.59,181.48 L126.07,181.81 L126.55,182.12 L127.02,182.40 L127.50,182.66 L127.97,182.90 L128.45,183.11 L128.92,183.30 L129.40,183.47 L129.87,183.62 L130.35,183.74 L130.83,183.84 L131.30,183.92 L131.78,183.97 L132.25,184.00 L132.73,184.01 L133.20,183.99 L133.68,183.95 L134.15,183.89 L134.63,183.80 L135.10,183.69 L135.58,183.56 L136.06,183.40 L136.53,183.22 L137.01,183.02 L137.48,182.80 L137.96,182.55 L138.43,182.28 L138.91,181.99 L139.38,181.67 L139.86,181.33 L140.33,180.97 L140.81,180.59 L141.29,180.19 L141.76,179.76 L142.24,179.31 L142.71,178.84 L143.19,178.35 L143.66,177.84 L144.14,177.31 L144.61,176.76 L145.09,176.18 L145.56,175.59 L146.04,174.98 L146.52,174.34 L146.99,173.69 L147.47,173.02 L147.94,172.33 L148.42,171.62 L148.89,170.89 L149.37,170.14 L149.84,169.38 L150.32,168.59 L150.79,167.79 L151.27,166.98 L151.75,166.14 L152.22,165.29 L152.70,164.43 L153.17,163.54 L153.65,162.65 L154.12,161.73 L154.60,160.81 L155.07,159.87 L155.55,158.91 L156.02,157.94 L156.50,156.96 L156.98,155.96 L157.45,154.95 L157.93,153.93 L158.40,152.90 L158.88,151.86 L159.35,150.81 L159.83,149.74 L160.30,148.67 L160.78,147.58 L161.25,146.49 L161.73,145.38 L162.21,144.27 L162.68,143.15 L163.16,142.03 L163.63,140.89 L164.11,139.75 L164.58,138.61 L165.06,137.45 L165.53,136.29 L166.01,135.13 L166.49,133.96 L166.96,132.79 L167.44,131.61 L167.91,130.44 L168.39,129.25 L168.86,128.07 L169.34,126.88 L169.81,125.70 L170.29,124.51 L170.76,123.32 L171.24,122.13 L171.72,120.94 L172.19,119.76 L172.67,118.57 L173.14,117.39 L173.62,116.20 L174.09,115.03 L174.57,113.85 L175.04,112.68 L175.52,111.51 L175.99,110.34 L176.47,109.19 L176.95,108.03 L177.42,106.88 L177.90,105.74 L178.37,104.61 L178.85,103.48 L179.32,102.36 L179.80,101.25 L180.27,100.15 L180.75,99.05 L181.22,97.97 L181.70,96.89 L182.18,95.82 L182.65,94.77 L183.13,93.73 L183.60,92.69 L184.08,91.67 L184.55,90.66 L185.03,89.67 L185.50,88.68 L185.98,87.71 L186.45,86.76 L186.93,85.81 L187.41,84.88 L187.88,83.97 L188.36,83.07 L188.83,82.19 L189.31,81.32 L189.78,80.47 L190.26,79.63 L190.73,78.82 L191.21,78.01 L191.68,77.23 L192.16,76.46 L192.64,75.72 L193.11,74.99 L193.59,74.27 L194.06,73.58 L194.54,72.91 L195.01,72.25 L195.49,71.62 L195.96,71.00 L196.44,70.41 L196.91,69.83 L197.39,69.28 L197.87,68.74 L198.34,68.23 L198.82,67.74 L199.29,67.27 L199.77,66.82 L200.24,66.39 L200.72,65.99 L201.19,65.60 L201.67,65.24 L202.15,64.90 L202.62,64.58 L203.10,64.29 L203.57,64.02 L204.05,63.77 L204.52,63.54 L205.00,63.34 L205.47,63.16 L205.95,63.00 L206.42,62.86 L206.90,62.75 L207.38,62.66 L207.85,62.60 L208.33,62.56 L208.80,62.54 L209.28,62.54 L209.75,62.57 L210.23,62.62 L210.70,62.70 L211.18,62.79 L211.65,62.91 L212.13,63.06 L212.61,63.23 L213.08,63.41 L213.56,63.63 L214.03,63.86 L214.51,64.12 L214.98,64.40 L215.46,64.71 L215.93,65.03 L216.41,65.38 L216.88,65.75 L217.36,66.14 L217.84,66.56 L218.31,67.00 L218.79,67.45 L219.26,67.93 L219.74,68.43 L220.21,68.95 L220.69,69.50 L221.16,70.06 L221.64,70.64 L222.11,71.24 L222.59,71.87 L223.07,72.51 L223.54,73.17 L224.02,73.85 L224.49,74.56 L224.97,75.27 L225.44,76.01 L225.92,76.77 L226.39,77.54 L226.87,78.33 L227.34,79.14 L227.82,79.97 L228.30,80.81 L228.77,81.66 L229.25,82.54 L229.72,83.43 L230.20,84.33 L230.67,85.25 L231.15,86.19 L231.62,87.13 L232.10,88.10 L232.57,89.07 L233.05,90.06 L233.53,91.06 L234.00,92.08 L234.48,93.10 L234.95,94.14 L235.43,95.19 L235.90,96.25 L236.38,97.32 L236.85,98.40 L237.33,99.49 L237.81,100.58 L238.28,101.69 L238.76,102.81 L239.23,103.93 L239.71,105.06 L240.18,106.20 L240.66,107.34 L241.13,108.49 L241.61,109.65 L242.08,110.81 L242.56,111.97 L243.04,113.14 L243.51,114.32 L243.99,115.49 L244.46,116.67 L244.94,117.86 L245.41,119.04 L245.89,120.23 L246.36,121.42 L246.84,122.61 L247.31,123.79 L247.79,124.98 L248.27,126.17 L248.74,127.36 L249.22,128.54 L249.69,129.73 L250.17,130.91 L250.64,132.08 L251.12,133.26 L251.59,134.43 L252.07,135.59 L252.54,136.76 L253.02,137.91 L253.50,139.06 L253.97,140.21 L254.45,141.35 L254.92,142.48 L255.40,143.60 L255.87,144.72 L256.35,145.83 L256.82,146.92 L257.30,148.01 L257.77,149.10 L258.25,150.17 L258.73,151.23 L259.20,152.28 L259.68,153.32 L260.15,154.34 L260.63,155.36 L261.10,156.36 L261.58,157.35 L262.05,158.33 L262.53,159.29 L263.00,160.24 L263.48,161.18 L263.96,162.10 L264.43,163.01 L264.91,163.90 L265.38,164.77 L265.86,165.63 L266.33,166.48 L266.81,167.30 L267.28,168.11 L267.76,168.91 L268.23,169.68 L268.71,170.44 L269.19,171.18 L269.66,171.90 L270.14,172.60 L270.61,173.29 L271.09,173.95 L271.56,174.60 L272.04,175.22 L272.51,175.83 L272.99,176.42 L273.47,176.98 L273.94,177.53 L274.42,178.05 L274.89,178.55 L275.37,179.03 L275.84,179.49 L276.32,179.93 L276.79,180.35 L277.27,180.75 L277.74,181.12 L278.22,181.47 L278.70,181.80 L279.17,182.11 L279.65,182.39 L280.12,182.65 L280.60,182.89 L281.07,183.10 L281.55,183.30 L282.02,183.47 L282.50,183.61 L282.97,183.74 L283.45,183.84 L283.93,183.91 L284.40,183.97 L284.88,184.00 L285.35,184.01 L285.83,183.99 L286.30,183.95 L286.78,183.89 L287.25,183.80 L287.73,183.70 L288.20,183.56 L288.68,183.41 L289.16,183.23 L289.63,183.03 L290.11,182.81 L290.58,182.56 L291.06,182.29 L291.53,182.00 L292.01,181.68 L292.48,181.35 L292.96,180.99 L293.43,180.61 L293.91,180.20 L294.39,179.78 L294.86,179.33 L295.34,178.86 L295.81,178.37 L296.29,177.86 L296.76,177.33 L297.24,176.78 L297.71,176.21 L298.19,175.62 L298.66,175.00 L299.14,174.37 L299.62,173.72 L300.09,173.05 L300.57,172.36 L301.04,171.65 L301.52,170.92 L301.99,170.17 L302.47,169.41 L302.94,168.63 L303.42,167.83 L303.89,167.01 L304.37,166.18 L304.85,165.33 L305.32,164.46 L305.80,163.58 L306.27,162.68 L306.75,161.77 L307.22,160.85 L307.70,159.90 L308.17,158.95 L308.65,157.98 L309.13,157.00 L309.60,156.00 L310.08,155.00 L310.55,153.98 L311.03,152.95 L311.50,151.90 L311.98,150.85 L312.45,149.78 L312.93,148.71 L313.40,147.63 L313.88,146.53 L314.36,145.43 L314.83,144.32 L315.31,143.20 L315.78,142.07 L316.26,140.94 L316.73,139.80 L317.21,138.65 L317.68,137.50 L318.16,136.34 L318.63,135.18 L319.11,134.01 L319.59,132.84 L320.06,131.66 L320.54,130.48 L321.01,129.30 L321.49,128.12 L321.96,126.93 L322.44,125.75 L322.91,124.56 L323.39,123.37 L323.86,122.18 L324.34,120.99 L324.82,119.80 L325.29,118.62 L325.77,117.43 L326.24,116.25 L326.72,115.07 L327.19,113.90 L327.67,112.72 L328.14,111.56 L328.62,110.39 L329.09,109.23 L329.57,108.08 L330.05,106.93 L330.52,105.79 L331.00,104.65 L331.47,103.53 L331.95,102.41 L332.42,101.29 L332.90,100.19 L333.37,99.10 L333.85,98.01 L334.32,96.93 L334.80,95.87 L335.28,94.81 L335.75,93.77 L336.23,92.73 L336.70,91.71 L337.18,90.70 L337.65,89.71 L338.13,88.72 L338.60,87.75 L339.08,86.79 L339.55,85.85 L340.03,84.92 L340.51,84.01 L340.98,83.11 L341.46,82.22 L341.93,81.36 L342.41,80.50 L342.88,79.67 L343.36,78.85 L343.83,78.05 L344.31,77.26 L344.79,76.50 L345.26,75.75 L345.74,75.02 L346.21,74.30 L346.69,73.61 L347.16,72.93 L347.64,72.28 L348.11,71.64 L348.59,71.03 L349.06,70.43 L349.54,69.85 L350.02,69.30 L350.49,68.76 L350.97,68.25 L351.44,67.76 L351.92,67.29 L352.39,66.84 L352.87,66.41 L353.34,66.00 L353.82,65.62 L354.29,65.25 L354.77,64.91 L355.25,64.60 L355.72,64.30 L356.20,64.03 L356.67,63.78 L357.15,63.55 L357.62,63.34 L358.10,63.16 L358.57,63.00 L359.05,62.87 L359.52,62.76 L360.00,62.67" style="stroke-width: 2; stroke: rgb(255, 0, 0); stroke-opacity: 0.8;"/><path d=" M18.14,175.87 L18.61,175.27 L19.09,174.64 L19.57,174.00 L20.04,173.33 L20.52,172.65 L20.99,171.95 L21.47,171.23 L21.94,170.49 L22.42,169.74 L22.89,168.96 L23.37,168.17 L23.85,167.36 L24.32,166.53 L24.80,165.69 L25.27,164.83 L25.75,163.96 L26.22,163.07 L26.70,162.16 L27.17,161.24 L27.65,160.31 L28.12,159.36 L28.60,158.39 L29.08,157.42 L29.55,156.43 L30.03,155.43 L30.50,154.41 L30.98,153.39 L31.45,152.35 L31.93,151.30 L32.40,150.24 L32.88,149.17 L33.35,148.09 L33.83,147.00 L34.31,145.90 L34.78,144.79 L35.26,143.68 L35.73,142.55 L36.21,141.42 L36.68,140.29 L37.16,139.14 L37.63,137.99 L38.11,136.83 L38.58,135.67 L39.06,134.51 L39.54,133.34 L40.01,132.16 L40.49,130.99 L40.96,129.81 L41.44,128.62 L41.91,127.44 L42.39,126.25 L42.86,125.06 L43.34,123.87 L43.81,122.69 L44.29,121.50 L44.77,120.31 L45.24,119.12 L45.72,117.94 L46.19,116.75 L46.67,115.57 L47.14,114.40 L47.62,113.22 L48.09,112.05 L48.57,110.89 L49.04,109.73 L49.52,108.57 L50.00,107.42 L50.47,106.27 L50.95,105.14 L51.42,104.01 L51.90,102.88 L52.37,101.77 L52.85,100.66 L53.32,99.56 L53.80,98.47 L54.27,97.39 L54.75,96.32 L55.23,95.26 L55.70,94.21 L56.18,93.17 L56.65,92.15 L57.13,91.13 L57.60,90.13 L58.08,89.14 L58.55,88.16 L59.03,87.20 L59.51,86.25 L59.98,85.32 L60.46,84.39 L60.93,83.49 L61.41,82.60 L61.88,81.72 L62.36,80.86 L62.83,80.02 L63.31,79.20 L63.78,78.39 L64.26,77.59 L64.74,76.82 L65.21,76.06 L65.69,75.32 L66.16,74.60 L66.64,73.90 L67.11,73.22 L67.59,72.56 L68.06,71.91 L68.54,71.29 L69.01,70.68 L69.49,70.10 L69.97,69.53 L70.44,68.99 L70.92,68.47 L71.39,67.97 L71.87,67.48 L72.34,67.03 L72.82,66.59 L73.29,66.17 L73.77,65.78 L74.24,65.41 L74.72,65.06 L75.20,64.73 L75.67,64.42 L76.15,64.14 L76.62,63.88 L77.10,63.64 L77.57,63.43 L78.05,63.24 L78.52,63.07 L79.00,62.92 L79.47,62.80 L79.95,62.70 L80.43,62.63 L80.90,62.57 L81.38,62.54 L81.85,62.54 L82.33,62.55 L82.80,62.59 L83.28,62.66 L83.75,62.75 L84.23,62.86 L84.70,62.99 L85.18,63.14 L85.66,63.32 L86.13,63.53 L86.61,63.75 L87.08,64.00 L87.56,64.27 L88.03,64.56 L88.51,64.88 L88.98,65.22 L89.46,65.58 L89.93,65.96 L90.41,66.36 L90.89,66.79 L91.36,67.24 L91.84,67.71 L92.31,68.20 L92.79,68.71 L93.26,69.24 L93.74,69.79 L94.21,70.37 L94.69,70.96 L95.17,71.58 L95.64,72.21 L96.12,72.86 L96.59,73.53 L97.07,74.23 L97.54,74.94 L98.02,75.67 L98.49,76.41 L98.97,77.18 L99.44,77.96 L99.92,78.76 L100.40,79.58 L100.87,80.41 L101.35,81.26 L101.82,82.13 L102.30,83.01 L102.77,83.91 L103.25,84.82 L103.72,85.75 L104.20,86.69 L104.67,87.65 L105.15,88.62 L105.63,89.60 L106.10,90.59 L106.58,91.60 L107.05,92.62 L107.53,93.66 L108.00,94.70 L108.48,95.75 L108.95,96.82 L109.43,97.89 L109.90,98.98 L110.38,100.07 L110.86,101.17 L111.33,102.29 L111.81,103.41 L112.28,104.53 L112.76,105.67 L113.23,106.81 L113.71,107.95 L114.18,109.11 L114.66,110.27 L115.13,111.43 L115.61,112.60 L116.09,113.77 L116.56,114.95 L117.04,116.12 L117.51,117.31 L117.99,118.49 L118.46,119.68 L118.94,120.86 L119.41,122.05 L119.89,123.24 L120.36,124.43 L120.84,125.62 L121.32,126.80 L121.79,127.99 L122.27,129.17 L122.74,130.36 L123.22,131.53 L123.69,132.71 L124.17,133.88 L124.64,135.05 L125.12,136.22 L125.59,137.37 L126.07,138.53 L126.55,139.67 L127.02,140.82 L127.50,141.95 L127.97,143.08 L128.45,144.20 L128.92,145.31 L129.40,146.41 L129.87,147.51 L130.35,148.59 L130.83,149.67 L131.30,150.73 L131.78,151.79 L132.25,152.83 L132.73,153.87 L133.20,154.89 L133.68,155.90 L134.15,156.89 L134.63,157.87 L135.10,158.85 L135.58,159.80 L136.06,160.74 L136.53,161.67 L137.01,162.59 L137.48,163.48 L137.96,164.37 L138.43,165.23 L138.91,166.09 L139.38,166.92 L139.86,167.74 L140.33,168.54 L140.81,169.32 L141.29,170.09 L141.76,170.84 L142.24,171.57 L142.71,172.28 L143.19,172.97 L143.66,173.65 L144.14,174.30 L144.61,174.94 L145.09,175.55 L145.56,176.15 L146.04,176.72 L146.52,177.27 L146.99,177.81 L147.47,178.32 L147.94,178.81 L148.42,179.28 L148.89,179.73 L149.37,180.16 L149.84,180.56 L150.32,180.95 L150.79,181.31 L151.27,181.65 L151.75,181.97 L152.22,182.26 L152.70,182.53 L153.17,182.78 L153.65,183.01 L154.12,183.21 L154.60,183.39 L155.07,183.55 L155.55,183.68 L156.02,183.79 L156.50,183.88 L156.98,183.95 L157.45,183.99 L157.93,184.01 L158.40,184.00 L158.88,183.97 L159.35,183.92 L159.83,183.85 L160.30,183.75 L160.78,183.63 L161.25,183.48 L161.73,183.32 L162.21,183.13 L162.68,182.91 L163.16,182.68 L163.63,182.42 L164.11,182.14 L164.58,181.83 L165.06,181.51 L165.53,181.16 L166.01,180.79 L166.49,180.39 L166.96,179.98 L167.44,179.54 L167.91,179.08 L168.39,178.61 L168.86,178.10 L169.34,177.58 L169.81,177.04 L170.29,176.48 L170.76,175.89 L171.24,175.29 L171.72,174.67 L172.19,174.02 L172.67,173.36 L173.14,172.68 L173.62,171.98 L174.09,171.26 L174.57,170.52 L175.04,169.77 L175.52,168.99 L175.99,168.20 L176.47,167.39 L176.95,166.57 L177.42,165.73 L177.90,164.87 L178.37,163.99 L178.85,163.10 L179.32,162.20 L179.80,161.28 L180.27,160.34 L180.75,159.40 L181.22,158.43 L181.70,157.46 L182.18,156.47 L182.65,155.47 L183.13,154.45 L183.60,153.43 L184.08,152.39 L184.55,151.34 L185.03,150.28 L185.50,149.21 L185.98,148.13 L186.45,147.04 L186.93,145.94 L187.41,144.84 L187.88,143.72 L188.36,142.60 L188.83,141.47 L189.31,140.33 L189.78,139.19 L190.26,138.04 L190.73,136.88 L191.21,135.72 L191.68,134.55 L192.16,133.38 L192.64,132.21 L193.11,131.03 L193.59,129.85 L194.06,128.67 L194.54,127.49 L195.01,126.30 L195.49,125.11 L195.96,123.92 L196.44,122.73 L196.91,121.55 L197.39,120.36 L197.87,119.17 L198.34,117.99 L198.82,116.80 L199.29,115.62 L199.77,114.44 L200.24,113.27 L200.72,112.10 L201.19,110.93 L201.67,109.77 L202.15,108.62 L202.62,107.47 L203.10,106.32 L203.57,105.18 L204.05,104.05 L204.52,102.93 L205.00,101.81 L205.47,100.70 L205.95,99.60 L206.42,98.51 L206.90,97.43 L207.38,96.36 L207.85,95.30 L208.33,94.25 L208.80,93.21 L209.28,92.19 L209.75,91.17 L210.23,90.17 L210.70,89.18 L211.18,88.20 L211.65,87.24 L212.13,86.29 L212.61,85.35 L213.08,84.43 L213.56,83.53 L214.03,82.63 L214.51,81.76 L214.98,80.90 L215.46,80.06 L215.93,79.23 L216.41,78.42 L216.88,77.63 L217.36,76.85 L217.84,76.09 L218.31,75.35 L218.79,74.63 L219.26,73.93 L219.74,73.25 L220.21,72.58 L220.69,71.94 L221.16,71.31 L221.64,70.71 L222.11,70.12 L222.59,69.56 L223.07,69.01 L223.54,68.49 L224.02,67.99 L224.49,67.50 L224.97,67.04 L225.44,66.61 L225.92,66.19 L226.39,65.79 L226.87,65.42 L227.34,65.07 L227.82,64.74 L228.30,64.43 L228.77,64.15 L229.25,63.89 L229.72,63.65 L230.20,63.44 L230.67,63.24 L231.15,63.08 L231.62,62.93 L232.10,62.81 L232.57,62.71 L233.05,62.63 L233.53,62.57 L234.00,62.54 L234.48,62.54 L234.95,62.55 L235.43,62.59 L235.90,62.66 L236.38,62.74 L236.85,62.85 L237.33,62.98 L237.81,63.14 L238.28,63.32 L238.76,63.52 L239.23,63.74 L239.71,63.99 L240.18,64.26 L240.66,64.55 L241.13,64.86 L241.61,65.20 L242.08,65.56 L242.56,65.94 L243.04,66.35 L243.51,66.77 L243.99,67.22 L244.46,67.69 L244.94,68.18 L245.41,68.69 L245.89,69.22 L246.36,69.77 L246.84,70.34 L247.31,70.94 L247.79,71.55 L248.27,72.18 L248.74,72.84 L249.22,73.51 L249.69,74.20 L250.17,74.91 L250.64,75.64 L251.12,76.38 L251.59,77.15 L252.07,77.93 L252.54,78.73 L253.02,79.54 L253.50,80.38 L253.97,81.23 L254.45,82.09 L254.92,82.98 L255.40,83.87 L255.87,84.78 L256.35,85.71 L256.82,86.65 L257.30,87.61 L257.77,88.58 L258.25,89.56 L258.73,90.55 L259.20,91.56 L259.68,92.58 L260.15,93.61 L260.63,94.66 L261.10,95.71 L261.58,96.77 L262.05,97.85 L262.53,98.93 L263.00,100.03 L263.48,101.13 L263.96,102.24 L264.43,103.36 L264.91,104.49 L265.38,105.62 L265.86,106.76 L266.33,107.91 L266.81,109.06 L267.28,110.22 L267.76,111.38 L268.23,112.55 L268.71,113.72 L269.19,114.90 L269.66,116.08 L270.14,117.26 L270.61,118.44 L271.09,119.63 L271.56,120.81 L272.04,122.00 L272.51,123.19 L272.99,124.38 L273.47,125.57 L273.94,126.76 L274.42,127.94 L274.89,129.13 L275.37,130.31 L275.84,131.49 L276.32,132.66 L276.79,133.84 L277.27,135.00 L277.74,136.17 L278.22,137.33 L278.70,138.48 L279.17,139.63 L279.65,140.77 L280.12,141.90 L280.60,143.03 L281.07,144.15 L281.55,145.26 L282.02,146.37 L282.50,147.46 L282.97,148.55 L283.45,149.62 L283.93,150.69 L284.40,151.75 L284.88,152.79 L285.35,153.82 L285.83,154.84 L286.30,155.85 L286.78,156.85 L287.25,157.84 L287.73,158.81 L288.20,159.76 L288.68,160.71 L289.16,161.63 L289.63,162.55 L290.11,163.45 L290.58,164.33 L291.06,165.20 L291.53,166.05 L292.01,166.89 L292.48,167.71 L292.96,168.51 L293.43,169.29 L293.91,170.06 L294.39,170.81 L294.86,171.54 L295.34,172.25 L295.81,172.94 L296.29,173.62 L296.76,174.27 L297.24,174.91 L297.71,175.53 L298.19,176.12 L298.66,176.70 L299.14,177.25 L299.62,177.79 L300.09,178.30 L300.57,178.79 L301.04,179.26 L301.52,179.71 L301.99,180.14 L302.47,180.55 L302.94,180.93 L303.42,181.29 L303.89,181.63 L304.37,181.95 L304.85,182.25 L305.32,182.52 L305.80,182.77 L306.27,183.00 L306.75,183.20 L307.22,183.38 L307.70,183.54 L308.17,183.68 L308.65,183.79 L309.13,183.88 L309.60,183.94 L310.08,183.99 L310.55,184.01 L311.03,184.00 L311.50,183.97 L311.98,183.92 L312.45,183.85 L312.93,183.75 L313.40,183.63 L313.88,183.49 L314.36,183.32 L314.83,183.13 L315.31,182.92 L315.78,182.69 L316.26,182.43 L316.73,182.15 L317.21,181.85 L317.68,181.52 L318.16,181.17 L318.63,180.80 L319.11,180.41 L319.59,180.00 L320.06,179.56 L320.54,179.10 L321.01,178.63 L321.49,178.13 L321.96,177.60 L322.44,177.06 L322.91,176.50 L323.39,175.92 L323.86,175.32 L324.34,174.69 L324.82,174.05 L325.29,173.39 L325.77,172.71 L326.24,172.01 L326.72,171.29 L327.19,170.55 L327.67,169.80 L328.14,169.02 L328.62,168.23 L329.09,167.43 L329.57,166.60 L330.05,165.76 L330.52,164.90 L331.00,164.03 L331.47,163.14 L331.95,162.24 L332.42,161.32 L332.90,160.38 L333.37,159.44 L333.85,158.47 L334.32,157.50 L334.80,156.51 L335.28,155.51 L335.75,154.49 L336.23,153.47 L336.70,152.43 L337.18,151.38 L337.65,150.33 L338.13,149.26 L338.60,148.18 L339.08,147.09 L339.55,145.99 L340.03,144.88 L340.51,143.77 L340.98,142.65 L341.46,141.51 L341.93,140.38 L342.41,139.23 L342.88,138.08 L343.36,136.93 L343.83,135.77 L344.31,134.60 L344.79,133.43 L345.26,132.26 L345.74,131.08 L346.21,129.90 L346.69,128.72 L347.16,127.53 L347.64,126.35 L348.11,125.16 L348.59,123.97 L349.06,122.78 L349.54,121.59 L350.02,120.41 L350.49,119.22 L350.97,118.03 L351.44,116.85 L351.92,115.67 L352.39,114.49 L352.87,113.32 L353.34,112.15 L353.82,110.98 L354.29,109.82 L354.77,108.66 L355.25,107.51 L355.72,106.37 L356.20,105.23 L356.67,104.10 L357.15,102.97 L357.62,101.86 L358.10,100.75 L358.57,99.65 L359.05,98.56 L359.52,97.48 L360.00,96.41" style="stroke-width: 2; stroke: rgb(7, 0, 255); stroke-opacity: 0.8; stroke-dasharray: 2.25, 3.685;"/><path d=" M18.14,175.87 L18.61,176.45 L19.09,177.02 L19.57,177.56 L20.04,178.08 L20.52,178.59 L20.99,179.07 L21.47,179.52 L21.94,179.96 L22.42,180.38 L22.89,180.77 L23.37,181.14 L23.85,181.49 L24.32,181.82 L24.80,182.13 L25.27,182.41 L25.75,182.67 L26.22,182.90 L26.70,183.12 L27.17,183.31 L27.65,183.48 L28.12,183.62 L28.60,183.74 L29.08,183.84 L29.55,183.92 L30.03,183.97 L30.50,184.00 L30.98,184.01 L31.45,183.99 L31.93,183.95 L32.40,183.88 L32.88,183.80 L33.35,183.69 L33.83,183.55 L34.31,183.40 L34.78,183.22 L35.26,183.02 L35.73,182.79 L36.21,182.54 L36.68,182.27 L37.16,181.98 L37.63,181.66 L38.11,181.32 L38.58,180.96 L39.06,180.58 L39.54,180.18 L40.01,179.75 L40.49,179.30 L40.96,178.83 L41.44,178.34 L41.91,177.83 L42.39,177.30 L42.86,176.74 L43.34,176.17 L43.81,175.57 L44.29,174.96 L44.77,174.33 L45.24,173.67 L45.72,173.00 L46.19,172.31 L46.67,171.60 L47.14,170.87 L47.62,170.12 L48.09,169.36 L48.57,168.57 L49.04,167.77 L49.52,166.95 L50.00,166.12 L50.47,165.27 L50.95,164.40 L51.42,163.52 L51.90,162.62 L52.37,161.71 L52.85,160.78 L53.32,159.84 L53.80,158.88 L54.27,157.91 L54.75,156.93 L55.23,155.94 L55.70,154.93 L56.18,153.91 L56.65,152.87 L57.13,151.83 L57.60,150.78 L58.08,149.71 L58.55,148.64 L59.03,147.55 L59.51,146.46 L59.98,145.35 L60.46,144.24 L60.93,143.12 L61.41,142.00 L61.88,140.86 L62.36,139.72 L62.83,138.57 L63.31,137.42 L63.78,136.26 L64.26,135.10 L64.74,133.93 L65.21,132.76 L65.69,131.58 L66.16,130.40 L66.64,129.22 L67.11,128.04 L67.59,126.85 L68.06,125.66 L68.54,124.48 L69.01,123.29 L69.49,122.10 L69.97,120.91 L70.44,119.72 L70.92,118.54 L71.39,117.35 L71.87,116.17 L72.34,114.99 L72.82,113.82 L73.29,112.65 L73.77,111.48 L74.24,110.31 L74.72,109.15 L75.20,108.00 L75.67,106.85 L76.15,105.71 L76.62,104.58 L77.10,103.45 L77.57,102.33 L78.05,101.22 L78.52,100.12 L79.00,99.02 L79.47,97.94 L79.95,96.86 L80.43,95.80 L80.90,94.74 L81.38,93.70 L81.85,92.66 L82.33,91.64 L82.80,90.64 L83.28,89.64 L83.75,88.66 L84.23,87.69 L84.70,86.73 L85.18,85.79 L85.66,84.86 L86.13,83.95 L86.61,83.05 L87.08,82.16 L87.56,81.30 L88.03,80.45 L88.51,79.61 L88.98,78.79 L89.46,77.99 L89.93,77.21 L90.41,76.44 L90.89,75.70 L91.36,74.97 L91.84,74.26 L92.31,73.56 L92.79,72.89 L93.26,72.24 L93.74,71.60 L94.21,70.99 L94.69,70.39 L95.17,69.82 L95.64,69.26 L96.12,68.73 L96.59,68.22 L97.07,67.73 L97.54,67.26 L98.02,66.81 L98.49,66.38 L98.97,65.97 L99.44,65.59 L99.92,65.23 L100.40,64.89 L100.87,64.57 L101.35,64.28 L101.82,64.01 L102.30,63.76 L102.77,63.53 L103.25,63.33 L103.72,63.15 L104.20,62.99 L104.67,62.86 L105.15,62.75 L105.63,62.66 L106.10,62.60 L106.58,62.56 L107.05,62.54 L107.53,62.54 L108.00,62.57 L108.48,62.62 L108.95,62.70 L109.43,62.80 L109.90,62.92 L110.38,63.06 L110.86,63.23 L111.33,63.42 L111.81,63.63 L112.28,63.87 L112.76,64.13 L113.23,64.41 L113.71,64.72 L114.18,65.04 L114.66,65.39 L115.13,65.76 L115.61,66.16 L116.09,66.57 L116.56,67.01 L117.04,67.47 L117.51,67.95 L117.99,68.45 L118.46,68.97 L118.94,69.51 L119.41,70.07 L119.89,70.66 L120.36,71.26 L120.84,71.89 L121.32,72.53 L121.79,73.19 L122.27,73.87 L122.74,74.57 L123.22,75.29 L123.69,76.03 L124.17,76.79 L124.64,77.56 L125.12,78.35 L125.59,79.16 L126.07,79.99 L126.55,80.83 L127.02,81.69 L127.50,82.56 L127.97,83.45 L128.45,84.36 L128.92,85.28 L129.40,86.21 L129.87,87.16 L130.35,88.12 L130.83,89.10 L131.30,90.09 L131.78,91.09 L132.25,92.10 L132.73,93.13 L133.20,94.17 L133.68,95.22 L134.15,96.28 L134.63,97.35 L135.10,98.43 L135.58,99.52 L136.06,100.61 L136.53,101.72 L137.01,102.84 L137.48,103.96 L137.96,105.09 L138.43,106.23 L138.91,107.37 L139.38,108.52 L139.86,109.68 L140.33,110.84 L140.81,112.01 L141.29,113.18 L141.76,114.35 L142.24,115.53 L142.71,116.71 L143.19,117.89 L143.66,119.07 L144.14,120.26 L144.61,121.45 L145.09,122.64 L145.56,123.83 L146.04,125.01 L146.52,126.20 L146.99,127.39 L147.47,128.57 L147.94,129.76 L148.42,130.94 L148.89,132.12 L149.37,133.29 L149.84,134.46 L150.32,135.63 L150.79,136.79 L151.27,137.94 L151.75,139.09 L152.22,140.24 L152.70,141.38 L153.17,142.51 L153.65,143.63 L154.12,144.75 L154.60,145.86 L155.07,146.95 L155.55,148.04 L156.02,149.12 L156.50,150.20 L156.98,151.26 L157.45,152.30 L157.93,153.34 L158.40,154.37 L158.88,155.39 L159.35,156.39 L159.83,157.38 L160.30,158.36 L160.78,159.32 L161.25,160.27 L161.73,161.20 L162.21,162.12 L162.68,163.03 L163.16,163.92 L163.63,164.80 L164.11,165.66 L164.58,166.50 L165.06,167.33 L165.53,168.14 L166.01,168.93 L166.49,169.70 L166.96,170.46 L167.44,171.20 L167.91,171.92 L168.39,172.62 L168.86,173.31 L169.34,173.97 L169.81,174.62 L170.29,175.24 L170.76,175.85 L171.24,176.43 L171.72,177.00 L172.19,177.54 L172.67,178.06 L173.14,178.57 L173.62,179.05 L174.09,179.51 L174.57,179.94 L175.04,180.36 L175.52,180.76 L175.99,181.13 L176.47,181.48 L176.95,181.81 L177.42,182.11 L177.90,182.40 L178.37,182.66 L178.85,182.89 L179.32,183.11 L179.80,183.30 L180.27,183.47 L180.75,183.62 L181.22,183.74 L181.70,183.84 L182.18,183.92 L182.65,183.97 L183.13,184.00 L183.60,184.01 L184.08,183.99 L184.55,183.95 L185.03,183.89 L185.50,183.80 L185.98,183.69 L186.45,183.56 L186.93,183.40 L187.41,183.23 L187.88,183.02 L188.36,182.80 L188.83,182.55 L189.31,182.28 L189.78,181.99 L190.26,181.67 L190.73,181.34 L191.21,180.98 L191.68,180.60 L192.16,180.19 L192.64,179.77 L193.11,179.32 L193.59,178.85 L194.06,178.36 L194.54,177.85 L195.01,177.32 L195.49,176.77 L195.96,176.19 L196.44,175.60 L196.91,174.99 L197.39,174.35 L197.87,173.70 L198.34,173.03 L198.82,172.34 L199.29,171.63 L199.77,170.90 L200.24,170.15 L200.72,169.39 L201.19,168.60 L201.67,167.80 L202.15,166.99 L202.62,166.15 L203.10,165.30 L203.57,164.44 L204.05,163.56 L204.52,162.66 L205.00,161.75 L205.47,160.82 L205.95,159.88 L206.42,158.92 L206.90,157.95 L207.38,156.97 L207.85,155.98 L208.33,154.97 L208.80,153.95 L209.28,152.92 L209.75,151.87 L210.23,150.82 L210.70,149.76 L211.18,148.68 L211.65,147.60 L212.13,146.50 L212.61,145.40 L213.08,144.29 L213.56,143.17 L214.03,142.04 L214.51,140.91 L214.98,139.77 L215.46,138.62 L215.93,137.47 L216.41,136.31 L216.88,135.15 L217.36,133.98 L217.84,132.81 L218.31,131.63 L218.79,130.45 L219.26,129.27 L219.74,128.09 L220.21,126.90 L220.69,125.71 L221.16,124.53 L221.64,123.34 L222.11,122.15 L222.59,120.96 L223.07,119.77 L223.54,118.59 L224.02,117.40 L224.49,116.22 L224.97,115.04 L225.44,113.87 L225.92,112.69 L226.39,111.52 L226.87,110.36 L227.34,109.20 L227.82,108.05 L228.30,106.90 L228.77,105.76 L229.25,104.62 L229.72,103.50 L230.20,102.38 L230.67,101.26 L231.15,100.16 L231.62,99.07 L232.10,97.98 L232.57,96.90 L233.05,95.84 L233.53,94.78 L234.00,93.74 L234.48,92.71 L234.95,91.69 L235.43,90.68 L235.90,89.68 L236.38,88.70 L236.85,87.73 L237.33,86.77 L237.81,85.83 L238.28,84.90 L238.76,83.98 L239.23,83.08 L239.71,82.20 L240.18,81.33 L240.66,80.48 L241.13,79.65 L241.61,78.83 L242.08,78.03 L242.56,77.24 L243.04,76.47 L243.51,75.73 L243.99,75.00 L244.46,74.28 L244.94,73.59 L245.41,72.92 L245.89,72.26 L246.36,71.63 L246.84,71.01 L247.31,70.41 L247.79,69.84 L248.27,69.28 L248.74,68.75 L249.22,68.24 L249.69,67.75 L250.17,67.27 L250.64,66.82 L251.12,66.40 L251.59,65.99 L252.07,65.61 L252.54,65.24 L253.02,64.90 L253.50,64.59 L253.97,64.29 L254.45,64.02 L254.92,63.77 L255.40,63.54 L255.87,63.34 L256.35,63.16 L256.82,63.00 L257.30,62.87 L257.77,62.75 L258.25,62.66 L258.73,62.60 L259.20,62.56 L259.68,62.54 L260.15,62.54 L260.63,62.57 L261.10,62.62 L261.58,62.69 L262.05,62.79 L262.53,62.91 L263.00,63.06 L263.48,63.22 L263.96,63.41 L264.43,63.62 L264.91,63.86 L265.38,64.12 L265.86,64.40 L266.33,64.70 L266.81,65.03 L267.28,65.38 L267.76,65.75 L268.23,66.14 L268.71,66.55 L269.19,66.99 L269.66,67.45 L270.14,67.93 L270.61,68.43 L271.09,68.95 L271.56,69.49 L272.04,70.05 L272.51,70.63 L272.99,71.24 L273.47,71.86 L273.94,72.50 L274.42,73.16 L274.89,73.85 L275.37,74.55 L275.84,75.26 L276.32,76.00 L276.79,76.76 L277.27,77.53 L277.74,78.32 L278.22,79.13 L278.70,79.95 L279.17,80.80 L279.65,81.65 L280.12,82.53 L280.60,83.42 L281.07,84.32 L281.55,85.24 L282.02,86.17 L282.50,87.12 L282.97,88.08 L283.45,89.06 L283.93,90.05 L284.40,91.05 L284.88,92.06 L285.35,93.09 L285.83,94.13 L286.30,95.17 L286.78,96.23 L287.25,97.30 L287.73,98.38 L288.20,99.47 L288.68,100.57 L289.16,101.68 L289.63,102.79 L290.11,103.91 L290.58,105.04 L291.06,106.18 L291.53,107.33 L292.01,108.48 L292.48,109.63 L292.96,110.79 L293.43,111.96 L293.91,113.13 L294.39,114.30 L294.86,115.48 L295.34,116.66 L295.81,117.84 L296.29,119.03 L296.76,120.21 L297.24,121.40 L297.71,122.59 L298.19,123.78 L298.66,124.97 L299.14,126.15 L299.62,127.34 L300.09,128.53 L300.57,129.71 L301.04,130.89 L301.52,132.07 L301.99,133.24 L302.47,134.41 L302.94,135.58 L303.42,136.74 L303.89,137.90 L304.37,139.05 L304.85,140.19 L305.32,141.33 L305.80,142.46 L306.27,143.59 L306.75,144.70 L307.22,145.81 L307.70,146.91 L308.17,148.00 L308.65,149.08 L309.13,150.15 L309.60,151.21 L310.08,152.26 L310.55,153.30 L311.03,154.33 L311.50,155.34 L311.98,156.35 L312.45,157.34 L312.93,158.32 L313.40,159.28 L313.88,160.23 L314.36,161.17 L314.83,162.09 L315.31,162.99 L315.78,163.89 L316.26,164.76 L316.73,165.62 L317.21,166.47 L317.68,167.29 L318.16,168.10 L318.63,168.90 L319.11,169.67 L319.59,170.43 L320.06,171.17 L320.54,171.89 L321.01,172.60 L321.49,173.28 L321.96,173.94 L322.44,174.59 L322.91,175.22 L323.39,175.82 L323.86,176.41 L324.34,176.97 L324.82,177.52 L325.29,178.04 L325.77,178.55 L326.24,179.03 L326.72,179.49 L327.19,179.93 L327.67,180.34 L328.14,180.74 L328.62,181.11 L329.09,181.47 L329.57,181.79 L330.05,182.10 L330.52,182.39 L331.00,182.65 L331.47,182.89 L331.95,183.10 L332.42,183.29 L332.90,183.46 L333.37,183.61 L333.85,183.74 L334.32,183.84 L334.80,183.91 L335.28,183.97 L335.75,184.00 L336.23,184.01 L336.70,183.99 L337.18,183.95 L337.65,183.89 L338.13,183.81 L338.60,183.70 L339.08,183.57 L339.55,183.41 L340.03,183.23 L340.51,183.03 L340.98,182.81 L341.46,182.56 L341.93,182.29 L342.41,182.00 L342.88,181.69 L343.36,181.35 L343.83,180.99 L344.31,180.61 L344.79,180.21 L345.26,179.78 L345.74,179.34 L346.21,178.87 L346.69,178.38 L347.16,177.87 L347.64,177.34 L348.11,176.79 L348.59,176.22 L349.06,175.62 L349.54,175.01 L350.02,174.38 L350.49,173.73 L350.97,173.06 L351.44,172.36 L351.92,171.66 L352.39,170.93 L352.87,170.18 L353.34,169.42 L353.82,168.64 L354.29,167.84 L354.77,167.02 L355.25,166.19 L355.72,165.34 L356.20,164.47 L356.67,163.59 L357.15,162.70 L357.62,161.78 L358.10,160.86 L358.57,159.92 L359.05,158.96 L359.52,157.99 L360.00,157.01" style="stroke-width: 2; stroke: rgb(0, 255, 0); stroke-opacity: 0.8;"/><path d=" M18.14,123.27 L18.61,124.46 L19.09,125.65 L19.57,126.84 L20.04,128.02 L20.52,129.21 L20.99,130.39 L21.47,131.57 L21.94,132.74 L22.42,133.91 L22.89,135.08 L23.37,136.25 L23.85,137.41 L24.32,138.56 L24.80,139.71 L25.27,140.85 L25.75,141.98 L26.22,143.11 L26.70,144.23 L27.17,145.34 L27.65,146.44 L28.12,147.54 L28.60,148.62 L29.08,149.70 L29.55,150.76 L30.03,151.82 L30.50,152.86 L30.98,153.89 L31.45,154.91 L31.93,155.92 L32.40,156.92 L32.88,157.90 L33.35,158.87 L33.83,159.83 L34.31,160.77 L34.78,161.70 L35.26,162.61 L35.73,163.51 L36.21,164.39 L36.68,165.26 L37.16,166.11 L37.63,166.94 L38.11,167.76 L38.58,168.56 L39.06,169.34 L39.54,170.11 L40.01,170.86 L40.49,171.59 L40.96,172.30 L41.44,172.99 L41.91,173.66 L42.39,174.32 L42.86,174.95 L43.34,175.57 L43.81,176.16 L44.29,176.74 L44.77,177.29 L45.24,177.82 L45.72,178.33 L46.19,178.83 L46.67,179.29 L47.14,179.74 L47.62,180.17 L48.09,180.57 L48.57,180.96 L49.04,181.32 L49.52,181.66 L50.00,181.97 L50.47,182.27 L50.95,182.54 L51.42,182.79 L51.90,183.01 L52.37,183.22 L52.85,183.40 L53.32,183.55 L53.80,183.69 L54.27,183.80 L54.75,183.88 L55.23,183.95 L55.70,183.99 L56.18,184.01 L56.65,184.00 L57.13,183.97 L57.60,183.92 L58.08,183.84 L58.55,183.75 L59.03,183.62 L59.51,183.48 L59.98,183.31 L60.46,183.12 L60.93,182.91 L61.41,182.67 L61.88,182.41 L62.36,182.13 L62.83,181.82 L63.31,181.50 L63.78,181.15 L64.26,180.78 L64.74,180.38 L65.21,179.97 L65.69,179.53 L66.16,179.07 L66.64,178.59 L67.11,178.09 L67.59,177.57 L68.06,177.03 L68.54,176.46 L69.01,175.88 L69.49,175.27 L69.97,174.65 L70.44,174.01 L70.92,173.34 L71.39,172.66 L71.87,171.96 L72.34,171.24 L72.82,170.50 L73.29,169.75 L73.77,168.97 L74.24,168.18 L74.72,167.37 L75.20,166.55 L75.67,165.70 L76.15,164.84 L76.62,163.97 L77.10,163.08 L77.57,162.17 L78.05,161.25 L78.52,160.32 L79.00,159.37 L79.47,158.41 L79.95,157.43 L80.43,156.44 L80.90,155.44 L81.38,154.43 L81.85,153.40 L82.33,152.36 L82.80,151.31 L83.28,150.25 L83.75,149.18 L84.23,148.10 L84.70,147.01 L85.18,145.91 L85.66,144.81 L86.13,143.69 L86.61,142.57 L87.08,141.44 L87.56,140.30 L88.03,139.16 L88.51,138.01 L88.98,136.85 L89.46,135.69 L89.93,134.52 L90.41,133.35 L90.89,132.18 L91.36,131.00 L91.84,129.82 L92.31,128.64 L92.79,127.45 L93.26,126.27 L93.74,125.08 L94.21,123.89 L94.69,122.70 L95.17,121.51 L95.64,120.33 L96.12,119.14 L96.59,117.95 L97.07,116.77 L97.54,115.59 L98.02,114.41 L98.49,113.24 L98.97,112.07 L99.44,110.90 L99.92,109.74 L100.40,108.58 L100.87,107.43 L101.35,106.29 L101.82,105.15 L102.30,104.02 L102.77,102.90 L103.25,101.78 L103.72,100.67 L104.20,99.58 L104.67,98.49 L105.15,97.40 L105.63,96.33 L106.10,95.27 L106.58,94.22 L107.05,93.19 L107.53,92.16 L108.00,91.15 L108.48,90.14 L108.95,89.15 L109.43,88.18 L109.90,87.21 L110.38,86.26 L110.86,85.33 L111.33,84.41 L111.81,83.50 L112.28,82.61 L112.76,81.74 L113.23,80.88 L113.71,80.03 L114.18,79.21 L114.66,78.40 L115.13,77.60 L115.61,76.83 L116.09,76.07 L116.56,75.33 L117.04,74.61 L117.51,73.91 L117.99,73.23 L118.46,72.56 L118.94,71.92 L119.41,71.29 L119.89,70.69 L120.36,70.11 L120.84,69.54 L121.32,69.00 L121.79,68.47 L122.27,67.97 L122.74,67.49 L123.22,67.03 L123.69,66.59 L124.17,66.18 L124.64,65.78 L125.12,65.41 L125.59,65.06 L126.07,64.73 L126.55,64.43 L127.02,64.14 L127.50,63.88 L127.97,63.65 L128.45,63.43 L128.92,63.24 L129.40,63.07 L129.87,62.93 L130.35,62.80 L130.83,62.70 L131.30,62.63 L131.78,62.57 L132.25,62.54 L132.73,62.54 L133.20,62.55 L133.68,62.59 L134.15,62.66 L134.63,62.74 L135.10,62.85 L135.58,62.99 L136.06,63.14 L136.53,63.32 L137.01,63.52 L137.48,63.75 L137.96,64.00 L138.43,64.27 L138.91,64.56 L139.38,64.87 L139.86,65.21 L140.33,65.57 L140.81,65.95 L141.29,66.36 L141.76,66.78 L142.24,67.23 L142.71,67.70 L143.19,68.19 L143.66,68.70 L144.14,69.23 L144.61,69.79 L145.09,70.36 L145.56,70.95 L146.04,71.57 L146.52,72.20 L146.99,72.85 L147.47,73.53 L147.94,74.22 L148.42,74.93 L148.89,75.66 L149.37,76.40 L149.84,77.17 L150.32,77.95 L150.79,78.75 L151.27,79.57 L151.75,80.40 L152.22,81.25 L152.70,82.12 L153.17,83.00 L153.65,83.90 L154.12,84.81 L154.60,85.74 L155.07,86.68 L155.55,87.63 L156.02,88.60 L156.50,89.59 L156.98,90.58 L157.45,91.59 L157.93,92.61 L158.40,93.64 L158.88,94.68 L159.35,95.74 L159.83,96.80 L160.30,97.88 L160.78,98.96 L161.25,100.06 L161.73,101.16 L162.21,102.27 L162.68,103.39 L163.16,104.52 L163.63,105.65 L164.11,106.79 L164.58,107.94 L165.06,109.09 L165.53,110.25 L166.01,111.41 L166.49,112.58 L166.96,113.75 L167.44,114.93 L167.91,116.11 L168.39,117.29 L168.86,118.47 L169.34,119.66 L169.81,120.85 L170.29,122.04 L170.76,123.22 L171.24,124.41 L171.72,125.60 L172.19,126.79 L172.67,127.97 L173.14,129.16 L173.62,130.34 L174.09,131.52 L174.57,132.69 L175.04,133.87 L175.52,135.04 L175.99,136.20 L176.47,137.36 L176.95,138.51 L177.42,139.66 L177.90,140.80 L178.37,141.94 L178.85,143.06 L179.32,144.18 L179.80,145.29 L180.27,146.40 L180.75,147.49 L181.22,148.58 L181.70,149.65 L182.18,150.72 L182.65,151.77 L183.13,152.82 L183.60,153.85 L184.08,154.87 L184.55,155.88 L185.03,156.88 L185.50,157.86 L185.98,158.83 L186.45,159.79 L186.93,160.73 L187.41,161.66 L187.88,162.57 L188.36,163.47 L188.83,164.36 L189.31,165.22 L189.78,166.07 L190.26,166.91 L190.73,167.73 L191.21,168.53 L191.68,169.31 L192.16,170.08 L192.64,170.83 L193.11,171.56 L193.59,172.27 L194.06,172.96 L194.54,173.64 L195.01,174.29 L195.49,174.93 L195.96,175.54 L196.44,176.14 L196.91,176.71 L197.39,177.27 L197.87,177.80 L198.34,178.31 L198.82,178.81 L199.29,179.28 L199.77,179.73 L200.24,180.15 L200.72,180.56 L201.19,180.94 L201.67,181.30 L202.15,181.64 L202.62,181.96 L203.10,182.26 L203.57,182.53 L204.05,182.78 L204.52,183.00 L205.00,183.21 L205.47,183.39 L205.95,183.55 L206.42,183.68 L206.90,183.79 L207.38,183.88 L207.85,183.95 L208.33,183.99 L208.80,184.01 L209.28,184.00 L209.75,183.97 L210.23,183.92 L210.70,183.85 L211.18,183.75 L211.65,183.63 L212.13,183.49 L212.61,183.32 L213.08,183.13 L213.56,182.92 L214.03,182.68 L214.51,182.42 L214.98,182.14 L215.46,181.84 L215.93,181.51 L216.41,181.16 L216.88,180.79 L217.36,180.40 L217.84,179.99 L218.31,179.55 L218.79,179.09 L219.26,178.61 L219.74,178.11 L220.21,177.59 L220.69,177.05 L221.16,176.49 L221.64,175.90 L222.11,175.30 L222.59,174.68 L223.07,174.03 L223.54,173.37 L224.02,172.69 L224.49,171.99 L224.97,171.27 L225.44,170.53 L225.92,169.78 L226.39,169.00 L226.87,168.21 L227.34,167.40 L227.82,166.58 L228.30,165.74 L228.77,164.88 L229.25,164.01 L229.72,163.12 L230.20,162.21 L230.67,161.29 L231.15,160.36 L231.62,159.41 L232.10,158.45 L232.57,157.47 L233.05,156.48 L233.53,155.48 L234.00,154.47 L234.48,153.44 L234.95,152.40 L235.43,151.36 L235.90,150.30 L236.38,149.23 L236.85,148.15 L237.33,147.06 L237.81,145.96 L238.28,144.85 L238.76,143.74 L239.23,142.61 L239.71,141.48 L240.18,140.35 L240.66,139.20 L241.13,138.05 L241.61,136.90 L242.08,135.74 L242.56,134.57 L243.04,133.40 L243.51,132.23 L243.99,131.05 L244.46,129.87 L244.94,128.69 L245.41,127.50 L245.89,126.31 L246.36,125.13 L246.84,123.94 L247.31,122.75 L247.79,121.56 L248.27,120.37 L248.74,119.19 L249.22,118.00 L249.69,116.82 L250.17,115.64 L250.64,114.46 L251.12,113.29 L251.59,112.12 L252.07,110.95 L252.54,109.79 L253.02,108.63 L253.50,107.48 L253.97,106.34 L254.45,105.20 L254.92,104.07 L255.40,102.94 L255.87,101.83 L256.35,100.72 L256.82,99.62 L257.30,98.53 L257.77,97.45 L258.25,96.38 L258.73,95.32 L259.20,94.27 L259.68,93.23 L260.15,92.20 L260.63,91.19 L261.10,90.18 L261.58,89.19 L262.05,88.22 L262.53,87.25 L263.00,86.30 L263.48,85.37 L263.96,84.44 L264.43,83.54 L264.91,82.65 L265.38,81.77 L265.86,80.91 L266.33,80.07 L266.81,79.24 L267.28,78.43 L267.76,77.64 L268.23,76.86 L268.71,76.10 L269.19,75.36 L269.66,74.64 L270.14,73.94 L270.61,73.26 L271.09,72.59 L271.56,71.95 L272.04,71.32 L272.51,70.71 L272.99,70.13 L273.47,69.56 L273.94,69.02 L274.42,68.49 L274.89,67.99 L275.37,67.51 L275.84,67.05 L276.32,66.61 L276.79,66.19 L277.27,65.80 L277.74,65.43 L278.22,65.07 L278.70,64.75 L279.17,64.44 L279.65,64.16 L280.12,63.89 L280.60,63.66 L281.07,63.44 L281.55,63.25 L282.02,63.08 L282.50,62.93 L282.97,62.81 L283.45,62.71 L283.93,62.63 L284.40,62.58 L284.88,62.54 L285.35,62.54 L285.83,62.55 L286.30,62.59 L286.78,62.65 L287.25,62.74 L287.73,62.85 L288.20,62.98 L288.68,63.14 L289.16,63.31 L289.63,63.51 L290.11,63.74 L290.58,63.98 L291.06,64.25 L291.53,64.55 L292.01,64.86 L292.48,65.20 L292.96,65.56 L293.43,65.94 L293.91,66.34 L294.39,66.77 L294.86,67.21 L295.34,67.68 L295.81,68.17 L296.29,68.68 L296.76,69.21 L297.24,69.76 L297.71,70.34 L298.19,70.93 L298.66,71.54 L299.14,72.17 L299.62,72.83 L300.09,73.50 L300.57,74.19 L301.04,74.90 L301.52,75.63 L301.99,76.37 L302.47,77.14 L302.94,77.92 L303.42,78.72 L303.89,79.53 L304.37,80.37 L304.85,81.22 L305.32,82.08 L305.80,82.96 L306.27,83.86 L306.75,84.77 L307.22,85.70 L307.70,86.64 L308.17,87.59 L308.65,88.56 L309.13,89.55 L309.60,90.54 L310.08,91.55 L310.55,92.57 L311.03,93.60 L311.50,94.64 L311.98,95.70 L312.45,96.76 L312.93,97.83 L313.40,98.92 L313.88,100.01 L314.36,101.11 L314.83,102.23 L315.31,103.34 L315.78,104.47 L316.26,105.60 L316.73,106.75 L317.21,107.89 L317.68,109.04 L318.16,110.20 L318.63,111.37 L319.11,112.53 L319.59,113.71 L320.06,114.88 L320.54,116.06 L321.01,117.24 L321.49,118.43 L321.96,119.61 L322.44,120.80 L322.91,121.99 L323.39,123.18 L323.86,124.36 L324.34,125.55 L324.82,126.74 L325.29,127.93 L325.77,129.11 L326.24,130.29 L326.72,131.47 L327.19,132.65 L327.67,133.82 L328.14,134.99 L328.62,136.15 L329.09,137.31 L329.57,138.46 L330.05,139.61 L330.52,140.75 L331.00,141.89 L331.47,143.02 L331.95,144.14 L332.42,145.25 L332.90,146.35 L333.37,147.45 L333.85,148.53 L334.32,149.61 L334.80,150.68 L335.28,151.73 L335.75,152.78 L336.23,153.81 L336.70,154.83 L337.18,155.84 L337.65,156.84 L338.13,157.82 L338.60,158.79 L339.08,159.75 L339.55,160.69 L340.03,161.62 L340.51,162.54 L340.98,163.44 L341.46,164.32 L341.93,165.19 L342.41,166.04 L342.88,166.88 L343.36,167.70 L343.83,168.50 L344.31,169.28 L344.79,170.05 L345.26,170.80 L345.74,171.53 L346.21,172.24 L346.69,172.94 L347.16,173.61 L347.64,174.27 L348.11,174.90 L348.59,175.52 L349.06,176.11 L349.54,176.69 L350.02,177.24 L350.49,177.78 L350.97,178.29 L351.44,178.79 L351.92,179.26 L352.39,179.71 L352.87,180.14 L353.34,180.54 L353.82,180.93 L354.29,181.29 L354.77,181.63 L355.25,181.95 L355.72,182.24 L356.20,182.52 L356.67,182.77 L357.15,182.99 L357.62,183.20 L358.10,183.38 L358.57,183.54 L359.05,183.68 L359.52,183.79 L360.00,183.88" style="stroke-width: 2; stroke: rgb(255, 0, 0); stroke-opacity: 0.8; stroke-dasharray: 2.25, 3.685;"/><path d=" M18.14,70.67 L18.61,71.28 L19.09,71.90 L19.57,72.55 L20.04,73.21 L20.52,73.89 L20.99,74.59 L21.47,75.31 L21.94,76.05 L22.42,76.81 L22.89,77.58 L23.37,78.38 L23.85,79.18 L24.32,80.01 L24.80,80.85 L25.27,81.71 L25.75,82.59 L26.22,83.48 L26.70,84.38 L27.17,85.30 L27.65,86.24 L28.12,87.19 L28.60,88.15 L29.08,89.13 L29.55,90.12 L30.03,91.12 L30.50,92.13 L30.98,93.16 L31.45,94.20 L31.93,95.25 L32.40,96.31 L32.88,97.38 L33.35,98.46 L33.83,99.55 L34.31,100.64 L34.78,101.75 L35.26,102.87 L35.73,103.99 L36.21,105.12 L36.68,106.26 L37.16,107.40 L37.63,108.55 L38.11,109.71 L38.58,110.87 L39.06,112.04 L39.54,113.21 L40.01,114.38 L40.49,115.56 L40.96,116.74 L41.44,117.92 L41.91,119.11 L42.39,120.29 L42.86,121.48 L43.34,122.67 L43.81,123.86 L44.29,125.05 L44.77,126.23 L45.24,127.42 L45.72,128.61 L46.19,129.79 L46.67,130.97 L47.14,132.15 L47.62,133.32 L48.09,134.49 L48.57,135.66 L49.04,136.82 L49.52,137.97 L50.00,139.13 L50.47,140.27 L50.95,141.41 L51.42,142.54 L51.90,143.66 L52.37,144.78 L52.85,145.88 L53.32,146.98 L53.80,148.07 L54.27,149.15 L54.75,150.22 L55.23,151.28 L55.70,152.33 L56.18,153.37 L56.65,154.40 L57.13,155.41 L57.60,156.42 L58.08,157.40 L58.55,158.38 L59.03,159.34 L59.51,160.29 L59.98,161.23 L60.46,162.15 L60.93,163.06 L61.41,163.95 L61.88,164.82 L62.36,165.68 L62.83,166.52 L63.31,167.35 L63.78,168.16 L64.26,168.95 L64.74,169.72 L65.21,170.48 L65.69,171.22 L66.16,171.94 L66.64,172.64 L67.11,173.33 L67.59,173.99 L68.06,174.63 L68.54,175.26 L69.01,175.86 L69.49,176.45 L69.97,177.01 L70.44,177.55 L70.92,178.08 L71.39,178.58 L71.87,179.06 L72.34,179.52 L72.82,179.96 L73.29,180.37 L73.77,180.77 L74.24,181.14 L74.72,181.49 L75.20,181.82 L75.67,182.12 L76.15,182.40 L76.62,182.66 L77.10,182.90 L77.57,183.12 L78.05,183.31 L78.52,183.48 L79.00,183.62 L79.47,183.74 L79.95,183.84 L80.43,183.92 L80.90,183.97 L81.38,184.00 L81.85,184.01 L82.33,183.99 L82.80,183.95 L83.28,183.89 L83.75,183.80 L84.23,183.69 L84.70,183.56 L85.18,183.40 L85.66,183.22 L86.13,183.02 L86.61,182.79 L87.08,182.55 L87.56,182.27 L88.03,181.98 L88.51,181.67 L88.98,181.33 L89.46,180.97 L89.93,180.59 L90.41,180.18 L90.89,179.76 L91.36,179.31 L91.84,178.84 L92.31,178.35 L92.79,177.84 L93.26,177.30 L93.74,176.75 L94.21,176.18 L94.69,175.58 L95.17,174.97 L95.64,174.34 L96.12,173.68 L96.59,173.01 L97.07,172.32 L97.54,171.61 L98.02,170.88 L98.49,170.13 L98.97,169.37 L99.44,168.58 L99.92,167.78 L100.40,166.97 L100.87,166.13 L101.35,165.28 L101.82,164.41 L102.30,163.53 L102.77,162.63 L103.25,161.72 L103.72,160.79 L104.20,159.85 L104.67,158.90 L105.15,157.93 L105.63,156.95 L106.10,155.95 L106.58,154.94 L107.05,153.92 L107.53,152.89 L108.00,151.85 L108.48,150.79 L108.95,149.73 L109.43,148.65 L109.90,147.57 L110.38,146.47 L110.86,145.37 L111.33,144.26 L111.81,143.14 L112.28,142.01 L112.76,140.88 L113.23,139.74 L113.71,138.59 L114.18,137.44 L114.66,136.28 L115.13,135.11 L115.61,133.95 L116.09,132.77 L116.56,131.60 L117.04,130.42 L117.51,129.24 L117.99,128.05 L118.46,126.87 L118.94,125.68 L119.41,124.49 L119.89,123.30 L120.36,122.12 L120.84,120.93 L121.32,119.74 L121.79,118.55 L122.27,117.37 L122.74,116.19 L123.22,115.01 L123.69,113.83 L124.17,112.66 L124.64,111.49 L125.12,110.33 L125.59,109.17 L126.07,108.02 L126.55,106.87 L127.02,105.73 L127.50,104.59 L127.97,103.47 L128.45,102.35 L128.92,101.23 L129.40,100.13 L129.87,99.04 L130.35,97.95 L130.83,96.88 L131.30,95.81 L131.78,94.76 L132.25,93.71 L132.73,92.68 L133.20,91.66 L133.68,90.65 L134.15,89.65 L134.63,88.67 L135.10,87.70 L135.58,86.74 L136.06,85.80 L136.53,84.87 L137.01,83.96 L137.48,83.06 L137.96,82.18 L138.43,81.31 L138.91,80.46 L139.38,79.62 L139.86,78.81 L140.33,78.00 L140.81,77.22 L141.29,76.45 L141.76,75.71 L142.24,74.98 L142.71,74.26 L143.19,73.57 L143.66,72.90 L144.14,72.24 L144.61,71.61 L145.09,70.99 L145.56,70.40 L146.04,69.82 L146.52,69.27 L146.99,68.74 L147.47,68.22 L147.94,67.73 L148.42,67.26 L148.89,66.81 L149.37,66.39 L149.84,65.98 L150.32,65.60 L150.79,65.24 L151.27,64.90 L151.75,64.58 L152.22,64.28 L152.70,64.01 L153.17,63.76 L153.65,63.54 L154.12,63.33 L154.60,63.15 L155.07,63.00 L155.55,62.86 L156.02,62.75 L156.50,62.66 L156.98,62.60 L157.45,62.56 L157.93,62.54 L158.40,62.54 L158.88,62.57 L159.35,62.62 L159.83,62.70 L160.30,62.80 L160.78,62.92 L161.25,63.06 L161.73,63.23 L162.21,63.42 L162.68,63.63 L163.16,63.87 L163.63,64.13 L164.11,64.41 L164.58,64.71 L165.06,65.04 L165.53,65.39 L166.01,65.76 L166.49,66.15 L166.96,66.56 L167.44,67.00 L167.91,67.46 L168.39,67.94 L168.86,68.44 L169.34,68.96 L169.81,69.50 L170.29,70.07 L170.76,70.65 L171.24,71.25 L171.72,71.88 L172.19,72.52 L172.67,73.18 L173.14,73.86 L173.62,74.56 L174.09,75.28 L174.57,76.02 L175.04,76.78 L175.52,77.55 L175.99,78.34 L176.47,79.15 L176.95,79.98 L177.42,80.82 L177.90,81.68 L178.37,82.55 L178.85,83.44 L179.32,84.35 L179.80,85.26 L180.27,86.20 L180.75,87.15 L181.22,88.11 L181.70,89.09 L182.18,90.08 L182.65,91.08 L183.13,92.09 L183.60,93.12 L184.08,94.15 L184.55,95.20 L185.03,96.26 L185.50,97.33 L185.98,98.41 L186.45,99.50 L186.93,100.60 L187.41,101.71 L187.88,102.82 L188.36,103.94 L188.83,105.08 L189.31,106.21 L189.78,107.36 L190.26,108.51 L190.73,109.66 L191.21,110.82 L191.68,111.99 L192.16,113.16 L192.64,114.33 L193.11,115.51 L193.59,116.69 L194.06,117.87 L194.54,119.06 L195.01,120.25 L195.49,121.43 L195.96,122.62 L196.44,123.81 L196.91,125.00 L197.39,126.19 L197.87,127.37 L198.34,128.56 L198.82,129.74 L199.29,130.92 L199.77,132.10 L200.24,133.27 L200.72,134.44 L201.19,135.61 L201.67,136.77 L202.15,137.93 L202.62,139.08 L203.10,140.22 L203.57,141.36 L204.05,142.49 L204.52,143.62 L205.00,144.73 L205.47,145.84 L205.95,146.94 L206.42,148.03 L206.90,149.11 L207.38,150.18 L207.85,151.24 L208.33,152.29 L208.80,153.33 L209.28,154.36 L209.75,155.37 L210.23,156.37 L210.70,157.36 L211.18,158.34 L211.65,159.31 L212.13,160.26 L212.61,161.19 L213.08,162.11 L213.56,163.02 L214.03,163.91 L214.51,164.79 L214.98,165.65 L215.46,166.49 L215.93,167.32 L216.41,168.13 L216.88,168.92 L217.36,169.69 L217.84,170.45 L218.31,171.19 L218.79,171.91 L219.26,172.61 L219.74,173.30 L220.21,173.96 L220.69,174.61 L221.16,175.23 L221.64,175.84 L222.11,176.42 L222.59,176.99 L223.07,177.53 L223.54,178.06 L224.02,178.56 L224.49,179.04 L224.97,179.50 L225.44,179.94 L225.92,180.36 L226.39,180.75 L226.87,181.12 L227.34,181.47 L227.82,181.80 L228.30,182.11 L228.77,182.39 L229.25,182.65 L229.72,182.89 L230.20,183.11 L230.67,183.30 L231.15,183.47 L231.62,183.62 L232.10,183.74 L232.57,183.84 L233.05,183.92 L233.53,183.97 L234.00,184.00 L234.48,184.01 L234.95,183.99 L235.43,183.95 L235.90,183.89 L236.38,183.80 L236.85,183.69 L237.33,183.56 L237.81,183.41 L238.28,183.23 L238.76,183.03 L239.23,182.80 L239.71,182.56 L240.18,182.29 L240.66,181.99 L241.13,181.68 L241.61,181.34 L242.08,180.98 L242.56,180.60 L243.04,180.20 L243.51,179.77 L243.99,179.33 L244.46,178.86 L244.94,178.37 L245.41,177.86 L245.89,177.33 L246.36,176.77 L246.84,176.20 L247.31,175.61 L247.79,174.99 L248.27,174.36 L248.74,173.71 L249.22,173.04 L249.69,172.35 L250.17,171.64 L250.64,170.91 L251.12,170.16 L251.59,169.40 L252.07,168.62 L252.54,167.82 L253.02,167.00 L253.50,166.17 L253.97,165.32 L254.45,164.45 L254.92,163.57 L255.40,162.67 L255.87,161.76 L256.35,160.83 L256.82,159.89 L257.30,158.94 L257.77,157.97 L258.25,156.99 L258.73,155.99 L259.20,154.98 L259.68,153.96 L260.15,152.93 L260.63,151.89 L261.10,150.83 L261.58,149.77 L262.05,148.70 L262.53,147.61 L263.00,146.52 L263.48,145.41 L263.96,144.30 L264.43,143.18 L264.91,142.06 L265.38,140.92 L265.86,139.78 L266.33,138.64 L266.81,137.48 L267.28,136.33 L267.76,135.16 L268.23,133.99 L268.71,132.82 L269.19,131.65 L269.66,130.47 L270.14,129.29 L270.61,128.10 L271.09,126.92 L271.56,125.73 L272.04,124.54 L272.51,123.35 L272.99,122.16 L273.47,120.98 L273.94,119.79 L274.42,118.60 L274.89,117.42 L275.37,116.24 L275.84,115.06 L276.32,113.88 L276.79,112.71 L277.27,111.54 L277.74,110.38 L278.22,109.22 L278.70,108.06 L279.17,106.92 L279.65,105.77 L280.12,104.64 L280.60,103.51 L281.07,102.39 L281.55,101.28 L282.02,100.18 L282.50,99.08 L282.97,98.00 L283.45,96.92 L283.93,95.85 L284.40,94.80 L284.88,93.75 L285.35,92.72 L285.83,91.70 L286.30,90.69 L286.78,89.69 L287.25,88.71 L287.73,87.74 L288.20,86.78 L288.68,85.84 L289.16,84.91 L289.63,84.00 L290.11,83.10 L290.58,82.21 L291.06,81.34 L291.53,80.49 L292.01,79.66 L292.48,78.84 L292.96,78.04 L293.43,77.25 L293.91,76.48 L294.39,75.74 L294.86,75.01 L295.34,74.29 L295.81,73.60 L296.29,72.93 L296.76,72.27 L297.24,71.63 L297.71,71.02 L298.19,70.42 L298.66,69.85 L299.14,69.29 L299.62,68.76 L300.09,68.24 L300.57,67.75 L301.04,67.28 L301.52,66.83 L301.99,66.40 L302.47,66.00 L302.94,65.61 L303.42,65.25 L303.89,64.91 L304.37,64.59 L304.85,64.30 L305.32,64.02 L305.80,63.77 L306.27,63.55 L306.75,63.34 L307.22,63.16 L307.70,63.00 L308.17,62.87 L308.65,62.75 L309.13,62.67 L309.60,62.60 L310.08,62.56 L310.55,62.54 L311.03,62.54 L311.50,62.57 L311.98,62.62 L312.45,62.69 L312.93,62.79 L313.40,62.91 L313.88,63.05 L314.36,63.22 L314.83,63.41 L315.31,63.62 L315.78,63.86 L316.26,64.11 L316.73,64.40 L317.21,64.70 L317.68,65.02 L318.16,65.37 L318.63,65.74 L319.11,66.13 L319.59,66.55 L320.06,66.98 L320.54,67.44 L321.01,67.92 L321.49,68.42 L321.96,68.94 L322.44,69.48 L322.91,70.04 L323.39,70.63 L323.86,71.23 L324.34,71.85 L324.82,72.49 L325.29,73.16 L325.77,73.84 L326.24,74.54 L326.72,75.25 L327.19,75.99 L327.67,76.75 L328.14,77.52 L328.62,78.31 L329.09,79.12 L329.57,79.94 L330.05,80.78 L330.52,81.64 L331.00,82.51 L331.47,83.40 L331.95,84.31 L332.42,85.23 L332.90,86.16 L333.37,87.11 L333.85,88.07 L334.32,89.05 L334.80,90.03 L335.28,91.04 L335.75,92.05 L336.23,93.07 L336.70,94.11 L337.18,95.16 L337.65,96.22 L338.13,97.29 L338.60,98.37 L339.08,99.46 L339.55,100.55 L340.03,101.66 L340.51,102.78 L340.98,103.90 L341.46,105.03 L341.93,106.17 L342.41,107.31 L342.88,108.46 L343.36,109.62 L343.83,110.78 L344.31,111.94 L344.79,113.11 L345.26,114.29 L345.74,115.46 L346.21,116.64 L346.69,117.83 L347.16,119.01 L347.64,120.20 L348.11,121.38 L348.59,122.57 L349.06,123.76 L349.54,124.95 L350.02,126.14 L350.49,127.32 L350.97,128.51 L351.44,129.69 L351.92,130.87 L352.39,132.05 L352.87,133.23 L353.34,134.40 L353.82,135.56 L354.29,136.72 L354.77,137.88 L355.25,139.03 L355.72,140.18 L356.20,141.32 L356.67,142.45 L357.15,143.57 L357.62,144.69 L358.10,145.80 L358.57,146.89 L359.05,147.99 L359.52,149.07 L360.00,150.14" style="stroke-width: 2; stroke: rgb(0, 0, 244); stroke-opacity: 0.8;"/><path d=" M18.14,70.67 L18.61,70.09 L19.09,69.53 L19.57,68.98 L20.04,68.46 L20.52,67.96 L20.99,67.48 L21.47,67.02 L21.94,66.58 L22.42,66.17 L22.89,65.77 L23.37,65.40 L23.85,65.05 L24.32,64.72 L24.80,64.42 L25.27,64.14 L25.75,63.88 L26.22,63.64 L26.70,63.43 L27.17,63.23 L27.65,63.07 L28.12,62.92 L28.60,62.80 L29.08,62.70 L29.55,62.63 L30.03,62.57 L30.50,62.54 L30.98,62.54 L31.45,62.55 L31.93,62.60 L32.40,62.66 L32.88,62.75 L33.35,62.86 L33.83,62.99 L34.31,63.15 L34.78,63.33 L35.26,63.53 L35.73,63.75 L36.21,64.00 L36.68,64.27 L37.16,64.57 L37.63,64.88 L38.11,65.22 L38.58,65.58 L39.06,65.96 L39.54,66.37 L40.01,66.79 L40.49,67.24 L40.96,67.71 L41.44,68.20 L41.91,68.72 L42.39,69.25 L42.86,69.80 L43.34,70.38 L43.81,70.97 L44.29,71.58 L44.77,72.22 L45.24,72.87 L45.72,73.54 L46.19,74.24 L46.67,74.95 L47.14,75.68 L47.62,76.42 L48.09,77.19 L48.57,77.97 L49.04,78.77 L49.52,79.59 L50.00,80.42 L50.47,81.27 L50.95,82.14 L51.42,83.02 L51.90,83.92 L52.37,84.83 L52.85,85.76 L53.32,86.70 L53.80,87.66 L54.27,88.63 L54.75,89.61 L55.23,90.61 L55.70,91.62 L56.18,92.64 L56.65,93.67 L57.13,94.71 L57.60,95.77 L58.08,96.83 L58.55,97.91 L59.03,98.99 L59.51,100.09 L59.98,101.19 L60.46,102.30 L60.93,103.42 L61.41,104.55 L61.88,105.68 L62.36,106.82 L62.83,107.97 L63.31,109.12 L63.78,110.28 L64.26,111.45 L64.74,112.61 L65.21,113.79 L65.69,114.96 L66.16,116.14 L66.64,117.32 L67.11,118.51 L67.59,119.69 L68.06,120.88 L68.54,122.07 L69.01,123.26 L69.49,124.44 L69.97,125.63 L70.44,126.82 L70.92,128.01 L71.39,129.19 L71.87,130.37 L72.34,131.55 L72.82,132.73 L73.29,133.90 L73.77,135.07 L74.24,136.23 L74.72,137.39 L75.20,138.54 L75.67,139.69 L76.15,140.83 L76.62,141.97 L77.10,143.09 L77.57,144.21 L78.05,145.32 L78.52,146.43 L79.00,147.52 L79.47,148.61 L79.95,149.68 L80.43,150.75 L80.90,151.80 L81.38,152.85 L81.85,153.88 L82.33,154.90 L82.80,155.91 L83.28,156.90 L83.75,157.89 L84.23,158.86 L84.70,159.81 L85.18,160.76 L85.66,161.68 L86.13,162.60 L86.61,163.50 L87.08,164.38 L87.56,165.25 L88.03,166.10 L88.51,166.93 L88.98,167.75 L89.46,168.55 L89.93,169.33 L90.41,170.10 L90.89,170.85 L91.36,171.58 L91.84,172.29 L92.31,172.98 L92.79,173.65 L93.26,174.31 L93.74,174.94 L94.21,175.56 L94.69,176.15 L95.17,176.73 L95.64,177.28 L96.12,177.81 L96.59,178.33 L97.07,178.82 L97.54,179.29 L98.02,179.74 L98.49,180.16 L98.97,180.57 L99.44,180.95 L99.92,181.31 L100.40,181.65 L100.87,181.97 L101.35,182.26 L101.82,182.53 L102.30,182.78 L102.77,183.01 L103.25,183.21 L103.72,183.39 L104.20,183.55 L104.67,183.68 L105.15,183.79 L105.63,183.88 L106.10,183.95 L106.58,183.99 L107.05,184.01 L107.53,184.00 L108.00,183.97 L108.48,183.92 L108.95,183.85 L109.43,183.75 L109.90,183.63 L110.38,183.48 L110.86,183.31 L111.33,183.12 L111.81,182.91 L112.28,182.67 L112.76,182.41 L113.23,182.13 L113.71,181.83 L114.18,181.50 L114.66,181.15 L115.13,180.78 L115.61,180.39 L116.09,179.97 L116.56,179.54 L117.04,179.08 L117.51,178.60 L117.99,178.10 L118.46,177.58 L118.94,177.03 L119.41,176.47 L119.89,175.89 L120.36,175.28 L120.84,174.66 L121.32,174.02 L121.79,173.35 L122.27,172.67 L122.74,171.97 L123.22,171.25 L123.69,170.51 L124.17,169.76 L124.64,168.98 L125.12,168.19 L125.59,167.38 L126.07,166.56 L126.55,165.71 L127.02,164.86 L127.50,163.98 L127.97,163.09 L128.45,162.19 L128.92,161.27 L129.40,160.33 L129.87,159.38 L130.35,158.42 L130.83,157.44 L131.30,156.46 L131.78,155.45 L132.25,154.44 L132.73,153.41 L133.20,152.38 L133.68,151.33 L134.15,150.27 L134.63,149.20 L135.10,148.12 L135.58,147.03 L136.06,145.93 L136.53,144.82 L137.01,143.71 L137.48,142.58 L137.96,141.45 L138.43,140.32 L138.91,139.17 L139.38,138.02 L139.86,136.87 L140.33,135.70 L140.81,134.54 L141.29,133.37 L141.76,132.19 L142.24,131.02 L142.71,129.84 L143.19,128.65 L143.66,127.47 L144.14,126.28 L144.61,125.10 L145.09,123.91 L145.56,122.72 L146.04,121.53 L146.52,120.34 L146.99,119.16 L147.47,117.97 L147.94,116.79 L148.42,115.61 L148.89,114.43 L149.37,113.25 L149.84,112.08 L150.32,110.92 L150.79,109.76 L151.27,108.60 L151.75,107.45 L152.22,106.31 L152.70,105.17 L153.17,104.04 L153.65,102.91 L154.12,101.80 L154.60,100.69 L155.07,99.59 L155.55,98.50 L156.02,97.42 L156.50,96.35 L156.98,95.29 L157.45,94.24 L157.93,93.20 L158.40,92.17 L158.88,91.16 L159.35,90.16 L159.83,89.17 L160.30,88.19 L160.78,87.23 L161.25,86.28 L161.73,85.34 L162.21,84.42 L162.68,83.51 L163.16,82.62 L163.63,81.75 L164.11,80.89 L164.58,80.04 L165.06,79.22 L165.53,78.41 L166.01,77.62 L166.49,76.84 L166.96,76.08 L167.44,75.34 L167.91,74.62 L168.39,73.92 L168.86,73.24 L169.34,72.57 L169.81,71.93 L170.29,71.30 L170.76,70.70 L171.24,70.11 L171.72,69.55 L172.19,69.00 L172.67,68.48 L173.14,67.98 L173.62,67.50 L174.09,67.04 L174.57,66.60 L175.04,66.18 L175.52,65.79 L175.99,65.42 L176.47,65.06 L176.95,64.74 L177.42,64.43 L177.90,64.15 L178.37,63.89 L178.85,63.65 L179.32,63.43 L179.80,63.24 L180.27,63.07 L180.75,62.93 L181.22,62.80 L181.70,62.70 L182.18,62.63 L182.65,62.57 L183.13,62.54 L183.60,62.54 L184.08,62.55 L184.55,62.59 L185.03,62.66 L185.50,62.74 L185.98,62.85 L186.45,62.98 L186.93,63.14 L187.41,63.32 L187.88,63.52 L188.36,63.74 L188.83,63.99 L189.31,64.26 L189.78,64.55 L190.26,64.87 L190.73,65.21 L191.21,65.57 L191.68,65.95 L192.16,66.35 L192.64,66.78 L193.11,67.22 L193.59,67.69 L194.06,68.18 L194.54,68.69 L195.01,69.23 L195.49,69.78 L195.96,70.35 L196.44,70.94 L196.91,71.56 L197.39,72.19 L197.87,72.84 L198.34,73.52 L198.82,74.21 L199.29,74.92 L199.77,75.65 L200.24,76.39 L200.72,77.16 L201.19,77.94 L201.67,78.74 L202.15,79.56 L202.62,80.39 L203.10,81.24 L203.57,82.11 L204.05,82.99 L204.52,83.88 L205.00,84.80 L205.47,85.72 L205.95,86.67 L206.42,87.62 L206.90,88.59 L207.38,89.57 L207.85,90.57 L208.33,91.58 L208.80,92.60 L209.28,93.63 L209.75,94.67 L210.23,95.72 L210.70,96.79 L211.18,97.86 L211.65,98.95 L212.13,100.04 L212.61,101.14 L213.08,102.26 L213.56,103.37 L214.03,104.50 L214.51,105.64 L214.98,106.78 L215.46,107.92 L215.93,109.08 L216.41,110.23 L216.88,111.40 L217.36,112.57 L217.84,113.74 L218.31,114.91 L218.79,116.09 L219.26,117.27 L219.74,118.46 L220.21,119.64 L220.69,120.83 L221.16,122.02 L221.64,123.21 L222.11,124.40 L222.59,125.58 L223.07,126.77 L223.54,127.96 L224.02,129.14 L224.49,130.32 L224.97,131.50 L225.44,132.68 L225.92,133.85 L226.39,135.02 L226.87,136.18 L227.34,137.34 L227.82,138.50 L228.30,139.64 L228.77,140.79 L229.25,141.92 L229.72,143.05 L230.20,144.17 L230.67,145.28 L231.15,146.38 L231.62,147.48 L232.10,148.56 L232.57,149.64 L233.05,150.71 L233.53,151.76 L234.00,152.80 L234.48,153.84 L234.95,154.86 L235.43,155.87 L235.90,156.86 L236.38,157.85 L236.85,158.82 L237.33,159.78 L237.81,160.72 L238.28,161.65 L238.76,162.56 L239.23,163.46 L239.71,164.34 L240.18,165.21 L240.66,166.06 L241.13,166.90 L241.61,167.72 L242.08,168.52 L242.56,169.30 L243.04,170.07 L243.51,170.82 L243.99,171.55 L244.46,172.26 L244.94,172.95 L245.41,173.63 L245.89,174.28 L246.36,174.92 L246.84,175.53 L247.31,176.13 L247.79,176.70 L248.27,177.26 L248.74,177.79 L249.22,178.31 L249.69,178.80 L250.17,179.27 L250.64,179.72 L251.12,180.15 L251.59,180.55 L252.07,180.94 L252.54,181.30 L253.02,181.64 L253.50,181.96 L253.97,182.25 L254.45,182.52 L254.92,182.77 L255.40,183.00 L255.87,183.20 L256.35,183.39 L256.82,183.54 L257.30,183.68 L257.77,183.79 L258.25,183.88 L258.73,183.94 L259.20,183.99 L259.68,184.01 L260.15,184.00 L260.63,183.97 L261.10,183.92 L261.58,183.85 L262.05,183.75 L262.53,183.63 L263.00,183.49 L263.48,183.32 L263.96,183.13 L264.43,182.92 L264.91,182.68 L265.38,182.43 L265.86,182.14 L266.33,181.84 L266.81,181.52 L267.28,181.17 L267.76,180.80 L268.23,180.41 L268.71,179.99 L269.19,179.56 L269.66,179.10 L270.14,178.62 L270.61,178.12 L271.09,177.60 L271.56,177.06 L272.04,176.49 L272.51,175.91 L272.99,175.31 L273.47,174.68 L273.94,174.04 L274.42,173.38 L274.89,172.70 L275.37,172.00 L275.84,171.28 L276.32,170.54 L276.79,169.79 L277.27,169.01 L277.74,168.22 L278.22,167.42 L278.70,166.59 L279.17,165.75 L279.65,164.89 L280.12,164.02 L280.60,163.13 L281.07,162.22 L281.55,161.30 L282.02,160.37 L282.50,159.42 L282.97,158.46 L283.45,157.48 L283.93,156.50 L284.40,155.49 L284.88,154.48 L285.35,153.46 L285.83,152.42 L286.30,151.37 L286.78,150.31 L287.25,149.24 L287.73,148.16 L288.20,147.07 L288.68,145.97 L289.16,144.87 L289.63,143.75 L290.11,142.63 L290.58,141.50 L291.06,140.36 L291.53,139.22 L292.01,138.07 L292.48,136.91 L292.96,135.75 L293.43,134.59 L293.91,133.42 L294.39,132.24 L294.86,131.07 L295.34,129.89 L295.81,128.70 L296.29,127.52 L296.76,126.33 L297.24,125.14 L297.71,123.95 L298.19,122.77 L298.66,121.58 L299.14,120.39 L299.62,119.20 L300.09,118.02 L300.57,116.84 L301.04,115.65 L301.52,114.48 L301.99,113.30 L302.47,112.13 L302.94,110.97 L303.42,109.80 L303.89,108.65 L304.37,107.50 L304.85,106.35 L305.32,105.21 L305.80,104.08 L306.27,102.96 L306.75,101.84 L307.22,100.73 L307.70,99.63 L308.17,98.54 L308.65,97.46 L309.13,96.39 L309.60,95.33 L310.08,94.28 L310.55,93.24 L311.03,92.22 L311.50,91.20 L311.98,90.20 L312.45,89.21 L312.93,88.23 L313.40,87.26 L313.88,86.31 L314.36,85.38 L314.83,84.46 L315.31,83.55 L315.78,82.66 L316.26,81.78 L316.73,80.92 L317.21,80.08 L317.68,79.25 L318.16,78.44 L318.63,77.65 L319.11,76.87 L319.59,76.11 L320.06,75.37 L320.54,74.65 L321.01,73.95 L321.49,73.26 L321.96,72.60 L322.44,71.95 L322.91,71.33 L323.39,70.72 L323.86,70.14 L324.34,69.57 L324.82,69.03 L325.29,68.50 L325.77,68.00 L326.24,67.52 L326.72,67.06 L327.19,66.62 L327.67,66.20 L328.14,65.80 L328.62,65.43 L329.09,65.08 L329.57,64.75 L330.05,64.44 L330.52,64.16 L331.00,63.90 L331.47,63.66 L331.95,63.44 L332.42,63.25 L332.90,63.08 L333.37,62.93 L333.85,62.81 L334.32,62.71 L334.80,62.63 L335.28,62.58 L335.75,62.54 L336.23,62.54 L336.70,62.55 L337.18,62.59 L337.65,62.65 L338.13,62.74 L338.60,62.85 L339.08,62.98 L339.55,63.13 L340.03,63.31 L340.51,63.51 L340.98,63.73 L341.46,63.98 L341.93,64.25 L342.41,64.54 L342.88,64.86 L343.36,65.19 L343.83,65.55 L344.31,65.93 L344.79,66.33 L345.26,66.76 L345.74,67.21 L346.21,67.67 L346.69,68.16 L347.16,68.67 L347.64,69.20 L348.11,69.76 L348.59,70.33 L349.06,70.92 L349.54,71.53 L350.02,72.17 L350.49,72.82 L350.97,73.49 L351.44,74.18 L351.92,74.89 L352.39,75.62 L352.87,76.36 L353.34,77.13 L353.82,77.91 L354.29,78.71 L354.77,79.52 L355.25,80.36 L355.72,81.20 L356.20,82.07 L356.67,82.95 L357.15,83.85 L357.62,84.76 L358.10,85.69 L358.57,86.63 L359.05,87.58 L359.52,88.55 L360.00,89.53" style="stroke-width: 2; stroke: rgb(0, 255, 0); stroke-opacity: 0.8; stroke-dasharray: 2.25, 3.685;"/><path d=" M18.14,123.27 L18.61,120.89 L19.09,118.52 L19.57,116.14 L20.04,113.77 L20.52,111.40 L20.99,109.04 L21.47,106.68 L21.94,104.33 L22.42,101.99 L22.89,99.65 L23.37,97.32 L23.85,95.01 L24.32,92.70 L24.80,90.40 L25.27,88.12 L25.75,85.85 L26.22,83.60 L26.70,81.36 L27.17,79.14 L27.65,76.93 L28.12,74.74 L28.60,72.57 L29.08,70.42 L29.55,68.29 L30.03,66.18 L30.50,64.09 L30.98,62.03 L31.45,59.99 L31.93,57.97 L32.40,55.98 L32.88,54.01 L33.35,52.07 L33.83,50.16 L34.31,48.28 L34.78,46.42 L35.26,44.60 L35.73,42.80 L36.21,41.03 L36.68,39.30 L37.16,37.60 L37.63,35.93 L38.11,34.29 L38.58,32.69 L39.06,31.13 L39.54,29.60 L40.01,28.10 L40.49,26.64 L40.96,25.22 L41.44,23.83 L41.91,22.49 L42.39,21.18 L42.86,19.91 L43.34,18.68 L43.81,17.49 L44.29,16.35 L44.77,15.24 L45.24,14.17 L45.72,13.15 L46.19,12.17 L46.67,11.23 L47.14,10.33 L47.62,9.48 L48.09,8.67 L48.57,7.90 L49.04,7.18 L49.52,6.50 L50.00,5.87 L50.47,5.28 L50.95,4.74 L51.42,4.24 L51.90,3.79 L52.37,3.39 L52.85,3.03 L53.32,2.71 L53.80,2.44 L54.27,2.22 L54.75,2.05 L55.23,1.92 L55.70,1.84 L56.18,1.80 L56.65,1.81 L57.13,1.87 L57.60,1.98 L58.08,2.13 L58.55,2.32 L59.03,2.57 L59.51,2.86 L59.98,3.19 L60.46,3.57 L60.93,4.00 L61.41,4.48 L61.88,4.99 L62.36,5.56 L62.83,6.17 L63.31,6.82 L63.78,7.52 L64.26,8.26 L64.74,9.05 L65.21,9.88 L65.69,10.75 L66.16,11.67 L66.64,12.63 L67.11,13.63 L67.59,14.68 L68.06,15.76 L68.54,16.89 L69.01,18.06 L69.49,19.27 L69.97,20.52 L70.44,21.80 L70.92,23.13 L71.39,24.49 L71.87,25.90 L72.34,27.34 L72.82,28.81 L73.29,30.33 L73.77,31.87 L74.24,33.46 L74.72,35.07 L75.20,36.73 L75.67,38.41 L76.15,40.13 L76.62,41.88 L77.10,43.66 L77.57,45.47 L78.05,47.31 L78.52,49.18 L79.00,51.08 L79.47,53.00 L79.95,54.95 L80.43,56.93 L80.90,58.94 L81.38,60.96 L81.85,63.02 L82.33,65.09 L82.80,67.19 L83.28,69.31 L83.75,71.45 L84.23,73.61 L84.70,75.79 L85.18,77.99 L85.66,80.20 L86.13,82.43 L86.61,84.68 L87.08,86.94 L87.56,89.22 L88.03,91.50 L88.51,93.80 L88.98,96.12 L89.46,98.44 L89.93,100.77 L90.41,103.11 L90.89,105.46 L91.36,107.81 L91.84,110.17 L92.31,112.54 L92.79,114.91 L93.26,117.28 L93.74,119.66 L94.21,122.04 L94.69,124.41 L95.17,126.79 L95.64,129.16 L96.12,131.54 L96.59,133.91 L97.07,136.27 L97.54,138.64 L98.02,140.99 L98.49,143.34 L98.97,145.68 L99.44,148.01 L99.92,150.33 L100.40,152.65 L100.87,154.95 L101.35,157.24 L101.82,159.51 L102.30,161.77 L102.77,164.02 L103.25,166.25 L103.72,168.47 L104.20,170.67 L104.67,172.85 L105.15,175.01 L105.63,177.15 L106.10,179.27 L106.58,181.37 L107.05,183.44 L107.53,185.50 L108.00,187.53 L108.48,189.53 L108.95,191.51 L109.43,193.46 L109.90,195.39 L110.38,197.29 L110.86,199.16 L111.33,201.00 L111.81,202.81 L112.28,204.60 L112.76,206.35 L113.23,208.06 L113.71,209.75 L114.18,211.40 L114.66,213.02 L115.13,214.61 L115.61,216.16 L116.09,217.67 L116.56,219.15 L117.04,220.59 L117.51,221.99 L117.99,223.36 L118.46,224.69 L118.94,225.98 L119.41,227.23 L119.89,228.44 L120.36,229.61 L120.84,230.73 L121.32,231.82 L121.79,232.87 L122.27,233.87 L122.74,234.83 L123.22,235.75 L123.69,236.63 L124.17,237.46 L124.64,238.25 L125.12,239.00 L125.59,239.70 L126.07,240.35 L126.55,240.96 L127.02,241.53 L127.50,242.05 L127.97,242.52 L128.45,242.95 L128.92,243.34 L129.40,243.67 L129.87,243.97 L130.35,244.21 L130.83,244.41 L131.30,244.56 L131.78,244.67 L132.25,244.73 L132.73,244.74 L133.20,244.71 L133.68,244.63 L134.15,244.50 L134.63,244.33 L135.10,244.11 L135.58,243.84 L136.06,243.53 L136.53,243.17 L137.01,242.77 L137.48,242.32 L137.96,241.83 L138.43,241.29 L138.91,240.70 L139.38,240.07 L139.86,239.39 L140.33,238.67 L140.81,237.91 L141.29,237.10 L141.76,236.25 L142.24,235.35 L142.71,234.42 L143.19,233.44 L143.66,232.41 L144.14,231.35 L144.61,230.24 L145.09,229.10 L145.56,227.91 L146.04,226.68 L146.52,225.42 L146.99,224.11 L147.47,222.76 L147.94,221.38 L148.42,219.96 L148.89,218.50 L149.37,217.01 L149.84,215.48 L150.32,213.92 L150.79,212.32 L151.27,210.68 L151.75,209.01 L152.22,207.31 L152.70,205.58 L153.17,203.82 L153.65,202.02 L154.12,200.20 L154.60,198.34 L155.07,196.46 L155.55,194.55 L156.02,192.61 L156.50,190.64 L156.98,188.65 L157.45,186.64 L157.93,184.60 L158.40,182.53 L158.88,180.45 L159.35,178.34 L159.83,176.21 L160.30,174.06 L160.78,171.89 L161.25,169.70 L161.73,167.50 L162.21,165.28 L162.68,163.04 L163.16,160.78 L163.63,158.51 L164.11,156.23 L164.58,153.94 L165.06,151.63 L165.53,149.32 L166.01,146.99 L166.49,144.65 L166.96,142.31 L167.44,139.96 L167.91,137.60 L168.39,135.24 L168.86,132.87 L169.34,130.50 L169.81,128.12 L170.29,125.75 L170.76,123.37 L171.24,120.99 L171.72,118.62 L172.19,116.24 L172.67,113.87 L173.14,111.50 L173.62,109.14 L174.09,106.78 L174.57,104.43 L175.04,102.08 L175.52,99.74 L175.99,97.42 L176.47,95.10 L176.95,92.79 L177.42,90.50 L177.90,88.21 L178.37,85.95 L178.85,83.69 L179.32,81.45 L179.80,79.23 L180.27,77.02 L180.75,74.83 L181.22,72.66 L181.70,70.51 L182.18,68.38 L182.65,66.27 L183.13,64.18 L183.60,62.11 L184.08,60.07 L184.55,58.05 L185.03,56.06 L185.50,54.09 L185.98,52.15 L186.45,50.24 L186.93,48.35 L187.41,46.50 L187.88,44.67 L188.36,42.87 L188.83,41.10 L189.31,39.37 L189.78,37.67 L190.26,36.00 L190.73,34.36 L191.21,32.76 L191.68,31.19 L192.16,29.66 L192.64,28.16 L193.11,26.70 L193.59,25.28 L194.06,23.89 L194.54,22.54 L195.01,21.23 L195.49,19.96 L195.96,18.73 L196.44,17.54 L196.91,16.39 L197.39,15.28 L197.87,14.21 L198.34,13.19 L198.82,12.21 L199.29,11.26 L199.77,10.37 L200.24,9.51 L200.72,8.70 L201.19,7.93 L201.67,7.21 L202.15,6.53 L202.62,5.89 L203.10,5.30 L203.57,4.76 L204.05,4.26 L204.52,3.81 L205.00,3.40 L205.47,3.04 L205.95,2.72 L206.42,2.45 L206.90,2.23 L207.38,2.06 L207.85,1.92 L208.33,1.84 L208.80,1.80 L209.28,1.81 L209.75,1.87 L210.23,1.97 L210.70,2.12 L211.18,2.32 L211.65,2.56 L212.13,2.84 L212.61,3.18 L213.08,3.56 L213.56,3.98 L214.03,4.46 L214.51,4.97 L214.98,5.53 L215.46,6.14 L215.93,6.79 L216.41,7.49 L216.88,8.23 L217.36,9.02 L217.84,9.85 L218.31,10.72 L218.79,11.63 L219.26,12.59 L219.74,13.59 L220.21,14.64 L220.69,15.72 L221.16,16.85 L221.64,18.01 L222.11,19.22 L222.59,20.46 L223.07,21.75 L223.54,23.07 L224.02,24.44 L224.49,25.84 L224.97,27.28 L225.44,28.75 L225.92,30.26 L226.39,31.81 L226.87,33.39 L227.34,35.01 L227.82,36.66 L228.30,38.34 L228.77,40.06 L229.25,41.81 L229.72,43.58 L230.20,45.39 L230.67,47.23 L231.15,49.10 L231.62,51.00 L232.10,52.92 L232.57,54.87 L233.05,56.85 L233.53,58.85 L234.00,60.88 L234.48,62.93 L234.95,65.01 L235.43,67.11 L235.90,69.22 L236.38,71.36 L236.85,73.52 L237.33,75.70 L237.81,77.90 L238.28,80.11 L238.76,82.34 L239.23,84.59 L239.71,86.85 L240.18,89.12 L240.66,91.41 L241.13,93.71 L241.61,96.02 L242.08,98.34 L242.56,100.67 L243.04,103.01 L243.51,105.36 L243.99,107.72 L244.46,110.08 L244.94,112.44 L245.41,114.81 L245.89,117.19 L246.36,119.56 L246.84,121.94 L247.31,124.32 L247.79,126.69 L248.27,129.07 L248.74,131.44 L249.22,133.81 L249.69,136.18 L250.17,138.54 L250.64,140.89 L251.12,143.24 L251.59,145.58 L252.07,147.92 L252.54,150.24 L253.02,152.55 L253.50,154.85 L253.97,157.14 L254.45,159.42 L254.92,161.68 L255.40,163.93 L255.87,166.16 L256.35,168.38 L256.82,170.58 L257.30,172.76 L257.77,174.92 L258.25,177.06 L258.73,179.18 L259.20,181.28 L259.68,183.36 L260.15,185.41 L260.63,187.44 L261.10,189.45 L261.58,191.43 L262.05,193.39 L262.53,195.31 L263.00,197.21 L263.48,199.09 L263.96,200.93 L264.43,202.74 L264.91,204.52 L265.38,206.28 L265.86,208.00 L266.33,209.68 L266.81,211.34 L267.28,212.96 L267.76,214.54 L268.23,216.09 L268.71,217.61 L269.19,219.09 L269.66,220.53 L270.14,221.94 L270.61,223.31 L271.09,224.63 L271.56,225.93 L272.04,227.18 L272.51,228.39 L272.99,229.56 L273.47,230.69 L273.94,231.78 L274.42,232.83 L274.89,233.83 L275.37,234.80 L275.84,235.72 L276.32,236.59 L276.79,237.43 L277.27,238.22 L277.74,238.97 L278.22,239.67 L278.70,240.33 L279.17,240.94 L279.65,241.51 L280.12,242.03 L280.60,242.51 L281.07,242.94 L281.55,243.32 L282.02,243.66 L282.50,243.95 L282.97,244.20 L283.45,244.40 L283.93,244.56 L284.40,244.67 L284.88,244.73 L285.35,244.74 L285.83,244.71 L286.30,244.63 L286.78,244.51 L287.25,244.34 L287.73,244.12 L288.20,243.86 L288.68,243.55 L289.16,243.19 L289.63,242.79 L290.11,242.34 L290.58,241.85 L291.06,241.31 L291.53,240.72 L292.01,240.10 L292.48,239.42 L292.96,238.70 L293.43,237.94 L293.91,237.14 L294.39,236.29 L294.86,235.39 L295.34,234.46 L295.81,233.48 L296.29,232.46 L296.76,231.39 L297.24,230.29 L297.71,229.14 L298.19,227.96 L298.66,226.73 L299.14,225.47 L299.62,224.16 L300.09,222.82 L300.57,221.44 L301.04,220.02 L301.52,218.56 L301.99,217.07 L302.47,215.54 L302.94,213.98 L303.42,212.38 L303.89,210.75 L304.37,209.08 L304.85,207.38 L305.32,205.65 L305.80,203.89 L306.27,202.10 L306.75,200.27 L307.22,198.42 L307.70,196.54 L308.17,194.63 L308.65,192.69 L309.13,190.73 L309.60,188.74 L310.08,186.72 L310.55,184.68 L311.03,182.62 L311.50,180.53 L311.98,178.43 L312.45,176.30 L312.93,174.15 L313.40,171.98 L313.88,169.79 L314.36,167.59 L314.83,165.37 L315.31,163.13 L315.78,160.87 L316.26,158.61 L316.73,156.33 L317.21,154.03 L317.68,151.73 L318.16,149.41 L318.63,147.08 L319.11,144.75 L319.59,142.40 L320.06,140.05 L320.54,137.70 L321.01,135.33 L321.49,132.96 L321.96,130.59 L322.44,128.22 L322.91,125.84 L323.39,123.47 L323.86,121.09 L324.34,118.71 L324.82,116.34 L325.29,113.97 L325.77,111.60 L326.24,109.23 L326.72,106.87 L327.19,104.52 L327.67,102.18 L328.14,99.84 L328.62,97.51 L329.09,95.19 L329.57,92.89 L330.05,90.59 L330.52,88.31 L331.00,86.04 L331.47,83.78 L331.95,81.54 L332.42,79.32 L332.90,77.11 L333.37,74.92 L333.85,72.75 L334.32,70.60 L334.80,68.46 L335.28,66.35 L335.75,64.26 L336.23,62.20 L336.70,60.15 L337.18,58.13 L337.65,56.14 L338.13,54.17 L338.60,52.23 L339.08,50.32 L339.55,48.43 L340.03,46.57 L340.51,44.74 L340.98,42.94 L341.46,41.18 L341.93,39.44 L342.41,37.74 L342.88,36.06 L343.36,34.43 L343.83,32.82 L344.31,31.25 L344.79,29.72 L345.26,28.22 L345.74,26.76 L346.21,25.33 L346.69,23.95 L347.16,22.60 L347.64,21.29 L348.11,20.01 L348.59,18.78 L349.06,17.59 L349.54,16.44 L350.02,15.33 L350.49,14.26 L350.97,13.23 L351.44,12.24 L351.92,11.30 L352.39,10.40 L352.87,9.54 L353.34,8.73 L353.82,7.96 L354.29,7.24 L354.77,6.56 L355.25,5.92 L355.72,5.33 L356.20,4.78 L356.67,4.28 L357.15,3.83 L357.62,3.42 L358.10,3.05 L358.57,2.74 L359.05,2.46 L359.52,2.24 L360.00,2.06" style="stroke-width: 2; stroke: rgb(0, 0, 0); stroke-opacity: 1; stroke-dasharray: 7.5, 6;"/></g></g><g class="test-xtl" style="font-family: &quot;Open Sans&quot;, verdana, arial, sans-serif;"><text text-anchor="middle" font-size="11" dominant-baseline="hanging" stroke="none" fill="rgb(50,50,50)" fill-opacity="1" x="56.30049713986084" y="131.27203369140625"></text><text text-anchor="middle" font-size="11" dominant-baseline="hanging" stroke="none" fill="rgb(50,50,50)" fill-opacity="1" x="94.46152894769041" y="131.27203369140625">2</text><text text-anchor="middle" font-size="11" dominant-baseline="hanging" stroke="none" fill="rgb(50,50,50)" fill-opacity="1" x="132.62256075552" y="131.27203369140625">3</text><text text-anchor="middle" font-size="11" dominant-baseline="hanging" stroke="none" fill="rgb(50,50,50)" fill-opacity="1" x="170.78359256334954" y="131.27203369140625">4</text><text text-anchor="middle" font-size="11" dominant-baseline="hanging" stroke="none" fill="rgb(50,50,50)" fill-opacity="1" x="208.94462437117912" y="131.27203369140625">5</text><text text-anchor="middle" font-size="11" dominant-baseline="hanging" stroke="none" fill="rgb(50,50,50)" fill-opacity="1" x="247.10565617900875" y="131.27203369140625">6</text><text text-anchor="middle" font-size="11" dominant-baseline="hanging" stroke="none" fill="rgb(50,50,50)" fill-opacity="1" x="285.2666879868383" y="131.27203369140625">7</text><text text-anchor="middle" font-size="11" dominant-baseline="hanging" stroke="none" fill="rgb(50,50,50)" fill-opacity="1" x="323.4277197946679" y="131.27203369140625">8</text><text text-anchor="middle" font-size="11" dominant-baseline="hanging" stroke="none" fill="rgb(50,50,50)" fill-opacity="1" x="9.13946533203125" y="129.27203369140625">0</text></g><g class="test-ytl" style="font-family: &quot;Open Sans&quot;, verdana, arial, sans-serif;"><text text-anchor="end" dominant-baseline="middle" font-size="11" stroke="none" fill="rgb(50,50,50)" fill-opacity="1" x="9.13946533203125" y="244.74237060546875">-10</text><text text-anchor="end" dominant-baseline="middle" font-size="11" stroke="none" fill="rgb(50,50,50)" fill-opacity="1" x="9.13946533203125" y="184.0072021484375">-5</text><text text-anchor="end" dominant-baseline="middle" font-size="11" stroke="none" fill="rgb(50,50,50)" fill-opacity="1" x="9.13946533203125" y="62.53686523437497">5</text><text text-anchor="end" dominant-baseline="middle" font-size="11" stroke="none" fill="rgb(50,50,50)" fill-opacity="1" x="9.13946533203125" y="1.8016967773437216">10</text></g><rect class="real" x="1" y="1" width="358" height="244" style="fill: transparent; stroke: none;"/></g></g></g><g/></g><g/><g/><g/></svg>
        <svg xmlns="http://www.w3.org/2000/svg" xmlns:xlink="http://www.w3.org/1999/xlink" width="660" height="294.6000061035156" style="width:660px;height:294.6000061035156px;font-family:Asana-Math, Asana;background:#FFF;"><g><g><g><text x="44.43751525878906" y="171.99998474121094" style="white-space:pre;stroke:none;fill:rgb(0,0,0);fill-opacity:1;font-size:15px;font-family:Arial, Helvetica, sans-serif;font-weight:400;font-style:normal;dominant-baseline:text-before-edge;text-decoration:none solid rgb(0, 0, 0);">C</text></g></g></g><g><g><g><g transform="matrix(1,0,0,1,127.01249694824219,40.75)"><path transform="matrix(0.017,0,0,-0.017,0,0)" d="M567 55C567 39 552 30 524 28L480 25L480 -3C582 0 582 0 602 0C622 0 622 0 724 -3L724 25L698 28C651 35 650 35 642 80L555 705L509 705L136 112C100 56 82 40 48 32L28 27L28 -3C120 0 120 0 140 0C159 0 161 0 247 -3L247 25L195 28C179 29 164 38 164 47C164 55 171 69 190 102L292 277L538 277L563 89L563 86C563 84 567 69 567 55ZM496 601L533 313L317 313Z" stroke="rgb(0,0,0)" stroke-opacity="1" stroke-width="8" fill="rgb(0,0,0)" fill-opacity="1"></path></g></g></g></g><g><g><g><g><g><g><g transform="matrix(1,0,0,1,127.68751525878906,240.34999084472656)"><path transform="matrix(0.017,0,0,-0.017,0,0)" d="M567 55C567 39 552 30 524 28L480 25L480 -3C582 0 582 0 602 0C622 0 622 0 724 -3L724 25L698 28C651 35 650 35 642 80L555 705L509 705L136 112C100 56 82 40 48 32L28 27L28 -3C120 0 120 0 140 0C159 0 161 0 247 -3L247 25L195 28C179 29 164 38 164 47C164 55 171 69 190 102L292 277L538 277L563 89L563 86C563 84 567 69 567 55ZM496 601L533 313L317 313Z" stroke="rgb(0,0,0)" stroke-opacity="1" stroke-width="8" fill="rgb(0,0,0)" fill-opacity="1"></path></g></g></g></g><svg xmlns="http://www.w3.org/2000/svg" x="127.68751525878906" y="221.34999084472656" height="6" width="12.77500057220459"><defs><clipPath id="ccp0.15391734780751443"><rect x="-0.5" y="-0.5" width="13.27500057220459" height="6.5"></rect></clipPath></defs><g clip-path="url(#ccp0.15391734780751443)"><svg xmlns="http://www.w3.org/2000/svg" x="0" y="0" height="20.399999618530273" width="17"><defs><clipPath id="ccp0.1142669540031962"><rect x="-0.5" y="-0.5" width="17.5" height="20.899999618530273"></rect></clipPath></defs><g clip-path="url(#ccp0.1142669540031962)"><g><g transform="matrix(1,0,0,1,0,17)"><path transform="matrix(0.017,0,0,-0.017,0,0)" d="M-877 790L1877 790L1877 850L-877 850Z" stroke="rgb(0,0,0)" stroke-opacity="1" stroke-width="8" fill="rgb(0,0,0)" fill-opacity="1"></path></g></g></g></svg></g></svg></g></g></g><g><g><g><g transform="matrix(1,0,0,1,214.83750915527344,190.72499084472656)"><path transform="matrix(0.017,0,0,-0.017,0,0)" d="M543 227C543 337 459 353 377 365C434 385 459 397 490 425C536 464 559 511 559 562C559 644 501 692 401 692C399 692 389 692 374 691L311 690C299 689 263 689 251 689C232 689 201 690 152 691L100 692L97 664L150 662C174 661 185 653 185 635C185 621 181 589 176 559L89 55C85 37 73 30 31 23L26 -3L63 -2C90 0 105 0 117 0C128 0 154 -1 180 -2L217 -3L237 -4C256 -5 269 -6 277 -6C392 -6 543 87 543 227ZM166 41L217 340L302 340C405 340 455 298 455 211C455 108 382 34 282 34C228 34 207 38 166 41ZM352 655C433 655 473 619 473 544C473 439 399 376 275 376L223 376L272 650C288 650 329 655 352 655Z" stroke="rgb(0,0,0)" stroke-opacity="1" stroke-width="8" fill="rgb(0,0,0)" fill-opacity="1"></path></g></g></g></g><g><g><g><g><g><g><g transform="matrix(1,0,0,1,43.31251525878906,91.83749389648438)"><path transform="matrix(0.017,0,0,-0.017,0,0)" d="M543 227C543 337 459 353 377 365C434 385 459 397 490 425C536 464 559 511 559 562C559 644 501 692 401 692C399 692 389 692 374 691L311 690C299 689 263 689 251 689C232 689 201 690 152 691L100 692L97 664L150 662C174 661 185 653 185 635C185 621 181 589 176 559L89 55C85 37 73 30 31 23L26 -3L63 -2C90 0 105 0 117 0C128 0 154 -1 180 -2L217 -3L237 -4C256 -5 269 -6 277 -6C392 -6 543 87 543 227ZM166 41L217 340L302 340C405 340 455 298 455 211C455 108 382 34 282 34C228 34 207 38 166 41ZM352 655C433 655 473 619 473 544C473 439 399 376 275 376L223 376L272 650C288 650 329 655 352 655Z" stroke="rgb(0,0,0)" stroke-opacity="1" stroke-width="8" fill="rgb(0,0,0)" fill-opacity="1"></path></g></g></g></g><svg xmlns="http://www.w3.org/2000/svg" x="43.31251525878906" y="72.83749389648438" height="6" width="10.375"><defs><clipPath id="ccp0.5272304249415793"><rect x="-0.5" y="-0.5" width="10.875" height="6.5"></rect></clipPath></defs><g clip-path="url(#ccp0.5272304249415793)"><svg xmlns="http://www.w3.org/2000/svg" x="0" y="0" height="20.399999618530273" width="17"><defs><clipPath id="ccp0.24007040707192195"><rect x="-0.5" y="-0.5" width="17.5" height="20.899999618530273"></rect></clipPath></defs><g clip-path="url(#ccp0.24007040707192195)"><g><g transform="matrix(1,0,0,1,0,17)"><path transform="matrix(0.017,0,0,-0.017,0,0)" d="M-877 790L1877 790L1877 850L-877 850Z" stroke="rgb(0,0,0)" stroke-opacity="1" stroke-width="8" fill="rgb(0,0,0)" fill-opacity="1"></path></g></g></g></svg></g></svg></g></g></g><g><g><g><g><g><g><g transform="matrix(1,0,0,1,215.5500030517578,91.21249389648438)"><path transform="matrix(0.017,0,0,-0.017,0,0)" d="M45 284C45 90 152 -18 343 -18C439 -18 510 5 600 67C600 67 610 103 610 103C610 103 600 110 600 110C506 53 454 35 376 35C219 35 133 131 133 309C133 447 190 653 418 653C489 653 541 639 597 603L597 519L624 519C629 576 637 619 651 665C575 694 518 706 456 706C276 706 45 578 45 284Z" stroke="rgb(0,0,0)" stroke-opacity="1" stroke-width="8" fill="rgb(0,0,0)" fill-opacity="1"></path></g></g></g></g><svg xmlns="http://www.w3.org/2000/svg" x="215.5500030517578" y="72.21249389648438" height="6" width="11.6875"><defs><clipPath id="ccp0.004931959391662577"><rect x="-0.5" y="-0.5" width="12.1875" height="6.5"></rect></clipPath></defs><g clip-path="url(#ccp0.004931959391662577)"><svg xmlns="http://www.w3.org/2000/svg" x="0" y="0" height="20.399999618530273" width="17"><defs><clipPath id="ccp0.516544001109912"><rect x="-0.5" y="-0.5" width="17.5" height="20.899999618530273"></rect></clipPath></defs><g clip-path="url(#ccp0.516544001109912)"><g><g transform="matrix(1,0,0,1,0,17)"><path transform="matrix(0.017,0,0,-0.017,0,0)" d="M-877 790L1877 790L1877 850L-877 850Z" stroke="rgb(0,0,0)" stroke-opacity="1" stroke-width="8" fill="rgb(0,0,0)" fill-opacity="1"></path></g></g></g></svg></g></svg></g></g></g><g><g><g><g transform="matrix(1,0,0,1,367.8000030517578,34.79998779296875)"><path transform="matrix(0.017,0,0,-0.017,0,0)" d="M567 55C567 39 552 30 524 28L480 25L480 -3C582 0 582 0 602 0C622 0 622 0 724 -3L724 25L698 28C651 35 650 35 642 80L555 705L509 705L136 112C100 56 82 40 48 32L28 27L28 -3C120 0 120 0 140 0C159 0 161 0 247 -3L247 25L195 28C179 29 164 38 164 47C164 55 171 69 190 102L292 277L538 277L563 89L563 86C563 84 567 69 567 55ZM496 601L533 313L317 313Z" stroke="rgb(255,0,0)" stroke-opacity="1" stroke-width="8" fill="rgb(255,0,0)" fill-opacity="1"></path></g></g><g><g><g transform="matrix(1,0,0,1,383.97499084472656,34.79998779296875)"><path transform="matrix(0.017,0,0,-0.017,0,0)" d="M949 272L743 486L711 452L836 300L65 300L65 241L836 241L711 89L743 55Z" stroke="rgb(0,0,0)" stroke-opacity="1" stroke-width="8" fill="rgb(0,0,0)" fill-opacity="1"></path></g></g></g><g><g><g><g><g transform="matrix(1,0,0,1,405.4500274658203,34.79998779296875)"><path transform="matrix(0.017,0,0,-0.017,0,0)" d="M45 284C45 90 152 -18 343 -18C439 -18 510 5 600 67C600 67 610 103 610 103C610 103 600 110 600 110C506 53 454 35 376 35C219 35 133 131 133 309C133 447 190 653 418 653C489 653 541 639 597 603L597 519L624 519C629 576 637 619 651 665C575 694 518 706 456 706C276 706 45 578 45 284Z" stroke="rgb(0,0,255)" stroke-opacity="1" stroke-width="8" fill="rgb(0,0,255)" fill-opacity="1"></path></g></g></g></g><svg xmlns="http://www.w3.org/2000/svg" x="405.4500274658203" y="15.79998779296875" height="6" width="11.6875"><defs><clipPath id="ccp0.9208769459162676"><rect x="-0.5" y="-0.5" width="12.1875" height="6.5"></rect></clipPath></defs><g clip-path="url(#ccp0.9208769459162676)"><svg xmlns="http://www.w3.org/2000/svg" x="0" y="0" height="20.399999618530273" width="17"><defs><clipPath id="ccp0.8757080816610565"><rect x="-0.5" y="-0.5" width="17.5" height="20.899999618530273"></rect></clipPath></defs><g clip-path="url(#ccp0.8757080816610565)"><g><g transform="matrix(1,0,0,1,0,17)"><path transform="matrix(0.017,0,0,-0.017,0,0)" d="M-877 790L1877 790L1877 850L-877 850Z" stroke="rgb(0,0,0)" stroke-opacity="1" stroke-width="8" fill="rgb(0,0,0)" fill-opacity="1"></path></g></g></g></svg></g></svg></g><g><g><g transform="matrix(1,0,0,1,421.3875274658203,34.79998779296875)"><path transform="matrix(0.017,0,0,-0.017,0,0)" d="M949 272L743 486L711 452L836 300L65 300L65 241L836 241L711 89L743 55Z" stroke="rgb(0,0,0)" stroke-opacity="1" stroke-width="8" fill="rgb(0,0,0)" fill-opacity="1"></path></g></g></g><g><g transform="matrix(1,0,0,1,442.0125274658203,34.79998779296875)"><path transform="matrix(0.017,0,0,-0.017,0,0)" d="M543 227C543 337 459 353 377 365C434 385 459 397 490 425C536 464 559 511 559 562C559 644 501 692 401 692C399 692 389 692 374 691L311 690C299 689 263 689 251 689C232 689 201 690 152 691L100 692L97 664L150 662C174 661 185 653 185 635C185 621 181 589 176 559L89 55C85 37 73 30 31 23L26 -3L63 -2C90 0 105 0 117 0C128 0 154 -1 180 -2L217 -3L237 -4C256 -5 269 -6 277 -6C392 -6 543 87 543 227ZM166 41L217 340L302 340C405 340 455 298 455 211C455 108 382 34 282 34C228 34 207 38 166 41ZM352 655C433 655 473 619 473 544C473 439 399 376 275 376L223 376L272 650C288 650 329 655 352 655Z" stroke="rgb(0,255,0)" stroke-opacity="1" stroke-width="8" fill="rgb(0,255,0)" fill-opacity="1"></path></g></g><g><g><g transform="matrix(1,0,0,1,455.78749084472656,34.79998779296875)"><path transform="matrix(0.017,0,0,-0.017,0,0)" d="M949 272L743 486L711 452L836 300L65 300L65 241L836 241L711 89L743 55Z" stroke="rgb(0,0,0)" stroke-opacity="1" stroke-width="8" fill="rgb(0,0,0)" fill-opacity="1"></path></g></g></g><g><g><g><g><g transform="matrix(1,0,0,1,477.2625274658203,34.79998779296875)"><path transform="matrix(0.017,0,0,-0.017,0,0)" d="M567 55C567 39 552 30 524 28L480 25L480 -3C582 0 582 0 602 0C622 0 622 0 724 -3L724 25L698 28C651 35 650 35 642 80L555 705L509 705L136 112C100 56 82 40 48 32L28 27L28 -3C120 0 120 0 140 0C159 0 161 0 247 -3L247 25L195 28C179 29 164 38 164 47C164 55 171 69 190 102L292 277L538 277L563 89L563 86C563 84 567 69 567 55ZM496 601L533 313L317 313Z" stroke="rgb(255,0,0)" stroke-opacity="1" stroke-width="8" fill="rgb(255,0,0)" fill-opacity="1"></path></g></g></g></g><svg xmlns="http://www.w3.org/2000/svg" x="477.2625274658203" y="15.79998779296875" height="6" width="12.77500057220459"><defs><clipPath id="ccp0.23752906353073033"><rect x="-0.5" y="-0.5" width="13.27500057220459" height="6.5"></rect></clipPath></defs><g clip-path="url(#ccp0.23752906353073033)"><svg xmlns="http://www.w3.org/2000/svg" x="0" y="0" height="20.399999618530273" width="17"><defs><clipPath id="ccp0.8626381279628097"><rect x="-0.5" y="-0.5" width="17.5" height="20.899999618530273"></rect></clipPath></defs><g clip-path="url(#ccp0.8626381279628097)"><g><g transform="matrix(1,0,0,1,0,17)"><path transform="matrix(0.017,0,0,-0.017,0,0)" d="M-877 790L1877 790L1877 850L-877 850Z" stroke="rgb(0,0,0)" stroke-opacity="1" stroke-width="8" fill="rgb(0,0,0)" fill-opacity="1"></path></g></g></g></svg></g></svg></g><g><g><g transform="matrix(1,0,0,1,494.28749084472656,34.79998779296875)"><path transform="matrix(0.017,0,0,-0.017,0,0)" d="M949 272L743 486L711 452L836 300L65 300L65 241L836 241L711 89L743 55Z" stroke="rgb(0,0,0)" stroke-opacity="1" stroke-width="8" fill="rgb(0,0,0)" fill-opacity="1"></path></g></g></g><g><g transform="matrix(1,0,0,1,514.9124908447266,34.79998779296875)"><path transform="matrix(0.017,0,0,-0.017,0,0)" d="M45 284C45 90 152 -18 343 -18C439 -18 510 5 600 67C600 67 610 103 610 103C610 103 600 110 600 110C506 53 454 35 376 35C219 35 133 131 133 309C133 447 190 653 418 653C489 653 541 639 597 603L597 519L624 519C629 576 637 619 651 665C575 694 518 706 456 706C276 706 45 578 45 284Z" stroke="rgb(0,0,255)" stroke-opacity="1" stroke-width="8" fill="rgb(0,0,255)" fill-opacity="1"></path></g></g><g><g><g transform="matrix(1,0,0,1,530.0000152587891,34.79998779296875)"><path transform="matrix(0.017,0,0,-0.017,0,0)" d="M949 272L743 486L711 452L836 300L65 300L65 241L836 241L711 89L743 55Z" stroke="rgb(0,0,0)" stroke-opacity="1" stroke-width="8" fill="rgb(0,0,0)" fill-opacity="1"></path></g></g></g><g><g><g><g><g transform="matrix(1,0,0,1,551.4749908447266,34.79998779296875)"><path transform="matrix(0.017,0,0,-0.017,0,0)" d="M543 227C543 337 459 353 377 365C434 385 459 397 490 425C536 464 559 511 559 562C559 644 501 692 401 692C399 692 389 692 374 691L311 690C299 689 263 689 251 689C232 689 201 690 152 691L100 692L97 664L150 662C174 661 185 653 185 635C185 621 181 589 176 559L89 55C85 37 73 30 31 23L26 -3L63 -2C90 0 105 0 117 0C128 0 154 -1 180 -2L217 -3L237 -4C256 -5 269 -6 277 -6C392 -6 543 87 543 227ZM166 41L217 340L302 340C405 340 455 298 455 211C455 108 382 34 282 34C228 34 207 38 166 41ZM352 655C433 655 473 619 473 544C473 439 399 376 275 376L223 376L272 650C288 650 329 655 352 655Z" stroke="rgb(0,255,0)" stroke-opacity="1" stroke-width="8" fill="rgb(0,255,0)" fill-opacity="1"></path></g></g></g></g><svg xmlns="http://www.w3.org/2000/svg" x="551.4749908447266" y="15.79998779296875" height="6" width="10.375"><defs><clipPath id="ccp0.3036591658020571"><rect x="-0.5" y="-0.5" width="10.875" height="6.5"></rect></clipPath></defs><g clip-path="url(#ccp0.3036591658020571)"><svg xmlns="http://www.w3.org/2000/svg" x="0" y="0" height="20.399999618530273" width="17"><defs><clipPath id="ccp0.6979547144350702"><rect x="-0.5" y="-0.5" width="17.5" height="20.899999618530273"></rect></clipPath></defs><g clip-path="url(#ccp0.6979547144350702)"><g><g transform="matrix(1,0,0,1,0,17)"><path transform="matrix(0.017,0,0,-0.017,0,0)" d="M-877 790L1877 790L1877 850L-877 850Z" stroke="rgb(0,0,0)" stroke-opacity="1" stroke-width="8" fill="rgb(0,0,0)" fill-opacity="1"></path></g></g></g></svg></g></svg></g></g></g></svg>
</svg>
