<svg xmlns="http://www.w3.org/2000/svg" xmlns:xlink="http://www.w3.org/1999/xlink" x="0" y="0" width="662" height="312" style="
        width:662px;
        height:312px;
        background: #FFF;
        fill: none;
">
        <svg xmlns="http://www.w3.org/2000/svg"/>
        
        <svg xmlns="http://www.w3.org/2000/svg" class="role-diagram-draw-area"><g class="shapes-region" style="stroke: black; fill: none;"><g class="composite-shape" data-amt="diagram/shapes/plot" transform="matrix(1,0,0,1,20,20)"><g><g><g class="test-xgi"><line x1="46.42333987355232" y1="0" x2="46.42333987355232" y2="278.875" fill="none" stroke="#c3c3c3" stroke-width="0.5"/><line x1="151.01684573292732" y1="0" x2="151.01684573292732" y2="278.875" fill="none" stroke="#c3c3c3" stroke-width="0.5"/><line x1="255.6103515923023" y1="0" x2="255.6103515923023" y2="278.875" fill="none" stroke="#c3c3c3" stroke-width="0.5"/><line x1="360.2038574516773" y1="0" x2="360.2038574516773" y2="278.875" fill="none" stroke="#c3c3c3" stroke-width="0.5"/><line x1="464.79736331105227" y1="0" x2="464.79736331105227" y2="278.875" fill="none" stroke="#c3c3c3" stroke-width="0.5"/><line x1="569.3908691704273" y1="0" x2="569.3908691704273" y2="278.875" fill="none" stroke="#c3c3c3" stroke-width="0.5"/></g><g class="test-ygi"><line x1="0" y1="230.8504638671875" x2="618.6000061035156" y2="230.8504638671875" fill="none" stroke="#c3c3c3" stroke-width="0.5"/><line x1="0" y1="126.25695800781247" x2="618.6000061035156" y2="126.25695800781247" fill="none" stroke="#c3c3c3" stroke-width="0.5"/><line x1="0" y1="21.663452148437443" x2="618.6000061035156" y2="21.663452148437443" fill="none" stroke="#c3c3c3" stroke-width="0.5"/></g></g><g><g class="test-xti" style="font-family: Asana-Math, Asana;"><line x1="0" y1="230.8504638671875" x2="614.6000061035156" y2="230.8504638671875" fill="none" stroke="rgb(50,50,50)" stroke-opacity="1" stroke-width="1"/><line x1="46.42333987355232" y1="226.8504638671875" x2="46.42333987355232" y2="234.8504638671875" fill="none" stroke="rgb(50,50,50)" stroke-opacity="1" stroke-width="1"/><line x1="151.01684573292732" y1="226.8504638671875" x2="151.01684573292732" y2="234.8504638671875" fill="none" stroke="rgb(50,50,50)" stroke-opacity="1" stroke-width="1"/><line x1="360.2038574516773" y1="226.8504638671875" x2="360.2038574516773" y2="234.8504638671875" fill="none" stroke="rgb(50,50,50)" stroke-opacity="1" stroke-width="1"/><line x1="464.79736331105227" y1="226.8504638671875" x2="464.79736331105227" y2="234.8504638671875" fill="none" stroke="rgb(50,50,50)" stroke-opacity="1" stroke-width="1"/><line x1="569.3908691704273" y1="226.8504638671875" x2="569.3908691704273" y2="234.8504638671875" fill="none" stroke="rgb(50,50,50)" stroke-opacity="1" stroke-width="1"/><path d="M609.6000061035156,227.2504638671875 L617.6000061035156,230.8504638671875 L609.6000061035156,234.4504638671875 Z" stroke="none" stroke-width="1" fill="rgb(50,50,50)" fill-opacity="1"/></g><g class="test-yti" style="font-family: Asana-Math, Asana;"><line x1="255.61035159230232" y1="4" x2="255.61035159230232" y2="278.875" fill="none" stroke="rgb(50,50,50)" stroke-opacity="1" stroke-width="1"/><line x1="251.61035159230232" y1="126.25695800781247" x2="259.6103515923023" y2="126.25695800781247" fill="none" stroke="rgb(50,50,50)" stroke-opacity="1" stroke-width="1"/><line x1="251.61035159230232" y1="21.663452148437443" x2="259.6103515923023" y2="21.663452148437443" fill="none" stroke="rgb(50,50,50)" stroke-opacity="1" stroke-width="1"/><path d="M252.01035159230233,9 L255.61035159230232,1 L259.21035159230235,9 Z" stroke="none" stroke-width="1" fill="rgb(50,50,50)" fill-opacity="1"/></g><g class="test-plot-expression"><defs><clipPath id="cpx610s39al"><rect x="1" y="1" width="616.6000061035156" height="276.875"/></clipPath></defs><g clip-path="url(#cpx610s39al)"><g><circle cx="255.61035159230232" cy="209.9317626953125" r="4" style="stroke-width: 3; stroke: rgb(68, 128, 194); stroke-opacity: 0.8; fill: rgb(68, 128, 194); fill-opacity: 0.15;"/><circle cx="297.4477539360523" cy="178.5537109375" r="4" style="stroke-width: 3; stroke: rgb(68, 128, 194); stroke-opacity: 0.8; fill: rgb(68, 128, 194); fill-opacity: 0.15;"/><circle cx="318.3664551079273" cy="136.71630859375" r="4" style="stroke-width: 3; stroke: rgb(68, 128, 194); stroke-opacity: 0.8; fill: rgb(68, 128, 194); fill-opacity: 0.15;"/><circle cx="339.2851562798023" cy="126.2569580078125" r="4" style="stroke-width: 3; stroke: rgb(68, 128, 194); stroke-opacity: 0.8; fill: rgb(68, 128, 194); fill-opacity: 0.15;"/><circle cx="360.2038574516773" cy="105.33825683593747" r="4" style="stroke-width: 3; stroke: rgb(68, 128, 194); stroke-opacity: 0.8; fill: rgb(68, 128, 194); fill-opacity: 0.15;"/></g><path d=" M0.00,476.16 L0.56,475.58 L1.13,475.00 L1.69,474.41 L2.25,473.83 L2.81,473.25 L3.38,472.67 L3.94,472.09 L4.50,471.51 L5.07,470.92 L5.63,470.34 L6.19,469.76 L6.75,469.18 L7.32,468.60 L7.88,468.01 L8.44,467.43 L9.01,466.85 L9.57,466.27 L10.13,465.69 L10.69,465.10 L11.26,464.52 L11.82,463.94 L12.38,463.36 L12.95,462.78 L13.51,462.20 L14.07,461.61 L14.63,461.03 L15.20,460.45 L15.76,459.87 L16.32,459.29 L16.89,458.70 L17.45,458.12 L18.01,457.54 L18.57,456.96 L19.14,456.38 L19.70,455.79 L20.26,455.21 L20.83,454.63 L21.39,454.05 L21.95,453.47 L22.52,452.88 L23.08,452.30 L23.64,451.72 L24.20,451.14 L24.77,450.56 L25.33,449.98 L25.89,449.39 L26.46,448.81 L27.02,448.23 L27.58,447.65 L28.14,447.07 L28.71,446.48 L29.27,445.90 L29.83,445.32 L30.40,444.74 L30.96,444.16 L31.52,443.57 L32.08,442.99 L32.65,442.41 L33.21,441.83 L33.77,441.25 L34.34,440.66 L34.90,440.08 L35.46,439.50 L36.02,438.92 L36.59,438.34 L37.15,437.76 L37.71,437.17 L38.28,436.59 L38.84,436.01 L39.40,435.43 L39.96,434.85 L40.53,434.26 L41.09,433.68 L41.65,433.10 L42.22,432.52 L42.78,431.94 L43.34,431.35 L43.90,430.77 L44.47,430.19 L45.03,429.61 L45.59,429.03 L46.16,428.44 L46.72,427.86 L47.28,427.28 L47.84,426.70 L48.41,426.12 L48.97,425.54 L49.53,424.95 L50.10,424.37 L50.66,423.79 L51.22,423.21 L51.78,422.63 L52.35,422.04 L52.91,421.46 L53.47,420.88 L54.04,420.30 L54.60,419.72 L55.16,419.13 L55.72,418.55 L56.29,417.97 L56.85,417.39 L57.41,416.81 L57.98,416.22 L58.54,415.64 L59.10,415.06 L59.66,414.48 L60.23,413.90 L60.79,413.32 L61.35,412.73 L61.92,412.15 L62.48,411.57 L63.04,410.99 L63.60,410.41 L64.17,409.82 L64.73,409.24 L65.29,408.66 L65.86,408.08 L66.42,407.50 L66.98,406.91 L67.55,406.33 L68.11,405.75 L68.67,405.17 L69.23,404.59 L69.80,404.00 L70.36,403.42 L70.92,402.84 L71.49,402.26 L72.05,401.68 L72.61,401.10 L73.17,400.51 L73.74,399.93 L74.30,399.35 L74.86,398.77 L75.43,398.19 L75.99,397.60 L76.55,397.02 L77.11,396.44 L77.68,395.86 L78.24,395.28 L78.80,394.69 L79.37,394.11 L79.93,393.53 L80.49,392.95 L81.05,392.37 L81.62,391.79 L82.18,391.20 L82.74,390.62 L83.31,390.04 L83.87,389.46 L84.43,388.88 L84.99,388.29 L85.56,387.71 L86.12,387.13 L86.68,386.55 L87.25,385.97 L87.81,385.38 L88.37,384.80 L88.93,384.22 L89.50,383.64 L90.06,383.06 L90.62,382.47 L91.19,381.89 L91.75,381.31 L92.31,380.73 L92.87,380.15 L93.44,379.57 L94.00,378.98 L94.56,378.40 L95.13,377.82 L95.69,377.24 L96.25,376.66 L96.81,376.07 L97.38,375.49 L97.94,374.91 L98.50,374.33 L99.07,373.75 L99.63,373.16 L100.19,372.58 L100.75,372.00 L101.32,371.42 L101.88,370.84 L102.44,370.25 L103.01,369.67 L103.57,369.09 L104.13,368.51 L104.69,367.93 L105.26,367.35 L105.82,366.76 L106.38,366.18 L106.95,365.60 L107.51,365.02 L108.07,364.44 L108.63,363.85 L109.20,363.27 L109.76,362.69 L110.32,362.11 L110.89,361.53 L111.45,360.94 L112.01,360.36 L112.58,359.78 L113.14,359.20 L113.70,358.62 L114.26,358.03 L114.83,357.45 L115.39,356.87 L115.95,356.29 L116.52,355.71 L117.08,355.13 L117.64,354.54 L118.20,353.96 L118.77,353.38 L119.33,352.80 L119.89,352.22 L120.46,351.63 L121.02,351.05 L121.58,350.47 L122.14,349.89 L122.71,349.31 L123.27,348.72 L123.83,348.14 L124.40,347.56 L124.96,346.98 L125.52,346.40 L126.08,345.81 L126.65,345.23 L127.21,344.65 L127.77,344.07 L128.34,343.49 L128.90,342.91 L129.46,342.32 L130.02,341.74 L130.59,341.16 L131.15,340.58 L131.71,340.00 L132.28,339.41 L132.84,338.83 L133.40,338.25 L133.96,337.67 L134.53,337.09 L135.09,336.50 L135.65,335.92 L136.22,335.34 L136.78,334.76 L137.34,334.18 L137.90,333.60 L138.47,333.01 L139.03,332.43 L139.59,331.85 L140.16,331.27 L140.72,330.69 L141.28,330.10 L141.84,329.52 L142.41,328.94 L142.97,328.36 L143.53,327.78 L144.10,327.19 L144.66,326.61 L145.22,326.03 L145.78,325.45 L146.35,324.87 L146.91,324.28 L147.47,323.70 L148.04,323.12 L148.60,322.54 L149.16,321.96 L149.72,321.38 L150.29,320.79 L150.85,320.21 L151.41,319.63 L151.98,319.05 L152.54,318.47 L153.10,317.88 L153.66,317.30 L154.23,316.72 L154.79,316.14 L155.35,315.56 L155.92,314.97 L156.48,314.39 L157.04,313.81 L157.61,313.23 L158.17,312.65 L158.73,312.06 L159.29,311.48 L159.86,310.90 L160.42,310.32 L160.98,309.74 L161.55,309.16 L162.11,308.57 L162.67,307.99 L163.23,307.41 L163.80,306.83 L164.36,306.25 L164.92,305.66 L165.49,305.08 L166.05,304.50 L166.61,303.92 L167.17,303.34 L167.74,302.75 L168.30,302.17 L168.86,301.59 L169.43,301.01 L169.99,300.43 L170.55,299.84 L171.11,299.26 L171.68,298.68 L172.24,298.10 L172.80,297.52 L173.37,296.94 L173.93,296.35 L174.49,295.77 L175.05,295.19 L175.62,294.61 L176.18,294.03 L176.74,293.44 L177.31,292.86 L177.87,292.28 L178.43,291.70 L178.99,291.12 L179.56,290.53 L180.12,289.95 L180.68,289.37 L181.25,288.79 L181.81,288.21 L182.37,287.62 L182.93,287.04 L183.50,286.46 L184.06,285.88 L184.62,285.30 L185.19,284.72 L185.75,284.13 L186.31,283.55 L186.87,282.97 L187.44,282.39 L188.00,281.81 L188.56,281.22 L189.13,280.64 L189.69,280.06 L190.25,279.48 L190.81,278.90 L191.38,278.31 L191.94,277.73 L192.50,277.15 L193.07,276.57 L193.63,275.99 L194.19,275.40 L194.75,274.82 L195.32,274.24 L195.88,273.66 L196.44,273.08 L197.01,272.50 L197.57,271.91 L198.13,271.33 L198.69,270.75 L199.26,270.17 L199.82,269.59 L200.38,269.00 L200.95,268.42 L201.51,267.84 L202.07,267.26 L202.64,266.68 L203.20,266.09 L203.76,265.51 L204.32,264.93 L204.89,264.35 L205.45,263.77 L206.01,263.19 L206.58,262.60 L207.14,262.02 L207.70,261.44 L208.26,260.86 L208.83,260.28 L209.39,259.69 L209.95,259.11 L210.52,258.53 L211.08,257.95 L211.64,257.37 L212.20,256.78 L212.77,256.20 L213.33,255.62 L213.89,255.04 L214.46,254.46 L215.02,253.87 L215.58,253.29 L216.14,252.71 L216.71,252.13 L217.27,251.55 L217.83,250.97 L218.40,250.38 L218.96,249.80 L219.52,249.22 L220.08,248.64 L220.65,248.06 L221.21,247.47 L221.77,246.89 L222.34,246.31 L222.90,245.73 L223.46,245.15 L224.02,244.56 L224.59,243.98 L225.15,243.40 L225.71,242.82 L226.28,242.24 L226.84,241.65 L227.40,241.07 L227.96,240.49 L228.53,239.91 L229.09,239.33 L229.65,238.75 L230.22,238.16 L230.78,237.58 L231.34,237.00 L231.90,236.42 L232.47,235.84 L233.03,235.25 L233.59,234.67 L234.16,234.09 L234.72,233.51 L235.28,232.93 L235.84,232.34 L236.41,231.76 L236.97,231.18 L237.53,230.60 L238.10,230.02 L238.66,229.43 L239.22,228.85 L239.78,228.27 L240.35,227.69 L240.91,227.11 L241.47,226.53 L242.04,225.94 L242.60,225.36 L243.16,224.78 L243.73,224.20 L244.29,223.62 L244.85,223.03 L245.41,222.45 L245.98,221.87 L246.54,221.29 L247.10,220.71 L247.67,220.12 L248.23,219.54 L248.79,218.96 L249.35,218.38 L249.92,217.80 L250.48,217.21 L251.04,216.63 L251.61,216.05 L252.17,215.47 L252.73,214.89 L253.29,214.31 L253.86,213.72 L254.42,213.14 L254.98,212.56 L255.55,211.98 L256.11,211.40 L256.67,210.81 L257.23,210.23 L257.80,209.65 L258.36,209.07 L258.92,208.49 L259.49,207.90 L260.05,207.32 L260.61,206.74 L261.17,206.16 L261.74,205.58 L262.30,205.00 L262.86,204.41 L263.43,203.83 L263.99,203.25 L264.55,202.67 L265.11,202.09 L265.68,201.50 L266.24,200.92 L266.80,200.34 L267.37,199.76 L267.93,199.18 L268.49,198.59 L269.05,198.01 L269.62,197.43 L270.18,196.85 L270.74,196.27 L271.31,195.68 L271.87,195.10 L272.43,194.52 L272.99,193.94 L273.56,193.36 L274.12,192.78 L274.68,192.19 L275.25,191.61 L275.81,191.03 L276.37,190.45 L276.93,189.87 L277.50,189.28 L278.06,188.70 L278.62,188.12 L279.19,187.54 L279.75,186.96 L280.31,186.37 L280.87,185.79 L281.44,185.21 L282.00,184.63 L282.56,184.05 L283.13,183.46 L283.69,182.88 L284.25,182.30 L284.81,181.72 L285.38,181.14 L285.94,180.56 L286.50,179.97 L287.07,179.39 L287.63,178.81 L288.19,178.23 L288.76,177.65 L289.32,177.06 L289.88,176.48 L290.44,175.90 L291.01,175.32 L291.57,174.74 L292.13,174.15 L292.70,173.57 L293.26,172.99 L293.82,172.41 L294.38,171.83 L294.95,171.24 L295.51,170.66 L296.07,170.08 L296.64,169.50 L297.20,168.92 L297.76,168.34 L298.32,167.75 L298.89,167.17 L299.45,166.59 L300.01,166.01 L300.58,165.43 L301.14,164.84 L301.70,164.26 L302.26,163.68 L302.83,163.10 L303.39,162.52 L303.95,161.93 L304.52,161.35 L305.08,160.77 L305.64,160.19 L306.20,159.61 L306.77,159.02 L307.33,158.44 L307.89,157.86 L308.46,157.28 L309.02,156.70 L309.58,156.12 L310.14,155.53 L310.71,154.95 L311.27,154.37 L311.83,153.79 L312.40,153.21 L312.96,152.62 L313.52,152.04 L314.08,151.46 L314.65,150.88 L315.21,150.30 L315.77,149.71 L316.34,149.13 L316.90,148.55 L317.46,147.97 L318.02,147.39 L318.59,146.80 L319.15,146.22 L319.71,145.64 L320.28,145.06 L320.84,144.48 L321.40,143.90 L321.96,143.31 L322.53,142.73 L323.09,142.15 L323.65,141.57 L324.22,140.99 L324.78,140.40 L325.34,139.82 L325.90,139.24 L326.47,138.66 L327.03,138.08 L327.59,137.49 L328.16,136.91 L328.72,136.33 L329.28,135.75 L329.84,135.17 L330.41,134.59 L330.97,134.00 L331.53,133.42 L332.10,132.84 L332.66,132.26 L333.22,131.68 L333.79,131.09 L334.35,130.51 L334.91,129.93 L335.47,129.35 L336.04,128.77 L336.60,128.18 L337.16,127.60 L337.73,127.02 L338.29,126.44 L338.85,125.86 L339.41,125.27 L339.98,124.69 L340.54,124.11 L341.10,123.53 L341.67,122.95 L342.23,122.37 L342.79,121.78 L343.35,121.20 L343.92,120.62 L344.48,120.04 L345.04,119.46 L345.61,118.87 L346.17,118.29 L346.73,117.71 L347.29,117.13 L347.86,116.55 L348.42,115.96 L348.98,115.38 L349.55,114.80 L350.11,114.22 L350.67,113.64 L351.23,113.05 L351.80,112.47 L352.36,111.89 L352.92,111.31 L353.49,110.73 L354.05,110.15 L354.61,109.56 L355.17,108.98 L355.74,108.40 L356.30,107.82 L356.86,107.24 L357.43,106.65 L357.99,106.07 L358.55,105.49 L359.11,104.91 L359.68,104.33 L360.24,103.74 L360.80,103.16 L361.37,102.58 L361.93,102.00 L362.49,101.42 L363.05,100.83 L363.62,100.25 L364.18,99.67 L364.74,99.09 L365.31,98.51 L365.87,97.93 L366.43,97.34 L366.99,96.76 L367.56,96.18 L368.12,95.60 L368.68,95.02 L369.25,94.43 L369.81,93.85 L370.37,93.27 L370.93,92.69 L371.50,92.11 L372.06,91.52 L372.62,90.94 L373.19,90.36 L373.75,89.78 L374.31,89.20 L374.87,88.61 L375.44,88.03 L376.00,87.45 L376.56,86.87 L377.13,86.29 L377.69,85.71 L378.25,85.12 L378.82,84.54 L379.38,83.96 L379.94,83.38 L380.50,82.80 L381.07,82.21 L381.63,81.63 L382.19,81.05 L382.76,80.47 L383.32,79.89 L383.88,79.30 L384.44,78.72 L385.01,78.14 L385.57,77.56 L386.13,76.98 L386.70,76.39 L387.26,75.81 L387.82,75.23 L388.38,74.65 L388.95,74.07 L389.51,73.49 L390.07,72.90 L390.64,72.32 L391.20,71.74 L391.76,71.16 L392.32,70.58 L392.89,69.99 L393.45,69.41 L394.01,68.83 L394.58,68.25 L395.14,67.67 L395.70,67.08 L396.26,66.50 L396.83,65.92 L397.39,65.34 L397.95,64.76 L398.52,64.18 L399.08,63.59 L399.64,63.01 L400.20,62.43 L400.77,61.85 L401.33,61.27 L401.89,60.68 L402.46,60.10 L403.02,59.52 L403.58,58.94 L404.14,58.36 L404.71,57.77 L405.27,57.19 L405.83,56.61 L406.40,56.03 L406.96,55.45 L407.52,54.86 L408.08,54.28 L408.65,53.70 L409.21,53.12 L409.77,52.54 L410.34,51.96 L410.90,51.37 L411.46,50.79 L412.02,50.21 L412.59,49.63 L413.15,49.05 L413.71,48.46 L414.28,47.88 L414.84,47.30 L415.40,46.72 L415.96,46.14 L416.53,45.55 L417.09,44.97 L417.65,44.39 L418.22,43.81 L418.78,43.23 L419.34,42.64 L419.91,42.06 L420.47,41.48 L421.03,40.90 L421.59,40.32 L422.16,39.74 L422.72,39.15 L423.28,38.57 L423.85,37.99 L424.41,37.41 L424.97,36.83 L425.53,36.24 L426.10,35.66 L426.66,35.08 L427.22,34.50 L427.79,33.92 L428.35,33.33 L428.91,32.75 L429.47,32.17 L430.04,31.59 L430.60,31.01 L431.16,30.42 L431.73,29.84 L432.29,29.26 L432.85,28.68 L433.41,28.10 L433.98,27.52 L434.54,26.93 L435.10,26.35 L435.67,25.77 L436.23,25.19 L436.79,24.61 L437.35,24.02 L437.92,23.44 L438.48,22.86 L439.04,22.28 L439.61,21.70 L440.17,21.11 L440.73,20.53 L441.29,19.95 L441.86,19.37 L442.42,18.79 L442.98,18.20 L443.55,17.62 L444.11,17.04 L444.67,16.46 L445.23,15.88 L445.80,15.30 L446.36,14.71 L446.92,14.13 L447.49,13.55 L448.05,12.97 L448.61,12.39 L449.17,11.80 L449.74,11.22 L450.30,10.64 L450.86,10.06 L451.43,9.48 L451.99,8.89 L452.55,8.31 L453.11,7.73 L453.68,7.15 L454.24,6.57 L454.80,5.99 L455.37,5.40 L455.93,4.82 L456.49,4.24 L457.05,3.66 L457.62,3.08 L458.18,2.49 L458.74,1.91 L459.31,1.33 L459.87,0.75 L460.43,0.17 L460.99,-0.42 L461.56,-1.00 L462.12,-1.58 L462.68,-2.16 L463.25,-2.74 L463.81,-3.33 L464.37,-3.91 L464.94,-4.49 L465.50,-5.07 L466.06,-5.65 L466.62,-6.23 L467.19,-6.82 L467.75,-7.40 L468.31,-7.98 L468.88,-8.56 L469.44,-9.14 L470.00,-9.73 L470.56,-10.31 L471.13,-10.89 L471.69,-11.47 L472.25,-12.05 L472.82,-12.64 L473.38,-13.22 L473.94,-13.80 L474.50,-14.38 L475.07,-14.96 L475.63,-15.55 L476.19,-16.13 L476.76,-16.71 L477.32,-17.29 L477.88,-17.87 L478.44,-18.45 L479.01,-19.04 L479.57,-19.62 L480.13,-20.20 L480.70,-20.78 L481.26,-21.36 L481.82,-21.95 L482.38,-22.53 L482.95,-23.11 L483.51,-23.69 L484.07,-24.27 L484.64,-24.86 L485.20,-25.44 L485.76,-26.02 L486.32,-26.60 L486.89,-27.18 L487.45,-27.77 L488.01,-28.35 L488.58,-28.93 L489.14,-29.51 L489.70,-30.09 L490.26,-30.67 L490.83,-31.26 L491.39,-31.84 L491.95,-32.42 L492.52,-33.00 L493.08,-33.58 L493.64,-34.17 L494.20,-34.75 L494.77,-35.33 L495.33,-35.91 L495.89,-36.49 L496.46,-37.08 L497.02,-37.66 L497.58,-38.24 L498.14,-38.82 L498.71,-39.40 L499.27,-39.99 L499.83,-40.57 L500.40,-41.15 L500.96,-41.73 L501.52,-42.31 L502.08,-42.89 L502.65,-43.48 L503.21,-44.06 L503.77,-44.64 L504.34,-45.22 L504.90,-45.80 L505.46,-46.39 L506.02,-46.97 L506.59,-47.55 L507.15,-48.13 L507.71,-48.71 L508.28,-49.30 L508.84,-49.88 L509.40,-50.46 L509.97,-51.04 L510.53,-51.62 L511.09,-52.21 L511.65,-52.79 L512.22,-53.37 L512.78,-53.95 L513.34,-54.53 L513.91,-55.11 L514.47,-55.70 L515.03,-56.28 L515.59,-56.86 L516.16,-57.44 L516.72,-58.02 L517.28,-58.61 L517.85,-59.19 L518.41,-59.77 L518.97,-60.35 L519.53,-60.93 L520.10,-61.52 L520.66,-62.10 L521.22,-62.68 L521.79,-63.26 L522.35,-63.84 L522.91,-64.42 L523.47,-65.01 L524.04,-65.59 L524.60,-66.17 L525.16,-66.75 L525.73,-67.33 L526.29,-67.92 L526.85,-68.50 L527.41,-69.08 L527.98,-69.66 L528.54,-70.24 L529.10,-70.83 L529.67,-71.41 L530.23,-71.99 L530.79,-72.57 L531.35,-73.15 L531.92,-73.74 L532.48,-74.32 L533.04,-74.90 L533.61,-75.48 L534.17,-76.06 L534.73,-76.64 L535.29,-77.23 L535.86,-77.81 L536.42,-78.39 L536.98,-78.97 L537.55,-79.55 L538.11,-80.14 L538.67,-80.72 L539.23,-81.30 L539.80,-81.88 L540.36,-82.46 L540.92,-83.05 L541.49,-83.63 L542.05,-84.21 L542.61,-84.79 L543.17,-85.37 L543.74,-85.96 L544.30,-86.54 L544.86,-87.12 L545.43,-87.70 L545.99,-88.28 L546.55,-88.86 L547.11,-89.45 L547.68,-90.03 L548.24,-90.61 L548.80,-91.19 L549.37,-91.77 L549.93,-92.36 L550.49,-92.94 L551.05,-93.52 L551.62,-94.10 L552.18,-94.68 L552.74,-95.27 L553.31,-95.85 L553.87,-96.43 L554.43,-97.01 L555.00,-97.59 L555.56,-98.18 L556.12,-98.76 L556.68,-99.34 L557.25,-99.92 L557.81,-100.50 L558.37,-101.08 L558.94,-101.67 L559.50,-102.25 L560.06,-102.83 L560.62,-103.41 L561.19,-103.99 L561.75,-104.58 L562.31,-105.16 L562.88,-105.74 L563.44,-106.32 L564.00,-106.90 L564.56,-107.49 L565.13,-108.07 L565.69,-108.65 L566.25,-109.23 L566.82,-109.81 L567.38,-110.40 L567.94,-110.98 L568.50,-111.56 L569.07,-112.14 L569.63,-112.72 L570.19,-113.30 L570.76,-113.89 L571.32,-114.47 L571.88,-115.05 L572.44,-115.63 L573.01,-116.21 L573.57,-116.80 L574.13,-117.38 L574.70,-117.96 L575.26,-118.54 L575.82,-119.12 L576.38,-119.71 L576.95,-120.29 L577.51,-120.87 L578.07,-121.45 L578.64,-122.03 L579.20,-122.61 L579.76,-123.20 L580.32,-123.78 L580.89,-124.36 L581.45,-124.94 L582.01,-125.52 L582.58,-126.11 L583.14,-126.69 L583.70,-127.27 L584.26,-127.85 L584.83,-128.43 L585.39,-129.02 L585.95,-129.60 L586.52,-130.18 L587.08,-130.76 L587.64,-131.34 L588.20,-131.93 L588.77,-132.51 L589.33,-133.09 L589.89,-133.67 L590.46,-134.25 L591.02,-134.83 L591.58,-135.42 L592.14,-136.00 L592.71,-136.58 L593.27,-137.16 L593.83,-137.74 L594.40,-138.33 L594.96,-138.91 L595.52,-139.49 L596.08,-140.07 L596.65,-140.65 L597.21,-141.24 L597.77,-141.82 L598.34,-142.40 L598.90,-142.98 L599.46,-143.56 L600.03,-144.15 L600.59,-144.73 L601.15,-145.31 L601.71,-145.89 L602.28,-146.47 L602.84,-147.05 L603.40,-147.64 L603.97,-148.22 L604.53,-148.80 L605.09,-149.38 L605.65,-149.96 L606.22,-150.55 L606.78,-151.13 L607.34,-151.71 L607.91,-152.29 L608.47,-152.87 L609.03,-153.46 L609.59,-154.04 L610.16,-154.62 L610.72,-155.20 L611.28,-155.78 L611.85,-156.37 L612.41,-156.95 L612.97,-157.53 L613.53,-158.11 L614.10,-158.69 L614.66,-159.27 L615.22,-159.86 L615.79,-160.44 L616.35,-161.02 L616.91,-161.60 L617.47,-162.18 L618.04,-162.77 L618.60,-163.35" style="stroke-width: 2; stroke: rgb(60, 180, 75); stroke-opacity: 0.8;"/></g></g><g class="test-xtl" style="font-family: &quot;Open Sans&quot;, verdana, arial, sans-serif;"><text text-anchor="middle" font-size="11" dominant-baseline="hanging" stroke="none" fill="rgb(50,50,50)" fill-opacity="1" x="43.288339873552324" y="237.8504638671875">-10</text><text text-anchor="middle" font-size="11" dominant-baseline="hanging" stroke="none" fill="rgb(50,50,50)" fill-opacity="1" x="147.88184573292733" y="237.8504638671875">-5</text><text text-anchor="middle" font-size="11" dominant-baseline="hanging" stroke="none" fill="rgb(50,50,50)" fill-opacity="1" x="360.2038574516773" y="237.8504638671875">5</text><text text-anchor="middle" font-size="11" dominant-baseline="hanging" stroke="none" fill="rgb(50,50,50)" fill-opacity="1" x="464.79736331105227" y="237.8504638671875">10</text><text text-anchor="middle" font-size="11" dominant-baseline="hanging" stroke="none" fill="rgb(50,50,50)" fill-opacity="1" x="569.3908691704273" y="237.8504638671875">15</text><text text-anchor="middle" font-size="11" dominant-baseline="hanging" stroke="none" fill="rgb(50,50,50)" fill-opacity="1" x="247.6103515923023" y="235.8504638671875">0</text></g><g class="test-ytl" style="font-family: &quot;Open Sans&quot;, verdana, arial, sans-serif;"><text text-anchor="end" dominant-baseline="middle" font-size="11" stroke="none" fill="rgb(50,50,50)" fill-opacity="1" x="247.61035159230232" y="126.25695800781247">5</text><text text-anchor="end" dominant-baseline="middle" font-size="11" stroke="none" fill="rgb(50,50,50)" fill-opacity="1" x="247.61035159230232" y="21.663452148437443">10</text></g><rect class="real" x="1" y="1" width="616.6000061035156" height="276.875" style="fill: transparent; stroke: none;"/></g></g></g><g/></g><g/><g/><g/></svg>
        <svg xmlns="http://www.w3.org/2000/svg" xmlns:xlink="http://www.w3.org/1999/xlink" width="660" height="310" style="width:660px;height:310px;font-family:Asana-Math, Asana;background:#FFF;"></svg>
</svg>
