<svg xmlns="http://www.w3.org/2000/svg" xmlns:xlink="http://www.w3.org/1999/xlink" x="0" y="0" width="662" height="312" style="
        width:662px;
        height:312px;
        background: #FFF;
        fill: none;
">
        <svg xmlns="http://www.w3.org/2000/svg"/>
        
        <svg xmlns="http://www.w3.org/2000/svg" class="role-diagram-draw-area"><g class="shapes-region" style="stroke: black; fill: none;"><g class="composite-shape" data-amt="diagram/shapes/plot" transform="matrix(1,0,0,1,76.5,38)"><g><g><g class="test-xgi"><line x1="103.00000000000001" y1="3" x2="103.00000000000001" y2="206" fill="none" stroke="lightgray" stroke-width="0.5"/><line x1="116.00000000000001" y1="3" x2="116.00000000000001" y2="206" fill="none" stroke="lightgray" stroke-width="0.5"/><line x1="129" y1="3" x2="129" y2="206" fill="none" stroke="lightgray" stroke-width="0.5"/><line x1="142.00000000000003" y1="3" x2="142.00000000000003" y2="206" fill="none" stroke="lightgray" stroke-width="0.5"/><line x1="155" y1="3" x2="155" y2="206" fill="none" stroke="lightgray" stroke-width="0.5"/><line x1="168" y1="3" x2="168" y2="206" fill="none" stroke="lightgray" stroke-width="0.5"/><line x1="181.00000000000003" y1="3" x2="181.00000000000003" y2="206" fill="none" stroke="lightgray" stroke-width="0.5"/><line x1="194" y1="3" x2="194" y2="206" fill="none" stroke="lightgray" stroke-width="0.5"/><line x1="207" y1="3" x2="207" y2="206" fill="none" stroke="lightgray" stroke-width="0.5"/><line x1="220.00000000000003" y1="3" x2="220.00000000000003" y2="206" fill="none" stroke="lightgray" stroke-width="0.5"/><line x1="233.00000000000003" y1="3" x2="233.00000000000003" y2="206" fill="none" stroke="lightgray" stroke-width="0.5"/><line x1="246" y1="3" x2="246" y2="206" fill="none" stroke="lightgray" stroke-width="0.5"/><line x1="259" y1="3" x2="259" y2="206" fill="none" stroke="lightgray" stroke-width="0.5"/><line x1="272" y1="3" x2="272" y2="206" fill="none" stroke="lightgray" stroke-width="0.5"/><line x1="285" y1="3" x2="285" y2="206" fill="none" stroke="lightgray" stroke-width="0.5"/><line x1="298" y1="3" x2="298" y2="206" fill="none" stroke="lightgray" stroke-width="0.5"/><line x1="311" y1="3" x2="311" y2="206" fill="none" stroke="lightgray" stroke-width="0.5"/><line x1="324" y1="3" x2="324" y2="206" fill="none" stroke="lightgray" stroke-width="0.5"/><line x1="337" y1="3" x2="337" y2="206" fill="none" stroke="lightgray" stroke-width="0.5"/><line x1="350" y1="3" x2="350" y2="206" fill="none" stroke="lightgray" stroke-width="0.5"/><line x1="363" y1="3" x2="363" y2="206" fill="none" stroke="lightgray" stroke-width="0.5"/><line x1="376" y1="3" x2="376" y2="206" fill="none" stroke="lightgray" stroke-width="0.5"/><line x1="389" y1="3" x2="389" y2="206" fill="none" stroke="lightgray" stroke-width="0.5"/><line x1="402" y1="3" x2="402" y2="206" fill="none" stroke="lightgray" stroke-width="0.5"/><line x1="415" y1="3" x2="415" y2="206" fill="none" stroke="lightgray" stroke-width="0.5"/><line x1="428" y1="3" x2="428" y2="206" fill="none" stroke="lightgray" stroke-width="0.5"/><line x1="441" y1="3" x2="441" y2="206" fill="none" stroke="lightgray" stroke-width="0.5"/><line x1="454.00000000000006" y1="3" x2="454.00000000000006" y2="206" fill="none" stroke="lightgray" stroke-width="0.5"/><line x1="467" y1="3" x2="467" y2="206" fill="none" stroke="lightgray" stroke-width="0.5"/><line x1="103.00000000000001" y1="3" x2="103.00000000000001" y2="206" fill="none" stroke="lightgray" stroke-width="0.5"/><line x1="90" y1="3" x2="90" y2="206" fill="none" stroke="lightgray" stroke-width="0.5"/><line x1="77" y1="3" x2="77" y2="206" fill="none" stroke="lightgray" stroke-width="0.5"/><line x1="64" y1="3" x2="64" y2="206" fill="none" stroke="lightgray" stroke-width="0.5"/><line x1="51.00000000000001" y1="3" x2="51.00000000000001" y2="206" fill="none" stroke="lightgray" stroke-width="0.5"/><line x1="38.00000000000001" y1="3" x2="38.00000000000001" y2="206" fill="none" stroke="lightgray" stroke-width="0.5"/><line x1="25.000000000000007" y1="3" x2="25.000000000000007" y2="206" fill="none" stroke="lightgray" stroke-width="0.5"/><line x1="103.00000000000001" y1="3" x2="103.00000000000001" y2="206" fill="none" stroke="#c3c3c3" stroke-width="1"/><line x1="233.00000000000003" y1="3" x2="233.00000000000003" y2="206" fill="none" stroke="#c3c3c3" stroke-width="1"/><line x1="363" y1="3" x2="363" y2="206" fill="none" stroke="#c3c3c3" stroke-width="1"/></g><g class="test-ygi"><line x1="14" y1="105" x2="477.5" y2="105" fill="none" stroke="lightgray" stroke-width="0.5"/><line x1="14" y1="91.99999999999999" x2="477.5" y2="91.99999999999999" fill="none" stroke="lightgray" stroke-width="0.5"/><line x1="14" y1="78.99999999999997" x2="477.5" y2="78.99999999999997" fill="none" stroke="lightgray" stroke-width="0.5"/><line x1="14" y1="66" x2="477.5" y2="66" fill="none" stroke="lightgray" stroke-width="0.5"/><line x1="14" y1="52.99999999999997" x2="477.5" y2="52.99999999999997" fill="none" stroke="lightgray" stroke-width="0.5"/><line x1="14" y1="39.99999999999997" x2="477.5" y2="39.99999999999997" fill="none" stroke="lightgray" stroke-width="0.5"/><line x1="14" y1="27" x2="477.5" y2="27" fill="none" stroke="lightgray" stroke-width="0.5"/><line x1="14" y1="14" x2="477.5" y2="14" fill="none" stroke="lightgray" stroke-width="0.5"/><line x1="14" y1="105" x2="477.5" y2="105" fill="none" stroke="lightgray" stroke-width="0.5"/><line x1="14" y1="118" x2="477.5" y2="118" fill="none" stroke="lightgray" stroke-width="0.5"/><line x1="14" y1="131" x2="477.5" y2="131" fill="none" stroke="lightgray" stroke-width="0.5"/><line x1="14" y1="144" x2="477.5" y2="144" fill="none" stroke="lightgray" stroke-width="0.5"/><line x1="14" y1="157" x2="477.5" y2="157" fill="none" stroke="lightgray" stroke-width="0.5"/><line x1="14" y1="170" x2="477.5" y2="170" fill="none" stroke="lightgray" stroke-width="0.5"/><line x1="14" y1="183" x2="477.5" y2="183" fill="none" stroke="lightgray" stroke-width="0.5"/><line x1="14" y1="196" x2="477.5" y2="196" fill="none" stroke="lightgray" stroke-width="0.5"/><line x1="14" y1="105" x2="477.5" y2="105" fill="none" stroke="#c3c3c3" stroke-width="1"/></g></g><g><rect class="real" x="15" y="4" width="461.5" height="201" style="fill: transparent; stroke: gray;"/><g class="test-plot-expression"><defs><clipPath id="cpranlpdb0p"><rect x="15" y="4" width="461.5" height="201"/></clipPath></defs><g clip-path="url(#cpranlpdb0p)"><path d=" M220.00,157.00 L220.03,156.89 L220.06,156.78 L220.08,156.66 L220.11,156.55 L220.14,156.44 L220.17,156.33 L220.20,156.21 L220.22,156.10 L220.25,155.99 L220.28,155.88 L220.31,155.76 L220.34,155.65 L220.37,155.54 L220.39,155.43 L220.42,155.32 L220.45,155.20 L220.48,155.09 L220.51,154.98 L220.53,154.87 L220.56,154.75 L220.59,154.64 L220.62,154.53 L220.65,154.42 L220.67,154.30 L220.70,154.19 L220.73,154.08 L220.76,153.97 L220.79,153.86 L220.81,153.74 L220.84,153.63 L220.87,153.52 L220.90,153.41 L220.93,153.29 L220.95,153.18 L220.98,153.07 L221.01,152.96 L221.04,152.84 L221.07,152.73 L221.10,152.62 L221.12,152.51 L221.15,152.40 L221.18,152.28 L221.21,152.17 L221.24,152.06 L221.26,151.95 L221.29,151.83 L221.32,151.72 L221.35,151.61 L221.38,151.50 L221.40,151.38 L221.43,151.27 L221.46,151.16 L221.49,151.05 L221.52,150.94 L221.54,150.82 L221.57,150.71 L221.60,150.60 L221.63,150.49 L221.66,150.37 L221.68,150.26 L221.71,150.15 L221.74,150.04 L221.77,149.92 L221.80,149.81 L221.83,149.70 L221.85,149.59 L221.88,149.48 L221.91,149.36 L221.94,149.25 L221.97,149.14 L221.99,149.03 L222.02,148.91 L222.05,148.80 L222.08,148.69 L222.11,148.58 L222.13,148.46 L222.16,148.35 L222.19,148.24 L222.22,148.13 L222.25,148.02 L222.27,147.90 L222.30,147.79 L222.33,147.68 L222.36,147.57 L222.39,147.45 L222.41,147.34 L222.44,147.23 L222.47,147.12 L222.50,147.00 L222.53,146.89 L222.56,146.78 L222.58,146.67 L222.61,146.56 L222.64,146.44 L222.67,146.33 L222.70,146.22 L222.72,146.11 L222.75,145.99 L222.78,145.88 L222.81,145.77 L222.84,145.66 L222.86,145.54 L222.89,145.43 L222.92,145.32 L222.95,145.21 L222.98,145.10 L223.00,144.98 L223.03,144.87 L223.06,144.76 L223.09,144.65 L223.12,144.53 L223.14,144.42 L223.17,144.31 L223.20,144.20 L223.23,144.08 L223.26,143.97 L223.29,143.86 L223.31,143.75 L223.34,143.63 L223.37,143.52 L223.40,143.41 L223.43,143.30 L223.45,143.19 L223.48,143.07 L223.51,142.96 L223.54,142.85 L223.57,142.74 L223.59,142.62 L223.62,142.51 L223.65,142.40 L223.68,142.29 L223.71,142.17 L223.73,142.06 L223.76,141.95 L223.79,141.84 L223.82,141.73 L223.85,141.61 L223.87,141.50 L223.90,141.39 L223.93,141.28 L223.96,141.16 L223.99,141.05 L224.02,140.94 L224.04,140.83 L224.07,140.71 L224.10,140.60 L224.13,140.49 L224.16,140.38 L224.18,140.27 L224.21,140.15 L224.24,140.04 L224.27,139.93 L224.30,139.82 L224.32,139.70 L224.35,139.59 L224.38,139.48 L224.41,139.37 L224.44,139.25 L224.46,139.14 L224.49,139.03 L224.52,138.92 L224.55,138.81 L224.58,138.69 L224.60,138.58 L224.63,138.47 L224.66,138.36 L224.69,138.24 L224.72,138.13 L224.75,138.02 L224.77,137.91 L224.80,137.79 L224.83,137.68 L224.86,137.57 L224.89,137.46 L224.91,137.35 L224.94,137.23 L224.97,137.12 L225.00,137.01 L225.03,136.90 L225.05,136.78 L225.08,136.67 L225.11,136.56 L225.14,136.45 L225.17,136.33 L225.19,136.22 L225.22,136.11 L225.25,136.00 L225.28,135.89 L225.31,135.77 L225.33,135.66 L225.36,135.55 L225.39,135.44 L225.42,135.32 L225.45,135.21 L225.48,135.10 L225.50,134.99 L225.53,134.87 L225.56,134.76 L225.59,134.65 L225.62,134.54 L225.64,134.43 L225.67,134.31 L225.70,134.20 L225.73,134.09 L225.76,133.98 L225.78,133.86 L225.81,133.75 L225.84,133.64 L225.87,133.53 L225.90,133.41 L225.92,133.30 L225.95,133.19 L225.98,133.08 L226.01,132.97 L226.04,132.85 L226.06,132.74 L226.09,132.63 L226.12,132.52 L226.15,132.40 L226.18,132.29 L226.21,132.18 L226.23,132.07 L226.26,131.95 L226.29,131.84 L226.32,131.73 L226.35,131.62 L226.37,131.51 L226.40,131.39 L226.43,131.28 L226.46,131.17 L226.49,131.06 L226.51,130.94 L226.54,130.83 L226.57,130.72 L226.60,130.61 L226.63,130.49 L226.65,130.38 L226.68,130.27 L226.71,130.16 L226.74,130.05 L226.77,129.93 L226.79,129.82 L226.82,129.71 L226.85,129.60 L226.88,129.48 L226.91,129.37 L226.94,129.26 L226.96,129.15 L226.99,129.03 L227.02,128.92 L227.05,128.81 L227.08,128.70 L227.10,128.59 L227.13,128.47 L227.16,128.36 L227.19,128.25 L227.22,128.14 L227.24,128.02 L227.27,127.91 L227.30,127.80 L227.33,127.69 L227.36,127.57 L227.38,127.46 L227.41,127.35 L227.44,127.24 L227.47,127.13 L227.50,127.01 L227.52,126.90 L227.55,126.79 L227.58,126.68 L227.61,126.56 L227.64,126.45 L227.67,126.34 L227.69,126.23 L227.72,126.11 L227.75,126.00 L227.78,125.89 L227.81,125.78 L227.83,125.67 L227.86,125.55 L227.89,125.44 L227.92,125.33 L227.95,125.22 L227.97,125.10 L228.00,124.99 L228.03,124.88 L228.06,124.77 L228.09,124.65 L228.11,124.54 L228.14,124.43 L228.17,124.32 L228.20,124.21 L228.23,124.09 L228.25,123.98 L228.28,123.87 L228.31,123.76 L228.34,123.64 L228.37,123.53 L228.40,123.42 L228.42,123.31 L228.45,123.19 L228.48,123.08 L228.51,122.97 L228.54,122.86 L228.56,122.75 L228.59,122.63 L228.62,122.52 L228.65,122.41 L228.68,122.30 L228.70,122.18 L228.73,122.07 L228.76,121.96 L228.79,121.85 L228.82,121.73 L228.84,121.62 L228.87,121.51 L228.90,121.40 L228.93,121.29 L228.96,121.17 L228.98,121.06 L229.01,120.95 L229.04,120.84 L229.07,120.72 L229.10,120.61 L229.13,120.50 L229.15,120.39 L229.18,120.27 L229.21,120.16 L229.24,120.05 L229.27,119.94 L229.29,119.83 L229.32,119.71 L229.35,119.60 L229.38,119.49 L229.41,119.38 L229.43,119.26 L229.46,119.15 L229.49,119.04 L229.52,118.93 L229.55,118.81 L229.57,118.70 L229.60,118.59 L229.63,118.48 L229.66,118.37 L229.69,118.25 L229.71,118.14 L229.74,118.03 L229.77,117.92 L229.80,117.80 L229.83,117.69 L229.86,117.58 L229.88,117.47 L229.91,117.35 L229.94,117.24 L229.97,117.13 L230.00,117.02 L230.02,116.90 L230.05,116.79 L230.08,116.68 L230.11,116.57 L230.14,116.46 L230.16,116.34 L230.19,116.23 L230.22,116.12 L230.25,116.01 L230.28,115.89 L230.30,115.78 L230.33,115.67 L230.36,115.56 L230.39,115.44 L230.42,115.33 L230.44,115.22 L230.47,115.11 L230.50,115.00 L230.53,114.88 L230.56,114.77 L230.59,114.66 L230.61,114.55 L230.64,114.43 L230.67,114.32 L230.70,114.21 L230.73,114.10 L230.75,113.98 L230.78,113.87 L230.81,113.76 L230.84,113.65 L230.87,113.54 L230.89,113.42 L230.92,113.31 L230.95,113.20 L230.98,113.09 L231.01,112.97 L231.03,112.86 L231.06,112.75 L231.09,112.64 L231.12,112.52 L231.15,112.41 L231.17,112.30 L231.20,112.19 L231.23,112.08 L231.26,111.96 L231.29,111.85 L231.32,111.74 L231.34,111.63 L231.37,111.51 L231.40,111.40 L231.43,111.29 L231.46,111.18 L231.48,111.06 L231.51,110.95 L231.54,110.84 L231.57,110.73 L231.60,110.62 L231.62,110.50 L231.65,110.39 L231.68,110.28 L231.71,110.17 L231.74,110.05 L231.76,109.94 L231.79,109.83 L231.82,109.72 L231.85,109.60 L231.88,109.49 L231.90,109.38 L231.93,109.27 L231.96,109.16 L231.99,109.04 L232.02,108.93 L232.05,108.82 L232.07,108.71 L232.10,108.59 L232.13,108.48 L232.16,108.37 L232.19,108.26 L232.21,108.14 L232.24,108.03 L232.27,107.92 L232.30,107.81 L232.33,107.70 L232.35,107.58 L232.38,107.47 L232.41,107.36 L232.44,107.25 L232.47,107.13 L232.49,107.02 L232.52,106.91 L232.55,106.80 L232.58,106.68 L232.61,106.57 L232.63,106.46 L232.66,106.35 L232.69,106.24 L232.72,106.12 L232.75,106.01 L232.78,105.90 L232.80,105.79 L232.83,105.67 L232.86,105.56 L232.89,105.45 L232.92,105.34 L232.94,105.22 L232.97,105.11 L233.00,105.00 L233.03,104.89 L233.06,104.78 L233.08,104.66 L233.11,104.55 L233.14,104.44 L233.17,104.33 L233.20,104.21 L233.22,104.10 L233.25,103.99 L233.28,103.88 L233.31,103.76 L233.34,103.65 L233.37,103.54 L233.39,103.43 L233.42,103.32 L233.45,103.20 L233.48,103.09 L233.51,102.98 L233.53,102.87 L233.56,102.75 L233.59,102.64 L233.62,102.53 L233.65,102.42 L233.67,102.30 L233.70,102.19 L233.73,102.08 L233.76,101.97 L233.79,101.86 L233.81,101.74 L233.84,101.63 L233.87,101.52 L233.90,101.41 L233.93,101.29 L233.95,101.18 L233.98,101.07 L234.01,100.96 L234.04,100.84 L234.07,100.73 L234.10,100.62 L234.12,100.51 L234.15,100.40 L234.18,100.28 L234.21,100.17 L234.24,100.06 L234.26,99.95 L234.29,99.83 L234.32,99.72 L234.35,99.61 L234.38,99.50 L234.40,99.38 L234.43,99.27 L234.46,99.16 L234.49,99.05 L234.52,98.94 L234.54,98.82 L234.57,98.71 L234.60,98.60 L234.63,98.49 L234.66,98.37 L234.68,98.26 L234.71,98.15 L234.74,98.04 L234.77,97.92 L234.80,97.81 L234.83,97.70 L234.85,97.59 L234.88,97.48 L234.91,97.36 L234.94,97.25 L234.97,97.14 L234.99,97.03 L235.02,96.91 L235.05,96.80 L235.08,96.69 L235.11,96.58 L235.13,96.46 L235.16,96.35 L235.19,96.24 L235.22,96.13 L235.25,96.02 L235.27,95.90 L235.30,95.79 L235.33,95.68 L235.36,95.57 L235.39,95.45 L235.41,95.34 L235.44,95.23 L235.47,95.12 L235.50,95.00 L235.53,94.89 L235.56,94.78 L235.58,94.67 L235.61,94.56 L235.64,94.44 L235.67,94.33 L235.70,94.22 L235.72,94.11 L235.75,93.99 L235.78,93.88 L235.81,93.77 L235.84,93.66 L235.86,93.54 L235.89,93.43 L235.92,93.32 L235.95,93.21 L235.98,93.10 L236.00,92.98 L236.03,92.87 L236.06,92.76 L236.09,92.65 L236.12,92.53 L236.14,92.42 L236.17,92.31 L236.20,92.20 L236.23,92.08 L236.26,91.97 L236.29,91.86 L236.31,91.75 L236.34,91.63 L236.37,91.52 L236.40,91.41 L236.43,91.30 L236.45,91.19 L236.48,91.07 L236.51,90.96 L236.54,90.85 L236.57,90.74 L236.59,90.62 L236.62,90.51 L236.65,90.40 L236.68,90.29 L236.71,90.17 L236.73,90.06 L236.76,89.95 L236.79,89.84 L236.82,89.73 L236.85,89.61 L236.87,89.50 L236.90,89.39 L236.93,89.28 L236.96,89.16 L236.99,89.05 L237.02,88.94 L237.04,88.83 L237.07,88.71 L237.10,88.60 L237.13,88.49 L237.16,88.38 L237.18,88.27 L237.21,88.15 L237.24,88.04 L237.27,87.93 L237.30,87.82 L237.32,87.70 L237.35,87.59 L237.38,87.48 L237.41,87.37 L237.44,87.25 L237.46,87.14 L237.49,87.03 L237.52,86.92 L237.55,86.81 L237.58,86.69 L237.60,86.58 L237.63,86.47 L237.66,86.36 L237.69,86.24 L237.72,86.13 L237.75,86.02 L237.77,85.91 L237.80,85.79 L237.83,85.68 L237.86,85.57 L237.89,85.46 L237.91,85.35 L237.94,85.23 L237.97,85.12 L238.00,85.01 L238.03,84.90 L238.05,84.78 L238.08,84.67 L238.11,84.56 L238.14,84.45 L238.17,84.33 L238.19,84.22 L238.22,84.11 L238.25,84.00 L238.28,83.89 L238.31,83.77 L238.33,83.66 L238.36,83.55 L238.39,83.44 L238.42,83.32 L238.45,83.21 L238.48,83.10 L238.50,82.99 L238.53,82.87 L238.56,82.76 L238.59,82.65 L238.62,82.54 L238.64,82.43 L238.67,82.31 L238.70,82.20 L238.73,82.09 L238.76,81.98 L238.78,81.86 L238.81,81.75 L238.84,81.64 L238.87,81.53 L238.90,81.41 L238.92,81.30 L238.95,81.19 L238.98,81.08 L239.01,80.97 L239.04,80.85 L239.06,80.74 L239.09,80.63 L239.12,80.52 L239.15,80.40 L239.18,80.29 L239.21,80.18 L239.23,80.07 L239.26,79.95 L239.29,79.84 L239.32,79.73 L239.35,79.62 L239.37,79.51 L239.40,79.39 L239.43,79.28 L239.46,79.17 L239.49,79.06 L239.51,78.94 L239.54,78.83 L239.57,78.72 L239.60,78.61 L239.63,78.49 L239.65,78.38 L239.68,78.27 L239.71,78.16 L239.74,78.05 L239.77,77.93 L239.79,77.82 L239.82,77.71 L239.85,77.60 L239.88,77.48 L239.91,77.37 L239.94,77.26 L239.96,77.15 L239.99,77.03 L240.02,76.92 L240.05,76.81 L240.08,76.70 L240.10,76.59 L240.13,76.47 L240.16,76.36 L240.19,76.25 L240.22,76.14 L240.24,76.02 L240.27,75.91 L240.30,75.80 L240.33,75.69 L240.36,75.57 L240.38,75.46 L240.41,75.35 L240.44,75.24 L240.47,75.13 L240.50,75.01 L240.52,74.90 L240.55,74.79 L240.58,74.68 L240.61,74.56 L240.64,74.45 L240.67,74.34 L240.69,74.23 L240.72,74.11 L240.75,74.00 L240.78,73.89 L240.81,73.78 L240.83,73.67 L240.86,73.55 L240.89,73.44 L240.92,73.33 L240.95,73.22 L240.97,73.10 L241.00,72.99 L241.03,72.88 L241.06,72.77 L241.09,72.65 L241.11,72.54 L241.14,72.43 L241.17,72.32 L241.20,72.21 L241.23,72.09 L241.25,71.98 L241.28,71.87 L241.31,71.76 L241.34,71.64 L241.37,71.53 L241.40,71.42 L241.42,71.31 L241.45,71.19 L241.48,71.08 L241.51,70.97 L241.54,70.86 L241.56,70.75 L241.59,70.63 L241.62,70.52 L241.65,70.41 L241.68,70.30 L241.70,70.18 L241.73,70.07 L241.76,69.96 L241.79,69.85 L241.82,69.73 L241.84,69.62 L241.87,69.51 L241.90,69.40 L241.93,69.29 L241.96,69.17 L241.98,69.06 L242.01,68.95 L242.04,68.84 L242.07,68.72 L242.10,68.61 L242.13,68.50 L242.15,68.39 L242.18,68.27 L242.21,68.16 L242.24,68.05 L242.27,67.94 L242.29,67.83 L242.32,67.71 L242.35,67.60 L242.38,67.49 L242.41,67.38 L242.43,67.26 L242.46,67.15 L242.49,67.04 L242.52,66.93 L242.55,66.81 L242.57,66.70 L242.60,66.59 L242.63,66.48 L242.66,66.37 L242.69,66.25 L242.71,66.14 L242.74,66.03 L242.77,65.92 L242.80,65.80 L242.83,65.69 L242.86,65.58 L242.88,65.47 L242.91,65.35 L242.94,65.24 L242.97,65.13 L243.00,65.02 L243.02,64.90 L243.05,64.79 L243.08,64.68 L243.11,64.57 L243.14,64.46 L243.16,64.34 L243.19,64.23 L243.22,64.12 L243.25,64.01 L243.28,63.89 L243.30,63.78 L243.33,63.67 L243.36,63.56 L243.39,63.44 L243.42,63.33 L243.44,63.22 L243.47,63.11 L243.50,63.00 L243.53,62.88 L243.56,62.77 L243.59,62.66 L243.61,62.55 L243.64,62.43 L243.67,62.32 L243.70,62.21 L243.73,62.10 L243.75,61.98 L243.78,61.87 L243.81,61.76 L243.84,61.65 L243.87,61.54 L243.89,61.42 L243.92,61.31 L243.95,61.20 L243.98,61.09 L244.01,60.97 L244.03,60.86 L244.06,60.75 L244.09,60.64 L244.12,60.52 L244.15,60.41 L244.17,60.30 L244.20,60.19 L244.23,60.08 L244.26,59.96 L244.29,59.85 L244.32,59.74 L244.34,59.63 L244.37,59.51 L244.40,59.40 L244.43,59.29 L244.46,59.18 L244.48,59.06 L244.51,58.95 L244.54,58.84 L244.57,58.73 L244.60,58.62 L244.62,58.50 L244.65,58.39 L244.68,58.28 L244.71,58.17 L244.74,58.05 L244.76,57.94 L244.79,57.83 L244.82,57.72 L244.85,57.60 L244.88,57.49 L244.90,57.38 L244.93,57.27 L244.96,57.16 L244.99,57.04 L245.02,56.93 L245.05,56.82 L245.07,56.71 L245.10,56.59 L245.13,56.48 L245.16,56.37 L245.19,56.26 L245.21,56.14 L245.24,56.03 L245.27,55.92 L245.30,55.81 L245.33,55.70 L245.35,55.58 L245.38,55.47 L245.41,55.36 L245.44,55.25 L245.47,55.13 L245.49,55.02 L245.52,54.91 L245.55,54.80 L245.58,54.68 L245.61,54.57 L245.63,54.46 L245.66,54.35 L245.69,54.24 L245.72,54.12 L245.75,54.01 L245.78,53.90 L245.80,53.79 L245.83,53.67 L245.86,53.56 L245.89,53.45 L245.92,53.34 L245.94,53.22 L245.97,53.11 L246.00,53.00" style="stroke-width: 2; stroke: rgb(74, 144, 226); stroke-opacity: 0.8;"/><path d=" M246.00,59.24 L246.25,60.01 L246.50,60.77 L246.75,61.51 L247.00,62.23 L247.25,62.95 L247.50,63.64 L247.75,64.32 L248.00,64.99 L248.25,65.65 L248.50,66.29 L248.75,66.92 L249.00,67.53 L249.25,68.14 L249.50,68.73 L249.75,69.30 L250.00,69.87 L250.25,70.42 L250.50,70.97 L250.75,71.50 L251.00,72.02 L251.25,72.53 L251.50,73.03 L251.75,73.52 L252.00,73.99 L252.25,74.46 L252.50,74.92 L252.75,75.37 L253.00,75.81 L253.25,76.24 L253.50,76.66 L253.75,77.07 L254.00,77.47 L254.25,77.87 L254.50,78.25 L254.75,78.63 L255.00,79.00 L255.25,79.36 L255.50,79.72 L255.75,80.06 L256.00,80.40 L256.25,80.73 L256.50,81.05 L256.75,81.37 L257.00,81.68 L257.25,81.98 L257.50,82.28 L257.75,82.57 L258.00,82.85 L258.25,83.13 L258.50,83.40 L258.75,83.66 L259.00,83.92 L259.25,84.17 L259.50,84.42 L259.75,84.66 L260.00,84.90 L260.25,85.13 L260.50,85.35 L260.75,85.57 L261.00,85.79 L261.25,86.00 L261.50,86.20 L261.75,86.40 L262.00,86.59 L262.25,86.78 L262.50,86.97 L262.75,87.15 L263.00,87.33 L263.25,87.50 L263.50,87.67 L263.75,87.83 L264.00,87.99 L264.25,88.15 L264.50,88.30 L264.75,88.45 L265.00,88.59 L265.25,88.73 L265.50,88.87 L265.75,89.00 L266.00,89.13 L266.25,89.26 L266.50,89.38 L266.75,89.50 L267.00,89.62 L267.25,89.73 L267.50,89.84 L267.75,89.95 L268.00,90.05 L268.25,90.16 L268.50,90.25 L268.75,90.35 L269.00,90.44 L269.25,90.53 L269.50,90.62 L269.75,90.70 L270.00,90.79 L270.25,90.87 L270.50,90.94 L270.75,91.02 L271.00,91.09 L271.25,91.16 L271.50,91.23 L271.75,91.30 L272.00,91.36 L272.25,91.42 L272.50,91.48 L272.75,91.54 L273.00,91.59 L273.25,91.64 L273.50,91.70 L273.75,91.74 L274.00,91.79 L274.25,91.84 L274.50,91.88 L274.75,91.92 L275.00,91.96 L275.25,92.00 L275.50,92.04 L275.75,92.07 L276.00,92.11 L276.25,92.14 L276.50,92.17 L276.75,92.20 L277.00,92.22 L277.25,92.25 L277.50,92.27 L277.75,92.30 L278.00,92.32 L278.25,92.34 L278.50,92.36 L278.75,92.37 L279.00,92.39 L279.25,92.41 L279.50,92.42 L279.75,92.43 L280.00,92.44 L280.25,92.45 L280.50,92.46 L280.75,92.47 L281.00,92.48 L281.25,92.48 L281.50,92.49 L281.75,92.49 L282.00,92.49 L282.25,92.49 L282.50,92.50 L282.75,92.50 L283.00,92.49 L283.25,92.49 L283.50,92.49 L283.75,92.48 L284.00,92.48 L284.25,92.47 L284.50,92.47 L284.75,92.46 L285.00,92.45 L285.25,92.44 L285.50,92.43 L285.75,92.42 L286.00,92.41 L286.25,92.40 L286.50,92.39 L286.75,92.37 L287.00,92.36 L287.25,92.34 L287.50,92.33 L287.75,92.31 L288.00,92.29 L288.25,92.28 L288.50,92.26 L288.75,92.24 L289.00,92.22 L289.25,92.20 L289.50,92.18 L289.75,92.16 L290.00,92.14 L290.25,92.12 L290.50,92.09 L290.75,92.07 L291.00,92.05 L291.25,92.02 L291.50,92.00 L291.75,91.97 L292.00,91.95 L292.25,91.92 L292.50,91.89 L292.75,91.87 L293.00,91.84 L293.25,91.81 L293.50,91.78 L293.75,91.75 L294.00,91.72 L294.25,91.70 L294.50,91.67 L294.75,91.63 L295.00,91.60 L295.25,91.57 L295.50,91.54 L295.75,91.51 L296.00,91.48 L296.25,91.45 L296.50,91.41 L296.75,91.38 L297.00,91.35 L297.25,91.31 L297.50,91.28 L297.75,91.24 L298.00,91.21 L298.25,91.17 L298.50,91.14 L298.75,91.10 L299.00,91.07 L299.25,91.03 L299.50,91.00 L299.75,90.96 L300.00,90.92 L300.25,90.89 L300.50,90.85 L300.75,90.81 L301.00,90.77 L301.25,90.73 L301.50,90.70 L301.75,90.66 L302.00,90.62 L302.25,90.58 L302.50,90.54 L302.75,90.50 L303.00,90.46 L303.25,90.42 L303.50,90.38 L303.75,90.34 L304.00,90.30 L304.25,90.26 L304.50,90.22 L304.75,90.18 L305.00,90.14 L305.25,90.10 L305.50,90.06 L305.75,90.01 L306.00,89.97 L306.25,89.93 L306.50,89.89 L306.75,89.85 L307.00,89.80 L307.25,89.76 L307.50,89.72 L307.75,89.68 L308.00,89.63 L308.25,89.59 L308.50,89.55 L308.75,89.50 L309.00,89.46 L309.25,89.42 L309.50,89.37 L309.75,89.33 L310.00,89.29 L310.25,89.24 L310.50,89.20 L310.75,89.15 L311.00,89.11 L311.25,89.06 L311.50,89.02 L311.75,88.98 L312.00,88.93 L312.25,88.89 L312.50,88.84 L312.75,88.80 L313.00,88.75 L313.25,88.71 L313.50,88.66 L313.75,88.61 L314.00,88.57 L314.25,88.52 L314.50,88.48 L314.75,88.43 L315.00,88.39 L315.25,88.34 L315.50,88.29 L315.75,88.25 L316.00,88.20 L316.25,88.16 L316.50,88.11 L316.75,88.06 L317.00,88.02 L317.25,87.97 L317.50,87.92 L317.75,87.88 L318.00,87.83 L318.25,87.78 L318.50,87.74 L318.75,87.69 L319.00,87.64 L319.25,87.60 L319.50,87.55 L319.75,87.50 L320.00,87.45 L320.25,87.41 L320.50,87.36 L320.75,87.31 L321.00,87.27 L321.25,87.22 L321.50,87.17 L321.75,87.12 L322.00,87.08 L322.25,87.03 L322.50,86.98 L322.75,86.93 L323.00,86.88 L323.25,86.84 L323.50,86.79 L323.75,86.74 L324.00,86.69 L324.25,86.65 L324.50,86.60 L324.75,86.55 L325.00,86.50 L325.25,86.45 L325.50,86.40 L325.75,86.36 L326.00,86.31 L326.25,86.26 L326.50,86.21 L326.75,86.16 L327.00,86.12 L327.25,86.07 L327.50,86.02 L327.75,85.97 L328.00,85.92 L328.25,85.87 L328.50,85.82 L328.75,85.78 L329.00,85.73 L329.25,85.68 L329.50,85.63 L329.75,85.58 L330.00,85.53 L330.25,85.48 L330.50,85.44 L330.75,85.39 L331.00,85.34 L331.25,85.29 L331.50,85.24 L331.75,85.19 L332.00,85.14 L332.25,85.09 L332.50,85.04 L332.75,85.00 L333.00,84.95 L333.25,84.90 L333.50,84.85 L333.75,84.80 L334.00,84.75 L334.25,84.70 L334.50,84.65 L334.75,84.60 L335.00,84.55 L335.25,84.50 L335.50,84.46 L335.75,84.41 L336.00,84.36 L336.25,84.31 L336.50,84.26 L336.75,84.21 L337.00,84.16 L337.25,84.11 L337.50,84.06 L337.75,84.01 L338.00,83.96 L338.25,83.91 L338.50,83.86 L338.75,83.82 L339.00,83.77 L339.25,83.72 L339.50,83.67 L339.75,83.62 L340.00,83.57 L340.25,83.52 L340.50,83.47 L340.75,83.42 L341.00,83.37 L341.25,83.32 L341.50,83.27 L341.75,83.22 L342.00,83.17 L342.25,83.12 L342.50,83.07 L342.75,83.02 L343.00,82.98 L343.25,82.93 L343.50,82.88 L343.75,82.83 L344.00,82.78 L344.25,82.73 L344.50,82.68 L344.75,82.63 L345.00,82.58 L345.25,82.53 L345.50,82.48 L345.75,82.43 L346.00,82.38 L346.25,82.33 L346.50,82.28 L346.75,82.23 L347.00,82.18 L347.25,82.13 L347.50,82.08 L347.75,82.03 L348.00,81.98 L348.25,81.93 L348.50,81.88 L348.75,81.83 L349.00,81.78 L349.25,81.73 L349.50,81.68 L349.75,81.64 L350.00,81.59 L350.25,81.54 L350.50,81.49 L350.75,81.44 L351.00,81.39 L351.25,81.34 L351.50,81.29 L351.75,81.24 L352.00,81.19 L352.25,81.14 L352.50,81.09 L352.75,81.04 L353.00,80.99 L353.25,80.94 L353.50,80.89 L353.75,80.84 L354.00,80.79 L354.25,80.74 L354.50,80.69 L354.75,80.64 L355.00,80.59 L355.25,80.54 L355.50,80.49 L355.75,80.44 L356.00,80.39 L356.25,80.34 L356.50,80.29 L356.75,80.24 L357.00,80.19 L357.25,80.14 L357.50,80.09 L357.75,80.04 L358.00,79.99 L358.25,79.94 L358.50,79.89 L358.75,79.84 L359.00,79.79 L359.25,79.74 L359.50,79.69 L359.75,79.64 L360.00,79.59 L360.25,79.54 L360.50,79.49 L360.75,79.44 L361.00,79.39 L361.25,79.34 L361.50,79.29 L361.75,79.24 L362.00,79.19 L362.25,79.14 L362.50,79.09 L362.75,79.04 L363.00,78.99 L363.25,78.94 L363.50,78.89 L363.75,78.84 L364.00,78.80 L364.25,78.75 L364.50,78.70 L364.75,78.65 L365.00,78.60 L365.25,78.55 L365.50,78.50 L365.75,78.45 L366.00,78.40 L366.25,78.35 L366.50,78.30 L366.75,78.25 L367.00,78.20 L367.25,78.15 L367.50,78.10 L367.75,78.05 L368.00,78.00 L368.25,77.95 L368.50,77.90 L368.75,77.85 L369.00,77.80 L369.25,77.75 L369.50,77.70 L369.75,77.65 L370.00,77.60 L370.25,77.55 L370.50,77.50 L370.75,77.45 L371.00,77.40 L371.25,77.35 L371.50,77.30 L371.75,77.25 L372.00,77.20 L372.25,77.15 L372.50,77.10 L372.75,77.05 L373.00,77.00 L373.25,76.95 L373.50,76.90 L373.75,76.85 L374.00,76.80 L374.25,76.75 L374.50,76.70 L374.75,76.65 L375.00,76.60 L375.25,76.55 L375.50,76.50 L375.75,76.45 L376.00,76.40 L376.25,76.35 L376.50,76.30 L376.75,76.25 L377.00,76.20 L377.25,76.15 L377.50,76.10 L377.75,76.05 L378.00,76.00 L378.25,75.95 L378.50,75.90 L378.75,75.85 L379.00,75.80 L379.25,75.75 L379.50,75.70 L379.75,75.65 L380.00,75.60 L380.25,75.55 L380.50,75.50 L380.75,75.45 L381.00,75.40 L381.25,75.35 L381.50,75.30 L381.75,75.25 L382.00,75.20 L382.25,75.15 L382.50,75.10 L382.75,75.05 L383.00,75.00 L383.25,74.95 L383.50,74.90 L383.75,74.85 L384.00,74.80 L384.25,74.75 L384.50,74.70 L384.75,74.65 L385.00,74.60 L385.25,74.55 L385.50,74.50 L385.75,74.45 L386.00,74.40 L386.25,74.35 L386.50,74.30 L386.75,74.25 L387.00,74.20 L387.25,74.15 L387.50,74.10 L387.75,74.05 L388.00,74.00 L388.25,73.95 L388.50,73.90 L388.75,73.85 L389.00,73.80 L389.25,73.75 L389.50,73.70 L389.75,73.65 L390.00,73.60 L390.25,73.55 L390.50,73.50 L390.75,73.45 L391.00,73.40 L391.25,73.35 L391.50,73.30 L391.75,73.25 L392.00,73.20 L392.25,73.15 L392.50,73.10 L392.75,73.05 L393.00,73.00 L393.25,72.95 L393.50,72.90 L393.75,72.85 L394.00,72.80 L394.25,72.75 L394.50,72.70 L394.75,72.65 L395.00,72.60 L395.25,72.55 L395.50,72.50 L395.75,72.45 L396.00,72.40 L396.25,72.35 L396.50,72.30 L396.75,72.25 L397.00,72.20 L397.25,72.15 L397.50,72.10 L397.75,72.05 L398.00,72.00 L398.25,71.95 L398.50,71.90 L398.75,71.85 L399.00,71.80 L399.25,71.75 L399.50,71.70 L399.75,71.65 L400.00,71.60 L400.25,71.55 L400.50,71.50 L400.75,71.45 L401.00,71.40 L401.25,71.35 L401.50,71.30 L401.75,71.25 L402.00,71.20 L402.25,71.15 L402.50,71.10 L402.75,71.05 L403.00,71.00 L403.25,70.95 L403.50,70.90 L403.75,70.85 L404.00,70.80 L404.25,70.75 L404.50,70.70 L404.75,70.65 L405.00,70.60 L405.25,70.55 L405.50,70.50 L405.75,70.45 L406.00,70.40 L406.25,70.35 L406.50,70.30 L406.75,70.25 L407.00,70.20 L407.25,70.15 L407.50,70.10 L407.75,70.05 L408.00,70.00 L408.25,69.95 L408.50,69.90 L408.75,69.85 L409.00,69.80 L409.25,69.75 L409.50,69.70 L409.75,69.65 L410.00,69.60 L410.25,69.55 L410.50,69.50 L410.75,69.45 L411.00,69.40 L411.25,69.35 L411.50,69.30 L411.75,69.25 L412.00,69.20 L412.25,69.15 L412.50,69.10 L412.75,69.05 L413.00,69.00 L413.25,68.95 L413.50,68.90 L413.75,68.85 L414.00,68.80 L414.25,68.75 L414.50,68.70 L414.75,68.65 L415.00,68.60 L415.25,68.55 L415.50,68.50 L415.75,68.45 L416.00,68.40 L416.25,68.35 L416.50,68.30 L416.75,68.25 L417.00,68.20 L417.25,68.15 L417.50,68.10 L417.75,68.05 L418.00,68.00 L418.25,67.95 L418.50,67.90 L418.75,67.85 L419.00,67.80 L419.25,67.75 L419.50,67.70 L419.75,67.65 L420.00,67.60 L420.25,67.55 L420.50,67.50 L420.75,67.45 L421.00,67.40 L421.25,67.35 L421.50,67.30 L421.75,67.25 L422.00,67.20 L422.25,67.15 L422.50,67.10 L422.75,67.05 L423.00,67.00 L423.25,66.95 L423.50,66.90 L423.75,66.85 L424.00,66.80 L424.25,66.75 L424.50,66.70 L424.75,66.65 L425.00,66.60 L425.25,66.55 L425.50,66.50 L425.75,66.45 L426.00,66.40 L426.25,66.35 L426.50,66.30 L426.75,66.25 L427.00,66.20 L427.25,66.15 L427.50,66.10 L427.75,66.05 L428.00,66.00 L428.25,65.95 L428.50,65.90 L428.75,65.85 L429.00,65.80 L429.25,65.75 L429.50,65.70 L429.75,65.65 L430.00,65.60 L430.25,65.55 L430.50,65.50 L430.75,65.45 L431.00,65.40 L431.25,65.35 L431.50,65.30 L431.75,65.25 L432.00,65.20 L432.25,65.15 L432.50,65.10 L432.75,65.05 L433.00,65.00 L433.25,64.95 L433.50,64.90 L433.75,64.85 L434.00,64.80 L434.25,64.75 L434.50,64.70 L434.75,64.65 L435.00,64.60 L435.25,64.55 L435.50,64.50 L435.75,64.45 L436.00,64.40 L436.25,64.35 L436.50,64.30 L436.75,64.25 L437.00,64.20 L437.25,64.15 L437.50,64.10 L437.75,64.05 L438.00,64.00 L438.25,63.95 L438.50,63.90 L438.75,63.85 L439.00,63.80 L439.25,63.75 L439.50,63.70 L439.75,63.65 L440.00,63.60 L440.25,63.55 L440.50,63.50 L440.75,63.45 L441.00,63.40 L441.25,63.35 L441.50,63.30 L441.75,63.25 L442.00,63.20 L442.25,63.15 L442.50,63.10 L442.75,63.05 L443.00,63.00 L443.25,62.95 L443.50,62.90 L443.75,62.85 L444.00,62.80 L444.25,62.75 L444.50,62.70 L444.75,62.65 L445.00,62.60 L445.25,62.55 L445.50,62.50 L445.75,62.45 L446.00,62.40 L446.25,62.35 L446.50,62.30 L446.75,62.25 L447.00,62.20 L447.25,62.15 L447.50,62.10 L447.75,62.05 L448.00,62.00 L448.25,61.95 L448.50,61.90 L448.75,61.85 L449.00,61.80 L449.25,61.75 L449.50,61.70 L449.75,61.65 L450.00,61.60 L450.25,61.55 L450.50,61.50 L450.75,61.45 L451.00,61.40 L451.25,61.35 L451.50,61.30 L451.75,61.25 L452.00,61.20 L452.25,61.15 L452.50,61.10 L452.75,61.05 L453.00,61.00 L453.25,60.95 L453.50,60.90 L453.75,60.85 L454.00,60.80 L454.25,60.75 L454.50,60.70 L454.75,60.65 L455.00,60.60 L455.25,60.55 L455.50,60.50 L455.75,60.45 L456.00,60.40 L456.25,60.35 L456.50,60.30 L456.75,60.25 L457.00,60.20 L457.25,60.15 L457.50,60.10 L457.75,60.05 L458.00,60.00 L458.25,59.95 L458.50,59.90 L458.75,59.85 L459.00,59.80 L459.25,59.75 L459.50,59.70 L459.75,59.65 L460.00,59.60 L460.25,59.55 L460.50,59.50 L460.75,59.45 L461.00,59.40 L461.25,59.35 L461.50,59.30 L461.75,59.25 L462.00,59.20 L462.25,59.15 L462.50,59.10 L462.75,59.05 L463.00,59.00 L463.25,58.95 L463.50,58.90 L463.75,58.85 L464.00,58.80 L464.25,58.75 L464.50,58.70 L464.75,58.65 L465.00,58.60 L465.25,58.55 L465.50,58.50 L465.75,58.45 L466.00,58.40 L466.25,58.35 L466.50,58.30 L466.75,58.25 L467.00,58.20 L467.25,58.15 L467.50,58.10 L467.75,58.05 L468.00,58.00 L468.25,57.95 L468.50,57.90 L468.75,57.85 L469.00,57.80 L469.25,57.75 L469.50,57.70 L469.75,57.65 L470.00,57.60 L470.25,57.55 L470.50,57.50 L470.75,57.45 L471.00,57.40 L471.25,57.35 L471.50,57.30 L471.75,57.25 L472.00,57.20 L472.25,57.15 L472.50,57.10 L472.75,57.05 L473.00,57.00 L473.25,56.95 L473.50,56.90 L473.75,56.85 L474.00,56.80 L474.25,56.75 L474.50,56.70 L474.75,56.65 L475.00,56.60 L475.25,56.55 L475.50,56.50 L475.75,56.45 L476.00,56.40 L476.25,56.35 L476.50,56.30 L476.75,56.25 L477.00,56.20 L477.25,56.15 L477.50,56.10" style="stroke-width: 2; stroke: rgb(60, 180, 75); stroke-opacity: 0.8;"/><path d=" M14.00,148.80 L14.22,148.76 L14.44,148.71 L14.67,148.67 L14.89,148.62 L15.11,148.58 L15.33,148.53 L15.56,148.49 L15.78,148.44 L16.00,148.40 L16.22,148.36 L16.45,148.31 L16.67,148.27 L16.89,148.22 L17.11,148.18 L17.34,148.13 L17.56,148.09 L17.78,148.04 L18.00,148.00 L18.23,147.95 L18.45,147.91 L18.67,147.87 L18.89,147.82 L19.12,147.78 L19.34,147.73 L19.56,147.69 L19.78,147.64 L20.01,147.60 L20.23,147.55 L20.45,147.51 L20.67,147.47 L20.90,147.42 L21.12,147.38 L21.34,147.33 L21.56,147.29 L21.79,147.24 L22.01,147.20 L22.23,147.15 L22.45,147.11 L22.68,147.06 L22.90,147.02 L23.12,146.98 L23.34,146.93 L23.57,146.89 L23.79,146.84 L24.01,146.80 L24.23,146.75 L24.46,146.71 L24.68,146.66 L24.90,146.62 L25.12,146.58 L25.35,146.53 L25.57,146.49 L25.79,146.44 L26.01,146.40 L26.24,146.35 L26.46,146.31 L26.68,146.26 L26.90,146.22 L27.13,146.17 L27.35,146.13 L27.57,146.09 L27.79,146.04 L28.02,146.00 L28.24,145.95 L28.46,145.91 L28.68,145.86 L28.90,145.82 L29.13,145.77 L29.35,145.73 L29.57,145.69 L29.79,145.64 L30.02,145.60 L30.24,145.55 L30.46,145.51 L30.68,145.46 L30.91,145.42 L31.13,145.37 L31.35,145.33 L31.57,145.29 L31.80,145.24 L32.02,145.20 L32.24,145.15 L32.46,145.11 L32.69,145.06 L32.91,145.02 L33.13,144.97 L33.35,144.93 L33.58,144.88 L33.80,144.84 L34.02,144.80 L34.24,144.75 L34.47,144.71 L34.69,144.66 L34.91,144.62 L35.13,144.57 L35.36,144.53 L35.58,144.48 L35.80,144.44 L36.02,144.40 L36.25,144.35 L36.47,144.31 L36.69,144.26 L36.91,144.22 L37.14,144.17 L37.36,144.13 L37.58,144.08 L37.80,144.04 L38.03,143.99 L38.25,143.95 L38.47,143.91 L38.69,143.86 L38.92,143.82 L39.14,143.77 L39.36,143.73 L39.58,143.68 L39.81,143.64 L40.03,143.59 L40.25,143.55 L40.47,143.51 L40.70,143.46 L40.92,143.42 L41.14,143.37 L41.36,143.33 L41.59,143.28 L41.81,143.24 L42.03,143.19 L42.25,143.15 L42.48,143.11 L42.70,143.06 L42.92,143.02 L43.14,142.97 L43.37,142.93 L43.59,142.88 L43.81,142.84 L44.03,142.79 L44.25,142.75 L44.48,142.70 L44.70,142.66 L44.92,142.62 L45.14,142.57 L45.37,142.53 L45.59,142.48 L45.81,142.44 L46.03,142.39 L46.26,142.35 L46.48,142.30 L46.70,142.26 L46.92,142.22 L47.15,142.17 L47.37,142.13 L47.59,142.08 L47.81,142.04 L48.04,141.99 L48.26,141.95 L48.48,141.90 L48.70,141.86 L48.93,141.81 L49.15,141.77 L49.37,141.73 L49.59,141.68 L49.82,141.64 L50.04,141.59 L50.26,141.55 L50.48,141.50 L50.71,141.46 L50.93,141.41 L51.15,141.37 L51.37,141.33 L51.60,141.28 L51.82,141.24 L52.04,141.19 L52.26,141.15 L52.49,141.10 L52.71,141.06 L52.93,141.01 L53.15,140.97 L53.38,140.92 L53.60,140.88 L53.82,140.84 L54.04,140.79 L54.27,140.75 L54.49,140.70 L54.71,140.66 L54.93,140.61 L55.16,140.57 L55.38,140.52 L55.60,140.48 L55.82,140.44 L56.05,140.39 L56.27,140.35 L56.49,140.30 L56.71,140.26 L56.94,140.21 L57.16,140.17 L57.38,140.12 L57.60,140.08 L57.83,140.04 L58.05,139.99 L58.27,139.95 L58.49,139.90 L58.71,139.86 L58.94,139.81 L59.16,139.77 L59.38,139.72 L59.60,139.68 L59.83,139.63 L60.05,139.59 L60.27,139.55 L60.49,139.50 L60.72,139.46 L60.94,139.41 L61.16,139.37 L61.38,139.32 L61.61,139.28 L61.83,139.23 L62.05,139.19 L62.27,139.15 L62.50,139.10 L62.72,139.06 L62.94,139.01 L63.16,138.97 L63.39,138.92 L63.61,138.88 L63.83,138.83 L64.05,138.79 L64.28,138.74 L64.50,138.70 L64.72,138.66 L64.94,138.61 L65.17,138.57 L65.39,138.52 L65.61,138.48 L65.83,138.43 L66.06,138.39 L66.28,138.34 L66.50,138.30 L66.72,138.26 L66.95,138.21 L67.17,138.17 L67.39,138.12 L67.61,138.08 L67.84,138.03 L68.06,137.99 L68.28,137.94 L68.50,137.90 L68.73,137.86 L68.95,137.81 L69.17,137.77 L69.39,137.72 L69.62,137.68 L69.84,137.63 L70.06,137.59 L70.28,137.54 L70.51,137.50 L70.73,137.45 L70.95,137.41 L71.17,137.37 L71.40,137.32 L71.62,137.28 L71.84,137.23 L72.06,137.19 L72.29,137.14 L72.51,137.10 L72.73,137.05 L72.95,137.01 L73.17,136.97 L73.40,136.92 L73.62,136.88 L73.84,136.83 L74.06,136.79 L74.29,136.74 L74.51,136.70 L74.73,136.65 L74.95,136.61 L75.18,136.57 L75.40,136.52 L75.62,136.48 L75.84,136.43 L76.07,136.39 L76.29,136.34 L76.51,136.30 L76.73,136.25 L76.96,136.21 L77.18,136.16 L77.40,136.12 L77.62,136.08 L77.85,136.03 L78.07,135.99 L78.29,135.94 L78.51,135.90 L78.74,135.85 L78.96,135.81 L79.18,135.76 L79.40,135.72 L79.63,135.68 L79.85,135.63 L80.07,135.59 L80.29,135.54 L80.52,135.50 L80.74,135.45 L80.96,135.41 L81.18,135.36 L81.41,135.32 L81.63,135.28 L81.85,135.23 L82.07,135.19 L82.30,135.14 L82.52,135.10 L82.74,135.05 L82.96,135.01 L83.19,134.96 L83.41,134.92 L83.63,134.88 L83.85,134.83 L84.08,134.79 L84.30,134.74 L84.52,134.70 L84.74,134.65 L84.97,134.61 L85.19,134.56 L85.41,134.52 L85.63,134.47 L85.86,134.43 L86.08,134.39 L86.30,134.34 L86.52,134.30 L86.75,134.25 L86.97,134.21 L87.19,134.16 L87.41,134.12 L87.63,134.07 L87.86,134.03 L88.08,133.99 L88.30,133.94 L88.52,133.90 L88.75,133.85 L88.97,133.81 L89.19,133.76 L89.41,133.72 L89.64,133.67 L89.86,133.63 L90.08,133.59 L90.30,133.54 L90.53,133.50 L90.75,133.45 L90.97,133.41 L91.19,133.36 L91.42,133.32 L91.64,133.27 L91.86,133.23 L92.08,133.19 L92.31,133.14 L92.53,133.10 L92.75,133.05 L92.97,133.01 L93.20,132.96 L93.42,132.92 L93.64,132.87 L93.86,132.83 L94.09,132.79 L94.31,132.74 L94.53,132.70 L94.75,132.65 L94.98,132.61 L95.20,132.56 L95.42,132.52 L95.64,132.47 L95.87,132.43 L96.09,132.39 L96.31,132.34 L96.53,132.30 L96.76,132.25 L96.98,132.21 L97.20,132.16 L97.42,132.12 L97.65,132.07 L97.87,132.03 L98.09,131.99 L98.31,131.94 L98.54,131.90 L98.76,131.85 L98.98,131.81 L99.20,131.76 L99.43,131.72 L99.65,131.67 L99.87,131.63 L100.09,131.59 L100.32,131.54 L100.54,131.50 L100.76,131.45 L100.98,131.41 L101.21,131.36 L101.43,131.32 L101.65,131.27 L101.87,131.23 L102.10,131.19 L102.32,131.14 L102.54,131.10 L102.76,131.05 L102.98,131.01 L103.21,130.96 L103.43,130.92 L103.65,130.88 L103.87,130.83 L104.10,130.79 L104.32,130.74 L104.54,130.70 L104.76,130.65 L104.99,130.61 L105.21,130.56 L105.43,130.52 L105.65,130.48 L105.88,130.43 L106.10,130.39 L106.32,130.34 L106.54,130.30 L106.77,130.25 L106.99,130.21 L107.21,130.17 L107.43,130.12 L107.66,130.08 L107.88,130.03 L108.10,129.99 L108.32,129.94 L108.55,129.90 L108.77,129.85 L108.99,129.81 L109.21,129.77 L109.44,129.72 L109.66,129.68 L109.88,129.63 L110.10,129.59 L110.33,129.54 L110.55,129.50 L110.77,129.46 L110.99,129.41 L111.22,129.37 L111.44,129.32 L111.66,129.28 L111.88,129.23 L112.11,129.19 L112.33,129.15 L112.55,129.10 L112.77,129.06 L113.00,129.01 L113.22,128.97 L113.44,128.92 L113.66,128.88 L113.89,128.84 L114.11,128.79 L114.33,128.75 L114.55,128.70 L114.78,128.66 L115.00,128.61 L115.22,128.57 L115.44,128.53 L115.67,128.48 L115.89,128.44 L116.11,128.39 L116.33,128.35 L116.56,128.30 L116.78,128.26 L117.00,128.22 L117.22,128.17 L117.44,128.13 L117.67,128.08 L117.89,128.04 L118.11,127.99 L118.33,127.95 L118.56,127.91 L118.78,127.86 L119.00,127.82 L119.22,127.77 L119.45,127.73 L119.67,127.69 L119.89,127.64 L120.11,127.60 L120.34,127.55 L120.56,127.51 L120.78,127.46 L121.00,127.42 L121.23,127.38 L121.45,127.33 L121.67,127.29 L121.89,127.24 L122.12,127.20 L122.34,127.16 L122.56,127.11 L122.78,127.07 L123.01,127.02 L123.23,126.98 L123.45,126.94 L123.67,126.89 L123.90,126.85 L124.12,126.80 L124.34,126.76 L124.56,126.72 L124.79,126.67 L125.01,126.63 L125.23,126.58 L125.45,126.54 L125.68,126.50 L125.90,126.45 L126.12,126.41 L126.34,126.36 L126.57,126.32 L126.79,126.28 L127.01,126.23 L127.23,126.19 L127.46,126.14 L127.68,126.10 L127.90,126.06 L128.12,126.01 L128.35,125.97 L128.57,125.92 L128.79,125.88 L129.01,125.84 L129.24,125.79 L129.46,125.75 L129.68,125.71 L129.90,125.66 L130.13,125.62 L130.35,125.57 L130.57,125.53 L130.79,125.49 L131.02,125.44 L131.24,125.40 L131.46,125.36 L131.68,125.31 L131.90,125.27 L132.13,125.22 L132.35,125.18 L132.57,125.14 L132.79,125.09 L133.02,125.05 L133.24,125.01 L133.46,124.96 L133.68,124.92 L133.91,124.88 L134.13,124.83 L134.35,124.79 L134.57,124.75 L134.80,124.70 L135.02,124.66 L135.24,124.62 L135.46,124.57 L135.69,124.53 L135.91,124.49 L136.13,124.44 L136.35,124.40 L136.58,124.36 L136.80,124.31 L137.02,124.27 L137.24,124.23 L137.47,124.18 L137.69,124.14 L137.91,124.10 L138.13,124.05 L138.36,124.01 L138.58,123.97 L138.80,123.92 L139.02,123.88 L139.25,123.84 L139.47,123.79 L139.69,123.75 L139.91,123.71 L140.14,123.67 L140.36,123.62 L140.58,123.58 L140.80,123.54 L141.03,123.49 L141.25,123.45 L141.47,123.41 L141.69,123.37 L141.92,123.32 L142.14,123.28 L142.36,123.24 L142.58,123.20 L142.81,123.15 L143.03,123.11 L143.25,123.07 L143.47,123.03 L143.70,122.98 L143.92,122.94 L144.14,122.90 L144.36,122.86 L144.59,122.81 L144.81,122.77 L145.03,122.73 L145.25,122.69 L145.48,122.64 L145.70,122.60 L145.92,122.56 L146.14,122.52 L146.37,122.48 L146.59,122.43 L146.81,122.39 L147.03,122.35 L147.25,122.31 L147.48,122.27 L147.70,122.23 L147.92,122.18 L148.14,122.14 L148.37,122.10 L148.59,122.06 L148.81,122.02 L149.03,121.98 L149.26,121.94 L149.48,121.89 L149.70,121.85 L149.92,121.81 L150.15,121.77 L150.37,121.73 L150.59,121.69 L150.81,121.65 L151.04,121.61 L151.26,121.57 L151.48,121.53 L151.70,121.48 L151.93,121.44 L152.15,121.40 L152.37,121.36 L152.59,121.32 L152.82,121.28 L153.04,121.24 L153.26,121.20 L153.48,121.16 L153.71,121.12 L153.93,121.08 L154.15,121.04 L154.37,121.00 L154.60,120.96 L154.82,120.92 L155.04,120.88 L155.26,120.84 L155.49,120.80 L155.71,120.77 L155.93,120.73 L156.15,120.69 L156.38,120.65 L156.60,120.61 L156.82,120.57 L157.04,120.53 L157.27,120.49 L157.49,120.45 L157.71,120.42 L157.93,120.38 L158.16,120.34 L158.38,120.30 L158.60,120.26 L158.82,120.23 L159.05,120.19 L159.27,120.15 L159.49,120.11 L159.71,120.08 L159.94,120.04 L160.16,120.00 L160.38,119.96 L160.60,119.93 L160.83,119.89 L161.05,119.85 L161.27,119.82 L161.49,119.78 L161.71,119.74 L161.94,119.71 L162.16,119.67 L162.38,119.64 L162.60,119.60 L162.83,119.57 L163.05,119.53 L163.27,119.50 L163.49,119.46 L163.72,119.43 L163.94,119.39 L164.16,119.36 L164.38,119.32 L164.61,119.29 L164.83,119.25 L165.05,119.22 L165.27,119.19 L165.50,119.15 L165.72,119.12 L165.94,119.09 L166.16,119.05 L166.39,119.02 L166.61,118.99 L166.83,118.96 L167.05,118.92 L167.28,118.89 L167.50,118.86 L167.72,118.83 L167.94,118.80 L168.17,118.77 L168.39,118.74 L168.61,118.71 L168.83,118.68 L169.06,118.65 L169.28,118.62 L169.50,118.59 L169.72,118.56 L169.95,118.53 L170.17,118.50 L170.39,118.47 L170.61,118.44 L170.84,118.42 L171.06,118.39 L171.28,118.36 L171.50,118.33 L171.73,118.31 L171.95,118.28 L172.17,118.26 L172.39,118.23 L172.62,118.20 L172.84,118.18 L173.06,118.15 L173.28,118.13 L173.51,118.11 L173.73,118.08 L173.95,118.06 L174.17,118.04 L174.40,118.01 L174.62,117.99 L174.84,117.97 L175.06,117.95 L175.29,117.93 L175.51,117.91 L175.73,117.89 L175.95,117.87 L176.17,117.85 L176.40,117.83 L176.62,117.81 L176.84,117.79 L177.06,117.77 L177.29,117.76 L177.51,117.74 L177.73,117.72 L177.95,117.71 L178.18,117.69 L178.40,117.68 L178.62,117.67 L178.84,117.65 L179.07,117.64 L179.29,117.63 L179.51,117.61 L179.73,117.60 L179.96,117.59 L180.18,117.58 L180.40,117.57 L180.62,117.56 L180.85,117.55 L181.07,117.55 L181.29,117.54 L181.51,117.53 L181.74,117.53 L181.96,117.52 L182.18,117.52 L182.40,117.51 L182.63,117.51 L182.85,117.51 L183.07,117.51 L183.29,117.50 L183.52,117.50 L183.74,117.51 L183.96,117.51 L184.18,117.51 L184.41,117.51 L184.63,117.52 L184.85,117.52 L185.07,117.52 L185.30,117.53 L185.52,117.54 L185.74,117.55 L185.96,117.56 L186.19,117.57 L186.41,117.58 L186.63,117.59 L186.85,117.60 L187.08,117.61 L187.30,117.63 L187.52,117.64 L187.74,117.66 L187.97,117.68 L188.19,117.70 L188.41,117.72 L188.63,117.74 L188.86,117.76 L189.08,117.78 L189.30,117.81 L189.52,117.83 L189.75,117.86 L189.97,117.89 L190.19,117.92 L190.41,117.95 L190.63,117.98 L190.86,118.02 L191.08,118.05 L191.30,118.09 L191.52,118.12 L191.75,118.16 L191.97,118.20 L192.19,118.24 L192.41,118.29 L192.64,118.33 L192.86,118.38 L193.08,118.43 L193.30,118.48 L193.53,118.53 L193.75,118.58 L193.97,118.63 L194.19,118.69 L194.42,118.75 L194.64,118.81 L194.86,118.87 L195.08,118.93 L195.31,119.00 L195.53,119.06 L195.75,119.13 L195.97,119.20 L196.20,119.28 L196.42,119.35 L196.64,119.43 L196.86,119.51 L197.09,119.59 L197.31,119.67 L197.53,119.76 L197.75,119.85 L197.98,119.94 L198.20,120.03 L198.42,120.12 L198.64,120.22 L198.87,120.32 L199.09,120.42 L199.31,120.53 L199.53,120.63 L199.76,120.74 L199.98,120.86 L200.20,120.97 L200.42,121.09 L200.65,121.21 L200.87,121.33 L201.09,121.46 L201.31,121.59 L201.54,121.72 L201.76,121.86 L201.98,122.00 L202.20,122.14 L202.43,122.28 L202.65,122.43 L202.87,122.58 L203.09,122.74 L203.32,122.90 L203.54,123.06 L203.76,123.22 L203.98,123.39 L204.21,123.57 L204.43,123.74 L204.65,123.92 L204.87,124.11 L205.10,124.29 L205.32,124.49 L205.54,124.68 L205.76,124.88 L205.98,125.09 L206.21,125.30 L206.43,125.51 L206.65,125.73 L206.87,125.95 L207.10,126.18 L207.32,126.41 L207.54,126.65 L207.76,126.89 L207.99,127.13 L208.21,127.38 L208.43,127.64 L208.65,127.90 L208.88,128.17 L209.10,128.44 L209.32,128.72 L209.54,129.00 L209.77,129.29 L209.99,129.59 L210.21,129.89 L210.43,130.19 L210.66,130.50 L210.88,130.82 L211.10,131.15 L211.32,131.48 L211.55,131.82 L211.77,132.16 L211.99,132.51 L212.21,132.87 L212.44,133.23 L212.66,133.61 L212.88,133.99 L213.10,134.37 L213.33,134.77 L213.55,135.17 L213.77,135.58 L213.99,135.99 L214.22,136.42 L214.44,136.85 L214.66,137.29 L214.88,137.74 L215.11,138.20 L215.33,138.67 L215.55,139.14 L215.77,139.63 L216.00,140.12 L216.22,140.62 L216.44,141.14 L216.66,141.66 L216.89,142.19 L217.11,142.73 L217.33,143.28 L217.55,143.85 L217.78,144.42 L218.00,145.00 L218.22,145.60 L218.44,146.20 L218.67,146.82 L218.89,147.44 L219.11,148.08 L219.33,148.74 L219.56,149.40 L219.78,150.07 L220.00,150.76" style="stroke-width: 2; stroke: rgb(245, 130, 49); stroke-opacity: 0.8;"/></g></g><g><g class="test-yti" style="font-family: Asana-Math, Asana;"><line x1="11" y1="105" x2="15" y2="105" fill="none" stroke="rgb(50,50,50)" stroke-opacity="1" stroke-width="1"/></g><g class="test-yti" style="font-family: Asana-Math, Asana;"><line x1="476.5" y1="105" x2="480.5" y2="105" fill="none" stroke="rgb(50,50,50)" stroke-opacity="1" stroke-width="1"/></g></g><g class="test-ytl" style="font-family: &quot;Open Sans&quot;, verdana, arial, sans-serif;"><text text-anchor="end" dominant-baseline="middle" font-size="11" stroke="none" fill="rgb(50,50,50)" fill-opacity="1" x="7" y="105">0</text></g></g></g></g><g/></g><g/><g/><g/></svg>
        <svg xmlns="http://www.w3.org/2000/svg" xmlns:xlink="http://www.w3.org/1999/xlink" width="660" height="310" style="width:660px;height:310px;font-family:Asana-Math, Asana;background:#FFF;"></svg>
</svg>
