<svg xmlns="http://www.w3.org/2000/svg" xmlns:xlink="http://www.w3.org/1999/xlink" x="0" y="0" width="662" height="302" style="
        width:662px;
        height:302px;
        background: #FFF;
        fill: none;
">
        <svg xmlns="http://www.w3.org/2000/svg"><g><defs><pattern id=".27083064904129617" width="10" height="10" patternUnits="userSpaceOnUse"><path d="M 10 0 L 0 0 0 10" fill="none" stroke="lightgray" stroke-width="0.5"/></pattern></defs><rect width="100%" height="100%" fill="url(#.27083064904129617)" stroke="lightgray" stroke-width="0.5"/></g></svg>
        
        <svg xmlns="http://www.w3.org/2000/svg" class="role-diagram-draw-area"><g class="shapes-region" style="stroke: black; fill: none;"><g class="grouped-shape"><g class="grouped-shape"><g class="composite-shape"><path class="real" d=" M111,209 L221.74,209 L221.74,236.03 L111,236.03 Z" style="stroke-width: 1; stroke: rgb(0, 0, 0); fill: none; fill-opacity: 1;"/></g><g class="composite-shape"><path class="real" d=" M120.97,246.52 C120.97,240.71 125.67,236 131.48,236 C137.29,236 142,240.71 142,246.52 C142,252.33 137.29,257.03 131.48,257.03 C125.67,257.03 120.97,252.33 120.97,246.52 Z" style="stroke-width: 1; stroke: rgb(0, 0, 0); fill: none; fill-opacity: 1;"/></g><g class="composite-shape"><path class="real" d=" M185.97,246.52 C185.97,240.71 190.67,236 196.48,236 C202.29,236 207,240.71 207,246.52 C207,252.33 202.29,257.03 196.48,257.03 C190.67,257.03 185.97,252.33 185.97,246.52 Z" style="stroke-width: 1; stroke: rgb(0, 0, 0); fill: none; fill-opacity: 1;"/></g></g><g class="grouped-shape"><g class="composite-shape"><path class="real" d=" M179.98,32.23 L182.71,32.55 L162.21,208.36 L159.48,208.04 Z" style="stroke-width: 1; stroke: rgb(0, 0, 0); fill: none; fill-opacity: 1;"/></g></g><g class="composite-shape"><path class="real" d=" M159,32 L161.75,32 L161.75,209 L159,209 Z" style="stroke-width: 1; stroke: rgb(0, 0, 0); stroke-opacity: 0.26; fill: none; fill-opacity: 1;"/></g><g class="composite-shape"><path class="real" d=" M159.96,95.71 C161.52,94.05 163.87,93 166.5,93 C169.74,93 172.56,94.6 173.99,96.95 L166.5,100.5 Z" style="stroke-width: 1; stroke: none; fill: none; fill-opacity: 1;"/><path class="real" d=" M159.96,95.71 C161.52,94.05 163.87,93 166.5,93 C169.74,93 172.56,94.6 173.99,96.95" style="stroke-width: 1; stroke: rgb(0, 0, 0); fill: none; fill-opacity: 1;"/></g><g class="arrow-line"><path class="connection real" stroke-dasharray="" d="  M75,225 L109,225" style="stroke: rgb(0, 0, 0); stroke-width: 1; fill: none; fill-opacity: 1;"/><g stroke="#000" transform="matrix(-1,1.2246467991473532e-16,-1.2246467991473532e-16,-1,111,225)" style="stroke: rgb(0, 0, 0); stroke-width: 1;"><path d=" M10.93,-3.29 Q4.96,-0.45 0,0 Q4.96,0.45 10.93,3.29"/></g></g></g><g class="arrow-line"><path class="connection real" stroke-dasharray="" d="  M390,236 L606.74,236" style="stroke: rgb(0, 0, 0); stroke-width: 1; fill: none; fill-opacity: 1;"/><g stroke="#000" transform="matrix(-1,1.2246467991473532e-16,-1.2246467991473532e-16,-1,608.7443237304688,235.99999999999997)" style="stroke: rgb(0, 0, 0); stroke-width: 1;"><path d=" M10.93,-3.29 Q4.96,-0.45 0,0 Q4.96,0.45 10.93,3.29"/></g></g><g class="arrow-line"><path class="connection real" stroke-dasharray="" d="  M390,236 L390,43" style="stroke: rgb(0, 0, 0); stroke-width: 1; fill: none; fill-opacity: 1;"/><g stroke="#000" transform="matrix(3.061616997868383e-16,1,-1,3.061616997868383e-16,390,41)" style="stroke: rgb(0, 0, 0); stroke-width: 1;"><path d=" M10.93,-3.29 Q4.96,-0.45 0,0 Q4.96,0.45 10.93,3.29"/></g></g><g class="arrow-line"><path class="connection real" stroke-dasharray="" d="  M390,236 L417.75,83" style="stroke: rgb(0, 0, 0); stroke-width: 1; fill: none; fill-opacity: 1;"/></g><g class="composite-shape"><path class="real" d=" M390,138.5 C391.71,138.07 393.5,137.84 395.36,137.84 C400.12,137.84 404.52,139.37 408.04,141.94 L395.36,157.84 Z" style="stroke-width: 1; stroke: none; fill: none; fill-opacity: 1;"/><path class="real" d=" M390,138.5 C391.71,138.07 393.5,137.84 395.36,137.84 C400.12,137.84 404.52,139.37 408.04,141.94" style="stroke-width: 1; stroke: rgb(0, 0, 0); fill: none; fill-opacity: 1;"/></g><g class="arrow-line"><path class="connection real" stroke-dasharray="" d="  M403.88,159.5 L403.88,205" style="stroke: rgb(0, 0, 0); stroke-width: 1; fill: none; fill-opacity: 1;"/><g stroke="#000" transform="matrix(-1.8369701987210297e-16,-1,1,-1.8369701987210297e-16,403.875,206.99999999999994)" style="stroke: rgb(0, 0, 0); stroke-width: 1;"><path d=" M10.93,-3.29 Q4.96,-0.45 0,0 Q4.96,0.45 10.93,3.29"/></g></g><g/></g><g/><g/><g/></svg>
        <svg xmlns="http://www.w3.org/2000/svg" xmlns:xlink="http://www.w3.org/1999/xlink" width="660" height="300" style="width:660px;height:300px;font-family:Asana-Math, Asana;background:#FFF;"><g><g><g><g transform="matrix(1,0,0,1,146,227.5)"><path transform="matrix(0.012,0,0,-0.012,0,0)" d="M937 664L950 695C922 699 775 701 773 692L688 536L442 114L292 692C269 686 146 690 125 692L122 664L148 662C200 658 218 648 218 622C218 616 72 100 70 93C54 41 39 28 -16 23L-19 -3L20 -2C54 -1 79 0 93 0C107 0 133 -1 168 -2L203 -3L206 25L168 28C136 30 119 40 119 55C119 65 121 78 126 96L250 560L399 -18L422 -18L479 86L718 500L770 587L733 67C729 39 717 32 666 28L635 25L632 -3L679 -2C721 -1 751 0 766 0C782 0 812 -1 853 -2L899 -3L902 25L865 28C829 31 811 42 811 63L812 100L853 631C855 650 870 660 899 662Z" stroke="rgb(0,0,0)" stroke-opacity="1" stroke-width="8" fill="rgb(0,0,0)" fill-opacity="1"></path></g></g><g><g transform="matrix(1,0,0,1,159.984375,227.5)"><path transform="matrix(0.012,0,0,-0.012,0,0)" d="M604 347L604 406L65 406L65 347ZM604 134L604 193L65 193L65 134Z" stroke="rgb(0,0,0)" stroke-opacity="1" stroke-width="8" fill="rgb(0,0,0)" fill-opacity="1"></path></g></g><g><g transform="matrix(1,0,0,1,170.5546875,227.5)"><path transform="matrix(0.012,0,0,-0.012,0,0)" d="M16 23L16 -3C203 -3 203 0 239 0C275 0 275 -3 468 -3L468 82C353 77 307 81 122 77L304 270C401 373 431 428 431 503C431 618 353 689 226 689C154 689 105 669 56 619L39 483L68 483L81 529C97 587 133 612 200 612C286 612 341 558 341 473C341 398 299 324 186 204ZM739 722L727 733C675 707 639 698 567 691L563 670L611 670C635 670 645 663 645 646C645 638 644 629 643 622L595 354C581 279 565 210 513 1L522 -9L589 8L612 132C621 180 645 225 679 259C748 59 780 -9 805 -9C818 -9 842 4 886 35L932 67L924 86L881 62C867 54 860 52 852 52C842 52 835 58 826 75C791 139 769 193 730 316L744 330C805 391 851 416 901 416C909 416 920 414 937 410L954 473C936 479 918 482 906 482C840 482 757 405 632 230ZM1242 482C1175 482 1022 419 1022 259C1022 182 1067 136 1144 136C1152 136 1163 136 1174 137L1133 99C1117 84 1106 66 1106 52C1106 42 1113 31 1127 19C1058 -4 930 -48 930 -159C930 -230 1000 -276 1109 -276C1238 -276 1351 -204 1351 -121C1351 -85 1330 -49 1287 -14L1227 35C1193 62 1180 81 1180 100C1180 114 1195 128 1207 146C1305 170 1376 253 1376 342C1376 357 1373 376 1372 380C1389 378 1397 378 1406 378C1423 378 1433 379 1456 382L1465 427L1462 433C1434 426 1414 424 1360 424C1360 425 1336 482 1242 482ZM1143 1L1220 -58C1266 -94 1285 -121 1285 -154C1285 -206 1216 -248 1133 -248C1051 -248 994 -206 994 -145C994 -43 1104 -11 1143 1ZM1217 448C1275 448 1304 412 1304 341C1304 238 1256 168 1186 168C1125 168 1093 209 1093 288C1093 383 1144 448 1217 448Z" stroke="rgb(0,0,0)" stroke-opacity="1" stroke-width="8" fill="rgb(0,0,0)" fill-opacity="1"></path></g></g></g></g><g transform="matrix(0.11580398789098678,-0.9932720857793922,0.9932720857793922,0.11580398789098678,38.45023696182665,290.9122801027763)"><g><g><g transform="matrix(1,0,0,1,135.40625,128.16015625)"><path transform="matrix(0.012,0,0,-0.012,0,0)" d="M730 103L704 86C675 67 653 56 643 56C636 56 630 65 630 76C630 86 632 95 637 116L712 413C716 430 719 446 719 454C719 471 709 482 693 482C664 482 626 464 565 421C502 376 467 341 418 272L448 409C452 429 455 444 455 451C455 470 445 482 429 482C399 482 353 460 298 418C254 384 234 363 169 275L202 408C206 424 208 439 208 451C208 470 199 482 185 482C164 482 126 461 52 408L24 388L31 368C68 391 103 414 110 414C121 414 128 404 128 389C128 338 87 145 46 2L49 -9L117 6L139 108C163 219 190 278 245 338C287 384 332 414 360 414C367 414 371 406 371 393C371 358 349 244 308 69L292 2L297 -9L366 6L387 113C403 194 437 269 481 318C536 379 586 414 618 414C626 414 631 405 631 389C631 365 628 351 606 264C566 105 550 84 550 31C550 6 561 -9 580 -9C606 -9 642 12 740 85Z" stroke="rgb(0,0,0)" stroke-opacity="1" stroke-width="8" fill="rgb(0,0,0)" fill-opacity="1"></path></g></g><g><g transform="matrix(1,0,0,1,147.28125,128.16015625)"><path transform="matrix(0.012,0,0,-0.012,0,0)" d="M604 347L604 406L65 406L65 347ZM604 134L604 193L65 193L65 134Z" stroke="rgb(0,0,0)" stroke-opacity="1" stroke-width="8" fill="rgb(0,0,0)" fill-opacity="1"></path></g></g><g><g transform="matrix(1,0,0,1,157.8515625,128.16015625)"><path transform="matrix(0.012,0,0,-0.012,0,0)" d="M263 689C108 689 29 566 29 324C29 207 50 106 85 57C120 8 176 -20 238 -20C389 -20 465 110 465 366C465 585 400 689 263 689ZM245 654C342 654 381 556 381 316C381 103 343 15 251 15C154 15 113 116 113 360C113 571 150 654 245 654ZM623 111C593 111 566 83 566 53C566 23 593 -5 622 -5C654 -5 682 22 682 53C682 83 654 111 623 111ZM1166 -3L1166 27L1114 30C1059 33 1049 44 1049 96L1049 700L808 598L815 548L965 614L965 96C965 44 954 33 900 30L844 27L844 -3C998 0 998 0 1009 0C1040 0 1150 -3 1166 -3ZM1487 722L1475 733C1423 707 1387 698 1315 691L1311 670L1359 670C1383 670 1393 663 1393 646C1393 638 1392 629 1391 622L1343 354C1329 279 1313 210 1261 1L1270 -9L1337 8L1360 132C1369 180 1393 225 1427 259C1496 59 1528 -9 1553 -9C1566 -9 1590 4 1634 35L1680 67L1672 86L1629 62C1615 54 1608 52 1600 52C1590 52 1583 58 1574 75C1539 139 1517 193 1478 316L1492 330C1553 391 1599 416 1649 416C1657 416 1668 414 1685 410L1702 473C1684 479 1666 482 1654 482C1588 482 1505 405 1380 230ZM1990 482C1923 482 1770 419 1770 259C1770 182 1815 136 1892 136C1900 136 1911 136 1922 137L1881 99C1865 84 1854 66 1854 52C1854 42 1861 31 1875 19C1806 -4 1678 -48 1678 -159C1678 -230 1748 -276 1857 -276C1986 -276 2099 -204 2099 -121C2099 -85 2078 -49 2035 -14L1975 35C1941 62 1928 81 1928 100C1928 114 1943 128 1955 146C2053 170 2124 253 2124 342C2124 357 2121 376 2120 380C2137 378 2145 378 2154 378C2171 378 2181 379 2204 382L2213 427L2210 433C2182 426 2162 424 2108 424C2108 425 2084 482 1990 482ZM1891 1L1968 -58C2014 -94 2033 -121 2033 -154C2033 -206 1964 -248 1881 -248C1799 -248 1742 -206 1742 -145C1742 -43 1852 -11 1891 1ZM1965 448C2023 448 2052 412 2052 341C2052 238 2004 168 1934 168C1873 168 1841 209 1841 288C1841 383 1892 448 1965 448Z" stroke="rgb(0,0,0)" stroke-opacity="1" stroke-width="8" fill="rgb(0,0,0)" fill-opacity="1"></path></g></g><g><g transform="matrix(1,0,0,1,184.421875,128.16015625)"><path transform="matrix(0.012,0,0,-0.012,0,0)" d="M204 123C177 114 159 108 106 93C99 17 74 -48 16 -144L30 -155L71 -136C152 -31 190 32 218 109Z" stroke="rgb(0,0,0)" stroke-opacity="1" stroke-width="8" fill="rgb(0,0,0)" fill-opacity="1"></path></g></g><g><g transform="matrix(1,0,0,1,189.109375,128.16015625)"><path transform="matrix(0.012,0,0,-0.012,0,0)" d="M265 23L265 -3C452 -3 452 0 488 0C524 0 524 -3 717 -3L717 82C602 77 556 81 371 77L553 270C650 373 680 428 680 503C680 618 602 689 475 689C403 689 354 669 305 619L288 483L317 483L330 529C346 587 382 612 449 612C535 612 590 558 590 473C590 398 548 324 435 204ZM999 722L987 733C935 707 899 698 827 691L823 670L871 670C895 670 905 663 905 648C905 645 905 640 902 622C891 567 818 182 803 132C790 82 784 52 784 31C784 6 795 -9 814 -9C840 -9 876 12 974 85L964 103L938 86C909 67 887 56 877 56C870 56 864 66 864 76C864 82 865 89 868 104Z" stroke="rgb(0,0,0)" stroke-opacity="1" stroke-width="8" fill="rgb(0,0,0)" fill-opacity="1"></path></g></g><g><g transform="matrix(1,0,0,1,203.9609375,128.16015625)"><path transform="matrix(0.012,0,0,-0.012,0,0)" d="M604 347L604 406L65 406L65 347ZM604 134L604 193L65 193L65 134Z" stroke="rgb(0,0,0)" stroke-opacity="1" stroke-width="8" fill="rgb(0,0,0)" fill-opacity="1"></path></g></g><g><g transform="matrix(1,0,0,1,214.53125,128.16015625)"><path transform="matrix(0.012,0,0,-0.012,0,0)" d="M418 -3L418 27L366 30C311 33 301 44 301 96L301 700L60 598L67 548L217 614L217 96C217 44 206 33 152 30L96 27L96 -3C250 0 250 0 261 0C292 0 402 -3 418 -3ZM1229 103L1203 86C1174 67 1152 56 1142 56C1135 56 1129 65 1129 76C1129 86 1131 95 1136 116L1211 413C1215 430 1218 446 1218 454C1218 471 1208 482 1192 482C1163 482 1125 464 1064 421C1001 376 966 341 917 272L947 409C951 429 954 444 954 451C954 470 944 482 928 482C898 482 852 460 797 418C753 384 733 363 668 275L701 408C705 424 707 439 707 451C707 470 698 482 684 482C663 482 625 461 551 408L523 388L530 368C567 391 602 414 609 414C620 414 627 404 627 389C627 338 586 145 545 2L548 -9L616 6L638 108C662 219 689 278 744 338C786 384 831 414 859 414C866 414 870 406 870 393C870 358 848 244 807 69L791 2L796 -9L865 6L886 113C902 194 936 269 980 318C1035 379 1085 414 1117 414C1125 414 1130 405 1130 389C1130 365 1127 351 1105 264C1065 105 1049 84 1049 31C1049 6 1060 -9 1079 -9C1105 -9 1141 12 1239 85Z" stroke="rgb(0,0,0)" stroke-opacity="1" stroke-width="8" fill="rgb(0,0,0)" fill-opacity="1"></path></g></g></g></g><g><g><g><g transform="matrix(1,0,0,1,165,89.5)"><path transform="matrix(0.012,0,0,-0.012,0,0)" d="M237 -16C473 -16 572 316 576 504C578 618 546 702 419 702C159 702 72 412 69 199C67 80 101 -16 237 -16ZM401 676C536 676 506 491 485 381L169 381C194 485 272 676 401 676ZM253 13C102 13 147 261 163 349L479 349C454 237 396 13 253 13Z" stroke="rgb(0,0,0)" stroke-opacity="1" stroke-width="8" fill="rgb(0,0,0)" fill-opacity="1"></path></g></g></g></g><g><g><g><g transform="matrix(1,0,0,1,82,216.5)"><path transform="matrix(0.017,0,0,-0.017,0,0)" d="M286 646L392 650C454 650 494 641 495 626L503 537L527 537C530 600 537 651 548 689C526 691 498 692 481 692L440 691L275 689L246 689C221 689 181 690 143 691L94 692L91 664L147 662C171 661 182 652 182 635C182 621 178 589 173 559L98 125C81 33 81 32 40 28L4 25L0 -3L34 -2C74 -1 106 0 127 0C145 0 174 -1 213 -2L265 -3L268 25L204 28C177 29 168 37 168 57C168 63 169 74 170 78L206 301L323 301C350 301 381 300 429 298L455 297L474 342L470 349C389 345 329 343 251 343L214 343L260 614C263 630 264 635 269 646Z" stroke="rgb(0,0,0)" stroke-opacity="1" stroke-width="8" fill="rgb(0,0,0)" fill-opacity="1"></path></g></g></g></g><g><g><g><g transform="matrix(1,0,0,1,394,133.5)"><path transform="matrix(0.012,0,0,-0.012,0,0)" d="M237 -16C473 -16 572 316 576 504C578 618 546 702 419 702C159 702 72 412 69 199C67 80 101 -16 237 -16ZM401 676C536 676 506 491 485 381L169 381C194 485 272 676 401 676ZM253 13C102 13 147 261 163 349L479 349C454 237 396 13 253 13Z" stroke="rgb(0,0,0)" stroke-opacity="1" stroke-width="8" fill="rgb(0,0,0)" fill-opacity="1"></path></g></g></g></g><g><g><g><g transform="matrix(1,0,0,1,399,57.5)"><path transform="matrix(0.017,0,0,-0.017,0,0)" d="M286 646L392 650C454 650 494 641 495 626L503 537L527 537C530 600 537 651 548 689C526 691 498 692 481 692L440 691L275 689L246 689C221 689 181 690 143 691L94 692L91 664L147 662C171 661 182 652 182 635C182 621 178 589 173 559L98 125C81 33 81 32 40 28L4 25L0 -3L34 -2C74 -1 106 0 127 0C145 0 174 -1 213 -2L265 -3L268 25L204 28C177 29 168 37 168 57C168 63 169 74 170 78L206 301L323 301C350 301 381 300 429 298L455 297L474 342L470 349C389 345 329 343 251 343L214 343L260 614C263 630 264 635 269 646Z" stroke="rgb(0,0,0)" stroke-opacity="1" stroke-width="8" fill="rgb(0,0,0)" fill-opacity="1"></path></g></g><g><g><g><g><g transform="matrix(1,0,0,1,408.9453125,61.1015625)"><path transform="matrix(0.012,0,0,-0.012,0,0)" d="M310 96L239 624C237 646 241 661 281 662L323 664L323 692L282 691C245 690 217 689 199 689C181 689 153 690 116 691L75 692L75 664L100 662C144 659 152 651 159 614L247 -8L296 -8L674 611C699 651 707 658 736 662L754 664L754 692L724 691C697 690 674 689 658 689C648 689 621 690 580 691L534 692L534 664L560 662C598 659 617 649 617 630C617 619 613 608 601 588Z" stroke="rgb(0,0,0)" stroke-opacity="1" stroke-width="8" fill="rgb(0,0,0)" fill-opacity="1"></path></g></g></g></g></g></g></g><g><g><g><g transform="matrix(1,0,0,1,582,226.5)"><path transform="matrix(0.017,0,0,-0.017,0,0)" d="M286 646L392 650C454 650 494 641 495 626L503 537L527 537C530 600 537 651 548 689C526 691 498 692 481 692L440 691L275 689L246 689C221 689 181 690 143 691L94 692L91 664L147 662C171 661 182 652 182 635C182 621 178 589 173 559L98 125C81 33 81 32 40 28L4 25L0 -3L34 -2C74 -1 106 0 127 0C145 0 174 -1 213 -2L265 -3L268 25L204 28C177 29 168 37 168 57C168 63 169 74 170 78L206 301L323 301C350 301 381 300 429 298L455 297L474 342L470 349C389 345 329 343 251 343L214 343L260 614C263 630 264 635 269 646Z" stroke="rgb(0,0,0)" stroke-opacity="1" stroke-width="8" fill="rgb(0,0,0)" fill-opacity="1"></path></g></g><g><g><g><g><g transform="matrix(1,0,0,1,591.9453125,230.1015625)"><path transform="matrix(0.012,0,0,-0.012,0,0)" d="M221 385L263 613C270 652 277 658 314 661L356 664L359 692L335 692L245 689C229 689 211 689 168 690L104 692L101 664L148 662C172 661 183 653 183 635C183 621 179 590 174 559L100 125C83 33 82 32 42 28L1 25L-3 -3L39 -2C87 -1 110 0 129 0L226 -3L252 -3L255 25L206 28C179 30 170 37 170 58C170 67 171 74 174 93L216 340L277 341C339 342 381 343 400 343C419 343 460 342 523 341L584 340L544 125C535 76 528 48 523 42C519 34 508 30 486 28L436 25L432 -3L488 -2C532 -1 562 0 573 0C589 0 620 -1 663 -2L705 -3L708 25L650 28C624 29 614 37 614 58C614 67 615 76 618 93L710 613C717 652 723 657 761 661L797 664L800 692L784 692L693 689C678 689 657 689 613 690L550 692L547 664L595 662C619 661 630 653 630 635C630 621 626 589 621 559L591 385Z" stroke="rgb(0,0,0)" stroke-opacity="1" stroke-width="8" fill="rgb(0,0,0)" fill-opacity="1"></path></g></g></g></g></g></g></g><g><g><g><g transform="matrix(1,0,0,1,407,188.5)"><path transform="matrix(0.012,0,0,-0.012,0,0)" d="M730 103L704 86C675 67 653 56 643 56C636 56 630 65 630 76C630 86 632 95 637 116L712 413C716 430 719 446 719 454C719 471 709 482 693 482C664 482 626 464 565 421C502 376 467 341 418 272L448 409C452 429 455 444 455 451C455 470 445 482 429 482C399 482 353 460 298 418C254 384 234 363 169 275L202 408C206 424 208 439 208 451C208 470 199 482 185 482C164 482 126 461 52 408L24 388L31 368C68 391 103 414 110 414C121 414 128 404 128 389C128 338 87 145 46 2L49 -9L117 6L139 108C163 219 190 278 245 338C287 384 332 414 360 414C367 414 371 406 371 393C371 358 349 244 308 69L292 2L297 -9L366 6L387 113C403 194 437 269 481 318C536 379 586 414 618 414C626 414 631 405 631 389C631 365 628 351 606 264C566 105 550 84 550 31C550 6 561 -9 580 -9C606 -9 642 12 740 85ZM1052 482C985 482 832 419 832 259C832 182 877 136 954 136C962 136 973 136 984 137L943 99C927 84 916 66 916 52C916 42 923 31 937 19C868 -4 740 -48 740 -159C740 -230 810 -276 919 -276C1048 -276 1161 -204 1161 -121C1161 -85 1140 -49 1097 -14L1037 35C1003 62 990 81 990 100C990 114 1005 128 1017 146C1115 170 1186 253 1186 342C1186 357 1183 376 1182 380C1199 378 1207 378 1216 378C1233 378 1243 379 1266 382L1275 427L1272 433C1244 426 1224 424 1170 424C1170 425 1146 482 1052 482ZM953 1L1030 -58C1076 -94 1095 -121 1095 -154C1095 -206 1026 -248 943 -248C861 -248 804 -206 804 -145C804 -43 914 -11 953 1ZM1027 448C1085 448 1114 412 1114 341C1114 238 1066 168 996 168C935 168 903 209 903 288C903 383 954 448 1027 448Z" stroke="rgb(0,0,0)" stroke-opacity="1" stroke-width="8" fill="rgb(0,0,0)" fill-opacity="1"></path></g></g></g></g></svg>
</svg>
