<svg xmlns="http://www.w3.org/2000/svg" xmlns:xlink="http://www.w3.org/1999/xlink" x="0" y="0" width="661.9885864257812" height="378.9204406738281" style="
        width:661.9885864257812px;
        height:378.9204406738281px;
        background: #FFF;
        fill: none;
">
        <svg xmlns="http://www.w3.org/2000/svg"><g><defs><pattern id=".3362018559151252" width="10" height="10" patternUnits="userSpaceOnUse"><path d="M 10 0 L 0 0 0 10" fill="none" stroke="lightgray" stroke-width="0.5"/></pattern></defs><rect width="100%" height="100%" fill="url(#.3362018559151252)" stroke="lightgray" stroke-width="0.5"/></g></svg>
        
        <svg xmlns="http://www.w3.org/2000/svg" class="role-diagram-draw-area"><g class="shapes-region" style="stroke: black; fill: none;"><g class="composite-shape" data-amt="diagram/shapes/plot" transform="matrix(1,0,0,1,66,16)"><g><g><g class="test-xgi"><line x1="36.26809692382812" y1="0" x2="36.26809692382812" y2="346.0227355957031" fill="none" stroke="#c3c3c3" stroke-width="0.5"/><line x1="147.32669067382812" y1="0" x2="147.32669067382812" y2="346.0227355957031" fill="none" stroke="#c3c3c3" stroke-width="0.5"/><line x1="258.3852844238281" y1="0" x2="258.3852844238281" y2="346.0227355957031" fill="none" stroke="#c3c3c3" stroke-width="0.5"/><line x1="369.44387817382807" y1="0" x2="369.44387817382807" y2="346.0227355957031" fill="none" stroke="#c3c3c3" stroke-width="0.5"/><line x1="480.50247192382807" y1="0" x2="480.50247192382807" y2="346.0227355957031" fill="none" stroke="#c3c3c3" stroke-width="0.5"/></g><g class="test-ygi"><line x1="0" y1="299.4620132446289" x2="521.3807373046875" y2="299.4620132446289" fill="none" stroke="#c3c3c3" stroke-width="0.5"/><line x1="0" y1="188.4034194946289" x2="521.3807373046875" y2="188.4034194946289" fill="none" stroke="#c3c3c3" stroke-width="0.5"/><line x1="0" y1="77.3448257446289" x2="521.3807373046875" y2="77.3448257446289" fill="none" stroke="#c3c3c3" stroke-width="0.5"/></g></g><g><g class="test-xti" style="font-family: Asana-Math, Asana;"><line x1="0" y1="188.4034194946289" x2="517.3807373046875" y2="188.4034194946289" fill="none" stroke="rgb(50,50,50)" stroke-opacity="1" stroke-width="1"/><line x1="36.26809692382812" y1="184.4034194946289" x2="36.26809692382812" y2="192.4034194946289" fill="none" stroke="rgb(50,50,50)" stroke-opacity="1" stroke-width="1"/><line x1="147.32669067382812" y1="184.4034194946289" x2="147.32669067382812" y2="192.4034194946289" fill="none" stroke="rgb(50,50,50)" stroke-opacity="1" stroke-width="1"/><line x1="369.44387817382807" y1="184.4034194946289" x2="369.44387817382807" y2="192.4034194946289" fill="none" stroke="rgb(50,50,50)" stroke-opacity="1" stroke-width="1"/><line x1="480.50247192382807" y1="184.4034194946289" x2="480.50247192382807" y2="192.4034194946289" fill="none" stroke="rgb(50,50,50)" stroke-opacity="1" stroke-width="1"/><path d="M512.3807373046875,184.8034194946289 L520.3807373046875,188.4034194946289 L512.3807373046875,192.0034194946289 Z" stroke="none" stroke-width="1" fill="rgb(50,50,50)" fill-opacity="1"/></g><g class="test-yti" style="font-family: Asana-Math, Asana;"><line x1="258.3852844238281" y1="4" x2="258.3852844238281" y2="346.0227355957031" fill="none" stroke="rgb(50,50,50)" stroke-opacity="1" stroke-width="1"/><line x1="254.38528442382812" y1="299.4620132446289" x2="262.3852844238281" y2="299.4620132446289" fill="none" stroke="rgb(50,50,50)" stroke-opacity="1" stroke-width="1"/><line x1="254.38528442382812" y1="77.3448257446289" x2="262.3852844238281" y2="77.3448257446289" fill="none" stroke="rgb(50,50,50)" stroke-opacity="1" stroke-width="1"/><path d="M254.78528442382813,9 L258.3852844238281,1 L261.98528442382815,9 Z" stroke="none" stroke-width="1" fill="rgb(50,50,50)" fill-opacity="1"/></g><g class="test-plot-expression"><defs><clipPath id="cpgvuih9jmh"><rect x="1" y="1" width="519.3807373046875" height="344.0227355957031"/></clipPath></defs><g clip-path="url(#cpgvuih9jmh)"><path d=" M0.00,299.46 L0.50,299.46 L1.00,299.46 L1.50,299.46 L2.00,299.46 L2.50,299.46 L3.00,299.46 L3.50,299.46 L4.00,299.46 L4.50,299.46 L5.00,299.46 L5.51,299.46 L6.01,299.46 L6.51,299.46 L7.01,299.46 L7.51,299.46 L8.01,299.46 L8.51,299.46 L9.01,299.46 L9.51,299.46 L10.01,299.46 L10.51,299.46 L11.01,299.46 L11.51,299.46 L12.01,299.46 L12.51,299.46 L13.01,299.46 L13.51,299.46 L14.01,299.46 L14.51,299.46 L15.01,299.46 L15.51,299.46 L16.02,299.46 L16.52,299.46 L17.02,299.46 L17.52,299.46 L18.02,299.46 L18.52,299.46 L19.02,299.46 L19.52,299.46 L20.02,299.46 L20.52,299.46 L21.02,299.46 L21.52,299.46 L22.02,299.46 L22.52,299.46 L23.02,299.46 L23.52,299.46 L24.02,299.46 L24.52,299.46 L25.02,299.46 L25.52,299.46 L26.02,299.46 L26.53,299.46 L27.03,299.46 L27.53,299.46 L28.03,299.46 L28.53,299.46 L29.03,299.46 L29.53,299.46 L30.03,299.46 L30.53,299.46 L31.03,299.46 L31.53,299.46 L32.03,299.46 L32.53,299.46 L33.03,299.46 L33.53,299.46 L34.03,299.46 L34.53,299.46 L35.03,299.46 L35.53,299.46 L36.03,299.46 L36.54,299.46 L37.04,299.46 L37.54,299.46 L38.04,299.46 L38.54,299.46 L39.04,299.46 L39.54,299.46 L40.04,299.46 L40.54,299.46 L41.04,299.46 L41.54,299.46 L42.04,299.46 L42.54,299.46 L43.04,299.46 L43.54,299.46 L44.04,299.46 L44.54,299.46 L45.04,299.46 L45.54,299.46 L46.04,299.46 L46.54,299.46 L47.05,299.46 L47.55,299.46 L48.05,299.46 L48.55,299.46 L49.05,299.46 L49.55,299.46 L50.05,299.46 L50.55,299.46 L51.05,299.46 L51.55,299.46 L52.05,299.46 L52.55,299.46 L53.05,299.46 L53.55,299.46 L54.05,299.46 L54.55,299.46 L55.05,299.46 L55.55,299.46 L56.05,299.46 L56.55,299.46 L57.05,299.46 L57.56,299.46 L58.06,299.46 L58.56,299.46 L59.06,299.46 L59.56,299.46 L60.06,299.46 L60.56,299.46 L61.06,299.46 L61.56,299.46 L62.06,299.46 L62.56,299.46 L63.06,299.46 L63.56,299.46 L64.06,299.46 L64.56,299.46 L65.06,299.46 L65.56,299.46 L66.06,299.46 L66.56,299.46 L67.06,299.46 L67.56,299.46 L68.07,299.46 L68.57,299.46 L69.07,299.46 L69.57,299.46 L70.07,299.46 L70.57,299.46 L71.07,299.46 L71.57,299.46 L72.07,299.46 L72.57,299.46 L73.07,299.46 L73.57,299.46 L74.07,299.46 L74.57,299.46 L75.07,299.46 L75.57,299.46 L76.07,299.46 L76.57,299.46 L77.07,299.46 L77.57,299.46 L78.07,299.46 L78.58,299.46 L79.08,299.46 L79.58,299.46 L80.08,299.46 L80.58,299.46 L81.08,299.46 L81.58,299.46 L82.08,299.46 L82.58,299.46 L83.08,299.46 L83.58,299.46 L84.08,299.46 L84.58,299.46 L85.08,299.46 L85.58,299.46 L86.08,299.46 L86.58,299.46 L87.08,299.46 L87.58,299.46 L88.08,299.46 L88.58,299.46 L89.09,299.46 L89.59,299.46 L90.09,299.46 L90.59,299.46 L91.09,299.46 L91.59,299.46 L92.09,299.46 L92.59,299.46 L93.09,299.46 L93.59,299.46 L94.09,299.46 L94.59,299.46 L95.09,299.46 L95.59,299.46 L96.09,299.46 L96.59,299.46 L97.09,299.46 L97.59,299.46 L98.09,299.46 L98.59,299.46 L99.10,299.46 L99.60,299.46 L100.10,299.46 L100.60,299.46 L101.10,299.46 L101.60,299.46 L102.10,299.46 L102.60,299.46 L103.10,299.46 L103.60,299.46 L104.10,299.46 L104.60,299.46 L105.10,299.46 L105.60,299.46 L106.10,299.46 L106.60,299.46 L107.10,299.46 L107.60,299.46 L108.10,299.46 L108.60,299.46 L109.10,299.46 L109.61,299.46 L110.11,299.46 L110.61,299.46 L111.11,299.46 L111.61,299.46 L112.11,299.46 L112.61,299.46 L113.11,299.46 L113.61,299.46 L114.11,299.46 L114.61,299.46 L115.11,299.46 L115.61,299.46 L116.11,299.46 L116.61,299.46 L117.11,299.46 L117.61,299.46 L118.11,299.46 L118.61,299.46 L119.11,299.46 L119.61,299.46 L120.12,299.46 L120.62,299.46 L121.12,299.46 L121.62,299.46 L122.12,299.46 L122.62,299.46 L123.12,299.46 L123.62,299.46 L124.12,299.46 L124.62,299.46 L125.12,299.46 L125.62,299.46 L126.12,299.46 L126.62,299.46 L127.12,299.46 L127.62,299.46 L128.12,299.46 L128.62,299.46 L129.12,299.46 L129.62,299.46 L130.12,299.46 L130.63,299.46 L131.13,299.46 L131.63,299.46 L132.13,299.46 L132.63,299.46 L133.13,299.46 L133.63,299.46 L134.13,299.46 L134.63,299.46 L135.13,299.46 L135.63,299.46 L136.13,299.46 L136.63,299.46 L137.13,299.46 L137.63,299.46 L138.13,299.46 L138.63,299.46 L139.13,299.46 L139.63,299.46 L140.13,299.46 L140.63,299.46 L141.14,299.46 L141.64,299.46 L142.14,299.46 L142.64,299.46 L143.14,299.46 L143.64,299.46 L144.14,299.46 L144.64,299.46 L145.14,299.46 L145.64,299.46 L146.14,299.46 L146.64,299.46 L147.14,299.46 L147.64,299.46 L148.14,299.46 L148.64,299.46 L149.14,299.46 L149.64,299.46 L150.14,299.46 L150.64,299.46 L151.14,299.46 L151.65,299.46 L152.15,299.46 L152.65,299.46 L153.15,299.46 L153.65,299.46 L154.15,299.46 L154.65,299.46 L155.15,299.46 L155.65,299.46 L156.15,299.46 L156.65,299.46 L157.15,299.46 L157.65,299.46 L158.15,299.46 L158.65,299.46 L159.15,299.46 L159.65,299.46 L160.15,299.46 L160.65,299.46 L161.15,299.46 L161.66,299.46 L162.16,299.46 L162.66,299.46 L163.16,299.46 L163.66,299.46 L164.16,299.46 L164.66,299.46 L165.16,299.46 L165.66,299.46 L166.16,299.46 L166.66,299.46 L167.16,299.46 L167.66,299.46 L168.16,299.46 L168.66,299.46 L169.16,299.46 L169.66,299.46 L170.16,299.46 L170.66,299.46 L171.16,299.46 L171.66,299.46 L172.17,299.46 L172.67,299.46 L173.17,299.46 L173.67,299.46 L174.17,299.46 L174.67,299.46 L175.17,299.46 L175.67,299.46 L176.17,299.46 L176.67,299.46 L177.17,299.46 L177.67,299.45 L178.17,299.45 L178.67,299.45 L179.17,299.45 L179.67,299.45 L180.17,299.45 L180.67,299.45 L181.17,299.45 L181.67,299.45 L182.17,299.45 L182.68,299.45 L183.18,299.45 L183.68,299.45 L184.18,299.45 L184.68,299.45 L185.18,299.45 L185.68,299.45 L186.18,299.45 L186.68,299.45 L187.18,299.45 L187.68,299.45 L188.18,299.45 L188.68,299.45 L189.18,299.45 L189.68,299.45 L190.18,299.45 L190.68,299.45 L191.18,299.45 L191.68,299.45 L192.18,299.45 L192.68,299.45 L193.19,299.45 L193.69,299.45 L194.19,299.44 L194.69,299.44 L195.19,299.44 L195.69,299.44 L196.19,299.44 L196.69,299.44 L197.19,299.44 L197.69,299.44 L198.19,299.44 L198.69,299.44 L199.19,299.44 L199.69,299.44 L200.19,299.44 L200.69,299.44 L201.19,299.44 L201.69,299.44 L202.19,299.44 L202.69,299.43 L203.19,299.43 L203.70,299.43 L204.20,299.43 L204.70,299.43 L205.20,299.43 L205.70,299.43 L206.20,299.43 L206.70,299.43 L207.20,299.43 L207.70,299.43 L208.20,299.43 L208.70,299.42 L209.20,299.42 L209.70,299.42 L210.20,299.42 L210.70,299.42 L211.20,299.42 L211.70,299.42 L212.20,299.42 L212.70,299.42 L213.20,299.41 L213.70,299.41 L214.21,299.41 L214.71,299.41 L215.21,299.41 L215.71,299.41 L216.21,299.41 L216.71,299.40 L217.21,299.40 L217.71,299.40 L218.21,299.40 L218.71,299.40 L219.21,299.40 L219.71,299.39 L220.21,299.39 L220.71,299.39 L221.21,299.39 L221.71,299.39 L222.21,299.38 L222.71,299.38 L223.21,299.38 L223.71,299.38 L224.22,299.38 L224.72,299.37 L225.22,299.37 L225.72,299.37 L226.22,299.37 L226.72,299.36 L227.22,299.36 L227.72,299.36 L228.22,299.35 L228.72,299.35 L229.22,299.35 L229.72,299.35 L230.22,299.34 L230.72,299.34 L231.22,299.34 L231.72,299.33 L232.22,299.33 L232.72,299.32 L233.22,299.32 L233.72,299.32 L234.22,299.31 L234.73,299.31 L235.23,299.30 L235.73,299.30 L236.23,299.30 L236.73,299.29 L237.23,299.29 L237.73,299.28 L238.23,299.28 L238.73,299.27 L239.23,299.27 L239.73,299.26 L240.23,299.26 L240.73,299.25 L241.23,299.24 L241.73,299.24 L242.23,299.23 L242.73,299.23 L243.23,299.22 L243.73,299.21 L244.23,299.21 L244.73,299.20 L245.24,299.19 L245.74,299.18 L246.24,299.18 L246.74,299.17 L247.24,299.16 L247.74,299.15 L248.24,299.14 L248.74,299.14 L249.24,299.13 L249.74,299.12 L250.24,299.11 L250.74,299.10 L251.24,299.09 L251.74,299.08 L252.24,299.07 L252.74,299.06 L253.24,299.05 L253.74,299.03 L254.24,299.02 L254.74,299.01 L255.24,299.00 L255.75,298.99 L256.25,298.97 L256.75,298.96 L257.25,298.95 L257.75,298.93 L258.25,298.92 L258.75,298.90 L259.25,298.89 L259.75,298.87 L260.25,298.85 L260.75,298.84 L261.25,298.82 L261.75,298.80 L262.25,298.79 L262.75,298.77 L263.25,298.75 L263.75,298.73 L264.25,298.71 L264.75,298.69 L265.25,298.67 L265.75,298.65 L266.26,298.62 L266.76,298.60 L267.26,298.58 L267.76,298.55 L268.26,298.53 L268.76,298.50 L269.26,298.48 L269.76,298.45 L270.26,298.42 L270.76,298.39 L271.26,298.36 L271.76,298.33 L272.26,298.30 L272.76,298.27 L273.26,298.24 L273.76,298.21 L274.26,298.17 L274.76,298.14 L275.26,298.10 L275.76,298.06 L276.26,298.02 L276.77,297.99 L277.27,297.95 L277.77,297.90 L278.27,297.86 L278.77,297.82 L279.27,297.77 L279.77,297.73 L280.27,297.68 L280.77,297.63 L281.27,297.58 L281.77,297.53 L282.27,297.48 L282.77,297.43 L283.27,297.37 L283.77,297.31 L284.27,297.25 L284.77,297.19 L285.27,297.13 L285.77,297.07 L286.27,297.01 L286.78,296.94 L287.28,296.87 L287.78,296.80 L288.28,296.73 L288.78,296.65 L289.28,296.58 L289.78,296.50 L290.28,296.42 L290.78,296.34 L291.28,296.25 L291.78,296.17 L292.28,296.08 L292.78,295.99 L293.28,295.89 L293.78,295.80 L294.28,295.70 L294.78,295.60 L295.28,295.49 L295.78,295.39 L296.28,295.28 L296.78,295.16 L297.29,295.05 L297.79,294.93 L298.29,294.81 L298.79,294.68 L299.29,294.56 L299.79,294.42 L300.29,294.29 L300.79,294.15 L301.29,294.01 L301.79,293.86 L302.29,293.71 L302.79,293.56 L303.29,293.40 L303.79,293.24 L304.29,293.08 L304.79,292.91 L305.29,292.73 L305.79,292.55 L306.29,292.37 L306.79,292.18 L307.29,291.99 L307.80,291.79 L308.30,291.59 L308.80,291.38 L309.30,291.17 L309.80,290.95 L310.30,290.72 L310.80,290.49 L311.30,290.26 L311.80,290.02 L312.30,289.77 L312.80,289.52 L313.30,289.26 L313.80,288.99 L314.30,288.72 L314.80,288.44 L315.30,288.15 L315.80,287.86 L316.30,287.55 L316.80,287.25 L317.30,286.93 L317.80,286.61 L318.31,286.28 L318.81,285.94 L319.31,285.59 L319.81,285.23 L320.31,284.87 L320.81,284.50 L321.31,284.11 L321.81,283.72 L322.31,283.32 L322.81,282.91 L323.31,282.49 L323.81,282.07 L324.31,281.63 L324.81,281.18 L325.31,280.72 L325.81,280.25 L326.31,279.77 L326.81,279.28 L327.31,278.78 L327.81,278.27 L328.31,277.74 L328.82,277.21 L329.32,276.66 L329.82,276.10 L330.32,275.53 L330.82,274.94 L331.32,274.35 L331.82,273.74 L332.32,273.12 L332.82,272.48 L333.32,271.84 L333.82,271.18 L334.32,270.50 L334.82,269.81 L335.32,269.11 L335.82,268.40 L336.32,267.67 L336.82,266.92 L337.32,266.16 L337.82,265.39 L338.32,264.60 L338.82,263.80 L339.33,262.99 L339.83,262.15 L340.33,261.31 L340.83,260.45 L341.33,259.57 L341.83,258.68 L342.33,257.77 L342.83,256.84 L343.33,255.91 L343.83,254.95 L344.33,253.98 L344.83,252.99 L345.33,251.99 L345.83,250.98 L346.33,249.94 L346.83,248.90 L347.33,247.83 L347.83,246.75 L348.33,245.66 L348.83,244.55 L349.34,243.42 L349.84,242.28 L350.34,241.13 L350.84,239.96 L351.34,238.77 L351.84,237.57 L352.34,236.36 L352.84,235.13 L353.34,233.88 L353.84,232.63 L354.34,231.36 L354.84,230.07 L355.34,228.78 L355.84,227.47 L356.34,226.15 L356.84,224.81 L357.34,223.47 L357.84,222.11 L358.34,220.74 L358.84,219.36 L359.34,217.97 L359.85,216.57 L360.35,215.16 L360.85,213.74 L361.35,212.32 L361.85,210.88 L362.35,209.44 L362.85,207.98 L363.35,206.53 L363.85,205.06 L364.35,203.59 L364.85,202.12 L365.35,200.63 L365.85,199.15 L366.35,197.66 L366.85,196.17 L367.35,194.67 L367.85,193.17 L368.35,191.67 L368.85,190.17 L369.35,188.67 L369.85,187.17 L370.36,185.67 L370.86,184.17 L371.36,182.67 L371.86,181.18 L372.36,179.68 L372.86,178.19 L373.36,176.70 L373.86,175.22 L374.36,173.74 L374.86,172.27 L375.36,170.80 L375.86,169.34 L376.36,167.89 L376.86,166.44 L377.36,165.01 L377.86,163.57 L378.36,162.15 L378.86,160.74 L379.36,159.34 L379.86,157.94 L380.36,156.56 L380.87,155.19 L381.37,153.83 L381.87,152.47 L382.37,151.14 L382.87,149.81 L383.37,148.50 L383.87,147.20 L384.37,145.91 L384.87,144.63 L385.37,143.37 L385.87,142.12 L386.37,140.89 L386.87,139.67 L387.37,138.46 L387.87,137.27 L388.37,136.10 L388.87,134.94 L389.37,133.79 L389.87,132.66 L390.37,131.55 L390.87,130.44 L391.38,129.36 L391.88,128.29 L392.38,127.24 L392.88,126.20 L393.38,125.18 L393.88,124.17 L394.38,123.18 L394.88,122.20 L395.38,121.24 L395.88,120.30 L396.38,119.37 L396.88,118.45 L397.38,117.56 L397.88,116.67 L398.38,115.81 L398.88,114.95 L399.38,114.12 L399.88,113.29 L400.38,112.49 L400.88,111.70 L401.38,110.92 L401.89,110.15 L402.39,109.40 L402.89,108.67 L403.39,107.95 L403.89,107.24 L404.39,106.55 L404.89,105.87 L405.39,105.21 L405.89,104.55 L406.39,103.91 L406.89,103.29 L407.39,102.68 L407.89,102.08 L408.39,101.49 L408.89,100.91 L409.39,100.35 L409.89,99.80 L410.39,99.26 L410.89,98.73 L411.39,98.21 L411.90,97.71 L412.40,97.21 L412.90,96.73 L413.40,96.25 L413.90,95.79 L414.40,95.34 L414.90,94.90 L415.40,94.47 L415.90,94.04 L416.40,93.63 L416.90,93.23 L417.40,92.83 L417.90,92.45 L418.40,92.07 L418.90,91.70 L419.40,91.35 L419.90,90.99 L420.40,90.65 L420.90,90.32 L421.40,89.99 L421.90,89.67 L422.41,89.36 L422.91,89.06 L423.41,88.76 L423.91,88.47 L424.41,88.19 L424.91,87.91 L425.41,87.65 L425.91,87.38 L426.41,87.13 L426.91,86.88 L427.41,86.63 L427.91,86.40 L428.41,86.16 L428.91,85.94 L429.41,85.72 L429.91,85.50 L430.41,85.29 L430.91,85.09 L431.41,84.89 L431.91,84.69 L432.41,84.50 L432.92,84.32 L433.42,84.14 L433.92,83.96 L434.42,83.79 L434.92,83.62 L435.42,83.46 L435.92,83.30 L436.42,83.15 L436.92,83.00 L437.42,82.85 L437.92,82.71 L438.42,82.57 L438.92,82.43 L439.42,82.30 L439.92,82.17 L440.42,82.04 L440.92,81.92 L441.42,81.80 L441.92,81.68 L442.42,81.57 L442.92,81.46 L443.43,81.35 L443.93,81.25 L444.43,81.14 L444.93,81.05 L445.43,80.95 L445.93,80.85 L446.43,80.76 L446.93,80.67 L447.43,80.58 L447.93,80.50 L448.43,80.42 L448.93,80.34 L449.43,80.26 L449.93,80.18 L450.43,80.10 L450.93,80.03 L451.43,79.96 L451.93,79.89 L452.43,79.83 L452.93,79.76 L453.43,79.70 L453.94,79.63 L454.44,79.57 L454.94,79.51 L455.44,79.46 L455.94,79.40 L456.44,79.35 L456.94,79.29 L457.44,79.24 L457.94,79.19 L458.44,79.14 L458.94,79.10 L459.44,79.05 L459.94,79.00 L460.44,78.96 L460.94,78.92 L461.44,78.88 L461.94,78.84 L462.44,78.80 L462.94,78.76 L463.44,78.72 L463.94,78.68 L464.45,78.65 L464.95,78.61 L465.45,78.58 L465.95,78.55 L466.45,78.52 L466.95,78.48 L467.45,78.45 L467.95,78.42 L468.45,78.40 L468.95,78.37 L469.45,78.34 L469.95,78.31 L470.45,78.29 L470.95,78.26 L471.45,78.24 L471.95,78.22 L472.45,78.19 L472.95,78.17 L473.45,78.15 L473.95,78.13 L474.45,78.11 L474.96,78.09 L475.46,78.07 L475.96,78.05 L476.46,78.03 L476.96,78.01 L477.46,77.99 L477.96,77.97 L478.46,77.96 L478.96,77.94 L479.46,77.93 L479.96,77.91 L480.46,77.90 L480.96,77.88 L481.46,77.87 L481.96,77.85 L482.46,77.84 L482.96,77.83 L483.46,77.81 L483.96,77.80 L484.46,77.79 L484.97,77.78 L485.47,77.77 L485.97,77.75 L486.47,77.74 L486.97,77.73 L487.47,77.72 L487.97,77.71 L488.47,77.70 L488.97,77.69 L489.47,77.68 L489.97,77.67 L490.47,77.67 L490.97,77.66 L491.47,77.65 L491.97,77.64 L492.47,77.63 L492.97,77.63 L493.47,77.62 L493.97,77.61 L494.47,77.60 L494.97,77.60 L495.48,77.59 L495.98,77.58 L496.48,77.58 L496.98,77.57 L497.48,77.56 L497.98,77.56 L498.48,77.55 L498.98,77.55 L499.48,77.54 L499.98,77.54 L500.48,77.53 L500.98,77.53 L501.48,77.52 L501.98,77.52 L502.48,77.51 L502.98,77.51 L503.48,77.50 L503.98,77.50 L504.48,77.50 L504.98,77.49 L505.48,77.49 L505.99,77.48 L506.49,77.48 L506.99,77.48 L507.49,77.47 L507.99,77.47 L508.49,77.47 L508.99,77.46 L509.49,77.46 L509.99,77.46 L510.49,77.45 L510.99,77.45 L511.49,77.45 L511.99,77.45 L512.49,77.44 L512.99,77.44 L513.49,77.44 L513.99,77.43 L514.49,77.43 L514.99,77.43 L515.49,77.43 L515.99,77.43 L516.50,77.42 L517.00,77.42 L517.50,77.42 L518.00,77.42 L518.50,77.42 L519.00,77.41 L519.50,77.41 L520.00,77.41 L520.50,77.41 L521.00,77.41 L521.38,77.41" style="stroke-width: 2; stroke: rgb(74, 144, 226); stroke-opacity: 0.8;"/><path d=" M0.00,299.38 L0.50,299.38 L1.00,299.38 L1.50,299.38 L2.00,299.38 L2.50,299.37 L3.00,299.37 L3.50,299.37 L4.00,299.37 L4.50,299.36 L5.00,299.36 L5.51,299.36 L6.01,299.35 L6.51,299.35 L7.01,299.35 L7.51,299.35 L8.01,299.34 L8.51,299.34 L9.01,299.34 L9.51,299.33 L10.01,299.33 L10.51,299.33 L11.01,299.32 L11.51,299.32 L12.01,299.31 L12.51,299.31 L13.01,299.31 L13.51,299.30 L14.01,299.30 L14.51,299.29 L15.01,299.29 L15.51,299.28 L16.02,299.28 L16.52,299.27 L17.02,299.27 L17.52,299.26 L18.02,299.26 L18.52,299.25 L19.02,299.25 L19.52,299.24 L20.02,299.23 L20.52,299.23 L21.02,299.22 L21.52,299.21 L22.02,299.21 L22.52,299.20 L23.02,299.19 L23.52,299.19 L24.02,299.18 L24.52,299.17 L25.02,299.16 L25.52,299.15 L26.02,299.15 L26.53,299.14 L27.03,299.13 L27.53,299.12 L28.03,299.11 L28.53,299.10 L29.03,299.09 L29.53,299.08 L30.03,299.07 L30.53,299.06 L31.03,299.05 L31.53,299.04 L32.03,299.02 L32.53,299.01 L33.03,299.00 L33.53,298.99 L34.03,298.98 L34.53,298.96 L35.03,298.95 L35.53,298.93 L36.03,298.92 L36.54,298.90 L37.04,298.89 L37.54,298.87 L38.04,298.86 L38.54,298.84 L39.04,298.82 L39.54,298.81 L40.04,298.79 L40.54,298.77 L41.04,298.75 L41.54,298.73 L42.04,298.71 L42.54,298.69 L43.04,298.67 L43.54,298.65 L44.04,298.63 L44.54,298.60 L45.04,298.58 L45.54,298.56 L46.04,298.53 L46.54,298.51 L47.05,298.48 L47.55,298.45 L48.05,298.43 L48.55,298.40 L49.05,298.37 L49.55,298.34 L50.05,298.31 L50.55,298.28 L51.05,298.25 L51.55,298.21 L52.05,298.18 L52.55,298.14 L53.05,298.11 L53.55,298.07 L54.05,298.03 L54.55,297.99 L55.05,297.95 L55.55,297.91 L56.05,297.87 L56.55,297.83 L57.05,297.78 L57.56,297.74 L58.06,297.69 L58.56,297.64 L59.06,297.59 L59.56,297.54 L60.06,297.49 L60.56,297.44 L61.06,297.38 L61.56,297.32 L62.06,297.27 L62.56,297.21 L63.06,297.15 L63.56,297.08 L64.06,297.02 L64.56,296.95 L65.06,296.88 L65.56,296.81 L66.06,296.74 L66.56,296.67 L67.06,296.59 L67.56,296.52 L68.07,296.44 L68.57,296.35 L69.07,296.27 L69.57,296.18 L70.07,296.10 L70.57,296.00 L71.07,295.91 L71.57,295.82 L72.07,295.72 L72.57,295.62 L73.07,295.51 L73.57,295.41 L74.07,295.30 L74.57,295.19 L75.07,295.07 L75.57,294.95 L76.07,294.83 L76.57,294.71 L77.07,294.58 L77.57,294.45 L78.07,294.32 L78.58,294.18 L79.08,294.04 L79.58,293.89 L80.08,293.74 L80.58,293.59 L81.08,293.43 L81.58,293.27 L82.08,293.11 L82.58,292.94 L83.08,292.77 L83.58,292.59 L84.08,292.41 L84.58,292.22 L85.08,292.03 L85.58,291.83 L86.08,291.63 L86.58,291.42 L87.08,291.21 L87.58,290.99 L88.08,290.77 L88.58,290.54 L89.09,290.30 L89.59,290.06 L90.09,289.82 L90.59,289.57 L91.09,289.31 L91.59,289.04 L92.09,288.77 L92.59,288.49 L93.09,288.21 L93.59,287.91 L94.09,287.61 L94.59,287.31 L95.09,286.99 L95.59,286.67 L96.09,286.34 L96.59,286.00 L97.09,285.66 L97.59,285.30 L98.09,284.94 L98.59,284.57 L99.10,284.19 L99.60,283.80 L100.10,283.40 L100.60,282.99 L101.10,282.57 L101.60,282.15 L102.10,281.71 L102.60,281.26 L103.10,280.81 L103.60,280.34 L104.10,279.86 L104.60,279.37 L105.10,278.87 L105.60,278.36 L106.10,277.84 L106.60,277.31 L107.10,276.76 L107.60,276.21 L108.10,275.64 L108.60,275.06 L109.10,274.46 L109.61,273.86 L110.11,273.24 L110.61,272.61 L111.11,271.96 L111.61,271.30 L112.11,270.63 L112.61,269.95 L113.11,269.25 L113.61,268.53 L114.11,267.81 L114.61,267.07 L115.11,266.31 L115.61,265.54 L116.11,264.76 L116.61,263.96 L117.11,263.14 L117.61,262.31 L118.11,261.47 L118.61,260.61 L119.11,259.74 L119.61,258.85 L120.12,257.94 L120.62,257.02 L121.12,256.09 L121.62,255.13 L122.12,254.17 L122.62,253.18 L123.12,252.19 L123.62,251.17 L124.12,250.14 L124.62,249.10 L125.12,248.04 L125.62,246.96 L126.12,245.87 L126.62,244.76 L127.12,243.64 L127.62,242.50 L128.12,241.35 L128.62,240.18 L129.12,239.00 L129.62,237.80 L130.12,236.59 L130.63,235.36 L131.13,234.12 L131.63,232.87 L132.13,231.60 L132.63,230.32 L133.13,229.03 L133.63,227.72 L134.13,226.40 L134.63,225.07 L135.13,223.73 L135.63,222.37 L136.13,221.00 L136.63,219.63 L137.13,218.24 L137.63,216.84 L138.13,215.43 L138.63,214.02 L139.13,212.59 L139.63,211.16 L140.13,209.71 L140.63,208.26 L141.14,206.81 L141.64,205.34 L142.14,203.87 L142.64,202.40 L143.14,200.92 L143.64,199.43 L144.14,197.95 L144.64,196.45 L145.14,194.96 L145.64,193.46 L146.14,191.96 L146.64,190.46 L147.14,188.96 L147.64,187.46 L148.14,185.96 L148.64,184.46 L149.14,182.96 L149.64,181.46 L150.14,179.97 L150.64,178.48 L151.14,176.99 L151.65,175.51 L152.15,174.03 L152.65,172.55 L153.15,171.09 L153.65,169.62 L154.15,168.17 L154.65,166.72 L155.15,165.28 L155.65,163.85 L156.15,162.42 L156.65,161.01 L157.15,159.60 L157.65,158.21 L158.15,156.82 L158.65,155.45 L159.15,154.09 L159.65,152.73 L160.15,151.39 L160.65,150.06 L161.15,148.75 L161.66,147.44 L162.16,146.15 L162.66,144.88 L163.16,143.61 L163.66,142.36 L164.16,141.12 L164.66,139.90 L165.16,138.69 L165.66,137.50 L166.16,136.32 L166.66,135.16 L167.16,134.01 L167.66,132.88 L168.16,131.76 L168.66,130.65 L169.16,129.57 L169.66,128.49 L170.16,127.44 L170.66,126.40 L171.16,125.37 L171.66,124.36 L172.17,123.37 L172.67,122.39 L173.17,121.42 L173.67,120.48 L174.17,119.55 L174.67,118.63 L175.17,117.73 L175.67,116.84 L176.17,115.97 L176.67,115.12 L177.17,114.28 L177.67,113.45 L178.17,112.64 L178.67,111.85 L179.17,111.07 L179.67,110.30 L180.17,109.55 L180.67,108.81 L181.17,108.09 L181.67,107.38 L182.17,106.68 L182.68,106.00 L183.18,105.33 L183.68,104.68 L184.18,104.04 L184.68,103.41 L185.18,102.79 L185.68,102.19 L186.18,101.60 L186.68,101.02 L187.18,100.45 L187.68,99.90 L188.18,99.36 L188.68,98.83 L189.18,98.31 L189.68,97.80 L190.18,97.31 L190.68,96.82 L191.18,96.34 L191.68,95.88 L192.18,95.43 L192.68,94.98 L193.19,94.55 L193.69,94.12 L194.19,93.71 L194.69,93.30 L195.19,92.91 L195.69,92.52 L196.19,92.14 L196.69,91.77 L197.19,91.41 L197.69,91.06 L198.19,90.72 L198.69,90.38 L199.19,90.05 L199.69,89.73 L200.19,89.42 L200.69,89.12 L201.19,88.82 L201.69,88.53 L202.19,88.24 L202.69,87.97 L203.19,87.70 L203.70,87.43 L204.20,87.18 L204.70,86.92 L205.20,86.68 L205.70,86.44 L206.20,86.21 L206.70,85.98 L207.20,85.76 L207.70,85.54 L208.20,85.33 L208.70,85.13 L209.20,84.93 L209.70,84.73 L210.20,84.54 L210.70,84.35 L211.20,84.17 L211.70,84.00 L212.20,83.82 L212.70,83.66 L213.20,83.49 L213.70,83.33 L214.21,83.18 L214.71,83.03 L215.21,82.88 L215.71,82.73 L216.21,82.59 L216.71,82.46 L217.21,82.32 L217.71,82.19 L218.21,82.07 L218.71,81.94 L219.21,81.82 L219.71,81.71 L220.21,81.59 L220.71,81.48 L221.21,81.37 L221.71,81.27 L222.21,81.16 L222.71,81.06 L223.21,80.97 L223.71,80.87 L224.22,80.78 L224.72,80.69 L225.22,80.60 L225.72,80.51 L226.22,80.43 L226.72,80.35 L227.22,80.27 L227.72,80.19 L228.22,80.12 L228.72,80.05 L229.22,79.97 L229.72,79.91 L230.22,79.84 L230.72,79.77 L231.22,79.71 L231.72,79.65 L232.22,79.58 L232.72,79.53 L233.22,79.47 L233.72,79.41 L234.22,79.36 L234.73,79.30 L235.23,79.25 L235.73,79.20 L236.23,79.15 L236.73,79.10 L237.23,79.06 L237.73,79.01 L238.23,78.97 L238.73,78.93 L239.23,78.88 L239.73,78.84 L240.23,78.80 L240.73,78.76 L241.23,78.73 L241.73,78.69 L242.23,78.65 L242.73,78.62 L243.23,78.59 L243.73,78.55 L244.23,78.52 L244.73,78.49 L245.24,78.46 L245.74,78.43 L246.24,78.40 L246.74,78.37 L247.24,78.35 L247.74,78.32 L248.24,78.29 L248.74,78.27 L249.24,78.24 L249.74,78.22 L250.24,78.20 L250.74,78.17 L251.24,78.15 L251.74,78.13 L252.24,78.11 L252.74,78.09 L253.24,78.07 L253.74,78.05 L254.24,78.03 L254.74,78.01 L255.24,78.00 L255.75,77.98 L256.25,77.96 L256.75,77.94 L257.25,77.93 L257.75,77.91 L258.25,77.90 L258.75,77.88 L259.25,77.87 L259.75,77.86 L260.25,77.84 L260.75,77.83 L261.25,77.82 L261.75,77.80 L262.25,77.79 L262.75,77.78 L263.25,77.77 L263.75,77.76 L264.25,77.75 L264.75,77.73 L265.25,77.72 L265.75,77.71 L266.26,77.70 L266.76,77.69 L267.26,77.69 L267.76,77.68 L268.26,77.67 L268.76,77.66 L269.26,77.65 L269.76,77.64 L270.26,77.63 L270.76,77.63 L271.26,77.62 L271.76,77.61 L272.26,77.60 L272.76,77.60 L273.26,77.59 L273.76,77.58 L274.26,77.58 L274.76,77.57 L275.26,77.57 L275.76,77.56 L276.26,77.55 L276.77,77.55 L277.27,77.54 L277.77,77.54 L278.27,77.53 L278.77,77.53 L279.27,77.52 L279.77,77.52 L280.27,77.51 L280.77,77.51 L281.27,77.50 L281.77,77.50 L282.27,77.50 L282.77,77.49 L283.27,77.49 L283.77,77.48 L284.27,77.48 L284.77,77.48 L285.27,77.47 L285.77,77.47 L286.27,77.47 L286.78,77.46 L287.28,77.46 L287.78,77.46 L288.28,77.45 L288.78,77.45 L289.28,77.45 L289.78,77.45 L290.28,77.44 L290.78,77.44 L291.28,77.44 L291.78,77.44 L292.28,77.43 L292.78,77.43 L293.28,77.43 L293.78,77.43 L294.28,77.42 L294.78,77.42 L295.28,77.42 L295.78,77.42 L296.28,77.42 L296.78,77.41 L297.29,77.41 L297.79,77.41 L298.29,77.41 L298.79,77.41 L299.29,77.41 L299.79,77.40 L300.29,77.40 L300.79,77.40 L301.29,77.40 L301.79,77.40 L302.29,77.40 L302.79,77.39 L303.29,77.39 L303.79,77.39 L304.29,77.39 L304.79,77.39 L305.29,77.39 L305.79,77.39 L306.29,77.39 L306.79,77.39 L307.29,77.38 L307.80,77.38 L308.30,77.38 L308.80,77.38 L309.30,77.38 L309.80,77.38 L310.30,77.38 L310.80,77.38 L311.30,77.38 L311.80,77.38 L312.30,77.37 L312.80,77.37 L313.30,77.37 L313.80,77.37 L314.30,77.37 L314.80,77.37 L315.30,77.37 L315.80,77.37 L316.30,77.37 L316.80,77.37 L317.30,77.37 L317.80,77.37 L318.31,77.37 L318.81,77.37 L319.31,77.37 L319.81,77.36 L320.31,77.36 L320.81,77.36 L321.31,77.36 L321.81,77.36 L322.31,77.36 L322.81,77.36 L323.31,77.36 L323.81,77.36 L324.31,77.36 L324.81,77.36 L325.31,77.36 L325.81,77.36 L326.31,77.36 L326.81,77.36 L327.31,77.36 L327.81,77.36 L328.31,77.36 L328.82,77.36 L329.32,77.36 L329.82,77.36 L330.32,77.36 L330.82,77.36 L331.32,77.36 L331.82,77.36 L332.32,77.35 L332.82,77.35 L333.32,77.35 L333.82,77.35 L334.32,77.35 L334.82,77.35 L335.32,77.35 L335.82,77.35 L336.32,77.35 L336.82,77.35 L337.32,77.35 L337.82,77.35 L338.32,77.35 L338.82,77.35 L339.33,77.35 L339.83,77.35 L340.33,77.35 L340.83,77.35 L341.33,77.35 L341.83,77.35 L342.33,77.35 L342.83,77.35 L343.33,77.35 L343.83,77.35 L344.33,77.35 L344.83,77.35 L345.33,77.35 L345.83,77.35 L346.33,77.35 L346.83,77.35 L347.33,77.35 L347.83,77.35 L348.33,77.35 L348.83,77.35 L349.34,77.35 L349.84,77.35 L350.34,77.35 L350.84,77.35 L351.34,77.35 L351.84,77.35 L352.34,77.35 L352.84,77.35 L353.34,77.35 L353.84,77.35 L354.34,77.35 L354.84,77.35 L355.34,77.35 L355.84,77.35 L356.34,77.35 L356.84,77.35 L357.34,77.35 L357.84,77.35 L358.34,77.35 L358.84,77.35 L359.34,77.35 L359.85,77.35 L360.35,77.35 L360.85,77.35 L361.35,77.35 L361.85,77.35 L362.35,77.35 L362.85,77.35 L363.35,77.35 L363.85,77.35 L364.35,77.35 L364.85,77.35 L365.35,77.35 L365.85,77.35 L366.35,77.35 L366.85,77.35 L367.35,77.35 L367.85,77.35 L368.35,77.35 L368.85,77.35 L369.35,77.35 L369.85,77.35 L370.36,77.35 L370.86,77.35 L371.36,77.35 L371.86,77.35 L372.36,77.35 L372.86,77.35 L373.36,77.35 L373.86,77.35 L374.36,77.35 L374.86,77.35 L375.36,77.35 L375.86,77.35 L376.36,77.35 L376.86,77.35 L377.36,77.35 L377.86,77.35 L378.36,77.35 L378.86,77.35 L379.36,77.35 L379.86,77.35 L380.36,77.35 L380.87,77.35 L381.37,77.35 L381.87,77.35 L382.37,77.35 L382.87,77.35 L383.37,77.35 L383.87,77.35 L384.37,77.35 L384.87,77.35 L385.37,77.35 L385.87,77.35 L386.37,77.35 L386.87,77.35 L387.37,77.35 L387.87,77.35 L388.37,77.35 L388.87,77.35 L389.37,77.35 L389.87,77.35 L390.37,77.35 L390.87,77.35 L391.38,77.35 L391.88,77.35 L392.38,77.35 L392.88,77.35 L393.38,77.35 L393.88,77.35 L394.38,77.35 L394.88,77.35 L395.38,77.35 L395.88,77.35 L396.38,77.35 L396.88,77.35 L397.38,77.35 L397.88,77.35 L398.38,77.35 L398.88,77.35 L399.38,77.35 L399.88,77.35 L400.38,77.35 L400.88,77.35 L401.38,77.35 L401.89,77.35 L402.39,77.35 L402.89,77.35 L403.39,77.35 L403.89,77.35 L404.39,77.35 L404.89,77.35 L405.39,77.35 L405.89,77.35 L406.39,77.35 L406.89,77.35 L407.39,77.35 L407.89,77.34 L408.39,77.34 L408.89,77.34 L409.39,77.34 L409.89,77.34 L410.39,77.34 L410.89,77.34 L411.39,77.34 L411.90,77.34 L412.40,77.34 L412.90,77.34 L413.40,77.34 L413.90,77.34 L414.40,77.34 L414.90,77.34 L415.40,77.34 L415.90,77.34 L416.40,77.34 L416.90,77.34 L417.40,77.34 L417.90,77.34 L418.40,77.34 L418.90,77.34 L419.40,77.34 L419.90,77.34 L420.40,77.34 L420.90,77.34 L421.40,77.34 L421.90,77.34 L422.41,77.34 L422.91,77.34 L423.41,77.34 L423.91,77.34 L424.41,77.34 L424.91,77.34 L425.41,77.34 L425.91,77.34 L426.41,77.34 L426.91,77.34 L427.41,77.34 L427.91,77.34 L428.41,77.34 L428.91,77.34 L429.41,77.34 L429.91,77.34 L430.41,77.34 L430.91,77.34 L431.41,77.34 L431.91,77.34 L432.41,77.34 L432.92,77.34 L433.42,77.34 L433.92,77.34 L434.42,77.34 L434.92,77.34 L435.42,77.34 L435.92,77.34 L436.42,77.34 L436.92,77.34 L437.42,77.34 L437.92,77.34 L438.42,77.34 L438.92,77.34 L439.42,77.34 L439.92,77.34 L440.42,77.34 L440.92,77.34 L441.42,77.34 L441.92,77.34 L442.42,77.34 L442.92,77.34 L443.43,77.34 L443.93,77.34 L444.43,77.34 L444.93,77.34 L445.43,77.34 L445.93,77.34 L446.43,77.34 L446.93,77.34 L447.43,77.34 L447.93,77.34 L448.43,77.34 L448.93,77.34 L449.43,77.34 L449.93,77.34 L450.43,77.34 L450.93,77.34 L451.43,77.34 L451.93,77.34 L452.43,77.34 L452.93,77.34 L453.43,77.34 L453.94,77.34 L454.44,77.34 L454.94,77.34 L455.44,77.34 L455.94,77.34 L456.44,77.34 L456.94,77.34 L457.44,77.34 L457.94,77.34 L458.44,77.34 L458.94,77.34 L459.44,77.34 L459.94,77.34 L460.44,77.34 L460.94,77.34 L461.44,77.34 L461.94,77.34 L462.44,77.34 L462.94,77.34 L463.44,77.34 L463.94,77.34 L464.45,77.34 L464.95,77.34 L465.45,77.34 L465.95,77.34 L466.45,77.34 L466.95,77.34 L467.45,77.34 L467.95,77.34 L468.45,77.34 L468.95,77.34 L469.45,77.34 L469.95,77.34 L470.45,77.34 L470.95,77.34 L471.45,77.34 L471.95,77.34 L472.45,77.34 L472.95,77.34 L473.45,77.34 L473.95,77.34 L474.45,77.34 L474.96,77.34 L475.46,77.34 L475.96,77.34 L476.46,77.34 L476.96,77.34 L477.46,77.34 L477.96,77.34 L478.46,77.34 L478.96,77.34 L479.46,77.34 L479.96,77.34 L480.46,77.34 L480.96,77.34 L481.46,77.34 L481.96,77.34 L482.46,77.34 L482.96,77.34 L483.46,77.34 L483.96,77.34 L484.46,77.34 L484.97,77.34 L485.47,77.34 L485.97,77.34 L486.47,77.34 L486.97,77.34 L487.47,77.34 L487.97,77.34 L488.47,77.34 L488.97,77.34 L489.47,77.34 L489.97,77.34 L490.47,77.34 L490.97,77.34 L491.47,77.34 L491.97,77.34 L492.47,77.34 L492.97,77.34 L493.47,77.34 L493.97,77.34 L494.47,77.34 L494.97,77.34 L495.48,77.34 L495.98,77.34 L496.48,77.34 L496.98,77.34 L497.48,77.34 L497.98,77.34 L498.48,77.34 L498.98,77.34 L499.48,77.34 L499.98,77.34 L500.48,77.34 L500.98,77.34 L501.48,77.34 L501.98,77.34 L502.48,77.34 L502.98,77.34 L503.48,77.34 L503.98,77.34 L504.48,77.34 L504.98,77.34 L505.48,77.34 L505.99,77.34 L506.49,77.34 L506.99,77.34 L507.49,77.34 L507.99,77.34 L508.49,77.34 L508.99,77.34 L509.49,77.34 L509.99,77.34 L510.49,77.34 L510.99,77.34 L511.49,77.34 L511.99,77.34 L512.49,77.34 L512.99,77.34 L513.49,77.34 L513.99,77.34 L514.49,77.34 L514.99,77.34 L515.49,77.34 L515.99,77.34 L516.50,77.34 L517.00,77.34 L517.50,77.34 L518.00,77.34 L518.50,77.34 L519.00,77.34 L519.50,77.34 L520.00,77.34 L520.50,77.34 L521.00,77.34 L521.38,77.34" style="stroke-width: 2; stroke: rgb(60, 180, 75); stroke-opacity: 0.8;"/><path d=" M258.39,188.40 L258.64,187.65 L258.89,186.89 L259.14,186.13 L259.40,185.37 L259.65,184.62 L259.90,183.86 L260.15,183.11 L260.40,182.35 L260.66,181.60 L260.91,180.84 L261.16,180.09 L261.41,179.34 L261.67,178.58 L261.92,177.83 L262.17,177.08 L262.42,176.33 L262.68,175.59 L262.93,174.84 L263.18,174.09 L263.43,173.35 L263.69,172.61 L263.94,171.87 L264.19,171.13 L264.44,170.39 L264.70,169.65 L264.95,168.92 L265.20,168.18 L265.45,167.45 L265.71,166.72 L265.96,165.99 L266.21,165.27 L266.46,164.55 L266.72,163.82 L266.97,163.10 L267.22,162.39 L267.47,161.67 L267.73,160.96 L267.98,160.25 L268.23,159.54 L268.48,158.84 L268.74,158.14 L268.99,157.44 L269.24,156.74 L269.49,156.05 L269.75,155.35 L270.00,154.66 L270.25,153.98 L270.50,153.30 L270.76,152.62 L271.01,151.94 L271.26,151.26 L271.51,150.59 L271.77,149.92 L272.02,149.26 L272.27,148.60 L272.52,147.94 L272.78,147.28 L273.03,146.63 L273.28,145.98 L273.53,145.34 L273.78,144.70 L274.04,144.06 L274.29,143.42 L274.54,142.79 L274.79,142.16 L275.05,141.54 L275.30,140.92 L275.55,140.30 L275.80,139.69 L276.06,139.08 L276.31,138.47 L276.56,137.87 L276.81,137.27 L277.07,136.68 L277.32,136.09 L277.57,135.50 L277.82,134.91 L278.08,134.34 L278.33,133.76 L278.58,133.19 L278.83,132.62 L279.09,132.05 L279.34,131.49 L279.59,130.94 L279.84,130.38 L280.10,129.84 L280.35,129.29 L280.60,128.75 L280.85,128.21 L281.11,127.68 L281.36,127.15 L281.61,126.63 L281.86,126.11 L282.12,125.59 L282.37,125.08 L282.62,124.57 L282.87,124.06 L283.13,123.56 L283.38,123.06 L283.63,122.57 L283.88,122.08 L284.14,121.60 L284.39,121.11 L284.64,120.64 L284.89,120.16 L285.15,119.69 L285.40,119.23 L285.65,118.77 L285.90,118.31 L286.16,117.86 L286.41,117.41 L286.66,116.96 L286.91,116.52 L287.16,116.08 L287.42,115.65 L287.67,115.22 L287.92,114.79 L288.17,114.37 L288.43,113.95 L288.68,113.53 L288.93,113.12 L289.18,112.71 L289.44,112.31 L289.69,111.91 L289.94,111.51 L290.19,111.12 L290.45,110.73 L290.70,110.35 L290.95,109.97 L291.20,109.59 L291.46,109.21 L291.71,108.84 L291.96,108.48 L292.21,108.11 L292.47,107.75 L292.72,107.40 L292.97,107.04 L293.22,106.70 L293.48,106.35 L293.73,106.01 L293.98,105.67 L294.23,105.33 L294.49,105.00 L294.74,104.67 L294.99,104.35 L295.24,104.03 L295.50,103.71 L295.75,103.39 L296.00,103.08 L296.25,102.77 L296.51,102.47 L296.76,102.16 L297.01,101.86 L297.26,101.57 L297.52,101.28 L297.77,100.99 L298.02,100.70 L298.27,100.42 L298.53,100.14 L298.78,99.86 L299.03,99.58 L299.28,99.31 L299.54,99.04 L299.79,98.78 L300.04,98.52 L300.29,98.26 L300.54,98.00 L300.80,97.74 L301.05,97.49 L301.30,97.25 L301.55,97.00 L301.81,96.76 L302.06,96.52 L302.31,96.28 L302.56,96.04 L302.82,95.81 L303.07,95.58 L303.32,95.35 L303.57,95.13 L303.83,94.91 L304.08,94.69 L304.33,94.47 L304.58,94.26 L304.84,94.05 L305.09,93.84 L305.34,93.63 L305.59,93.42 L305.85,93.22 L306.10,93.02 L306.35,92.83 L306.60,92.63 L306.86,92.44 L307.11,92.25 L307.36,92.06 L307.61,91.87 L307.87,91.69 L308.12,91.51 L308.37,91.33 L308.62,91.15 L308.88,90.97 L309.13,90.80 L309.38,90.63 L309.63,90.46 L309.89,90.29 L310.14,90.13 L310.39,89.96 L310.64,89.80 L310.90,89.64 L311.15,89.48 L311.40,89.33 L311.65,89.18 L311.91,89.02 L312.16,88.87 L312.41,88.73 L312.66,88.58 L312.92,88.43 L313.17,88.29 L313.42,88.15 L313.67,88.01 L313.92,87.87 L314.18,87.74 L314.43,87.60 L314.68,87.47 L314.93,87.34 L315.19,87.21 L315.44,87.08 L315.69,86.96 L315.94,86.83 L316.20,86.71 L316.45,86.59 L316.70,86.47 L316.95,86.35 L317.21,86.23 L317.46,86.12 L317.71,86.00 L317.96,85.89 L318.22,85.78 L318.47,85.67 L318.72,85.56 L318.97,85.45 L319.23,85.35 L319.48,85.24 L319.73,85.14 L319.98,85.04 L320.24,84.94 L320.49,84.84 L320.74,84.74 L320.99,84.64 L321.25,84.55 L321.50,84.45 L321.75,84.36 L322.00,84.27 L322.26,84.17 L322.51,84.09 L322.76,84.00 L323.01,83.91 L323.27,83.82 L323.52,83.74 L323.77,83.65 L324.02,83.57 L324.28,83.49 L324.53,83.41 L324.78,83.33 L325.03,83.25 L325.29,83.17 L325.54,83.09 L325.79,83.02 L326.04,82.94 L326.30,82.87 L326.55,82.80 L326.80,82.72 L327.05,82.65 L327.30,82.58 L327.56,82.51 L327.81,82.45 L328.06,82.38 L328.31,82.31 L328.57,82.25 L328.82,82.18 L329.07,82.12 L329.32,82.05 L329.58,81.99 L329.83,81.93 L330.08,81.87 L330.33,81.81 L330.59,81.75 L330.84,81.69 L331.09,81.63 L331.34,81.58 L331.60,81.52 L331.85,81.46 L332.10,81.41 L332.35,81.35 L332.61,81.30 L332.86,81.25 L333.11,81.20 L333.36,81.15 L333.62,81.09 L333.87,81.04 L334.12,81.00 L334.37,80.95 L334.63,80.90 L334.88,80.85 L335.13,80.80 L335.38,80.76 L335.64,80.71 L335.89,80.67 L336.14,80.62 L336.39,80.58 L336.65,80.54 L336.90,80.49 L337.15,80.45 L337.40,80.41 L337.66,80.37 L337.91,80.33 L338.16,80.29 L338.41,80.25 L338.67,80.21 L338.92,80.17 L339.17,80.14 L339.42,80.10 L339.68,80.06 L339.93,80.02 L340.18,79.99 L340.43,79.95 L340.68,79.92 L340.94,79.88 L341.19,79.85 L341.44,79.82 L341.69,79.78 L341.95,79.75 L342.20,79.72 L342.45,79.69 L342.70,79.66 L342.96,79.62 L343.21,79.59 L343.46,79.56 L343.71,79.53 L343.97,79.50 L344.22,79.48 L344.47,79.45 L344.72,79.42 L344.98,79.39 L345.23,79.36 L345.48,79.34 L345.73,79.31 L345.99,79.28 L346.24,79.26 L346.49,79.23 L346.74,79.21 L347.00,79.18 L347.25,79.16 L347.50,79.13 L347.75,79.11 L348.01,79.08 L348.26,79.06 L348.51,79.04 L348.76,79.02 L349.02,78.99 L349.27,78.97 L349.52,78.95 L349.77,78.93 L350.03,78.91 L350.28,78.88 L350.53,78.86 L350.78,78.84 L351.04,78.82 L351.29,78.80 L351.54,78.78 L351.79,78.76 L352.05,78.75 L352.30,78.73 L352.55,78.71 L352.80,78.69 L353.06,78.67 L353.31,78.65 L353.56,78.64 L353.81,78.62 L354.06,78.60 L354.32,78.58 L354.57,78.57 L354.82,78.55 L355.07,78.54 L355.33,78.52 L355.58,78.50 L355.83,78.49 L356.08,78.47 L356.34,78.46 L356.59,78.44 L356.84,78.43 L357.09,78.41 L357.35,78.40 L357.60,78.38 L357.85,78.37 L358.10,78.36 L358.36,78.34 L358.61,78.33 L358.86,78.32 L359.11,78.30 L359.37,78.29 L359.62,78.28 L359.87,78.26 L360.12,78.25 L360.38,78.24 L360.63,78.23 L360.88,78.22 L361.13,78.20 L361.39,78.19 L361.64,78.18 L361.89,78.17 L362.14,78.16 L362.40,78.15 L362.65,78.14 L362.90,78.13 L363.15,78.12 L363.41,78.11 L363.66,78.09 L363.91,78.08 L364.16,78.07 L364.42,78.06 L364.67,78.06 L364.92,78.05 L365.17,78.04 L365.43,78.03 L365.68,78.02 L365.93,78.01 L366.18,78.00 L366.44,77.99 L366.69,77.98 L366.94,77.97 L367.19,77.96 L367.44,77.96 L367.70,77.95 L367.95,77.94 L368.20,77.93 L368.45,77.92 L368.71,77.92 L368.96,77.91 L369.21,77.90 L369.46,77.89 L369.72,77.89 L369.97,77.88 L370.22,77.87 L370.47,77.86 L370.73,77.86 L370.98,77.85 L371.23,77.84 L371.48,77.84 L371.74,77.83 L371.99,77.82 L372.24,77.82 L372.49,77.81 L372.75,77.80 L373.00,77.80 L373.25,77.79 L373.50,77.79 L373.76,77.78 L374.01,77.77 L374.26,77.77 L374.51,77.76 L374.77,77.76 L375.02,77.75 L375.27,77.75 L375.52,77.74 L375.78,77.74 L376.03,77.73 L376.28,77.72 L376.53,77.72 L376.79,77.71 L377.04,77.71 L377.29,77.70 L377.54,77.70 L377.80,77.69 L378.05,77.69 L378.30,77.69 L378.55,77.68 L378.81,77.68 L379.06,77.67 L379.31,77.67 L379.56,77.66 L379.82,77.66 L380.07,77.65 L380.32,77.65 L380.57,77.65 L380.82,77.64 L381.08,77.64 L381.33,77.63 L381.58,77.63 L381.83,77.63 L382.09,77.62 L382.34,77.62 L382.59,77.62 L382.84,77.61 L383.10,77.61 L383.35,77.60 L383.60,77.60 L383.85,77.60 L384.11,77.59 L384.36,77.59 L384.61,77.59 L384.86,77.58 L385.12,77.58 L385.37,77.58 L385.62,77.57 L385.87,77.57 L386.13,77.57 L386.38,77.57 L386.63,77.56 L386.88,77.56 L387.14,77.56 L387.39,77.55 L387.64,77.55 L387.89,77.55 L388.15,77.55 L388.40,77.54 L388.65,77.54 L388.90,77.54 L389.16,77.53 L389.41,77.53 L389.66,77.53 L389.91,77.53 L390.17,77.52 L390.42,77.52 L390.67,77.52 L390.92,77.52 L391.18,77.51 L391.43,77.51 L391.68,77.51 L391.93,77.51 L392.19,77.51 L392.44,77.50 L392.69,77.50 L392.94,77.50 L393.20,77.50 L393.45,77.50 L393.70,77.49 L393.95,77.49 L394.20,77.49 L394.46,77.49 L394.71,77.49 L394.96,77.48 L395.21,77.48 L395.47,77.48 L395.72,77.48 L395.97,77.48 L396.22,77.47 L396.48,77.47 L396.73,77.47 L396.98,77.47 L397.23,77.47 L397.49,77.47 L397.74,77.46 L397.99,77.46 L398.24,77.46 L398.50,77.46 L398.75,77.46 L399.00,77.46 L399.25,77.45 L399.51,77.45 L399.76,77.45 L400.01,77.45 L400.26,77.45 L400.52,77.45 L400.77,77.45 L401.02,77.44 L401.27,77.44 L401.53,77.44 L401.78,77.44 L402.03,77.44 L402.28,77.44 L402.54,77.44 L402.79,77.44 L403.04,77.43 L403.29,77.43 L403.55,77.43 L403.80,77.43 L404.05,77.43 L404.30,77.43 L404.56,77.43 L404.81,77.43 L405.06,77.43 L405.31,77.42 L405.57,77.42 L405.82,77.42 L406.07,77.42 L406.32,77.42 L406.57,77.42 L406.83,77.42 L407.08,77.42 L407.33,77.42 L407.58,77.41 L407.84,77.41 L408.09,77.41 L408.34,77.41 L408.59,77.41 L408.85,77.41 L409.10,77.41 L409.35,77.41 L409.60,77.41 L409.86,77.41 L410.11,77.41 L410.36,77.41 L410.61,77.40 L410.87,77.40 L411.12,77.40 L411.37,77.40 L411.62,77.40 L411.88,77.40 L412.13,77.40 L412.38,77.40 L412.63,77.40 L412.89,77.40 L413.14,77.40 L413.39,77.40 L413.64,77.40 L413.90,77.39 L414.15,77.39 L414.40,77.39 L414.65,77.39 L414.91,77.39 L415.16,77.39 L415.41,77.39 L415.66,77.39 L415.92,77.39 L416.17,77.39 L416.42,77.39 L416.67,77.39 L416.93,77.39 L417.18,77.39 L417.43,77.39 L417.68,77.39 L417.94,77.38 L418.19,77.38 L418.44,77.38 L418.69,77.38 L418.95,77.38 L419.20,77.38 L419.45,77.38 L419.70,77.38 L419.95,77.38 L420.21,77.38 L420.46,77.38 L420.71,77.38 L420.96,77.38 L421.22,77.38 L421.47,77.38 L421.72,77.38 L421.97,77.38 L422.23,77.38 L422.48,77.38 L422.73,77.38 L422.98,77.38 L423.24,77.37 L423.49,77.37 L423.74,77.37 L423.99,77.37 L424.25,77.37 L424.50,77.37 L424.75,77.37 L425.00,77.37 L425.26,77.37 L425.51,77.37 L425.76,77.37 L426.01,77.37 L426.27,77.37 L426.52,77.37 L426.77,77.37 L427.02,77.37 L427.28,77.37 L427.53,77.37 L427.78,77.37 L428.03,77.37 L428.29,77.37 L428.54,77.37 L428.79,77.37 L429.04,77.37 L429.30,77.37 L429.55,77.37 L429.80,77.37 L430.05,77.37 L430.31,77.37 L430.56,77.37 L430.81,77.36 L431.06,77.36 L431.32,77.36 L431.57,77.36 L431.82,77.36 L432.07,77.36 L432.33,77.36 L432.58,77.36 L432.83,77.36 L433.08,77.36 L433.33,77.36 L433.59,77.36 L433.84,77.36 L434.09,77.36 L434.34,77.36 L434.60,77.36 L434.85,77.36 L435.10,77.36 L435.35,77.36 L435.61,77.36 L435.86,77.36 L436.11,77.36 L436.36,77.36 L436.62,77.36 L436.87,77.36 L437.12,77.36 L437.37,77.36 L437.63,77.36 L437.88,77.36 L438.13,77.36 L438.38,77.36 L438.64,77.36 L438.89,77.36 L439.14,77.36 L439.39,77.36 L439.65,77.36 L439.90,77.36 L440.15,77.36 L440.40,77.36 L440.66,77.36 L440.91,77.36 L441.16,77.36 L441.41,77.36 L441.67,77.36 L441.92,77.36 L442.17,77.36 L442.42,77.36 L442.68,77.36 L442.93,77.36 L443.18,77.36 L443.43,77.35 L443.69,77.35 L443.94,77.35 L444.19,77.35 L444.44,77.35 L444.70,77.35 L444.95,77.35 L445.20,77.35 L445.45,77.35 L445.71,77.35 L445.96,77.35 L446.21,77.35 L446.46,77.35 L446.71,77.35 L446.97,77.35 L447.22,77.35 L447.47,77.35 L447.72,77.35 L447.98,77.35 L448.23,77.35 L448.48,77.35 L448.73,77.35 L448.99,77.35 L449.24,77.35 L449.49,77.35 L449.74,77.35 L450.00,77.35 L450.25,77.35 L450.50,77.35 L450.75,77.35 L451.01,77.35 L451.26,77.35 L451.51,77.35 L451.76,77.35 L452.02,77.35 L452.27,77.35 L452.52,77.35 L452.77,77.35 L453.03,77.35 L453.28,77.35 L453.53,77.35 L453.78,77.35 L454.04,77.35 L454.29,77.35 L454.54,77.35 L454.79,77.35 L455.05,77.35 L455.30,77.35 L455.55,77.35 L455.80,77.35 L456.06,77.35 L456.31,77.35 L456.56,77.35 L456.81,77.35 L457.07,77.35 L457.32,77.35 L457.57,77.35 L457.82,77.35 L458.08,77.35 L458.33,77.35 L458.58,77.35 L458.83,77.35 L459.09,77.35 L459.34,77.35 L459.59,77.35 L459.84,77.35 L460.09,77.35 L460.35,77.35 L460.60,77.35 L460.85,77.35 L461.10,77.35 L461.36,77.35 L461.61,77.35 L461.86,77.35 L462.11,77.35 L462.37,77.35 L462.62,77.35 L462.87,77.35 L463.12,77.35 L463.38,77.35 L463.63,77.35 L463.88,77.35 L464.13,77.35 L464.39,77.35 L464.64,77.35 L464.89,77.35 L465.14,77.35 L465.40,77.35 L465.65,77.35 L465.90,77.35 L466.15,77.35 L466.41,77.35 L466.66,77.35 L466.91,77.35 L467.16,77.35 L467.42,77.35 L467.67,77.35 L467.92,77.35 L468.17,77.35 L468.43,77.35 L468.68,77.35 L468.93,77.35 L469.18,77.35 L469.44,77.35 L469.69,77.35 L469.94,77.35 L470.19,77.35 L470.45,77.35 L470.70,77.35 L470.95,77.35 L471.20,77.35 L471.46,77.35 L471.71,77.35 L471.96,77.35 L472.21,77.35 L472.47,77.35 L472.72,77.35 L472.97,77.35 L473.22,77.35 L473.47,77.35 L473.73,77.35 L473.98,77.35 L474.23,77.35 L474.48,77.35 L474.74,77.35 L474.99,77.35 L475.24,77.35 L475.49,77.35 L475.75,77.35 L476.00,77.35 L476.25,77.35 L476.50,77.35 L476.76,77.35 L477.01,77.35 L477.26,77.35 L477.51,77.35 L477.77,77.35 L478.02,77.35 L478.27,77.35 L478.52,77.35 L478.78,77.35 L479.03,77.35 L479.28,77.35 L479.53,77.35 L479.79,77.35 L480.04,77.35 L480.29,77.35 L480.54,77.35 L480.80,77.35 L481.05,77.35 L481.30,77.35 L481.55,77.35 L481.81,77.35 L482.06,77.35 L482.31,77.35 L482.56,77.35 L482.82,77.35 L483.07,77.35 L483.32,77.35 L483.57,77.35 L483.83,77.35 L484.08,77.35 L484.33,77.35 L484.58,77.35 L484.84,77.35 L485.09,77.35 L485.34,77.35 L485.59,77.35 L485.85,77.35 L486.10,77.35 L486.35,77.35 L486.60,77.35 L486.85,77.35 L487.11,77.35 L487.36,77.35 L487.61,77.35 L487.86,77.35 L488.12,77.35 L488.37,77.35 L488.62,77.35 L488.87,77.35 L489.13,77.35 L489.38,77.35 L489.63,77.35 L489.88,77.35 L490.14,77.35 L490.39,77.35 L490.64,77.35 L490.89,77.35 L491.15,77.35 L491.40,77.35 L491.65,77.35 L491.90,77.35 L492.16,77.35 L492.41,77.35 L492.66,77.35 L492.91,77.35 L493.17,77.35 L493.42,77.35 L493.67,77.35 L493.92,77.35 L494.18,77.35 L494.43,77.35 L494.68,77.35 L494.93,77.35 L495.19,77.35 L495.44,77.35 L495.69,77.35 L495.94,77.35 L496.20,77.35 L496.45,77.35 L496.70,77.35 L496.95,77.35 L497.21,77.35 L497.46,77.35 L497.71,77.35 L497.96,77.35 L498.22,77.35 L498.47,77.35 L498.72,77.35 L498.97,77.35 L499.23,77.35 L499.48,77.35 L499.73,77.35 L499.98,77.35 L500.23,77.35 L500.49,77.35 L500.74,77.35 L500.99,77.35 L501.24,77.35 L501.50,77.35 L501.75,77.35 L502.00,77.35 L502.25,77.35 L502.51,77.35 L502.76,77.35 L503.01,77.35 L503.26,77.35 L503.52,77.35 L503.77,77.35 L504.02,77.35 L504.27,77.35 L504.53,77.35 L504.78,77.35 L505.03,77.35 L505.28,77.35 L505.54,77.35 L505.79,77.35 L506.04,77.35 L506.29,77.35 L506.55,77.35 L506.80,77.35 L507.05,77.35 L507.30,77.35 L507.56,77.35 L507.81,77.35 L508.06,77.35 L508.31,77.35 L508.57,77.35 L508.82,77.35 L509.07,77.35 L509.32,77.35 L509.58,77.35 L509.83,77.35 L510.08,77.35 L510.33,77.35 L510.59,77.35 L510.84,77.35 L511.09,77.35 L511.34,77.35 L511.60,77.35 L511.85,77.35 L512.10,77.35 L512.35,77.35 L512.61,77.35 L512.86,77.35 L513.11,77.35 L513.36,77.35 L513.61,77.35 L513.87,77.35 L514.12,77.35 L514.37,77.35 L514.62,77.35 L514.88,77.35 L515.13,77.35 L515.38,77.35 L515.63,77.35 L515.89,77.35 L516.14,77.35 L516.39,77.35 L516.64,77.35 L516.90,77.35 L517.15,77.35 L517.40,77.35 L517.65,77.35 L517.91,77.35 L518.16,77.35 L518.41,77.35 L518.66,77.34 L518.92,77.34 L519.17,77.34 L519.42,77.34 L519.67,77.34 L519.93,77.34 L520.18,77.34 L520.43,77.34 L520.68,77.34 L520.94,77.34 L521.19,77.34 L521.38,77.34" style="stroke-width: 2; stroke: rgb(245, 130, 49); stroke-opacity: 0.8;"/></g></g><g class="test-xtl" style="font-family: &quot;Open Sans&quot;, verdana, arial, sans-serif;"><text text-anchor="middle" font-size="11" dominant-baseline="hanging" stroke="none" fill="rgb(50,50,50)" fill-opacity="1" x="33.13309692382812" y="195.4034194946289">-2</text><text text-anchor="middle" font-size="11" dominant-baseline="hanging" stroke="none" fill="rgb(50,50,50)" fill-opacity="1" x="144.19169067382813" y="195.4034194946289">-1</text><text text-anchor="middle" font-size="11" dominant-baseline="hanging" stroke="none" fill="rgb(50,50,50)" fill-opacity="1" x="369.44387817382807" y="195.4034194946289">1</text><text text-anchor="middle" font-size="11" dominant-baseline="hanging" stroke="none" fill="rgb(50,50,50)" fill-opacity="1" x="480.50247192382807" y="195.4034194946289">2</text><text text-anchor="middle" font-size="11" dominant-baseline="hanging" stroke="none" fill="rgb(50,50,50)" fill-opacity="1" x="250.38528442382812" y="193.4034194946289">0</text></g><g class="test-ytl" style="font-family: &quot;Open Sans&quot;, verdana, arial, sans-serif;"><text text-anchor="end" dominant-baseline="middle" font-size="11" stroke="none" fill="rgb(50,50,50)" fill-opacity="1" x="250.38528442382812" y="299.4620132446289">-1</text><text text-anchor="end" dominant-baseline="middle" font-size="11" stroke="none" fill="rgb(50,50,50)" fill-opacity="1" x="250.38528442382812" y="77.3448257446289">1</text></g><rect class="real" x="1" y="1" width="519.3807373046875" height="344.0227355957031" style="fill: transparent; stroke: none;"/></g></g></g><g/></g><g/><g/><g/></svg>
        <svg xmlns="http://www.w3.org/2000/svg" xmlns:xlink="http://www.w3.org/1999/xlink" width="660" height="376.9317932128906" style="width:660px;height:376.9317932128906px;font-family:Asana-Math, Asana;background:#FFF;"><g><g><g><g transform="matrix(1,0,0,1,568.977294921875,192.08523559570312)"><path transform="matrix(0.017,0,0,-0.017,0,0)" d="M221 385L263 613C270 652 277 658 314 661L356 664L359 692L335 692L245 689C229 689 211 689 168 690L104 692L101 664L148 662C172 661 183 653 183 635C183 621 179 590 174 559L100 125C83 33 82 32 42 28L1 25L-3 -3L39 -2C87 -1 110 0 129 0L226 -3L252 -3L255 25L206 28C179 30 170 37 170 58C170 67 171 74 174 93L216 340L277 341C339 342 381 343 400 343C419 343 460 342 523 341L584 340L544 125C535 76 528 48 523 42C519 34 508 30 486 28L436 25L432 -3L488 -2C532 -1 562 0 573 0C589 0 620 -1 663 -2L705 -3L708 25L650 28C624 29 614 37 614 58C614 67 615 76 618 93L710 613C717 652 723 657 761 661L797 664L800 692L784 692L693 689C678 689 657 689 613 690L550 692L547 664L595 662C619 661 630 653 630 635C630 621 626 589 621 559L591 385Z" stroke="rgb(0,0,0)" stroke-opacity="1" stroke-width="8" fill="rgb(0,0,0)" fill-opacity="1"></path></g></g></g></g><g><g><g><g transform="matrix(1,0,0,1,335.9801025390625,44.07386779785156)"><path transform="matrix(0.017,0,0,-0.017,0,0)" d="M937 664L950 695C922 699 775 701 773 692L688 536L442 114L292 692C269 686 146 690 125 692L122 664L148 662C200 658 218 648 218 622C218 616 72 100 70 93C54 41 39 28 -16 23L-19 -3L20 -2C54 -1 79 0 93 0C107 0 133 -1 168 -2L203 -3L206 25L168 28C136 30 119 40 119 55C119 65 121 78 126 96L250 560L399 -18L422 -18L479 86L718 500L770 587L733 67C729 39 717 32 666 28L635 25L632 -3L679 -2C721 -1 751 0 766 0C782 0 812 -1 853 -2L899 -3L902 25L865 28C829 31 811 42 811 63L812 100L853 631C855 650 870 660 899 662Z" stroke="rgb(0,0,0)" stroke-opacity="1" stroke-width="8" fill="rgb(0,0,0)" fill-opacity="1"></path></g></g></g></g></svg>
</svg>
