<svg xmlns="http://www.w3.org/2000/svg" xmlns:xlink="http://www.w3.org/1999/xlink" width="147.5124969482422" height="49" style="width:147.5124969482422px;height:49px;font-family:Asana-Math, Asana;background:#FFF;"><g><g><g><g><g><g><g transform="matrix(1,0,0,1,3.70001220703125,19)"><path transform="matrix(0.017,0,0,-0.017,0,0)" d="M91 666C135 691 168 702 202 704C303 709 366 618 375 455C377 426 375 403 373 353C306 400 270 414 219 411C170 408 130 388 96 347C54 299 33 235 36 173C42 65 129 -16 233 -11C302 -7 359 29 398 92C440 162 466 297 460 413C450 613 327 758 175 750C136 748 102 738 48 715ZM369 318C359 206 351 163 328 111C305 57 263 21 219 19C165 16 128 67 124 152C118 266 180 364 261 368C299 371 331 354 369 318ZM839 437L823 437L844 549C860 635 888 673 934 673C964 673 991 658 1006 634L1016 638C1021 654 1031 685 1039 705L1044 720C1028 727 997 733 974 733C963 733 947 730 939 726C915 715 833 654 810 630C788 608 776 578 765 521L750 442C709 422 689 414 664 405L659 383L740 383L731 327C701 132 664 -54 642 -123C624 -182 594 -213 558 -213C535 -213 524 -206 506 -184L492 -188C488 -211 474 -259 469 -268C478 -273 493 -276 504 -276C545 -276 599 -245 638 -198C709 -114 729 -18 813 383L917 383C921 402 928 425 934 439L930 446C901 439 902 437 839 437Z" stroke="rgb(0,0,0)" stroke-opacity="1" stroke-width="8" fill="rgb(0,0,0)" fill-opacity="1"></path></g></g><g><g transform="matrix(1,0,0,1,21.45001220703125,19)"><path transform="matrix(0.017,0,0,-0.017,0,0)" d="M146 266C146 526 243 632 301 700L282 726C225 675 60 542 60 266C60 159 85 58 133 -32C168 -99 200 -138 282 -215L301 -194C255 -137 146 -15 146 266Z" stroke="rgb(0,0,0)" stroke-opacity="1" stroke-width="8" fill="rgb(0,0,0)" fill-opacity="1"></path></g></g><g><g transform="matrix(1,0,0,1,27.0999755859375,19)"><path transform="matrix(0.017,0,0,-0.017,0,0)" d="M275 482C208 482 55 419 55 259C55 182 100 136 177 136C185 136 196 136 207 137L166 99C150 84 139 66 139 52C139 42 146 31 160 19C91 -4 -37 -48 -37 -159C-37 -230 33 -276 142 -276C271 -276 384 -204 384 -121C384 -85 363 -49 320 -14L260 35C226 62 213 81 213 100C213 114 228 128 240 146C338 170 409 253 409 342C409 357 406 376 405 380C422 378 430 378 439 378C456 378 466 379 489 382L498 427L495 433C467 426 447 424 393 424C393 425 369 482 275 482ZM176 1L253 -58C299 -94 318 -121 318 -154C318 -206 249 -248 166 -248C84 -248 27 -206 27 -145C27 -43 137 -11 176 1ZM250 448C308 448 337 412 337 341C337 238 289 168 219 168C158 168 126 209 126 288C126 383 177 448 250 448Z" stroke="rgb(0,0,0)" stroke-opacity="1" stroke-width="8" fill="rgb(0,0,0)" fill-opacity="1"></path></g></g><g><g transform="matrix(1,0,0,1,35.58746337890625,19)"><path transform="matrix(0.017,0,0,-0.017,0,0)" d="M146 266C146 526 243 632 301 700L282 726C225 675 60 542 60 266C60 159 85 58 133 -32C168 -99 200 -138 282 -215L301 -194C255 -137 146 -15 146 266Z" stroke="rgb(0,0,0)" stroke-opacity="1" stroke-width="8" fill="rgb(0,0,0)" fill-opacity="1"></path></g></g><g><g transform="matrix(1,0,0,1,41.23748779296875,19)"><path transform="matrix(0.017,0,0,-0.017,0,0)" d="M9 1C24 -7 40 -11 52 -11C85 -11 124 18 155 65L231 182L242 113C255 28 278 -11 314 -11C336 -11 368 6 400 35L449 79L440 98C404 68 379 53 363 53C348 53 335 63 325 83C316 102 305 139 300 168L282 269L317 318C364 383 391 406 422 406C438 406 450 398 455 383L469 387L484 472C472 479 463 482 454 482C414 482 374 446 312 354L275 299L269 347C257 446 230 482 171 482C145 482 123 474 114 461L56 378L73 368C103 402 123 416 142 416C175 416 197 375 214 277L225 215L185 153C142 86 108 54 80 54C65 54 54 58 52 63L41 91L21 88C21 53 13 27 9 1Z" stroke="rgb(0,0,0)" stroke-opacity="1" stroke-width="8" fill="rgb(0,0,0)" fill-opacity="1"></path></g></g><g><g transform="matrix(1,0,0,1,49.7249755859375,19)"><path transform="matrix(0.017,0,0,-0.017,0,0)" d="M51 726L32 700C87 636 187 526 187 266C187 -10 83 -131 32 -194L51 -215C104 -165 273 -23 273 265C273 542 108 675 51 726Z" stroke="rgb(0,0,0)" stroke-opacity="1" stroke-width="8" fill="rgb(0,0,0)" fill-opacity="1"></path></g></g><g><g transform="matrix(1,0,0,1,55.375,19)"><path transform="matrix(0.017,0,0,-0.017,0,0)" d="M51 726L32 700C87 636 187 526 187 266C187 -10 83 -131 32 -194L51 -215C104 -165 273 -23 273 265C273 542 108 675 51 726Z" stroke="rgb(0,0,0)" stroke-opacity="1" stroke-width="8" fill="rgb(0,0,0)" fill-opacity="1"></path></g></g></g></g><g><g><g><g transform="matrix(1,0,0,1,23.9124755859375,44)"><path transform="matrix(0.017,0,0,-0.017,0,0)" d="M91 666C135 691 168 702 202 704C303 709 366 618 375 455C377 426 375 403 373 353C306 400 270 414 219 411C170 408 130 388 96 347C54 299 33 235 36 173C42 65 129 -16 233 -11C302 -7 359 29 398 92C440 162 466 297 460 413C450 613 327 758 175 750C136 748 102 738 48 715ZM369 318C359 206 351 163 328 111C305 57 263 21 219 19C165 16 128 67 124 152C118 266 180 364 261 368C299 371 331 354 369 318ZM503 1C518 -7 534 -11 546 -11C579 -11 618 18 649 65L725 182L736 113C749 28 772 -11 808 -11C830 -11 862 6 894 35L943 79L934 98C898 68 873 53 857 53C842 53 829 63 819 83C810 102 799 139 794 168L776 269L811 318C858 383 885 406 916 406C932 406 944 398 949 383L963 387L978 472C966 479 957 482 948 482C908 482 868 446 806 354L769 299L763 347C751 446 724 482 665 482C639 482 617 474 608 461L550 378L567 368C597 402 617 416 636 416C669 416 691 375 708 277L719 215L679 153C636 86 602 54 574 54C559 54 548 58 546 63L535 91L515 88C515 53 507 27 503 1Z" stroke="rgb(0,0,0)" stroke-opacity="1" stroke-width="8" fill="rgb(0,0,0)" fill-opacity="1"></path></g></g></g></g><line style="fill:none;stroke-width:1px;stroke:rgb(0, 0, 0);" x1="3.70001220703125" y1="26.550018310546875" x2="61.0250129699707" y2="26.550018310546875"></line></g><g><g transform="matrix(1,0,0,1,67.82501220703125,31)"><path transform="matrix(0.017,0,0,-0.017,0,0)" d="M604 347L604 406L65 406L65 347ZM604 134L604 193L65 193L65 134Z" stroke="rgb(0,0,0)" stroke-opacity="1" stroke-width="8" fill="rgb(0,0,0)" fill-opacity="1"></path></g></g><g><g><g><g><g transform="matrix(1,0,0,1,85.98748779296875,19)"><path transform="matrix(0.017,0,0,-0.017,0,0)" d="M91 666C135 691 168 702 202 704C303 709 366 618 375 455C377 426 375 403 373 353C306 400 270 414 219 411C170 408 130 388 96 347C54 299 33 235 36 173C42 65 129 -16 233 -11C302 -7 359 29 398 92C440 162 466 297 460 413C450 613 327 758 175 750C136 748 102 738 48 715ZM369 318C359 206 351 163 328 111C305 57 263 21 219 19C165 16 128 67 124 152C118 266 180 364 261 368C299 371 331 354 369 318ZM839 437L823 437L844 549C860 635 888 673 934 673C964 673 991 658 1006 634L1016 638C1021 654 1031 685 1039 705L1044 720C1028 727 997 733 974 733C963 733 947 730 939 726C915 715 833 654 810 630C788 608 776 578 765 521L750 442C709 422 689 414 664 405L659 383L740 383L731 327C701 132 664 -54 642 -123C624 -182 594 -213 558 -213C535 -213 524 -206 506 -184L492 -188C488 -211 474 -259 469 -268C478 -273 493 -276 504 -276C545 -276 599 -245 638 -198C709 -114 729 -18 813 383L917 383C921 402 928 425 934 439L930 446C901 439 902 437 839 437Z" stroke="rgb(0,0,0)" stroke-opacity="1" stroke-width="8" fill="rgb(0,0,0)" fill-opacity="1"></path></g></g><g><g transform="matrix(1,0,0,1,103.73748779296875,19)"><path transform="matrix(0.017,0,0,-0.017,0,0)" d="M146 266C146 526 243 632 301 700L282 726C225 675 60 542 60 266C60 159 85 58 133 -32C168 -99 200 -138 282 -215L301 -194C255 -137 146 -15 146 266Z" stroke="rgb(0,0,0)" stroke-opacity="1" stroke-width="8" fill="rgb(0,0,0)" fill-opacity="1"></path></g></g><g><g transform="matrix(1,0,0,1,109.38751220703125,19)"><path transform="matrix(0.017,0,0,-0.017,0,0)" d="M275 482C208 482 55 419 55 259C55 182 100 136 177 136C185 136 196 136 207 137L166 99C150 84 139 66 139 52C139 42 146 31 160 19C91 -4 -37 -48 -37 -159C-37 -230 33 -276 142 -276C271 -276 384 -204 384 -121C384 -85 363 -49 320 -14L260 35C226 62 213 81 213 100C213 114 228 128 240 146C338 170 409 253 409 342C409 357 406 376 405 380C422 378 430 378 439 378C456 378 466 379 489 382L498 427L495 433C467 426 447 424 393 424C393 425 369 482 275 482ZM176 1L253 -58C299 -94 318 -121 318 -154C318 -206 249 -248 166 -248C84 -248 27 -206 27 -145C27 -43 137 -11 176 1ZM250 448C308 448 337 412 337 341C337 238 289 168 219 168C158 168 126 209 126 288C126 383 177 448 250 448Z" stroke="rgb(0,0,0)" stroke-opacity="1" stroke-width="8" fill="rgb(0,0,0)" fill-opacity="1"></path></g></g><g><g transform="matrix(1,0,0,1,117.875,19)"><path transform="matrix(0.017,0,0,-0.017,0,0)" d="M51 726L32 700C87 636 187 526 187 266C187 -10 83 -131 32 -194L51 -215C104 -165 273 -23 273 265C273 542 108 675 51 726Z" stroke="rgb(0,0,0)" stroke-opacity="1" stroke-width="8" fill="rgb(0,0,0)" fill-opacity="1"></path></g></g></g></g><g><g><g><g transform="matrix(1,0,0,1,96.3125,44)"><path transform="matrix(0.017,0,0,-0.017,0,0)" d="M91 666C135 691 168 702 202 704C303 709 366 618 375 455C377 426 375 403 373 353C306 400 270 414 219 411C170 408 130 388 96 347C54 299 33 235 36 173C42 65 129 -16 233 -11C302 -7 359 29 398 92C440 162 466 297 460 413C450 613 327 758 175 750C136 748 102 738 48 715ZM369 318C359 206 351 163 328 111C305 57 263 21 219 19C165 16 128 67 124 152C118 266 180 364 261 368C299 371 331 354 369 318ZM769 482C702 482 549 419 549 259C549 182 594 136 671 136C679 136 690 136 701 137L660 99C644 84 633 66 633 52C633 42 640 31 654 19C585 -4 457 -48 457 -159C457 -230 527 -276 636 -276C765 -276 878 -204 878 -121C878 -85 857 -49 814 -14L754 35C720 62 707 81 707 100C707 114 722 128 734 146C832 170 903 253 903 342C903 357 900 376 899 380C916 378 924 378 933 378C950 378 960 379 983 382L992 427L989 433C961 426 941 424 887 424C887 425 863 482 769 482ZM670 1L747 -58C793 -94 812 -121 812 -154C812 -206 743 -248 660 -248C578 -248 521 -206 521 -145C521 -43 631 -11 670 1ZM744 448C802 448 831 412 831 341C831 238 783 168 713 168C652 168 620 209 620 288C620 383 671 448 744 448Z" stroke="rgb(0,0,0)" stroke-opacity="1" stroke-width="8" fill="rgb(0,0,0)" fill-opacity="1"></path></g></g></g></g><line style="fill:none;stroke-width:1px;stroke:rgb(0, 0, 0);" x1="85.98748779296875" y1="26.550018310546875" x2="123.52499008178711" y2="26.550018310546875"></line></g><g><g><g><g><g transform="matrix(1,0,0,1,126.92498779296875,19)"><path transform="matrix(0.017,0,0,-0.017,0,0)" d="M91 666C135 691 168 702 202 704C303 709 366 618 375 455C377 426 375 403 373 353C306 400 270 414 219 411C170 408 130 388 96 347C54 299 33 235 36 173C42 65 129 -16 233 -11C302 -7 359 29 398 92C440 162 466 297 460 413C450 613 327 758 175 750C136 748 102 738 48 715ZM369 318C359 206 351 163 328 111C305 57 263 21 219 19C165 16 128 67 124 152C118 266 180 364 261 368C299 371 331 354 369 318ZM769 482C702 482 549 419 549 259C549 182 594 136 671 136C679 136 690 136 701 137L660 99C644 84 633 66 633 52C633 42 640 31 654 19C585 -4 457 -48 457 -159C457 -230 527 -276 636 -276C765 -276 878 -204 878 -121C878 -85 857 -49 814 -14L754 35C720 62 707 81 707 100C707 114 722 128 734 146C832 170 903 253 903 342C903 357 900 376 899 380C916 378 924 378 933 378C950 378 960 379 983 382L992 427L989 433C961 426 941 424 887 424C887 425 863 482 769 482ZM670 1L747 -58C793 -94 812 -121 812 -154C812 -206 743 -248 660 -248C578 -248 521 -206 521 -145C521 -43 631 -11 670 1ZM744 448C802 448 831 412 831 341C831 238 783 168 713 168C652 168 620 209 620 288C620 383 671 448 744 448Z" stroke="rgb(0,0,0)" stroke-opacity="1" stroke-width="8" fill="rgb(0,0,0)" fill-opacity="1"></path></g></g></g></g><g><g><g><g transform="matrix(1,0,0,1,126.92498779296875,44)"><path transform="matrix(0.017,0,0,-0.017,0,0)" d="M91 666C135 691 168 702 202 704C303 709 366 618 375 455C377 426 375 403 373 353C306 400 270 414 219 411C170 408 130 388 96 347C54 299 33 235 36 173C42 65 129 -16 233 -11C302 -7 359 29 398 92C440 162 466 297 460 413C450 613 327 758 175 750C136 748 102 738 48 715ZM369 318C359 206 351 163 328 111C305 57 263 21 219 19C165 16 128 67 124 152C118 266 180 364 261 368C299 371 331 354 369 318ZM503 1C518 -7 534 -11 546 -11C579 -11 618 18 649 65L725 182L736 113C749 28 772 -11 808 -11C830 -11 862 6 894 35L943 79L934 98C898 68 873 53 857 53C842 53 829 63 819 83C810 102 799 139 794 168L776 269L811 318C858 383 885 406 916 406C932 406 944 398 949 383L963 387L978 472C966 479 957 482 948 482C908 482 868 446 806 354L769 299L763 347C751 446 724 482 665 482C639 482 617 474 608 461L550 378L567 368C597 402 617 416 636 416C669 416 691 375 708 277L719 215L679 153C636 86 602 54 574 54C559 54 548 58 546 63L535 91L515 88C515 53 507 27 503 1Z" stroke="rgb(0,0,0)" stroke-opacity="1" stroke-width="8" fill="rgb(0,0,0)" fill-opacity="1"></path></g></g></g></g><line style="fill:none;stroke-width:1px;stroke:rgb(0, 0, 0);" x1="126.92498779296875" y1="26.550018310546875" x2="143.8124885559082" y2="26.550018310546875"></line></g></g></g></svg>