<svg xmlns="http://www.w3.org/2000/svg" xmlns:xlink="http://www.w3.org/1999/xlink" x="0" y="0" width="662" height="229" style="
        width:662px;
        height:229px;
        background: #FFF;
        fill: none;
">
        <svg xmlns="http://www.w3.org/2000/svg"/>
        
        <svg xmlns="http://www.w3.org/2000/svg" class="role-diagram-draw-area"><g class="shapes-region" style="stroke: black; fill: none;"><g class="arrow-line"><path class="connection real" stroke-dasharray="" d="  M343.6,67.27 L303.6,136.54" style="stroke: rgb(0, 0, 0); stroke-width: 1; fill: none; fill-opacity: 1;"/><g stroke="#000" transform="matrix(0.5000000000000001,-0.8660254037844386,0.8660254037844386,0.5000000000000001,302.6000061035156,138.27499389648438)" style="stroke: rgb(0, 0, 0); stroke-width: 1;"><path d=" M10.93,-3.29 Q4.96,-0.45 0,0 Q4.96,0.45 10.93,3.29"/></g></g><g class="arrow-line"><path class="connection real" stroke-dasharray="" d="  M347.6,97.27 L345.71,133.28" style="stroke: rgb(0, 0, 0); stroke-width: 1; fill: none; fill-opacity: 1;"/><g stroke="#000" transform="matrix(0.05251024917882812,-0.9986203851970865,0.9986203851970865,0.05251024917882812,345.6000061035156,135.27499389648438)" style="stroke: rgb(0, 0, 0); stroke-width: 1;"><path d=" M10.93,-3.29 Q4.96,-0.45 0,0 Q4.96,0.45 10.93,3.29"/></g></g><g/></g><g/><g/><g/></svg>
        <svg xmlns="http://www.w3.org/2000/svg" xmlns:xlink="http://www.w3.org/1999/xlink" width="660" height="227" style="width:660px;height:227px;font-family:Asana-Math, Asana;background:#FFF;"><g><g><g><g><g><g><g transform="matrix(1,0,0,1,178.01254272460938,143.39999389648438)"><path transform="matrix(0.017,0,0,-0.017,0,0)" d="M567 55C567 39 552 30 524 28L480 25L480 -3C582 0 582 0 602 0C622 0 622 0 724 -3L724 25L698 28C651 35 650 35 642 80L555 705L509 705L136 112C100 56 82 40 48 32L28 27L28 -3C120 0 120 0 140 0C159 0 161 0 247 -3L247 25L195 28C179 29 164 38 164 47C164 55 171 69 190 102L292 277L538 277L563 89L563 86C563 84 567 69 567 55ZM496 601L533 313L317 313Z" stroke="rgb(0,0,0)" stroke-opacity="1" stroke-width="8" fill="rgb(0,0,0)" fill-opacity="1"></path></g></g></g></g><g><g><g><text x="203.89999389648438" y="143.56666056315103" style="white-space:pre;stroke:none;fill:rgb(208,2,27);fill-opacity:1;font-size:17px;font-family:Asana-Math, Asana;font-weight:400;font-style:normal;dominant-baseline:auto;text-decoration:none solid rgb(208, 2, 27);">鸡</text></g></g></g><g><g><g><text x="231.89999389648438" y="143.56666056315103" style="white-space:pre;stroke:none;fill:rgb(74,144,226);fill-opacity:1;font-size:17px;font-family:Asana-Math, Asana;font-weight:400;font-style:normal;dominant-baseline:auto;text-decoration:none solid rgb(74, 144, 226);">兔</text></g></g></g><g><g><g><text x="175.89999389648438" y="167.56666056315103" style="white-space:pre;stroke:none;fill:rgb(0,0,0);fill-opacity:1;font-size:17px;font-family:Asana-Math, Asana;font-weight:400;font-style:normal;dominant-baseline:auto;text-decoration:none solid rgb(0, 0, 0);">头</text></g></g></g><g><g><g><g transform="matrix(1,0,0,1,208.14999389648438,167.39999389648438)"><path transform="matrix(0.017,0,0,-0.017,0,0)" d="M418 -3L418 27L366 30C311 33 301 44 301 96L301 700L60 598L67 548L217 614L217 96C217 44 206 33 152 30L96 27L96 -3C250 0 250 0 261 0C292 0 402 -3 418 -3Z" stroke="rgb(208,2,27)" stroke-opacity="1" stroke-width="8" fill="rgb(208,2,27)" fill-opacity="1"></path></g></g></g></g><g><g><g><g transform="matrix(1,0,0,1,236.14999389648438,167.39999389648438)"><path transform="matrix(0.017,0,0,-0.017,0,0)" d="M418 -3L418 27L366 30C311 33 301 44 301 96L301 700L60 598L67 548L217 614L217 96C217 44 206 33 152 30L96 27L96 -3C250 0 250 0 261 0C292 0 402 -3 418 -3Z" stroke="rgb(74,144,226)" stroke-opacity="1" stroke-width="8" fill="rgb(74,144,226)" fill-opacity="1"></path></g></g></g></g><g><g><g><text x="175.89999389648438" y="191.56666056315103" style="white-space:pre;stroke:none;fill:rgb(0,0,0);fill-opacity:1;font-size:17px;font-family:Asana-Math, Asana;font-weight:400;font-style:normal;dominant-baseline:auto;text-decoration:none solid rgb(0, 0, 0);">脚</text></g></g></g><g><g><g><g transform="matrix(1,0,0,1,208.14999389648438,191.39999389648438)"><path transform="matrix(0.017,0,0,-0.017,0,0)" d="M16 23L16 -3C203 -3 203 0 239 0C275 0 275 -3 468 -3L468 82C353 77 307 81 122 77L304 270C401 373 431 428 431 503C431 618 353 689 226 689C154 689 105 669 56 619L39 483L68 483L81 529C97 587 133 612 200 612C286 612 341 558 341 473C341 398 299 324 186 204Z" stroke="rgb(208,2,27)" stroke-opacity="1" stroke-width="8" fill="rgb(208,2,27)" fill-opacity="1"></path></g></g></g></g><g><g><g><g transform="matrix(1,0,0,1,236.14999389648438,191.39999389648438)"><path transform="matrix(0.017,0,0,-0.017,0,0)" d="M280 181L280 106C280 46 269 32 220 30L158 27L158 -3C291 0 291 0 315 0C339 0 339 0 472 -3L472 27L424 30C375 33 364 46 364 106L364 181C423 181 444 180 472 177L472 248L364 245L365 697L285 667L2 204L2 181ZM280 245L65 245L280 597Z" stroke="rgb(74,144,226)" stroke-opacity="1" stroke-width="8" fill="rgb(74,144,226)" fill-opacity="1"></path></g></g></g></g><line style="fill:none;stroke-width:[object Object];stroke:rgb(0, 0, 0);" x1="170.00003051757812" y1="124.00003051757812" x2="254.00003051757812" y2="124.00003051757812"></line><line style="fill:none;stroke-width:[object Object];stroke:rgb(0, 0, 0);" x1="170.00003051757812" y1="148.00003051757812" x2="254.00003051757812" y2="148.00003051757812"></line><line style="fill:none;stroke-width:[object Object];stroke:rgb(0, 0, 0);" x1="170.00003051757812" y1="172.00003051757812" x2="254.00003051757812" y2="172.00003051757812"></line><line style="fill:none;stroke-width:[object Object];stroke:rgb(0, 0, 0);" x1="170.00003051757812" y1="196.00003051757812" x2="254.00003051757812" y2="196.00003051757812"></line><line stroke-dasharray="1" style="fill:none;stroke-width:[object Object];stroke:rgba(0, 0, 0, 0);" x1="170.00003051757812" y1="124.00003051757812" x2="198.00003051757812" y2="124.00003051757812"></line><line stroke-dasharray="1" style="fill:none;stroke-width:[object Object];stroke:rgba(0, 0, 0, 0);" x1="170.00003051757812" y1="124.00003051757812" x2="170.00003051757812" y2="148.00003051757812"></line><line stroke-dasharray="1" style="fill:none;stroke-width:[object Object];stroke:rgba(0, 0, 0, 0);" x1="198.00003051757812" y1="124.00003051757812" x2="198.00003051757812" y2="148.00003051757812"></line><line stroke-dasharray="1" style="fill:none;stroke-width:[object Object];stroke:rgba(0, 0, 0, 0);" x1="170.00003051757812" y1="148.00003051757812" x2="198.00003051757812" y2="148.00003051757812"></line><line stroke-dasharray="1" style="fill:none;stroke-width:[object Object];stroke:rgba(0, 0, 0, 0);" x1="198.00003051757812" y1="124.00003051757812" x2="226.00003051757812" y2="124.00003051757812"></line><line stroke-dasharray="1" style="fill:none;stroke-width:[object Object];stroke:rgba(0, 0, 0, 0);" x1="198.00003051757812" y1="124.00003051757812" x2="198.00003051757812" y2="148.00003051757812"></line><line stroke-dasharray="1" style="fill:none;stroke-width:[object Object];stroke:rgba(0, 0, 0, 0);" x1="226.00003051757812" y1="124.00003051757812" x2="226.00003051757812" y2="148.00003051757812"></line><line stroke-dasharray="1" style="fill:none;stroke-width:[object Object];stroke:rgba(0, 0, 0, 0);" x1="198.00003051757812" y1="148.00003051757812" x2="226.00003051757812" y2="148.00003051757812"></line><line stroke-dasharray="1" style="fill:none;stroke-width:[object Object];stroke:rgba(0, 0, 0, 0);" x1="226.00003051757812" y1="124.00003051757812" x2="254.00003051757812" y2="124.00003051757812"></line><line stroke-dasharray="1" style="fill:none;stroke-width:[object Object];stroke:rgba(0, 0, 0, 0);" x1="226.00003051757812" y1="124.00003051757812" x2="226.00003051757812" y2="148.00003051757812"></line><line stroke-dasharray="1" style="fill:none;stroke-width:[object Object];stroke:rgba(0, 0, 0, 0);" x1="254.00003051757812" y1="124.00003051757812" x2="254.00003051757812" y2="148.00003051757812"></line><line stroke-dasharray="1" style="fill:none;stroke-width:[object Object];stroke:rgba(0, 0, 0, 0);" x1="226.00003051757812" y1="148.00003051757812" x2="254.00003051757812" y2="148.00003051757812"></line><line stroke-dasharray="1" style="fill:none;stroke-width:[object Object];stroke:rgba(0, 0, 0, 0);" x1="170.00003051757812" y1="148.00003051757812" x2="198.00003051757812" y2="148.00003051757812"></line><line stroke-dasharray="1" style="fill:none;stroke-width:[object Object];stroke:rgba(0, 0, 0, 0);" x1="170.00003051757812" y1="148.00003051757812" x2="170.00003051757812" y2="172.00003051757812"></line><line stroke-dasharray="1" style="fill:none;stroke-width:[object Object];stroke:rgba(0, 0, 0, 0);" x1="198.00003051757812" y1="148.00003051757812" x2="198.00003051757812" y2="172.00003051757812"></line><line stroke-dasharray="1" style="fill:none;stroke-width:[object Object];stroke:rgba(0, 0, 0, 0);" x1="170.00003051757812" y1="172.00003051757812" x2="198.00003051757812" y2="172.00003051757812"></line><line stroke-dasharray="1" style="fill:none;stroke-width:[object Object];stroke:rgba(0, 0, 0, 0);" x1="198.00003051757812" y1="148.00003051757812" x2="226.00003051757812" y2="148.00003051757812"></line><line stroke-dasharray="1" style="fill:none;stroke-width:[object Object];stroke:rgba(0, 0, 0, 0);" x1="198.00003051757812" y1="148.00003051757812" x2="198.00003051757812" y2="172.00003051757812"></line><line stroke-dasharray="1" style="fill:none;stroke-width:[object Object];stroke:rgba(0, 0, 0, 0);" x1="226.00003051757812" y1="148.00003051757812" x2="226.00003051757812" y2="172.00003051757812"></line><line stroke-dasharray="1" style="fill:none;stroke-width:[object Object];stroke:rgba(0, 0, 0, 0);" x1="198.00003051757812" y1="172.00003051757812" x2="226.00003051757812" y2="172.00003051757812"></line><line stroke-dasharray="1" style="fill:none;stroke-width:[object Object];stroke:rgba(0, 0, 0, 0);" x1="226.00003051757812" y1="148.00003051757812" x2="254.00003051757812" y2="148.00003051757812"></line><line stroke-dasharray="1" style="fill:none;stroke-width:[object Object];stroke:rgba(0, 0, 0, 0);" x1="226.00003051757812" y1="148.00003051757812" x2="226.00003051757812" y2="172.00003051757812"></line><line stroke-dasharray="1" style="fill:none;stroke-width:[object Object];stroke:rgba(0, 0, 0, 0);" x1="254.00003051757812" y1="148.00003051757812" x2="254.00003051757812" y2="172.00003051757812"></line><line stroke-dasharray="1" style="fill:none;stroke-width:[object Object];stroke:rgba(0, 0, 0, 0);" x1="226.00003051757812" y1="172.00003051757812" x2="254.00003051757812" y2="172.00003051757812"></line><line stroke-dasharray="1" style="fill:none;stroke-width:[object Object];stroke:rgba(0, 0, 0, 0);" x1="170.00003051757812" y1="172.00003051757812" x2="198.00003051757812" y2="172.00003051757812"></line><line stroke-dasharray="1" style="fill:none;stroke-width:[object Object];stroke:rgba(0, 0, 0, 0);" x1="170.00003051757812" y1="172.00003051757812" x2="170.00003051757812" y2="196.00003051757812"></line><line stroke-dasharray="1" style="fill:none;stroke-width:[object Object];stroke:rgba(0, 0, 0, 0);" x1="198.00003051757812" y1="172.00003051757812" x2="198.00003051757812" y2="196.00003051757812"></line><line stroke-dasharray="1" style="fill:none;stroke-width:[object Object];stroke:rgba(0, 0, 0, 0);" x1="170.00003051757812" y1="196.00003051757812" x2="198.00003051757812" y2="196.00003051757812"></line><line stroke-dasharray="1" style="fill:none;stroke-width:[object Object];stroke:rgba(0, 0, 0, 0);" x1="198.00003051757812" y1="172.00003051757812" x2="226.00003051757812" y2="172.00003051757812"></line><line stroke-dasharray="1" style="fill:none;stroke-width:[object Object];stroke:rgba(0, 0, 0, 0);" x1="198.00003051757812" y1="172.00003051757812" x2="198.00003051757812" y2="196.00003051757812"></line><line stroke-dasharray="1" style="fill:none;stroke-width:[object Object];stroke:rgba(0, 0, 0, 0);" x1="226.00003051757812" y1="172.00003051757812" x2="226.00003051757812" y2="196.00003051757812"></line><line stroke-dasharray="1" style="fill:none;stroke-width:[object Object];stroke:rgba(0, 0, 0, 0);" x1="198.00003051757812" y1="196.00003051757812" x2="226.00003051757812" y2="196.00003051757812"></line><line stroke-dasharray="1" style="fill:none;stroke-width:[object Object];stroke:rgba(0, 0, 0, 0);" x1="226.00003051757812" y1="172.00003051757812" x2="254.00003051757812" y2="172.00003051757812"></line><line stroke-dasharray="1" style="fill:none;stroke-width:[object Object];stroke:rgba(0, 0, 0, 0);" x1="226.00003051757812" y1="172.00003051757812" x2="226.00003051757812" y2="196.00003051757812"></line><line stroke-dasharray="1" style="fill:none;stroke-width:[object Object];stroke:rgba(0, 0, 0, 0);" x1="254.00003051757812" y1="172.00003051757812" x2="254.00003051757812" y2="196.00003051757812"></line><line stroke-dasharray="1" style="fill:none;stroke-width:[object Object];stroke:rgba(0, 0, 0, 0);" x1="226.00003051757812" y1="196.00003051757812" x2="254.00003051757812" y2="196.00003051757812"></line></g></g></g><g><g><g><g><g><g><g transform="matrix(1,0,0,1,316.2124938964844,46.399993896484375)"><path transform="matrix(0.017,0,0,-0.017,0,0)" d="M543 227C543 337 459 353 377 365C434 385 459 397 490 425C536 464 559 511 559 562C559 644 501 692 401 692C399 692 389 692 374 691L311 690C299 689 263 689 251 689C232 689 201 690 152 691L100 692L97 664L150 662C174 661 185 653 185 635C185 621 181 589 176 559L89 55C85 37 73 30 31 23L26 -3L63 -2C90 0 105 0 117 0C128 0 154 -1 180 -2L217 -3L237 -4C256 -5 269 -6 277 -6C392 -6 543 87 543 227ZM166 41L217 340L302 340C405 340 455 298 455 211C455 108 382 34 282 34C228 34 207 38 166 41ZM352 655C433 655 473 619 473 544C473 439 399 376 275 376L223 376L272 650C288 650 329 655 352 655Z" stroke="rgb(0,0,0)" stroke-opacity="1" stroke-width="8" fill="rgb(0,0,0)" fill-opacity="1"></path></g></g></g></g><g><g><g><text x="340.8999938964844" y="46.566660563151046" style="white-space:pre;stroke:none;fill:rgb(0,0,0);fill-opacity:1;font-size:17px;font-family:Asana-Math, Asana;font-weight:400;font-style:normal;dominant-baseline:auto;text-decoration:none solid rgb(0, 0, 0);">笼</text></g></g></g><g><g><g><text x="312.8999938964844" y="70.56666056315105" style="white-space:pre;stroke:none;fill:rgb(0,0,0);fill-opacity:1;font-size:17px;font-family:Asana-Math, Asana;font-weight:400;font-style:normal;dominant-baseline:auto;text-decoration:none solid rgb(0, 0, 0);">鸡</text></g></g></g><g><g><g><g transform="matrix(1,0,0,1,345.1499938964844,70.39999389648438)"><path transform="matrix(0.017,0,0,-0.017,0,0)" d="M16 23L16 -3C203 -3 203 0 239 0C275 0 275 -3 468 -3L468 82C353 77 307 81 122 77L304 270C401 373 431 428 431 503C431 618 353 689 226 689C154 689 105 669 56 619L39 483L68 483L81 529C97 587 133 612 200 612C286 612 341 558 341 473C341 398 299 324 186 204Z" stroke="rgb(0,0,0)" stroke-opacity="1" stroke-width="8" fill="rgb(0,0,0)" fill-opacity="1"></path></g></g></g></g><g><g><g><text x="312.8999938964844" y="94.56666056315105" style="white-space:pre;stroke:none;fill:rgb(0,0,0);fill-opacity:1;font-size:17px;font-family:Asana-Math, Asana;font-weight:400;font-style:normal;dominant-baseline:auto;text-decoration:none solid rgb(0, 0, 0);">兔</text></g></g></g><g><g><g><g transform="matrix(1,0,0,1,345.1499938964844,94.39999389648438)"><path transform="matrix(0.017,0,0,-0.017,0,0)" d="M462 224C462 345 355 366 308 374C388 436 418 482 418 541C418 630 344 689 233 689C165 689 120 670 72 622L43 498L74 498L92 554C103 588 166 622 218 622C283 622 336 569 336 506C336 431 277 368 206 368C198 368 187 369 174 370L159 371L147 318L154 312C192 329 211 334 238 334C321 334 369 281 369 190C369 88 308 21 215 21C169 21 128 36 98 64C74 86 61 109 42 163L15 153C36 92 44 56 50 6C103 -12 147 -20 184 -20C307 -20 462 87 462 224Z" stroke="rgb(0,0,0)" stroke-opacity="1" stroke-width="8" fill="rgb(0,0,0)" fill-opacity="1"></path></g></g></g></g><line style="fill:none;stroke-width:[object Object];stroke:rgb(0, 0, 0);" x1="307.0000305175781" y1="27" x2="363.0000305175781" y2="27"></line><line style="fill:none;stroke-width:[object Object];stroke:rgb(0, 0, 0);" x1="307.0000305175781" y1="51" x2="363.0000305175781" y2="51"></line><line style="fill:none;stroke-width:[object Object];stroke:rgb(0, 0, 0);" x1="307.0000305175781" y1="75" x2="363.0000305175781" y2="75"></line><line style="fill:none;stroke-width:[object Object];stroke:rgb(0, 0, 0);" x1="307.0000305175781" y1="99" x2="363.0000305175781" y2="99"></line><line stroke-dasharray="1" style="fill:none;stroke-width:[object Object];stroke:rgba(0, 0, 0, 0);" x1="307.0000305175781" y1="27" x2="335.0000305175781" y2="27"></line><line stroke-dasharray="1" style="fill:none;stroke-width:[object Object];stroke:rgba(0, 0, 0, 0);" x1="307.0000305175781" y1="27" x2="307.0000305175781" y2="51"></line><line stroke-dasharray="1" style="fill:none;stroke-width:[object Object];stroke:rgba(0, 0, 0, 0);" x1="335.0000305175781" y1="27" x2="335.0000305175781" y2="51"></line><line stroke-dasharray="1" style="fill:none;stroke-width:[object Object];stroke:rgba(0, 0, 0, 0);" x1="307.0000305175781" y1="51" x2="335.0000305175781" y2="51"></line><line stroke-dasharray="1" style="fill:none;stroke-width:[object Object];stroke:rgba(0, 0, 0, 0);" x1="335.0000305175781" y1="27" x2="363.0000305175781" y2="27"></line><line stroke-dasharray="1" style="fill:none;stroke-width:[object Object];stroke:rgba(0, 0, 0, 0);" x1="335.0000305175781" y1="27" x2="335.0000305175781" y2="51"></line><line stroke-dasharray="1" style="fill:none;stroke-width:[object Object];stroke:rgba(0, 0, 0, 0);" x1="363.0000305175781" y1="27" x2="363.0000305175781" y2="51"></line><line stroke-dasharray="1" style="fill:none;stroke-width:[object Object];stroke:rgba(0, 0, 0, 0);" x1="335.0000305175781" y1="51" x2="363.0000305175781" y2="51"></line><line stroke-dasharray="1" style="fill:none;stroke-width:[object Object];stroke:rgba(0, 0, 0, 0);" x1="307.0000305175781" y1="51" x2="335.0000305175781" y2="51"></line><line stroke-dasharray="1" style="fill:none;stroke-width:[object Object];stroke:rgba(0, 0, 0, 0);" x1="307.0000305175781" y1="51" x2="307.0000305175781" y2="75"></line><line stroke-dasharray="1" style="fill:none;stroke-width:[object Object];stroke:rgba(0, 0, 0, 0);" x1="335.0000305175781" y1="51" x2="335.0000305175781" y2="75"></line><line stroke-dasharray="1" style="fill:none;stroke-width:[object Object];stroke:rgba(0, 0, 0, 0);" x1="307.0000305175781" y1="75" x2="335.0000305175781" y2="75"></line><line stroke-dasharray="1" style="fill:none;stroke-width:[object Object];stroke:rgba(0, 0, 0, 0);" x1="335.0000305175781" y1="51" x2="363.0000305175781" y2="51"></line><line stroke-dasharray="1" style="fill:none;stroke-width:[object Object];stroke:rgba(0, 0, 0, 0);" x1="335.0000305175781" y1="51" x2="335.0000305175781" y2="75"></line><line stroke-dasharray="1" style="fill:none;stroke-width:[object Object];stroke:rgba(0, 0, 0, 0);" x1="363.0000305175781" y1="51" x2="363.0000305175781" y2="75"></line><line stroke-dasharray="1" style="fill:none;stroke-width:[object Object];stroke:rgba(0, 0, 0, 0);" x1="335.0000305175781" y1="75" x2="363.0000305175781" y2="75"></line><line stroke-dasharray="1" style="fill:none;stroke-width:[object Object];stroke:rgba(0, 0, 0, 0);" x1="307.0000305175781" y1="75" x2="335.0000305175781" y2="75"></line><line stroke-dasharray="1" style="fill:none;stroke-width:[object Object];stroke:rgba(0, 0, 0, 0);" x1="307.0000305175781" y1="75" x2="307.0000305175781" y2="99"></line><line stroke-dasharray="1" style="fill:none;stroke-width:[object Object];stroke:rgba(0, 0, 0, 0);" x1="335.0000305175781" y1="75" x2="335.0000305175781" y2="99"></line><line stroke-dasharray="1" style="fill:none;stroke-width:[object Object];stroke:rgba(0, 0, 0, 0);" x1="307.0000305175781" y1="99" x2="335.0000305175781" y2="99"></line><line stroke-dasharray="1" style="fill:none;stroke-width:[object Object];stroke:rgba(0, 0, 0, 0);" x1="335.0000305175781" y1="75" x2="363.0000305175781" y2="75"></line><line stroke-dasharray="1" style="fill:none;stroke-width:[object Object];stroke:rgba(0, 0, 0, 0);" x1="335.0000305175781" y1="75" x2="335.0000305175781" y2="99"></line><line stroke-dasharray="1" style="fill:none;stroke-width:[object Object];stroke:rgba(0, 0, 0, 0);" x1="363.0000305175781" y1="75" x2="363.0000305175781" y2="99"></line><line stroke-dasharray="1" style="fill:none;stroke-width:[object Object];stroke:rgba(0, 0, 0, 0);" x1="335.0000305175781" y1="99" x2="363.0000305175781" y2="99"></line></g></g></g><g><g><g><g><g><g><g transform="matrix(1,0,0,1,424.5500183105469,143.39999389648438)"><path transform="matrix(0.017,0,0,-0.017,0,0)" d="M45 284C45 90 152 -18 343 -18C439 -18 510 5 600 67C600 67 610 103 610 103C610 103 600 110 600 110C506 53 454 35 376 35C219 35 133 131 133 309C133 447 190 653 418 653C489 653 541 639 597 603L597 519L624 519C629 576 637 619 651 665C575 694 518 706 456 706C276 706 45 578 45 284Z" stroke="rgb(0,0,0)" stroke-opacity="1" stroke-width="8" fill="rgb(0,0,0)" fill-opacity="1"></path></g></g></g></g><g><g><g><text x="449.8999938964844" y="143.56666056315103" style="white-space:pre;stroke:none;fill:rgb(0,0,0);fill-opacity:1;font-size:17px;font-family:Asana-Math, Asana;font-weight:400;font-style:normal;dominant-baseline:auto;text-decoration:none solid rgb(0, 0, 0);">笼</text></g></g></g><g><g><g><text x="421.8999938964844" y="167.56666056315103" style="white-space:pre;stroke:none;fill:rgb(0,0,0);fill-opacity:1;font-size:17px;font-family:Asana-Math, Asana;font-weight:400;font-style:normal;dominant-baseline:auto;text-decoration:none solid rgb(0, 0, 0);">头</text></g></g></g><g><g><g><g transform="matrix(1,0,0,1,454.1499938964844,167.39999389648438)"><path transform="matrix(0.017,0,0,-0.017,0,0)" d="M459 253C459 366 378 446 264 446C216 446 180 443 127 396L127 605L432 604L432 689L75 690L75 322L95 316C142 363 169 377 218 377C314 377 374 309 374 201C374 90 310 25 201 25C147 25 97 43 83 69L37 151L13 137C36 80 48 48 62 4C90 -11 130 -20 173 -20C301 -20 459 89 459 253Z" stroke="rgb(0,0,0)" stroke-opacity="1" stroke-width="8" fill="rgb(0,0,0)" fill-opacity="1"></path></g></g></g></g><g><g><g><text x="421.8999938964844" y="191.56666056315103" style="white-space:pre;stroke:none;fill:rgb(0,0,0);fill-opacity:1;font-size:17px;font-family:Asana-Math, Asana;font-weight:400;font-style:normal;dominant-baseline:auto;text-decoration:none solid rgb(0, 0, 0);">脚</text></g></g></g><g><g><g><g transform="matrix(1,0,0,1,449.9125061035156,191.39999389648438)"><path transform="matrix(0.017,0,0,-0.017,0,0)" d="M418 -3L418 27L366 30C311 33 301 44 301 96L301 700L60 598L67 548L217 614L217 96C217 44 206 33 152 30L96 27L96 -3C250 0 250 0 261 0C292 0 402 -3 418 -3ZM630 331C651 512 740 611 920 665L878 689C782 657 741 637 690 593C587 506 531 384 531 247C531 82 611 -20 740 -20C870 -20 967 83 967 219C967 334 898 409 792 409C715 409 683 370 630 331ZM754 349C830 349 881 283 881 184C881 80 830 13 753 13C668 13 622 86 622 220C622 255 626 274 637 291C659 325 706 349 754 349Z" stroke="rgb(0,0,0)" stroke-opacity="1" stroke-width="8" fill="rgb(0,0,0)" fill-opacity="1"></path></g></g></g></g><line style="fill:none;stroke-width:[object Object];stroke:rgb(0, 0, 0);" x1="416.0000305175781" y1="124.00003051757812" x2="472.0000305175781" y2="124.00003051757812"></line><line style="fill:none;stroke-width:[object Object];stroke:rgb(0, 0, 0);" x1="416.0000305175781" y1="148.00003051757812" x2="472.0000305175781" y2="148.00003051757812"></line><line style="fill:none;stroke-width:[object Object];stroke:rgb(0, 0, 0);" x1="416.0000305175781" y1="172.00003051757812" x2="472.0000305175781" y2="172.00003051757812"></line><line style="fill:none;stroke-width:[object Object];stroke:rgb(0, 0, 0);" x1="416.0000305175781" y1="196.00003051757812" x2="472.0000305175781" y2="196.00003051757812"></line><line stroke-dasharray="1" style="fill:none;stroke-width:[object Object];stroke:rgba(0, 0, 0, 0);" x1="416.0000305175781" y1="124.00003051757812" x2="444.0000305175781" y2="124.00003051757812"></line><line stroke-dasharray="1" style="fill:none;stroke-width:[object Object];stroke:rgba(0, 0, 0, 0);" x1="416.0000305175781" y1="124.00003051757812" x2="416.0000305175781" y2="148.00003051757812"></line><line stroke-dasharray="1" style="fill:none;stroke-width:[object Object];stroke:rgba(0, 0, 0, 0);" x1="444.0000305175781" y1="124.00003051757812" x2="444.0000305175781" y2="148.00003051757812"></line><line stroke-dasharray="1" style="fill:none;stroke-width:[object Object];stroke:rgba(0, 0, 0, 0);" x1="416.0000305175781" y1="148.00003051757812" x2="444.0000305175781" y2="148.00003051757812"></line><line stroke-dasharray="1" style="fill:none;stroke-width:[object Object];stroke:rgba(0, 0, 0, 0);" x1="444.0000305175781" y1="124.00003051757812" x2="472.0000305175781" y2="124.00003051757812"></line><line stroke-dasharray="1" style="fill:none;stroke-width:[object Object];stroke:rgba(0, 0, 0, 0);" x1="444.0000305175781" y1="124.00003051757812" x2="444.0000305175781" y2="148.00003051757812"></line><line stroke-dasharray="1" style="fill:none;stroke-width:[object Object];stroke:rgba(0, 0, 0, 0);" x1="472.0000305175781" y1="124.00003051757812" x2="472.0000305175781" y2="148.00003051757812"></line><line stroke-dasharray="1" style="fill:none;stroke-width:[object Object];stroke:rgba(0, 0, 0, 0);" x1="444.0000305175781" y1="148.00003051757812" x2="472.0000305175781" y2="148.00003051757812"></line><line stroke-dasharray="1" style="fill:none;stroke-width:[object Object];stroke:rgba(0, 0, 0, 0);" x1="416.0000305175781" y1="148.00003051757812" x2="444.0000305175781" y2="148.00003051757812"></line><line stroke-dasharray="1" style="fill:none;stroke-width:[object Object];stroke:rgba(0, 0, 0, 0);" x1="416.0000305175781" y1="148.00003051757812" x2="416.0000305175781" y2="172.00003051757812"></line><line stroke-dasharray="1" style="fill:none;stroke-width:[object Object];stroke:rgba(0, 0, 0, 0);" x1="444.0000305175781" y1="148.00003051757812" x2="444.0000305175781" y2="172.00003051757812"></line><line stroke-dasharray="1" style="fill:none;stroke-width:[object Object];stroke:rgba(0, 0, 0, 0);" x1="416.0000305175781" y1="172.00003051757812" x2="444.0000305175781" y2="172.00003051757812"></line><line stroke-dasharray="1" style="fill:none;stroke-width:[object Object];stroke:rgba(0, 0, 0, 0);" x1="444.0000305175781" y1="148.00003051757812" x2="472.0000305175781" y2="148.00003051757812"></line><line stroke-dasharray="1" style="fill:none;stroke-width:[object Object];stroke:rgba(0, 0, 0, 0);" x1="444.0000305175781" y1="148.00003051757812" x2="444.0000305175781" y2="172.00003051757812"></line><line stroke-dasharray="1" style="fill:none;stroke-width:[object Object];stroke:rgba(0, 0, 0, 0);" x1="472.0000305175781" y1="148.00003051757812" x2="472.0000305175781" y2="172.00003051757812"></line><line stroke-dasharray="1" style="fill:none;stroke-width:[object Object];stroke:rgba(0, 0, 0, 0);" x1="444.0000305175781" y1="172.00003051757812" x2="472.0000305175781" y2="172.00003051757812"></line><line stroke-dasharray="1" style="fill:none;stroke-width:[object Object];stroke:rgba(0, 0, 0, 0);" x1="416.0000305175781" y1="172.00003051757812" x2="444.0000305175781" y2="172.00003051757812"></line><line stroke-dasharray="1" style="fill:none;stroke-width:[object Object];stroke:rgba(0, 0, 0, 0);" x1="416.0000305175781" y1="172.00003051757812" x2="416.0000305175781" y2="196.00003051757812"></line><line stroke-dasharray="1" style="fill:none;stroke-width:[object Object];stroke:rgba(0, 0, 0, 0);" x1="444.0000305175781" y1="172.00003051757812" x2="444.0000305175781" y2="196.00003051757812"></line><line stroke-dasharray="1" style="fill:none;stroke-width:[object Object];stroke:rgba(0, 0, 0, 0);" x1="416.0000305175781" y1="196.00003051757812" x2="444.0000305175781" y2="196.00003051757812"></line><line stroke-dasharray="1" style="fill:none;stroke-width:[object Object];stroke:rgba(0, 0, 0, 0);" x1="444.0000305175781" y1="172.00003051757812" x2="472.0000305175781" y2="172.00003051757812"></line><line stroke-dasharray="1" style="fill:none;stroke-width:[object Object];stroke:rgba(0, 0, 0, 0);" x1="444.0000305175781" y1="172.00003051757812" x2="444.0000305175781" y2="196.00003051757812"></line><line stroke-dasharray="1" style="fill:none;stroke-width:[object Object];stroke:rgba(0, 0, 0, 0);" x1="472.0000305175781" y1="172.00003051757812" x2="472.0000305175781" y2="196.00003051757812"></line><line stroke-dasharray="1" style="fill:none;stroke-width:[object Object];stroke:rgba(0, 0, 0, 0);" x1="444.0000305175781" y1="196.00003051757812" x2="472.0000305175781" y2="196.00003051757812"></line></g></g></g><g><g><g><g transform="matrix(1,0,0,1,283.5000305175781,157.50003051757812)"><path transform="matrix(0.017,0,0,-0.017,0,0)" d="M418 -3L418 27L366 30C311 33 301 44 301 96L301 700L60 598L67 548L217 614L217 96C217 44 206 33 152 30L96 27L96 -3C250 0 250 0 261 0C292 0 402 -3 418 -3Z" stroke="rgb(208,2,27)" stroke-opacity="1" stroke-width="8" fill="rgb(208,2,27)" fill-opacity="1"></path></g></g><g><g transform="matrix(1,0,0,1,291.9875183105469,157.50003051757812)"><path transform="matrix(0.017,0,0,-0.017,0,0)" d="M168 267L37 213L32 204L68 153L78 153L184 241L202 99L212 95L280 121L280 131L212 253L350 233L359 241L359 303L353 307L214 283L283 408L280 423L218 442L209 438L183 295L88 393L78 393L34 341L37 331ZM404 23L404 -3C591 -3 591 0 627 0C663 0 663 -3 856 -3L856 82C741 77 695 81 510 77L692 270C789 373 819 428 819 503C819 618 741 689 614 689C542 689 493 669 444 619L427 483L456 483L469 529C485 587 521 612 588 612C674 612 729 558 729 473C729 398 687 324 574 204Z" stroke="rgb(0,0,0)" stroke-opacity="1" stroke-width="8" fill="rgb(0,0,0)" fill-opacity="1"></path></g></g><g><g transform="matrix(1,0,0,1,310.4750061035156,157.50003051757812)"><path transform="matrix(0.017,0,0,-0.017,0,0)" d="M604 241L604 300L364 300L364 538L305 538L305 300L65 300L65 241L305 241L305 0L364 0L364 241Z" stroke="rgb(0,0,0)" stroke-opacity="1" stroke-width="8" fill="rgb(0,0,0)" fill-opacity="1"></path></g></g><g><g transform="matrix(1,0,0,1,325.2375183105469,157.50003051757812)"><path transform="matrix(0.017,0,0,-0.017,0,0)" d="M418 -3L418 27L366 30C311 33 301 44 301 96L301 700L60 598L67 548L217 614L217 96C217 44 206 33 152 30L96 27L96 -3C250 0 250 0 261 0C292 0 402 -3 418 -3Z" stroke="rgb(74,144,226)" stroke-opacity="1" stroke-width="8" fill="rgb(74,144,226)" fill-opacity="1"></path></g></g><g><g transform="matrix(1,0,0,1,333.7250061035156,157.50003051757812)"><path transform="matrix(0.017,0,0,-0.017,0,0)" d="M168 267L37 213L32 204L68 153L78 153L184 241L202 99L212 95L280 121L280 131L212 253L350 233L359 241L359 303L353 307L214 283L283 408L280 423L218 442L209 438L183 295L88 393L78 393L34 341L37 331ZM850 224C850 345 743 366 696 374C776 436 806 482 806 541C806 630 732 689 621 689C553 689 508 670 460 622L431 498L462 498L480 554C491 588 554 622 606 622C671 622 724 569 724 506C724 431 665 368 594 368C586 368 575 369 562 370L547 371L535 318L542 312C580 329 599 334 626 334C709 334 757 281 757 190C757 88 696 21 603 21C557 21 516 36 486 64C462 86 449 109 430 163L403 153C424 92 432 56 438 6C491 -12 535 -20 572 -20C695 -20 850 87 850 224Z" stroke="rgb(0,0,0)" stroke-opacity="1" stroke-width="8" fill="rgb(0,0,0)" fill-opacity="1"></path></g></g><g><g transform="matrix(1,0,0,1,353.9125061035156,157.50003051757812)"><path transform="matrix(0.017,0,0,-0.017,0,0)" d="M604 347L604 406L65 406L65 347ZM604 134L604 193L65 193L65 134Z" stroke="rgb(0,0,0)" stroke-opacity="1" stroke-width="8" fill="rgb(0,0,0)" fill-opacity="1"></path></g></g><g><g transform="matrix(1,0,0,1,370.3750305175781,157.50003051757812)"><path transform="matrix(0.017,0,0,-0.017,0,0)" d="M459 253C459 366 378 446 264 446C216 446 180 443 127 396L127 605L432 604L432 689L75 690L75 322L95 316C142 363 169 377 218 377C314 377 374 309 374 201C374 90 310 25 201 25C147 25 97 43 83 69L37 151L13 137C36 80 48 48 62 4C90 -11 130 -20 173 -20C301 -20 459 89 459 253Z" stroke="rgb(0,0,0)" stroke-opacity="1" stroke-width="8" fill="rgb(0,0,0)" fill-opacity="1"></path></g></g></g><g><g><g transform="matrix(1,0,0,1,283.5000305175781,177.50003051757812)"><path transform="matrix(0.017,0,0,-0.017,0,0)" d="M16 23L16 -3C203 -3 203 0 239 0C275 0 275 -3 468 -3L468 82C353 77 307 81 122 77L304 270C401 373 431 428 431 503C431 618 353 689 226 689C154 689 105 669 56 619L39 483L68 483L81 529C97 587 133 612 200 612C286 612 341 558 341 473C341 398 299 324 186 204Z" stroke="rgb(208,2,27)" stroke-opacity="1" stroke-width="8" fill="rgb(208,2,27)" fill-opacity="1"></path></g></g><g><g transform="matrix(1,0,0,1,291.9875183105469,177.50003051757812)"><path transform="matrix(0.017,0,0,-0.017,0,0)" d="M168 267L37 213L32 204L68 153L78 153L184 241L202 99L212 95L280 121L280 131L212 253L350 233L359 241L359 303L353 307L214 283L283 408L280 423L218 442L209 438L183 295L88 393L78 393L34 341L37 331ZM404 23L404 -3C591 -3 591 0 627 0C663 0 663 -3 856 -3L856 82C741 77 695 81 510 77L692 270C789 373 819 428 819 503C819 618 741 689 614 689C542 689 493 669 444 619L427 483L456 483L469 529C485 587 521 612 588 612C674 612 729 558 729 473C729 398 687 324 574 204Z" stroke="rgb(0,0,0)" stroke-opacity="1" stroke-width="8" fill="rgb(0,0,0)" fill-opacity="1"></path></g></g><g><g transform="matrix(1,0,0,1,310.4750061035156,177.50003051757812)"><path transform="matrix(0.017,0,0,-0.017,0,0)" d="M604 241L604 300L364 300L364 538L305 538L305 300L65 300L65 241L305 241L305 0L364 0L364 241Z" stroke="rgb(0,0,0)" stroke-opacity="1" stroke-width="8" fill="rgb(0,0,0)" fill-opacity="1"></path></g></g><g><g transform="matrix(1,0,0,1,325.2375183105469,177.50003051757812)"><path transform="matrix(0.017,0,0,-0.017,0,0)" d="M280 181L280 106C280 46 269 32 220 30L158 27L158 -3C291 0 291 0 315 0C339 0 339 0 472 -3L472 27L424 30C375 33 364 46 364 106L364 181C423 181 444 180 472 177L472 248L364 245L365 697L285 667L2 204L2 181ZM280 245L65 245L280 597Z" stroke="rgb(74,144,226)" stroke-opacity="1" stroke-width="8" fill="rgb(74,144,226)" fill-opacity="1"></path></g></g><g><g transform="matrix(1,0,0,1,333.7250061035156,177.50003051757812)"><path transform="matrix(0.017,0,0,-0.017,0,0)" d="M168 267L37 213L32 204L68 153L78 153L184 241L202 99L212 95L280 121L280 131L212 253L350 233L359 241L359 303L353 307L214 283L283 408L280 423L218 442L209 438L183 295L88 393L78 393L34 341L37 331ZM850 224C850 345 743 366 696 374C776 436 806 482 806 541C806 630 732 689 621 689C553 689 508 670 460 622L431 498L462 498L480 554C491 588 554 622 606 622C671 622 724 569 724 506C724 431 665 368 594 368C586 368 575 369 562 370L547 371L535 318L542 312C580 329 599 334 626 334C709 334 757 281 757 190C757 88 696 21 603 21C557 21 516 36 486 64C462 86 449 109 430 163L403 153C424 92 432 56 438 6C491 -12 535 -20 572 -20C695 -20 850 87 850 224Z" stroke="rgb(0,0,0)" stroke-opacity="1" stroke-width="8" fill="rgb(0,0,0)" fill-opacity="1"></path></g></g><g><g transform="matrix(1,0,0,1,353.9125061035156,177.50003051757812)"><path transform="matrix(0.017,0,0,-0.017,0,0)" d="M604 347L604 406L65 406L65 347ZM604 134L604 193L65 193L65 134Z" stroke="rgb(0,0,0)" stroke-opacity="1" stroke-width="8" fill="rgb(0,0,0)" fill-opacity="1"></path></g></g><g><g transform="matrix(1,0,0,1,370.3750305175781,177.50003051757812)"><path transform="matrix(0.017,0,0,-0.017,0,0)" d="M418 -3L418 27L366 30C311 33 301 44 301 96L301 700L60 598L67 548L217 614L217 96C217 44 206 33 152 30L96 27L96 -3C250 0 250 0 261 0C292 0 402 -3 418 -3ZM630 331C651 512 740 611 920 665L878 689C782 657 741 637 690 593C587 506 531 384 531 247C531 82 611 -20 740 -20C870 -20 967 83 967 219C967 334 898 409 792 409C715 409 683 370 630 331ZM754 349C830 349 881 283 881 184C881 80 830 13 753 13C668 13 622 86 622 220C622 255 626 274 637 291C659 325 706 349 754 349Z" stroke="rgb(0,0,0)" stroke-opacity="1" stroke-width="8" fill="rgb(0,0,0)" fill-opacity="1"></path></g></g></g></g></svg>
</svg>
