<svg xmlns="http://www.w3.org/2000/svg" xmlns:xlink="http://www.w3.org/1999/xlink" x="0" y="0" width="662" height="312" style="
        width:662px;
        height:312px;
        background: #FFF;
        fill: none;
">
        <svg xmlns="http://www.w3.org/2000/svg"/>
        
        <svg xmlns="http://www.w3.org/2000/svg" class="role-diagram-draw-area"><g class="shapes-region" style="stroke: black; fill: none;"><g class="composite-shape" data-amt="diagram/shapes/plot" transform="matrix(1,0,0,1,20,10)"><g><g><g class="test-xgi"><line x1="64.12499999999999" y1="0" x2="64.12499999999999" y2="270" fill="none" stroke="lightgray" stroke-width="0.5"/><line x1="72.45439453124999" y1="0" x2="72.45439453124999" y2="270" fill="none" stroke="lightgray" stroke-width="0.5"/><line x1="80.78378906249999" y1="0" x2="80.78378906249999" y2="270" fill="none" stroke="lightgray" stroke-width="0.5"/><line x1="89.11318359374998" y1="0" x2="89.11318359374998" y2="270" fill="none" stroke="lightgray" stroke-width="0.5"/><line x1="97.44257812499998" y1="0" x2="97.44257812499998" y2="270" fill="none" stroke="lightgray" stroke-width="0.5"/><line x1="105.77197265624999" y1="0" x2="105.77197265624999" y2="270" fill="none" stroke="lightgray" stroke-width="0.5"/><line x1="114.10136718749999" y1="0" x2="114.10136718749999" y2="270" fill="none" stroke="lightgray" stroke-width="0.5"/><line x1="122.43076171874999" y1="0" x2="122.43076171874999" y2="270" fill="none" stroke="lightgray" stroke-width="0.5"/><line x1="130.76015624999997" y1="0" x2="130.76015624999997" y2="270" fill="none" stroke="lightgray" stroke-width="0.5"/><line x1="139.08955078124998" y1="0" x2="139.08955078124998" y2="270" fill="none" stroke="lightgray" stroke-width="0.5"/><line x1="147.41894531249997" y1="0" x2="147.41894531249997" y2="270" fill="none" stroke="lightgray" stroke-width="0.5"/><line x1="155.74833984374996" y1="0" x2="155.74833984374996" y2="270" fill="none" stroke="lightgray" stroke-width="0.5"/><line x1="164.07773437499998" y1="0" x2="164.07773437499998" y2="270" fill="none" stroke="lightgray" stroke-width="0.5"/><line x1="172.40712890625" y1="0" x2="172.40712890625" y2="270" fill="none" stroke="lightgray" stroke-width="0.5"/><line x1="180.73652343749995" y1="0" x2="180.73652343749995" y2="270" fill="none" stroke="lightgray" stroke-width="0.5"/><line x1="189.06591796875003" y1="0" x2="189.06591796875003" y2="270" fill="none" stroke="lightgray" stroke-width="0.5"/><line x1="197.3953125" y1="0" x2="197.3953125" y2="270" fill="none" stroke="lightgray" stroke-width="0.5"/><line x1="205.72470703125" y1="0" x2="205.72470703125" y2="270" fill="none" stroke="lightgray" stroke-width="0.5"/><line x1="214.0541015625" y1="0" x2="214.0541015625" y2="270" fill="none" stroke="lightgray" stroke-width="0.5"/><line x1="222.38349609375004" y1="0" x2="222.38349609375004" y2="270" fill="none" stroke="lightgray" stroke-width="0.5"/><line x1="230.712890625" y1="0" x2="230.712890625" y2="270" fill="none" stroke="lightgray" stroke-width="0.5"/><line x1="239.04228515625002" y1="0" x2="239.04228515625002" y2="270" fill="none" stroke="lightgray" stroke-width="0.5"/><line x1="247.37167968750003" y1="0" x2="247.37167968750003" y2="270" fill="none" stroke="lightgray" stroke-width="0.5"/><line x1="255.70107421875002" y1="0" x2="255.70107421875002" y2="270" fill="none" stroke="lightgray" stroke-width="0.5"/><line x1="264.03046875" y1="0" x2="264.03046875" y2="270" fill="none" stroke="lightgray" stroke-width="0.5"/><line x1="272.35986328125006" y1="0" x2="272.35986328125006" y2="270" fill="none" stroke="lightgray" stroke-width="0.5"/><line x1="280.68925781250005" y1="0" x2="280.68925781250005" y2="270" fill="none" stroke="lightgray" stroke-width="0.5"/><line x1="289.01865234375003" y1="0" x2="289.01865234375003" y2="270" fill="none" stroke="lightgray" stroke-width="0.5"/><line x1="297.3480468750001" y1="0" x2="297.3480468750001" y2="270" fill="none" stroke="lightgray" stroke-width="0.5"/><line x1="305.67744140625007" y1="0" x2="305.67744140625007" y2="270" fill="none" stroke="lightgray" stroke-width="0.5"/><line x1="314.00683593750006" y1="0" x2="314.00683593750006" y2="270" fill="none" stroke="lightgray" stroke-width="0.5"/><line x1="322.33623046875005" y1="0" x2="322.33623046875005" y2="270" fill="none" stroke="lightgray" stroke-width="0.5"/><line x1="330.6656250000001" y1="0" x2="330.6656250000001" y2="270" fill="none" stroke="lightgray" stroke-width="0.5"/><line x1="338.99501953125014" y1="0" x2="338.99501953125014" y2="270" fill="none" stroke="lightgray" stroke-width="0.5"/><line x1="347.3244140625001" y1="0" x2="347.3244140625001" y2="270" fill="none" stroke="lightgray" stroke-width="0.5"/><line x1="355.65380859375006" y1="0" x2="355.65380859375006" y2="270" fill="none" stroke="lightgray" stroke-width="0.5"/><line x1="363.9832031250001" y1="0" x2="363.9832031250001" y2="270" fill="none" stroke="lightgray" stroke-width="0.5"/><line x1="372.3125976562502" y1="0" x2="372.3125976562502" y2="270" fill="none" stroke="lightgray" stroke-width="0.5"/><line x1="380.64199218750014" y1="0" x2="380.64199218750014" y2="270" fill="none" stroke="lightgray" stroke-width="0.5"/><line x1="388.9713867187501" y1="0" x2="388.9713867187501" y2="270" fill="none" stroke="lightgray" stroke-width="0.5"/><line x1="397.3007812500001" y1="0" x2="397.3007812500001" y2="270" fill="none" stroke="lightgray" stroke-width="0.5"/><line x1="405.63017578125005" y1="0" x2="405.63017578125005" y2="270" fill="none" stroke="lightgray" stroke-width="0.5"/><line x1="413.95957031250003" y1="0" x2="413.95957031250003" y2="270" fill="none" stroke="lightgray" stroke-width="0.5"/><line x1="422.28896484374997" y1="0" x2="422.28896484374997" y2="270" fill="none" stroke="lightgray" stroke-width="0.5"/><line x1="430.61835937499995" y1="0" x2="430.61835937499995" y2="270" fill="none" stroke="lightgray" stroke-width="0.5"/><line x1="438.94775390624994" y1="0" x2="438.94775390624994" y2="270" fill="none" stroke="lightgray" stroke-width="0.5"/><line x1="447.2771484374999" y1="0" x2="447.2771484374999" y2="270" fill="none" stroke="lightgray" stroke-width="0.5"/><line x1="455.60654296874986" y1="0" x2="455.60654296874986" y2="270" fill="none" stroke="lightgray" stroke-width="0.5"/><line x1="463.9359374999998" y1="0" x2="463.9359374999998" y2="270" fill="none" stroke="lightgray" stroke-width="0.5"/><line x1="472.2653320312498" y1="0" x2="472.2653320312498" y2="270" fill="none" stroke="lightgray" stroke-width="0.5"/><line x1="480.5947265624998" y1="0" x2="480.5947265624998" y2="270" fill="none" stroke="lightgray" stroke-width="0.5"/><line x1="488.9241210937497" y1="0" x2="488.9241210937497" y2="270" fill="none" stroke="lightgray" stroke-width="0.5"/><line x1="497.2535156249997" y1="0" x2="497.2535156249997" y2="270" fill="none" stroke="lightgray" stroke-width="0.5"/><line x1="505.5829101562497" y1="0" x2="505.5829101562497" y2="270" fill="none" stroke="lightgray" stroke-width="0.5"/><line x1="513.9123046874996" y1="0" x2="513.9123046874996" y2="270" fill="none" stroke="lightgray" stroke-width="0.5"/><line x1="522.2416992187497" y1="0" x2="522.2416992187497" y2="270" fill="none" stroke="lightgray" stroke-width="0.5"/><line x1="530.5710937499996" y1="0" x2="530.5710937499996" y2="270" fill="none" stroke="lightgray" stroke-width="0.5"/><line x1="538.9004882812495" y1="0" x2="538.9004882812495" y2="270" fill="none" stroke="lightgray" stroke-width="0.5"/><line x1="547.2298828124996" y1="0" x2="547.2298828124996" y2="270" fill="none" stroke="lightgray" stroke-width="0.5"/><line x1="555.5592773437495" y1="0" x2="555.5592773437495" y2="270" fill="none" stroke="lightgray" stroke-width="0.5"/><line x1="563.8886718749994" y1="0" x2="563.8886718749994" y2="270" fill="none" stroke="lightgray" stroke-width="0.5"/><line x1="572.2180664062494" y1="0" x2="572.2180664062494" y2="270" fill="none" stroke="lightgray" stroke-width="0.5"/><line x1="580.5474609374994" y1="0" x2="580.5474609374994" y2="270" fill="none" stroke="lightgray" stroke-width="0.5"/><line x1="588.8768554687493" y1="0" x2="588.8768554687493" y2="270" fill="none" stroke="lightgray" stroke-width="0.5"/><line x1="597.2062499999993" y1="0" x2="597.2062499999993" y2="270" fill="none" stroke="lightgray" stroke-width="0.5"/><line x1="605.5356445312493" y1="0" x2="605.5356445312493" y2="270" fill="none" stroke="lightgray" stroke-width="0.5"/><line x1="613.8650390624992" y1="0" x2="613.8650390624992" y2="270" fill="none" stroke="lightgray" stroke-width="0.5"/><line x1="64.12499999999999" y1="0" x2="64.12499999999999" y2="270" fill="none" stroke="lightgray" stroke-width="0.5"/><line x1="55.79560546874999" y1="0" x2="55.79560546874999" y2="270" fill="none" stroke="lightgray" stroke-width="0.5"/><line x1="47.466210937499994" y1="0" x2="47.466210937499994" y2="270" fill="none" stroke="lightgray" stroke-width="0.5"/><line x1="39.13681640624999" y1="0" x2="39.13681640624999" y2="270" fill="none" stroke="lightgray" stroke-width="0.5"/><line x1="30.807421874999992" y1="0" x2="30.807421874999992" y2="270" fill="none" stroke="lightgray" stroke-width="0.5"/><line x1="22.478027343749993" y1="0" x2="22.478027343749993" y2="270" fill="none" stroke="lightgray" stroke-width="0.5"/><line x1="14.148632812499995" y1="0" x2="14.148632812499995" y2="270" fill="none" stroke="lightgray" stroke-width="0.5"/><line x1="5.819238281249999" y1="0" x2="5.819238281249999" y2="270" fill="none" stroke="lightgray" stroke-width="0.5"/><line x1="64.12499999999999" y1="0" x2="64.12499999999999" y2="270" fill="none" stroke="#c3c3c3" stroke-width="1"/><line x1="147.41894531249997" y1="0" x2="147.41894531249997" y2="270" fill="none" stroke="#c3c3c3" stroke-width="1"/><line x1="230.71289062499997" y1="0" x2="230.71289062499997" y2="270" fill="none" stroke="#c3c3c3" stroke-width="1"/><line x1="314.00683593749994" y1="0" x2="314.00683593749994" y2="270" fill="none" stroke="#c3c3c3" stroke-width="1"/><line x1="397.3007812499999" y1="0" x2="397.3007812499999" y2="270" fill="none" stroke="#c3c3c3" stroke-width="1"/><line x1="480.59472656249994" y1="0" x2="480.59472656249994" y2="270" fill="none" stroke="#c3c3c3" stroke-width="1"/><line x1="563.8886718749999" y1="0" x2="563.8886718749999" y2="270" fill="none" stroke="#c3c3c3" stroke-width="1"/></g><g class="test-ygi"><line x1="0" y1="209.4013671875" x2="620" y2="209.4013671875" fill="none" stroke="lightgray" stroke-width="0.5"/><line x1="0" y1="201.07197265625" x2="620" y2="201.07197265625" fill="none" stroke="lightgray" stroke-width="0.5"/><line x1="0" y1="192.74257812500002" x2="620" y2="192.74257812500002" fill="none" stroke="lightgray" stroke-width="0.5"/><line x1="0" y1="184.41318359374998" x2="620" y2="184.41318359374998" fill="none" stroke="lightgray" stroke-width="0.5"/><line x1="0" y1="176.0837890625" x2="620" y2="176.0837890625" fill="none" stroke="lightgray" stroke-width="0.5"/><line x1="0" y1="167.75439453125" x2="620" y2="167.75439453125" fill="none" stroke="lightgray" stroke-width="0.5"/><line x1="0" y1="159.42499999999998" x2="620" y2="159.42499999999998" fill="none" stroke="lightgray" stroke-width="0.5"/><line x1="0" y1="151.09560546875002" x2="620" y2="151.09560546875002" fill="none" stroke="lightgray" stroke-width="0.5"/><line x1="0" y1="142.76621093750003" x2="620" y2="142.76621093750003" fill="none" stroke="lightgray" stroke-width="0.5"/><line x1="0" y1="134.43681640625002" x2="620" y2="134.43681640625002" fill="none" stroke="lightgray" stroke-width="0.5"/><line x1="0" y1="126.107421875" x2="620" y2="126.107421875" fill="none" stroke="lightgray" stroke-width="0.5"/><line x1="0" y1="117.77802734375001" x2="620" y2="117.77802734375001" fill="none" stroke="lightgray" stroke-width="0.5"/><line x1="0" y1="109.44863281250002" x2="620" y2="109.44863281250002" fill="none" stroke="lightgray" stroke-width="0.5"/><line x1="0" y1="101.11923828125" x2="620" y2="101.11923828125" fill="none" stroke="lightgray" stroke-width="0.5"/><line x1="0" y1="92.78984374999996" x2="620" y2="92.78984374999996" fill="none" stroke="lightgray" stroke-width="0.5"/><line x1="0" y1="84.46044921874997" x2="620" y2="84.46044921874997" fill="none" stroke="lightgray" stroke-width="0.5"/><line x1="0" y1="76.13105468749995" x2="620" y2="76.13105468749995" fill="none" stroke="lightgray" stroke-width="0.5"/><line x1="0" y1="67.80166015624997" x2="620" y2="67.80166015624997" fill="none" stroke="lightgray" stroke-width="0.5"/><line x1="0" y1="59.47226562499992" x2="620" y2="59.47226562499992" fill="none" stroke="lightgray" stroke-width="0.5"/><line x1="0" y1="51.14287109374996" x2="620" y2="51.14287109374996" fill="none" stroke="lightgray" stroke-width="0.5"/><line x1="0" y1="42.81347656249994" x2="620" y2="42.81347656249994" fill="none" stroke="lightgray" stroke-width="0.5"/><line x1="0" y1="34.484082031249926" x2="620" y2="34.484082031249926" fill="none" stroke="lightgray" stroke-width="0.5"/><line x1="0" y1="26.154687499999937" x2="620" y2="26.154687499999937" fill="none" stroke="lightgray" stroke-width="0.5"/><line x1="0" y1="17.82529296874992" x2="620" y2="17.82529296874992" fill="none" stroke="lightgray" stroke-width="0.5"/><line x1="0" y1="9.495898437499932" x2="620" y2="9.495898437499932" fill="none" stroke="lightgray" stroke-width="0.5"/><line x1="0" y1="1.1665039062499432" x2="620" y2="1.1665039062499432" fill="none" stroke="lightgray" stroke-width="0.5"/><line x1="0" y1="209.4013671875" x2="620" y2="209.4013671875" fill="none" stroke="lightgray" stroke-width="0.5"/><line x1="0" y1="217.73076171875" x2="620" y2="217.73076171875" fill="none" stroke="lightgray" stroke-width="0.5"/><line x1="0" y1="226.06015624999998" x2="620" y2="226.06015624999998" fill="none" stroke="lightgray" stroke-width="0.5"/><line x1="0" y1="234.38955078125" x2="620" y2="234.38955078125" fill="none" stroke="lightgray" stroke-width="0.5"/><line x1="0" y1="242.7189453125" x2="620" y2="242.7189453125" fill="none" stroke="lightgray" stroke-width="0.5"/><line x1="0" y1="251.04833984375" x2="620" y2="251.04833984375" fill="none" stroke="lightgray" stroke-width="0.5"/><line x1="0" y1="259.377734375" x2="620" y2="259.377734375" fill="none" stroke="lightgray" stroke-width="0.5"/><line x1="0" y1="267.70712890625" x2="620" y2="267.70712890625" fill="none" stroke="lightgray" stroke-width="0.5"/><line x1="0" y1="209.4013671875" x2="620" y2="209.4013671875" fill="none" stroke="#c3c3c3" stroke-width="1"/><line x1="0" y1="126.107421875" x2="620" y2="126.107421875" fill="none" stroke="#c3c3c3" stroke-width="1"/><line x1="0" y1="42.8134765625" x2="620" y2="42.8134765625" fill="none" stroke="#c3c3c3" stroke-width="1"/></g></g><g><g class="test-xti" style="font-family: Asana-Math, Asana;"><line x1="0" y1="209.4013671875" x2="616" y2="209.4013671875" fill="none" stroke="rgb(50,50,50)" stroke-opacity="1" stroke-width="1"/><line x1="64.12499999999999" y1="207.4013671875" x2="64.12499999999999" y2="211.4013671875" fill="none" stroke="rgb(50,50,50)" stroke-opacity="1" stroke-width="1"/><line x1="72.45439453124999" y1="207.4013671875" x2="72.45439453124999" y2="211.4013671875" fill="none" stroke="rgb(50,50,50)" stroke-opacity="1" stroke-width="1"/><line x1="80.78378906249999" y1="207.4013671875" x2="80.78378906249999" y2="211.4013671875" fill="none" stroke="rgb(50,50,50)" stroke-opacity="1" stroke-width="1"/><line x1="89.11318359374998" y1="207.4013671875" x2="89.11318359374998" y2="211.4013671875" fill="none" stroke="rgb(50,50,50)" stroke-opacity="1" stroke-width="1"/><line x1="97.44257812499998" y1="207.4013671875" x2="97.44257812499998" y2="211.4013671875" fill="none" stroke="rgb(50,50,50)" stroke-opacity="1" stroke-width="1"/><line x1="105.77197265624999" y1="207.4013671875" x2="105.77197265624999" y2="211.4013671875" fill="none" stroke="rgb(50,50,50)" stroke-opacity="1" stroke-width="1"/><line x1="114.10136718749999" y1="207.4013671875" x2="114.10136718749999" y2="211.4013671875" fill="none" stroke="rgb(50,50,50)" stroke-opacity="1" stroke-width="1"/><line x1="122.43076171874999" y1="207.4013671875" x2="122.43076171874999" y2="211.4013671875" fill="none" stroke="rgb(50,50,50)" stroke-opacity="1" stroke-width="1"/><line x1="130.76015624999997" y1="207.4013671875" x2="130.76015624999997" y2="211.4013671875" fill="none" stroke="rgb(50,50,50)" stroke-opacity="1" stroke-width="1"/><line x1="139.08955078124998" y1="207.4013671875" x2="139.08955078124998" y2="211.4013671875" fill="none" stroke="rgb(50,50,50)" stroke-opacity="1" stroke-width="1"/><line x1="147.41894531249997" y1="207.4013671875" x2="147.41894531249997" y2="211.4013671875" fill="none" stroke="rgb(50,50,50)" stroke-opacity="1" stroke-width="1"/><line x1="155.74833984374996" y1="207.4013671875" x2="155.74833984374996" y2="211.4013671875" fill="none" stroke="rgb(50,50,50)" stroke-opacity="1" stroke-width="1"/><line x1="164.07773437499998" y1="207.4013671875" x2="164.07773437499998" y2="211.4013671875" fill="none" stroke="rgb(50,50,50)" stroke-opacity="1" stroke-width="1"/><line x1="172.40712890625" y1="207.4013671875" x2="172.40712890625" y2="211.4013671875" fill="none" stroke="rgb(50,50,50)" stroke-opacity="1" stroke-width="1"/><line x1="180.73652343749995" y1="207.4013671875" x2="180.73652343749995" y2="211.4013671875" fill="none" stroke="rgb(50,50,50)" stroke-opacity="1" stroke-width="1"/><line x1="189.06591796875003" y1="207.4013671875" x2="189.06591796875003" y2="211.4013671875" fill="none" stroke="rgb(50,50,50)" stroke-opacity="1" stroke-width="1"/><line x1="197.3953125" y1="207.4013671875" x2="197.3953125" y2="211.4013671875" fill="none" stroke="rgb(50,50,50)" stroke-opacity="1" stroke-width="1"/><line x1="205.72470703125" y1="207.4013671875" x2="205.72470703125" y2="211.4013671875" fill="none" stroke="rgb(50,50,50)" stroke-opacity="1" stroke-width="1"/><line x1="214.0541015625" y1="207.4013671875" x2="214.0541015625" y2="211.4013671875" fill="none" stroke="rgb(50,50,50)" stroke-opacity="1" stroke-width="1"/><line x1="222.38349609375004" y1="207.4013671875" x2="222.38349609375004" y2="211.4013671875" fill="none" stroke="rgb(50,50,50)" stroke-opacity="1" stroke-width="1"/><line x1="230.712890625" y1="207.4013671875" x2="230.712890625" y2="211.4013671875" fill="none" stroke="rgb(50,50,50)" stroke-opacity="1" stroke-width="1"/><line x1="239.04228515625002" y1="207.4013671875" x2="239.04228515625002" y2="211.4013671875" fill="none" stroke="rgb(50,50,50)" stroke-opacity="1" stroke-width="1"/><line x1="247.37167968750003" y1="207.4013671875" x2="247.37167968750003" y2="211.4013671875" fill="none" stroke="rgb(50,50,50)" stroke-opacity="1" stroke-width="1"/><line x1="255.70107421875002" y1="207.4013671875" x2="255.70107421875002" y2="211.4013671875" fill="none" stroke="rgb(50,50,50)" stroke-opacity="1" stroke-width="1"/><line x1="264.03046875" y1="207.4013671875" x2="264.03046875" y2="211.4013671875" fill="none" stroke="rgb(50,50,50)" stroke-opacity="1" stroke-width="1"/><line x1="272.35986328125006" y1="207.4013671875" x2="272.35986328125006" y2="211.4013671875" fill="none" stroke="rgb(50,50,50)" stroke-opacity="1" stroke-width="1"/><line x1="280.68925781250005" y1="207.4013671875" x2="280.68925781250005" y2="211.4013671875" fill="none" stroke="rgb(50,50,50)" stroke-opacity="1" stroke-width="1"/><line x1="289.01865234375003" y1="207.4013671875" x2="289.01865234375003" y2="211.4013671875" fill="none" stroke="rgb(50,50,50)" stroke-opacity="1" stroke-width="1"/><line x1="297.3480468750001" y1="207.4013671875" x2="297.3480468750001" y2="211.4013671875" fill="none" stroke="rgb(50,50,50)" stroke-opacity="1" stroke-width="1"/><line x1="305.67744140625007" y1="207.4013671875" x2="305.67744140625007" y2="211.4013671875" fill="none" stroke="rgb(50,50,50)" stroke-opacity="1" stroke-width="1"/><line x1="314.00683593750006" y1="207.4013671875" x2="314.00683593750006" y2="211.4013671875" fill="none" stroke="rgb(50,50,50)" stroke-opacity="1" stroke-width="1"/><line x1="322.33623046875005" y1="207.4013671875" x2="322.33623046875005" y2="211.4013671875" fill="none" stroke="rgb(50,50,50)" stroke-opacity="1" stroke-width="1"/><line x1="330.6656250000001" y1="207.4013671875" x2="330.6656250000001" y2="211.4013671875" fill="none" stroke="rgb(50,50,50)" stroke-opacity="1" stroke-width="1"/><line x1="338.99501953125014" y1="207.4013671875" x2="338.99501953125014" y2="211.4013671875" fill="none" stroke="rgb(50,50,50)" stroke-opacity="1" stroke-width="1"/><line x1="347.3244140625001" y1="207.4013671875" x2="347.3244140625001" y2="211.4013671875" fill="none" stroke="rgb(50,50,50)" stroke-opacity="1" stroke-width="1"/><line x1="355.65380859375006" y1="207.4013671875" x2="355.65380859375006" y2="211.4013671875" fill="none" stroke="rgb(50,50,50)" stroke-opacity="1" stroke-width="1"/><line x1="363.9832031250001" y1="207.4013671875" x2="363.9832031250001" y2="211.4013671875" fill="none" stroke="rgb(50,50,50)" stroke-opacity="1" stroke-width="1"/><line x1="372.3125976562502" y1="207.4013671875" x2="372.3125976562502" y2="211.4013671875" fill="none" stroke="rgb(50,50,50)" stroke-opacity="1" stroke-width="1"/><line x1="380.64199218750014" y1="207.4013671875" x2="380.64199218750014" y2="211.4013671875" fill="none" stroke="rgb(50,50,50)" stroke-opacity="1" stroke-width="1"/><line x1="388.9713867187501" y1="207.4013671875" x2="388.9713867187501" y2="211.4013671875" fill="none" stroke="rgb(50,50,50)" stroke-opacity="1" stroke-width="1"/><line x1="397.3007812500001" y1="207.4013671875" x2="397.3007812500001" y2="211.4013671875" fill="none" stroke="rgb(50,50,50)" stroke-opacity="1" stroke-width="1"/><line x1="405.63017578125005" y1="207.4013671875" x2="405.63017578125005" y2="211.4013671875" fill="none" stroke="rgb(50,50,50)" stroke-opacity="1" stroke-width="1"/><line x1="413.95957031250003" y1="207.4013671875" x2="413.95957031250003" y2="211.4013671875" fill="none" stroke="rgb(50,50,50)" stroke-opacity="1" stroke-width="1"/><line x1="422.28896484374997" y1="207.4013671875" x2="422.28896484374997" y2="211.4013671875" fill="none" stroke="rgb(50,50,50)" stroke-opacity="1" stroke-width="1"/><line x1="430.61835937499995" y1="207.4013671875" x2="430.61835937499995" y2="211.4013671875" fill="none" stroke="rgb(50,50,50)" stroke-opacity="1" stroke-width="1"/><line x1="438.94775390624994" y1="207.4013671875" x2="438.94775390624994" y2="211.4013671875" fill="none" stroke="rgb(50,50,50)" stroke-opacity="1" stroke-width="1"/><line x1="447.2771484374999" y1="207.4013671875" x2="447.2771484374999" y2="211.4013671875" fill="none" stroke="rgb(50,50,50)" stroke-opacity="1" stroke-width="1"/><line x1="455.60654296874986" y1="207.4013671875" x2="455.60654296874986" y2="211.4013671875" fill="none" stroke="rgb(50,50,50)" stroke-opacity="1" stroke-width="1"/><line x1="463.9359374999998" y1="207.4013671875" x2="463.9359374999998" y2="211.4013671875" fill="none" stroke="rgb(50,50,50)" stroke-opacity="1" stroke-width="1"/><line x1="472.2653320312498" y1="207.4013671875" x2="472.2653320312498" y2="211.4013671875" fill="none" stroke="rgb(50,50,50)" stroke-opacity="1" stroke-width="1"/><line x1="480.5947265624998" y1="207.4013671875" x2="480.5947265624998" y2="211.4013671875" fill="none" stroke="rgb(50,50,50)" stroke-opacity="1" stroke-width="1"/><line x1="488.9241210937497" y1="207.4013671875" x2="488.9241210937497" y2="211.4013671875" fill="none" stroke="rgb(50,50,50)" stroke-opacity="1" stroke-width="1"/><line x1="497.2535156249997" y1="207.4013671875" x2="497.2535156249997" y2="211.4013671875" fill="none" stroke="rgb(50,50,50)" stroke-opacity="1" stroke-width="1"/><line x1="505.5829101562497" y1="207.4013671875" x2="505.5829101562497" y2="211.4013671875" fill="none" stroke="rgb(50,50,50)" stroke-opacity="1" stroke-width="1"/><line x1="513.9123046874996" y1="207.4013671875" x2="513.9123046874996" y2="211.4013671875" fill="none" stroke="rgb(50,50,50)" stroke-opacity="1" stroke-width="1"/><line x1="522.2416992187497" y1="207.4013671875" x2="522.2416992187497" y2="211.4013671875" fill="none" stroke="rgb(50,50,50)" stroke-opacity="1" stroke-width="1"/><line x1="530.5710937499996" y1="207.4013671875" x2="530.5710937499996" y2="211.4013671875" fill="none" stroke="rgb(50,50,50)" stroke-opacity="1" stroke-width="1"/><line x1="538.9004882812495" y1="207.4013671875" x2="538.9004882812495" y2="211.4013671875" fill="none" stroke="rgb(50,50,50)" stroke-opacity="1" stroke-width="1"/><line x1="547.2298828124996" y1="207.4013671875" x2="547.2298828124996" y2="211.4013671875" fill="none" stroke="rgb(50,50,50)" stroke-opacity="1" stroke-width="1"/><line x1="555.5592773437495" y1="207.4013671875" x2="555.5592773437495" y2="211.4013671875" fill="none" stroke="rgb(50,50,50)" stroke-opacity="1" stroke-width="1"/><line x1="563.8886718749994" y1="207.4013671875" x2="563.8886718749994" y2="211.4013671875" fill="none" stroke="rgb(50,50,50)" stroke-opacity="1" stroke-width="1"/><line x1="572.2180664062494" y1="207.4013671875" x2="572.2180664062494" y2="211.4013671875" fill="none" stroke="rgb(50,50,50)" stroke-opacity="1" stroke-width="1"/><line x1="580.5474609374994" y1="207.4013671875" x2="580.5474609374994" y2="211.4013671875" fill="none" stroke="rgb(50,50,50)" stroke-opacity="1" stroke-width="1"/><line x1="588.8768554687493" y1="207.4013671875" x2="588.8768554687493" y2="211.4013671875" fill="none" stroke="rgb(50,50,50)" stroke-opacity="1" stroke-width="1"/><line x1="597.2062499999993" y1="207.4013671875" x2="597.2062499999993" y2="211.4013671875" fill="none" stroke="rgb(50,50,50)" stroke-opacity="1" stroke-width="1"/><line x1="64.12499999999999" y1="207.4013671875" x2="64.12499999999999" y2="211.4013671875" fill="none" stroke="rgb(50,50,50)" stroke-opacity="1" stroke-width="1"/><line x1="55.79560546874999" y1="207.4013671875" x2="55.79560546874999" y2="211.4013671875" fill="none" stroke="rgb(50,50,50)" stroke-opacity="1" stroke-width="1"/><line x1="47.466210937499994" y1="207.4013671875" x2="47.466210937499994" y2="211.4013671875" fill="none" stroke="rgb(50,50,50)" stroke-opacity="1" stroke-width="1"/><line x1="39.13681640624999" y1="207.4013671875" x2="39.13681640624999" y2="211.4013671875" fill="none" stroke="rgb(50,50,50)" stroke-opacity="1" stroke-width="1"/><line x1="30.807421874999992" y1="207.4013671875" x2="30.807421874999992" y2="211.4013671875" fill="none" stroke="rgb(50,50,50)" stroke-opacity="1" stroke-width="1"/><line x1="22.478027343749993" y1="207.4013671875" x2="22.478027343749993" y2="211.4013671875" fill="none" stroke="rgb(50,50,50)" stroke-opacity="1" stroke-width="1"/><line x1="14.148632812499995" y1="207.4013671875" x2="14.148632812499995" y2="211.4013671875" fill="none" stroke="rgb(50,50,50)" stroke-opacity="1" stroke-width="1"/><line x1="5.819238281249999" y1="207.4013671875" x2="5.819238281249999" y2="211.4013671875" fill="none" stroke="rgb(50,50,50)" stroke-opacity="1" stroke-width="1"/><line x1="147.41894531249997" y1="205.4013671875" x2="147.41894531249997" y2="213.4013671875" fill="none" stroke="rgb(50,50,50)" stroke-opacity="1" stroke-width="1"/><line x1="230.71289062499997" y1="205.4013671875" x2="230.71289062499997" y2="213.4013671875" fill="none" stroke="rgb(50,50,50)" stroke-opacity="1" stroke-width="1"/><line x1="314.00683593749994" y1="205.4013671875" x2="314.00683593749994" y2="213.4013671875" fill="none" stroke="rgb(50,50,50)" stroke-opacity="1" stroke-width="1"/><line x1="397.3007812499999" y1="205.4013671875" x2="397.3007812499999" y2="213.4013671875" fill="none" stroke="rgb(50,50,50)" stroke-opacity="1" stroke-width="1"/><line x1="480.59472656249994" y1="205.4013671875" x2="480.59472656249994" y2="213.4013671875" fill="none" stroke="rgb(50,50,50)" stroke-opacity="1" stroke-width="1"/><line x1="563.8886718749999" y1="205.4013671875" x2="563.8886718749999" y2="213.4013671875" fill="none" stroke="rgb(50,50,50)" stroke-opacity="1" stroke-width="1"/><path d="M611,205.8013671875 L619,209.4013671875 L611,213.0013671875 Z" stroke="none" stroke-width="1" fill="rgb(50,50,50)" fill-opacity="1"/></g><g class="test-yti" style="font-family: Asana-Math, Asana;"><line x1="64.125" y1="4" x2="64.125" y2="270" fill="none" stroke="rgb(50,50,50)" stroke-opacity="1" stroke-width="1"/><line x1="62.125" y1="209.4013671875" x2="66.125" y2="209.4013671875" fill="none" stroke="rgb(50,50,50)" stroke-opacity="1" stroke-width="1"/><line x1="62.125" y1="201.07197265625" x2="66.125" y2="201.07197265625" fill="none" stroke="rgb(50,50,50)" stroke-opacity="1" stroke-width="1"/><line x1="62.125" y1="192.74257812500002" x2="66.125" y2="192.74257812500002" fill="none" stroke="rgb(50,50,50)" stroke-opacity="1" stroke-width="1"/><line x1="62.125" y1="184.41318359374998" x2="66.125" y2="184.41318359374998" fill="none" stroke="rgb(50,50,50)" stroke-opacity="1" stroke-width="1"/><line x1="62.125" y1="176.0837890625" x2="66.125" y2="176.0837890625" fill="none" stroke="rgb(50,50,50)" stroke-opacity="1" stroke-width="1"/><line x1="62.125" y1="167.75439453125" x2="66.125" y2="167.75439453125" fill="none" stroke="rgb(50,50,50)" stroke-opacity="1" stroke-width="1"/><line x1="62.125" y1="159.42499999999998" x2="66.125" y2="159.42499999999998" fill="none" stroke="rgb(50,50,50)" stroke-opacity="1" stroke-width="1"/><line x1="62.125" y1="151.09560546875002" x2="66.125" y2="151.09560546875002" fill="none" stroke="rgb(50,50,50)" stroke-opacity="1" stroke-width="1"/><line x1="62.125" y1="142.76621093750003" x2="66.125" y2="142.76621093750003" fill="none" stroke="rgb(50,50,50)" stroke-opacity="1" stroke-width="1"/><line x1="62.125" y1="134.43681640625002" x2="66.125" y2="134.43681640625002" fill="none" stroke="rgb(50,50,50)" stroke-opacity="1" stroke-width="1"/><line x1="62.125" y1="126.107421875" x2="66.125" y2="126.107421875" fill="none" stroke="rgb(50,50,50)" stroke-opacity="1" stroke-width="1"/><line x1="62.125" y1="117.77802734375001" x2="66.125" y2="117.77802734375001" fill="none" stroke="rgb(50,50,50)" stroke-opacity="1" stroke-width="1"/><line x1="62.125" y1="109.44863281250002" x2="66.125" y2="109.44863281250002" fill="none" stroke="rgb(50,50,50)" stroke-opacity="1" stroke-width="1"/><line x1="62.125" y1="101.11923828125" x2="66.125" y2="101.11923828125" fill="none" stroke="rgb(50,50,50)" stroke-opacity="1" stroke-width="1"/><line x1="62.125" y1="92.78984374999996" x2="66.125" y2="92.78984374999996" fill="none" stroke="rgb(50,50,50)" stroke-opacity="1" stroke-width="1"/><line x1="62.125" y1="84.46044921874997" x2="66.125" y2="84.46044921874997" fill="none" stroke="rgb(50,50,50)" stroke-opacity="1" stroke-width="1"/><line x1="62.125" y1="76.13105468749995" x2="66.125" y2="76.13105468749995" fill="none" stroke="rgb(50,50,50)" stroke-opacity="1" stroke-width="1"/><line x1="62.125" y1="67.80166015624997" x2="66.125" y2="67.80166015624997" fill="none" stroke="rgb(50,50,50)" stroke-opacity="1" stroke-width="1"/><line x1="62.125" y1="59.47226562499992" x2="66.125" y2="59.47226562499992" fill="none" stroke="rgb(50,50,50)" stroke-opacity="1" stroke-width="1"/><line x1="62.125" y1="51.14287109374996" x2="66.125" y2="51.14287109374996" fill="none" stroke="rgb(50,50,50)" stroke-opacity="1" stroke-width="1"/><line x1="62.125" y1="42.81347656249994" x2="66.125" y2="42.81347656249994" fill="none" stroke="rgb(50,50,50)" stroke-opacity="1" stroke-width="1"/><line x1="62.125" y1="34.484082031249926" x2="66.125" y2="34.484082031249926" fill="none" stroke="rgb(50,50,50)" stroke-opacity="1" stroke-width="1"/><line x1="62.125" y1="26.154687499999937" x2="66.125" y2="26.154687499999937" fill="none" stroke="rgb(50,50,50)" stroke-opacity="1" stroke-width="1"/><line x1="62.125" y1="17.82529296874992" x2="66.125" y2="17.82529296874992" fill="none" stroke="rgb(50,50,50)" stroke-opacity="1" stroke-width="1"/><line x1="62.125" y1="209.4013671875" x2="66.125" y2="209.4013671875" fill="none" stroke="rgb(50,50,50)" stroke-opacity="1" stroke-width="1"/><line x1="62.125" y1="217.73076171875" x2="66.125" y2="217.73076171875" fill="none" stroke="rgb(50,50,50)" stroke-opacity="1" stroke-width="1"/><line x1="62.125" y1="226.06015624999998" x2="66.125" y2="226.06015624999998" fill="none" stroke="rgb(50,50,50)" stroke-opacity="1" stroke-width="1"/><line x1="62.125" y1="234.38955078125" x2="66.125" y2="234.38955078125" fill="none" stroke="rgb(50,50,50)" stroke-opacity="1" stroke-width="1"/><line x1="62.125" y1="242.7189453125" x2="66.125" y2="242.7189453125" fill="none" stroke="rgb(50,50,50)" stroke-opacity="1" stroke-width="1"/><line x1="62.125" y1="251.04833984375" x2="66.125" y2="251.04833984375" fill="none" stroke="rgb(50,50,50)" stroke-opacity="1" stroke-width="1"/><line x1="62.125" y1="259.377734375" x2="66.125" y2="259.377734375" fill="none" stroke="rgb(50,50,50)" stroke-opacity="1" stroke-width="1"/><line x1="62.125" y1="267.70712890625" x2="66.125" y2="267.70712890625" fill="none" stroke="rgb(50,50,50)" stroke-opacity="1" stroke-width="1"/><line x1="60.125" y1="126.107421875" x2="68.125" y2="126.107421875" fill="none" stroke="rgb(50,50,50)" stroke-opacity="1" stroke-width="1"/><line x1="60.125" y1="42.8134765625" x2="68.125" y2="42.8134765625" fill="none" stroke="rgb(50,50,50)" stroke-opacity="1" stroke-width="1"/><path d="M60.525,9 L64.125,1 L67.725,9 Z" stroke="none" stroke-width="1" fill="rgb(50,50,50)" fill-opacity="1"/></g><g class="test-plot-expression"><defs><clipPath id="cpwyjqbz5b6"><rect x="1" y="1" width="618" height="268"/></clipPath></defs><g clip-path="url(#cpwyjqbz5b6)"><path d=" M64.31,540.00 L64.88,540.00 L65.44,540.00 L66.01,525.16 L66.57,503.30 L67.13,486.01 L67.70,471.69 L68.26,459.48 L68.83,448.83 L69.39,439.39 L69.95,430.92 L70.52,423.22 L71.08,416.18 L71.65,409.69 L72.21,403.66 L72.78,398.04 L73.34,392.78 L73.90,387.83 L74.47,383.16 L75.03,378.74 L75.60,374.54 L76.16,370.54 L76.72,366.72 L77.29,363.07 L77.85,359.58 L78.42,356.22 L78.98,353.00 L79.55,349.89 L80.11,346.90 L80.67,344.01 L81.24,341.22 L81.80,338.52 L82.37,335.90 L82.93,333.36 L83.49,330.90 L84.06,328.51 L84.62,326.19 L85.19,323.92 L85.75,321.72 L86.31,319.58 L86.88,317.49 L87.44,315.45 L88.01,313.46 L88.57,311.51 L89.14,309.61 L89.70,307.75 L90.26,305.94 L90.83,304.16 L91.39,302.42 L91.96,300.71 L92.52,299.04 L93.08,297.40 L93.65,295.79 L94.21,294.22 L94.78,292.67 L95.34,291.15 L95.91,289.66 L96.47,288.19 L97.03,286.75 L97.60,285.34 L98.16,283.94 L98.73,282.57 L99.29,281.23 L99.85,279.90 L100.42,278.60 L100.98,277.31 L101.55,276.05 L102.11,274.80 L102.68,273.57 L103.24,272.36 L103.80,271.17 L104.37,269.99 L104.93,268.83 L105.50,267.69 L106.06,266.56 L106.62,265.45 L107.19,264.35 L107.75,263.27 L108.32,262.20 L108.88,261.14 L109.44,260.10 L110.01,259.07 L110.57,258.05 L111.14,257.04 L111.70,256.05 L112.27,255.07 L112.83,254.10 L113.39,253.14 L113.96,252.19 L114.52,251.25 L115.09,250.32 L115.65,249.41 L116.21,248.50 L116.78,247.60 L117.34,246.72 L117.91,245.84 L118.47,244.97 L119.04,244.11 L119.60,243.26 L120.16,242.41 L120.73,241.58 L121.29,240.75 L121.86,239.94 L122.42,239.13 L122.98,238.32 L123.55,237.53 L124.11,236.74 L124.68,235.96 L125.24,235.19 L125.81,234.42 L126.37,233.67 L126.93,232.91 L127.50,232.17 L128.06,231.43 L128.63,230.70 L129.19,229.97 L129.75,229.25 L130.32,228.54 L130.88,227.83 L131.45,227.13 L132.01,226.44 L132.58,225.75 L133.14,225.07 L133.70,224.39 L134.27,223.72 L134.83,223.05 L135.40,222.39 L135.96,221.73 L136.52,221.08 L137.09,220.43 L137.65,219.79 L138.22,219.15 L138.78,218.52 L139.34,217.89 L139.91,217.27 L140.47,216.65 L141.04,216.04 L141.60,215.43 L142.17,214.83 L142.73,214.23 L143.29,213.63 L143.86,213.04 L144.42,212.45 L144.99,211.87 L145.55,211.29 L146.11,210.72 L146.68,210.14 L147.24,209.58 L147.81,209.01 L148.37,208.45 L148.94,207.90 L149.50,207.35 L150.06,206.80 L150.63,206.25 L151.19,205.71 L151.76,205.17 L152.32,204.64 L152.88,204.11 L153.45,203.58 L154.01,203.06 L154.58,202.53 L155.14,202.02 L155.71,201.50 L156.27,200.99 L156.83,200.48 L157.40,199.98 L157.96,199.47 L158.53,198.98 L159.09,198.48 L159.65,197.99 L160.22,197.49 L160.78,197.01 L161.35,196.52 L161.91,196.04 L162.47,195.56 L163.04,195.09 L163.60,194.61 L164.17,194.14 L164.73,193.67 L165.30,193.21 L165.86,192.74 L166.42,192.28 L166.99,191.82 L167.55,191.37 L168.12,190.92 L168.68,190.47 L169.24,190.02 L169.81,189.57 L170.37,189.13 L170.94,188.69 L171.50,188.25 L172.07,187.81 L172.63,187.38 L173.19,186.95 L173.76,186.52 L174.32,186.09 L174.89,185.66 L175.45,185.24 L176.01,184.82 L176.58,184.40 L177.14,183.98 L177.71,183.57 L178.27,183.16 L178.84,182.74 L179.40,182.34 L179.96,181.93 L180.53,181.52 L181.09,181.12 L181.66,180.72 L182.22,180.32 L182.78,179.93 L183.35,179.53 L183.91,179.14 L184.48,178.75 L185.04,178.36 L185.61,177.97 L186.17,177.58 L186.73,177.20 L187.30,176.82 L187.86,176.44 L188.43,176.06 L188.99,175.68 L189.55,175.30 L190.12,174.93 L190.68,174.56 L191.25,174.19 L191.81,173.82 L192.37,173.45 L192.94,173.09 L193.50,172.72 L194.07,172.36 L194.63,172.00 L195.20,171.64 L195.76,171.28 L196.32,170.93 L196.89,170.57 L197.45,170.22 L198.02,169.87 L198.58,169.52 L199.14,169.17 L199.71,168.82 L200.27,168.47 L200.84,168.13 L201.40,167.79 L201.97,167.44 L202.53,167.10 L203.09,166.77 L203.66,166.43 L204.22,166.09 L204.79,165.76 L205.35,165.42 L205.91,165.09 L206.48,164.76 L207.04,164.43 L207.61,164.10 L208.17,163.78 L208.74,163.45 L209.30,163.13 L209.86,162.80 L210.43,162.48 L210.99,162.16 L211.56,161.84 L212.12,161.52 L212.68,161.21 L213.25,160.89 L213.81,160.58 L214.38,160.26 L214.94,159.95 L215.51,159.64 L216.07,159.33 L216.63,159.02 L217.20,158.71 L217.76,158.41 L218.33,158.10 L218.89,157.80 L219.45,157.50 L220.02,157.19 L220.58,156.89 L221.15,156.59 L221.71,156.29 L222.27,156.00 L222.84,155.70 L223.40,155.40 L223.97,155.11 L224.53,154.82 L225.10,154.52 L225.66,154.23 L226.22,153.94 L226.79,153.65 L227.35,153.36 L227.92,153.08 L228.48,152.79 L229.04,152.50 L229.61,152.22 L230.17,151.94 L230.74,151.65 L231.30,151.37 L231.87,151.09 L232.43,150.81 L232.99,150.53 L233.56,150.26 L234.12,149.98 L234.69,149.70 L235.25,149.43 L235.81,149.15 L236.38,148.88 L236.94,148.61 L237.51,148.34 L238.07,148.07 L238.64,147.80 L239.20,147.53 L239.76,147.26 L240.33,146.99 L240.89,146.73 L241.46,146.46 L242.02,146.20 L242.58,145.93 L243.15,145.67 L243.71,145.41 L244.28,145.15 L244.84,144.89 L245.40,144.63 L245.97,144.37 L246.53,144.11 L247.10,143.85 L247.66,143.60 L248.23,143.34 L248.79,143.09 L249.35,142.83 L249.92,142.58 L250.48,142.33 L251.05,142.07 L251.61,141.82 L252.17,141.57 L252.74,141.32 L253.30,141.07 L253.87,140.83 L254.43,140.58 L255.00,140.33 L255.56,140.09 L256.12,139.84 L256.69,139.60 L257.25,139.35 L257.82,139.11 L258.38,138.87 L258.94,138.63 L259.51,138.39 L260.07,138.15 L260.64,137.91 L261.20,137.67 L261.77,137.43 L262.33,137.19 L262.89,136.96 L263.46,136.72 L264.02,136.48 L264.59,136.25 L265.15,136.01 L265.71,135.78 L266.28,135.55 L266.84,135.32 L267.41,135.09 L267.97,134.85 L268.54,134.62 L269.10,134.39 L269.66,134.17 L270.23,133.94 L270.79,133.71 L271.36,133.48 L271.92,133.26 L272.48,133.03 L273.05,132.81 L273.61,132.58 L274.18,132.36 L274.74,132.13 L275.30,131.91 L275.87,131.69 L276.43,131.47 L277.00,131.25 L277.56,131.02 L278.13,130.80 L278.69,130.59 L279.25,130.37 L279.82,130.15 L280.38,129.93 L280.95,129.71 L281.51,129.50 L282.07,129.28 L282.64,129.07 L283.20,128.85 L283.77,128.64 L284.33,128.42 L284.90,128.21 L285.46,128.00 L286.02,127.79 L286.59,127.57 L287.15,127.36 L287.72,127.15 L288.28,126.94 L288.84,126.73 L289.41,126.53 L289.97,126.32 L290.54,126.11 L291.10,125.90 L291.67,125.70 L292.23,125.49 L292.79,125.28 L293.36,125.08 L293.92,124.87 L294.49,124.67 L295.05,124.47 L295.61,124.26 L296.18,124.06 L296.74,123.86 L297.31,123.66 L297.87,123.45 L298.43,123.25 L299.00,123.05 L299.56,122.85 L300.13,122.65 L300.69,122.45 L301.26,122.26 L301.82,122.06 L302.38,121.86 L302.95,121.66 L303.51,121.47 L304.08,121.27 L304.64,121.08 L305.20,120.88 L305.77,120.69 L306.33,120.49 L306.90,120.30 L307.46,120.10 L308.03,119.91 L308.59,119.72 L309.15,119.53 L309.72,119.34 L310.28,119.14 L310.85,118.95 L311.41,118.76 L311.97,118.57 L312.54,118.38 L313.10,118.20 L313.67,118.01 L314.23,117.82 L314.80,117.63 L315.36,117.44 L315.92,117.26 L316.49,117.07 L317.05,116.88 L317.62,116.70 L318.18,116.51 L318.74,116.33 L319.31,116.14 L319.87,115.96 L320.44,115.78 L321.00,115.59 L321.57,115.41 L322.13,115.23 L322.69,115.05 L323.26,114.87 L323.82,114.68 L324.39,114.50 L324.95,114.32 L325.51,114.14 L326.08,113.96 L326.64,113.78 L327.21,113.61 L327.77,113.43 L328.33,113.25 L328.90,113.07 L329.46,112.89 L330.03,112.72 L330.59,112.54 L331.16,112.36 L331.72,112.19 L332.28,112.01 L332.85,111.84 L333.41,111.66 L333.98,111.49 L334.54,111.32 L335.10,111.14 L335.67,110.97 L336.23,110.80 L336.80,110.62 L337.36,110.45 L337.93,110.28 L338.49,110.11 L339.05,109.94 L339.62,109.77 L340.18,109.60 L340.75,109.43 L341.31,109.26 L341.87,109.09 L342.44,108.92 L343.00,108.75 L343.57,108.58 L344.13,108.41 L344.70,108.25 L345.26,108.08 L345.82,107.91 L346.39,107.74 L346.95,107.58 L347.52,107.41 L348.08,107.25 L348.64,107.08 L349.21,106.92 L349.77,106.75 L350.34,106.59 L350.90,106.42 L351.46,106.26 L352.03,106.10 L352.59,105.93 L353.16,105.77 L353.72,105.61 L354.29,105.45 L354.85,105.28 L355.41,105.12 L355.98,104.96 L356.54,104.80 L357.11,104.64 L357.67,104.48 L358.23,104.32 L358.80,104.16 L359.36,104.00 L359.93,103.84 L360.49,103.68 L361.06,103.52 L361.62,103.37 L362.18,103.21 L362.75,103.05 L363.31,102.89 L363.88,102.74 L364.44,102.58 L365.00,102.42 L365.57,102.27 L366.13,102.11 L366.70,101.96 L367.26,101.80 L367.83,101.65 L368.39,101.49 L368.95,101.34 L369.52,101.18 L370.08,101.03 L370.65,100.88 L371.21,100.72 L371.77,100.57 L372.34,100.42 L372.90,100.27 L373.47,100.11 L374.03,99.96 L374.60,99.81 L375.16,99.66 L375.72,99.51 L376.29,99.36 L376.85,99.21 L377.42,99.06 L377.98,98.91 L378.54,98.76 L379.11,98.61 L379.67,98.46 L380.24,98.31 L380.80,98.16 L381.36,98.01 L381.93,97.87 L382.49,97.72 L383.06,97.57 L383.62,97.42 L384.19,97.28 L384.75,97.13 L385.31,96.98 L385.88,96.84 L386.44,96.69 L387.01,96.55 L387.57,96.40 L388.13,96.26 L388.70,96.11 L389.26,95.97 L389.83,95.82 L390.39,95.68 L390.96,95.53 L391.52,95.39 L392.08,95.25 L392.65,95.10 L393.21,94.96 L393.78,94.82 L394.34,94.67 L394.90,94.53 L395.47,94.39 L396.03,94.25 L396.60,94.11 L397.16,93.97 L397.73,93.83 L398.29,93.68 L398.85,93.54 L399.42,93.40 L399.98,93.26 L400.55,93.12 L401.11,92.98 L401.67,92.85 L402.24,92.71 L402.80,92.57 L403.37,92.43 L403.93,92.29 L404.49,92.15 L405.06,92.01 L405.62,91.88 L406.19,91.74 L406.75,91.60 L407.32,91.46 L407.88,91.33 L408.44,91.19 L409.01,91.05 L409.57,90.92 L410.14,90.78 L410.70,90.65 L411.26,90.51 L411.83,90.38 L412.39,90.24 L412.96,90.11 L413.52,89.97 L414.09,89.84 L414.65,89.70 L415.21,89.57 L415.78,89.44 L416.34,89.30 L416.91,89.17 L417.47,89.04 L418.03,88.90 L418.60,88.77 L419.16,88.64 L419.73,88.51 L420.29,88.37 L420.86,88.24 L421.42,88.11 L421.98,87.98 L422.55,87.85 L423.11,87.72 L423.68,87.59 L424.24,87.46 L424.80,87.32 L425.37,87.19 L425.93,87.06 L426.50,86.93 L427.06,86.81 L427.63,86.68 L428.19,86.55 L428.75,86.42 L429.32,86.29 L429.88,86.16 L430.45,86.03 L431.01,85.90 L431.57,85.78 L432.14,85.65 L432.70,85.52 L433.27,85.39 L433.83,85.27 L434.39,85.14 L434.96,85.01 L435.52,84.89 L436.09,84.76 L436.65,84.63 L437.22,84.51 L437.78,84.38 L438.34,84.26 L438.91,84.13 L439.47,84.00 L440.04,83.88 L440.60,83.75 L441.16,83.63 L441.73,83.51 L442.29,83.38 L442.86,83.26 L443.42,83.13 L443.99,83.01 L444.55,82.89 L445.11,82.76 L445.68,82.64 L446.24,82.52 L446.81,82.39 L447.37,82.27 L447.93,82.15 L448.50,82.02 L449.06,81.90 L449.63,81.78 L450.19,81.66 L450.76,81.54 L451.32,81.42 L451.88,81.29 L452.45,81.17 L453.01,81.05 L453.58,80.93 L454.14,80.81 L454.70,80.69 L455.27,80.57 L455.83,80.45 L456.40,80.33 L456.96,80.21 L457.53,80.09 L458.09,79.97 L458.65,79.85 L459.22,79.73 L459.78,79.62 L460.35,79.50 L460.91,79.38 L461.47,79.26 L462.04,79.14 L462.60,79.02 L463.17,78.91 L463.73,78.79 L464.29,78.67 L464.86,78.55 L465.42,78.44 L465.99,78.32 L466.55,78.20 L467.12,78.09 L467.68,77.97 L468.24,77.85 L468.81,77.74 L469.37,77.62 L469.94,77.50 L470.50,77.39 L471.06,77.27 L471.63,77.16 L472.19,77.04 L472.76,76.93 L473.32,76.81 L473.89,76.70 L474.45,76.58 L475.01,76.47 L475.58,76.35 L476.14,76.24 L476.71,76.13 L477.27,76.01 L477.83,75.90 L478.40,75.79 L478.96,75.67 L479.53,75.56 L480.09,75.45 L480.66,75.33 L481.22,75.22 L481.78,75.11 L482.35,75.00 L482.91,74.88 L483.48,74.77 L484.04,74.66 L484.60,74.55 L485.17,74.44 L485.73,74.32 L486.30,74.21 L486.86,74.10 L487.42,73.99 L487.99,73.88 L488.55,73.77 L489.12,73.66 L489.68,73.55 L490.25,73.44 L490.81,73.33 L491.37,73.22 L491.94,73.11 L492.50,73.00 L493.07,72.89 L493.63,72.78 L494.19,72.67 L494.76,72.56 L495.32,72.45 L495.89,72.34 L496.45,72.23 L497.02,72.12 L497.58,72.02 L498.14,71.91 L498.71,71.80 L499.27,71.69 L499.84,71.58 L500.40,71.48 L500.96,71.37 L501.53,71.26 L502.09,71.15 L502.66,71.05 L503.22,70.94 L503.79,70.83 L504.35,70.72 L504.91,70.62 L505.48,70.51 L506.04,70.40 L506.61,70.30 L507.17,70.19 L507.73,70.09 L508.30,69.98 L508.86,69.87 L509.43,69.77 L509.99,69.66 L510.56,69.56 L511.12,69.45 L511.68,69.35 L512.25,69.24 L512.81,69.14 L513.38,69.03 L513.94,68.93 L514.50,68.83 L515.07,68.72 L515.63,68.62 L516.20,68.51 L516.76,68.41 L517.32,68.30 L517.89,68.20 L518.45,68.10 L519.02,67.99 L519.58,67.89 L520.15,67.79 L520.71,67.69 L521.27,67.58 L521.84,67.48 L522.40,67.38 L522.97,67.27 L523.53,67.17 L524.09,67.07 L524.66,66.97 L525.22,66.87 L525.79,66.76 L526.35,66.66 L526.92,66.56 L527.48,66.46 L528.04,66.36 L528.61,66.26 L529.17,66.16 L529.74,66.05 L530.30,65.95 L530.86,65.85 L531.43,65.75 L531.99,65.65 L532.56,65.55 L533.12,65.45 L533.69,65.35 L534.25,65.25 L534.81,65.15 L535.38,65.05 L535.94,64.95 L536.51,64.85 L537.07,64.75 L537.63,64.65 L538.20,64.55 L538.76,64.46 L539.33,64.36 L539.89,64.26 L540.45,64.16 L541.02,64.06 L541.58,63.96 L542.15,63.86 L542.71,63.77 L543.28,63.67 L543.84,63.57 L544.40,63.47 L544.97,63.37 L545.53,63.28 L546.10,63.18 L546.66,63.08 L547.22,62.98 L547.79,62.89 L548.35,62.79 L548.92,62.69 L549.48,62.60 L550.05,62.50 L550.61,62.40 L551.17,62.31 L551.74,62.21 L552.30,62.11 L552.87,62.02 L553.43,61.92 L553.99,61.82 L554.56,61.73 L555.12,61.63 L555.69,61.54 L556.25,61.44 L556.82,61.35 L557.38,61.25 L557.94,61.16 L558.51,61.06 L559.07,60.97 L559.64,60.87 L560.20,60.78 L560.76,60.68 L561.33,60.59 L561.89,60.49 L562.46,60.40 L563.02,60.30 L563.59,60.21 L564.15,60.12 L564.71,60.02 L565.28,59.93 L565.84,59.83 L566.41,59.74 L566.97,59.65 L567.53,59.55 L568.10,59.46 L568.66,59.37 L569.23,59.27 L569.79,59.18 L570.35,59.09 L570.92,59.00 L571.48,58.90 L572.05,58.81 L572.61,58.72 L573.18,58.63 L573.74,58.53 L574.30,58.44 L574.87,58.35 L575.43,58.26 L576.00,58.16 L576.56,58.07 L577.12,57.98 L577.69,57.89 L578.25,57.80 L578.82,57.71 L579.38,57.62 L579.95,57.52 L580.51,57.43 L581.07,57.34 L581.64,57.25 L582.20,57.16 L582.77,57.07 L583.33,56.98 L583.89,56.89 L584.46,56.80 L585.02,56.71 L585.59,56.62 L586.15,56.53 L586.72,56.44 L587.28,56.35 L587.84,56.26 L588.41,56.17 L588.97,56.08 L589.54,55.99 L590.10,55.90 L590.66,55.81 L591.23,55.72 L591.79,55.63 L592.36,55.54 L592.92,55.46 L593.48,55.37 L594.05,55.28 L594.61,55.19 L595.18,55.10 L595.74,55.01 L596.31,54.92 L596.87,54.84 L597.43,54.75 L598.00,54.66 L598.56,54.57 L599.13,54.48 L599.69,54.40 L600.25,54.31 L600.82,54.22 L601.38,54.13 L601.95,54.05 L602.51,53.96 L603.08,53.87 L603.64,53.78 L604.20,53.70 L604.77,53.61 L605.33,53.52 L605.90,53.44 L606.46,53.35 L607.02,53.26 L607.59,53.18 L608.15,53.09 L608.72,53.00 L609.28,52.92 L609.85,52.83 L610.41,52.75 L610.97,52.66 L611.54,52.57 L612.10,52.49 L612.67,52.40 L613.23,52.32 L613.79,52.23 L614.36,52.15 L614.92,52.06 L615.49,51.97 L616.05,51.89 L616.62,51.80 L617.18,51.72 L617.74,51.63 L618.31,51.55 L618.87,51.46 L619.44,51.38 L620.00,51.30" style="stroke-width: 2; stroke: rgb(74, 144, 226); stroke-opacity: 0.8;"/><g><circle cx="147.4189453125" cy="209.4013671875" r="4" style="stroke-width: 3; stroke: rgb(60, 180, 75); stroke-opacity: 0.8; fill: rgb(60, 180, 75); fill-opacity: 0.15;"/><circle cx="230.712890625" cy="142.76621093749998" r="4" style="stroke-width: 3; stroke: rgb(60, 180, 75); stroke-opacity: 0.8; fill: rgb(60, 180, 75); fill-opacity: 0.15;"/><circle cx="314.0068359375" cy="126.107421875" r="4" style="stroke-width: 3; stroke: rgb(60, 180, 75); stroke-opacity: 0.8; fill: rgb(60, 180, 75); fill-opacity: 0.15;"/><circle cx="355.65380859374994" cy="92.78984375000002" r="4" style="stroke-width: 3; stroke: rgb(60, 180, 75); stroke-opacity: 0.8; fill: rgb(60, 180, 75); fill-opacity: 0.15;"/><circle cx="397.30078124999994" cy="101.11923828125" r="4" style="stroke-width: 3; stroke: rgb(60, 180, 75); stroke-opacity: 0.8; fill: rgb(60, 180, 75); fill-opacity: 0.15;"/></g></g></g><g class="test-xtl" style="font-family: &quot;Open Sans&quot;, verdana, arial, sans-serif;"><text text-anchor="middle" font-size="11" dominant-baseline="hanging" stroke="none" fill="rgb(50,50,50)" fill-opacity="1" x="147.41894531249997" y="216.4013671875">1</text><text text-anchor="middle" font-size="11" dominant-baseline="hanging" stroke="none" fill="rgb(50,50,50)" fill-opacity="1" x="230.71289062499997" y="216.4013671875">2</text><text text-anchor="middle" font-size="11" dominant-baseline="hanging" stroke="none" fill="rgb(50,50,50)" fill-opacity="1" x="314.00683593749994" y="216.4013671875">3</text><text text-anchor="middle" font-size="11" dominant-baseline="hanging" stroke="none" fill="rgb(50,50,50)" fill-opacity="1" x="397.3007812499999" y="216.4013671875">4</text><text text-anchor="middle" font-size="11" dominant-baseline="hanging" stroke="none" fill="rgb(50,50,50)" fill-opacity="1" x="480.59472656249994" y="216.4013671875">5</text><text text-anchor="middle" font-size="11" dominant-baseline="hanging" stroke="none" fill="rgb(50,50,50)" fill-opacity="1" x="563.8886718749999" y="216.4013671875">6</text><text text-anchor="middle" font-size="11" dominant-baseline="hanging" stroke="none" fill="rgb(50,50,50)" fill-opacity="1" x="56.124999999999986" y="214.4013671875">0</text></g><g class="test-ytl" style="font-family: &quot;Open Sans&quot;, verdana, arial, sans-serif;"><text text-anchor="end" dominant-baseline="middle" font-size="11" stroke="none" fill="rgb(50,50,50)" fill-opacity="1" x="56.125" y="126.107421875">1</text><text text-anchor="end" dominant-baseline="middle" font-size="11" stroke="none" fill="rgb(50,50,50)" fill-opacity="1" x="56.125" y="42.8134765625">2</text></g><rect class="real" x="1" y="1" width="618" height="268" style="fill: transparent; stroke: none;"/></g></g></g><g/></g><g/><g><g><rect rx="0" ry="0" x="506" y="94" width="72" height="24" style="stroke: rgb(0, 0, 0); stroke-width: 1; fill: rgb(255, 255, 255); fill-opacity: 1;"/></g></g><g/></svg>
        <svg xmlns="http://www.w3.org/2000/svg" xmlns:xlink="http://www.w3.org/1999/xlink" width="660" height="310" style="width:660px;height:310px;font-family:Asana-Math, Asana;background:#FFF;"><g><g><g><g transform="matrix(1,0,0,1,509.9937744140625,113)"><path transform="matrix(0.017,0,0,-0.017,0,0)" d="M-7 -180C-8 -187 -8 -193 -8 -198C-8 -241 29 -276 74 -276C180 -276 290 -152 349 33L490 473L479 482C450 471 427 465 405 463L370 331C358 284 323 211 290 162C255 111 206 67 184 67C172 67 163 90 164 115L180 322C182 353 184 391 184 419C184 464 177 482 160 482C147 482 133 475 85 442L3 386L14 368L64 398C69 401 80 410 89 410C103 410 111 391 111 358C111 357 111 351 110 343L93 100L92 60C92 18 110 -11 135 -11C172 -11 256 74 331 187L282 16C231 -161 181 -234 111 -234C76 -234 49 -207 49 -172C49 -167 50 -159 51 -150L41 -146Z" stroke="rgb(0,0,0)" stroke-opacity="1" stroke-width="8" fill="rgb(0,0,0)" fill-opacity="1"></path></g></g><g><g transform="matrix(1,0,0,1,523.5812377929688,113)"><path transform="matrix(0.017,0,0,-0.017,0,0)" d="M604 347L604 406L65 406L65 347ZM604 134L604 193L65 193L65 134Z" stroke="rgb(0,0,0)" stroke-opacity="1" stroke-width="8" fill="rgb(0,0,0)" fill-opacity="1"></path></g></g><g><g transform="matrix(1,0,0,1,540.0437622070312,113)"><path transform="matrix(0.017,0,0,-0.017,0,0)" d="M251 722L239 733C187 707 151 698 79 691L75 670L123 670C147 670 157 663 157 648C157 645 157 640 154 622C143 567 70 182 55 132C42 82 36 52 36 31C36 6 47 -9 66 -9C92 -9 128 12 226 85L216 103L190 86C161 67 139 56 129 56C122 56 116 66 116 76C116 82 117 89 120 104ZM301 388L308 368L340 389C377 412 380 414 387 414C398 414 405 404 405 389C405 338 364 145 323 2L330 -9C355 -2 378 4 400 8C419 134 440 199 486 268C540 352 615 414 660 414C671 414 677 405 677 390C677 372 674 351 666 319L614 107C605 70 601 47 601 31C601 6 612 -9 631 -9C657 -9 693 12 791 85L781 103L755 86C726 67 704 56 694 56C687 56 681 65 681 76C681 81 682 92 683 96L749 372C756 401 760 429 760 446C760 469 749 482 729 482C687 482 618 444 559 389C521 354 493 320 441 247L479 408C483 426 485 438 485 449C485 470 477 482 462 482C441 482 402 460 329 408Z" stroke="rgb(0,0,0)" stroke-opacity="1" stroke-width="8" fill="rgb(0,0,0)" fill-opacity="1"></path></g></g><g><g transform="matrix(1,0,0,1,554.1937866210938,113)"><path transform="matrix(0.017,0,0,-0.017,0,0)" d="M146 266C146 526 243 632 301 700L282 726C225 675 60 542 60 266C60 159 85 58 133 -32C168 -99 200 -138 282 -215L301 -194C255 -137 146 -15 146 266Z" stroke="rgb(0,0,0)" stroke-opacity="1" stroke-width="8" fill="rgb(0,0,0)" fill-opacity="1"></path></g></g><g><g transform="matrix(1,0,0,1,559.84375,113)"><path transform="matrix(0.017,0,0,-0.017,0,0)" d="M9 1C24 -7 40 -11 52 -11C85 -11 124 18 155 65L231 182L242 113C255 28 278 -11 314 -11C336 -11 368 6 400 35L449 79L440 98C404 68 379 53 363 53C348 53 335 63 325 83C316 102 305 139 300 168L282 269L317 318C364 383 391 406 422 406C438 406 450 398 455 383L469 387L484 472C472 479 463 482 454 482C414 482 374 446 312 354L275 299L269 347C257 446 230 482 171 482C145 482 123 474 114 461L56 378L73 368C103 402 123 416 142 416C175 416 197 375 214 277L225 215L185 153C142 86 108 54 80 54C65 54 54 58 52 63L41 91L21 88C21 53 13 27 9 1Z" stroke="rgb(0,0,0)" stroke-opacity="1" stroke-width="8" fill="rgb(0,0,0)" fill-opacity="1"></path></g></g><g><g transform="matrix(1,0,0,1,568.3312377929688,113)"><path transform="matrix(0.017,0,0,-0.017,0,0)" d="M51 726L32 700C87 636 187 526 187 266C187 -10 83 -131 32 -194L51 -215C104 -165 273 -23 273 265C273 542 108 675 51 726Z" stroke="rgb(0,0,0)" stroke-opacity="1" stroke-width="8" fill="rgb(0,0,0)" fill-opacity="1"></path></g></g></g></g></svg>
</svg>
